<svg width="640" height="480" viewBox="0 0 640 480" fill="none" xmlns="http://www.w3.org/2000/svg">
  <g clip-path="url(#clip0_3_1186)">
    <path d="M0 0H640V480H0V0Z" fill="#74ACDF"/>
    <path d="M0 160H640V320H0V160Z" fill="white"/>
    <path d="M316.928 241.248L344.288 300.768C344.288 300.768 344.768 301.92 345.536 301.632C346.304 301.248 345.824 300.096 345.824 300.096L323.072 238.656M322.4 261.888C322.016 270.912 327.584 275.904 326.912 283.968C326.144 292.128 330.56 296.64 331.712 299.808C332.672 302.976 330.56 304.8 331.424 305.28C332.384 305.76 334.304 303.264 333.728 298.752C333.056 294.336 329.696 292.992 330.464 283.104C331.232 273.216 326.432 270.912 327.584 261.984" fill="#F6B40E"/>
    <path d="M316.928 241.248L344.288 300.768C344.288 300.768 344.768 301.92 345.536 301.632C346.304 301.248 345.824 300.096 345.824 300.096L323.072 238.656M322.4 261.888C322.016 270.912 327.584 275.904 326.912 283.968C326.144 292.128 330.56 296.64 331.712 299.808C332.672 302.976 330.56 304.8 331.424 305.28C332.384 305.76 334.304 303.264 333.728 298.752C333.056 294.336 329.696 292.992 330.464 283.104C331.232 273.216 326.432 270.912 327.584 261.984" stroke="#85340A" stroke-width="1.056"/>
    <path d="M316.684 239.977L319.184 305.437C319.184 305.437 319.187 306.685 320.007 306.713C320.863 306.652 320.861 305.404 320.861 305.404L323.353 239.934M313.841 261.14C310.033 269.33 313.267 276.073 309.56 283.266C305.728 290.511 308.081 296.37 307.933 299.737C307.608 303.032 304.958 303.908 305.573 304.683C306.276 305.493 309.005 303.922 310.2 299.533C311.269 295.196 308.679 292.669 313.172 283.827C317.666 274.986 314.113 271.02 318.594 263.213" fill="#F6B40E"/>
    <path d="M316.684 239.977L319.184 305.437C319.184 305.437 319.187 306.685 320.007 306.713C320.863 306.652 320.861 305.404 320.861 305.404L323.353 239.934M313.841 261.14C310.033 269.33 313.267 276.073 309.56 283.266C305.728 290.511 308.081 296.37 307.933 299.737C307.608 303.032 304.958 303.908 305.573 304.683C306.276 305.493 309.005 303.922 310.2 299.533C311.269 295.196 308.679 292.669 313.172 283.827C317.666 274.986 314.113 271.02 318.594 263.213" stroke="#85340A" stroke-width="1.056"/>
    <path d="M316.945 238.71L294.205 300.144C294.205 300.144 293.73 301.298 294.476 301.637C295.291 301.909 295.766 300.755 295.766 300.755L323.123 241.222M306.22 257.174C299.567 263.284 299.975 270.751 293.797 275.977C287.484 281.204 287.417 287.517 285.991 290.572C284.43 293.491 281.647 293.287 281.918 294.238C282.257 295.256 285.38 294.849 288.163 291.251C290.811 287.653 289.385 284.327 296.92 277.878C304.455 271.429 302.69 266.406 309.818 260.908" fill="#F6B40E"/>
    <path d="M316.945 238.71L294.205 300.144C294.205 300.144 293.73 301.298 294.476 301.637C295.291 301.909 295.766 300.755 295.766 300.755L323.123 241.222M306.22 257.174C299.567 263.284 299.975 270.751 293.797 275.977C287.484 281.204 287.417 287.517 285.991 290.572C284.43 293.491 281.647 293.287 281.918 294.238C282.257 295.256 285.38 294.849 288.163 291.251C290.811 287.653 289.385 284.327 296.92 277.878C304.455 271.429 302.69 266.406 309.818 260.908" stroke="#85340A" stroke-width="1.056"/>
    <path d="M317.671 237.639L273.152 285.694C273.152 285.694 272.272 286.578 272.832 287.178C273.48 287.74 274.361 286.856 274.361 286.856L322.417 242.324M300.697 250.593C292.213 253.692 289.731 260.747 282.024 263.212C274.191 265.625 271.713 271.431 269.227 273.708C266.667 275.807 264.174 274.554 264.061 275.536C263.985 276.607 267.026 277.425 270.974 275.166C274.796 272.856 274.752 269.237 284.182 266.163C293.611 263.088 293.903 257.772 302.592 255.42" fill="#F6B40E"/>
    <path d="M317.671 237.639L273.152 285.694C273.152 285.694 272.272 286.578 272.832 287.178C273.48 287.74 274.361 286.856 274.361 286.856L322.417 242.324M300.697 250.593C292.213 253.692 289.731 260.747 282.024 263.212C274.191 265.625 271.713 271.431 269.227 273.708C266.667 275.807 264.174 274.554 264.061 275.536C263.985 276.607 267.026 277.425 270.974 275.166C274.796 272.856 274.752 269.237 284.182 266.163C293.611 263.088 293.903 257.772 302.592 255.42" stroke="#85340A" stroke-width="1.056"/>
    <path d="M324.128 263.424C324.608 272.064 329.504 275.904 328.544 283.872C330.656 277.632 325.568 272.736 325.856 263.52M318.464 240.672L337.184 281.568L321.536 239.424" fill="#85340A"/>
    <path d="M314.85 263.221C311.987 271.387 315.041 276.808 311.105 283.802C315.444 278.845 312.617 272.375 316.41 263.971M318.324 240.033L319.969 284.98L321.64 240.056" fill="#85340A"/>
    <path d="M306.356 259.482C300.586 265.931 301.332 272.108 295.019 277.064C300.925 274.145 300.789 267.085 307.51 260.772M318.439 239.389L302.758 281.544L321.493 240.679" fill="#85340A"/>
    <path d="M299.939 252.778C292.14 256.528 290.466 262.52 282.737 264.683C289.31 264.246 291.887 257.672 300.511 254.411M318.791 238.838L288.172 271.783L321.12 241.199" fill="#85340A"/>
    <path d="M318.752 236.928L259.232 264.288C259.232 264.288 258.08 264.768 258.368 265.536C258.752 266.304 259.904 265.824 259.904 265.824L321.344 243.072M298.112 242.4C289.088 242.016 284.096 247.584 276.032 246.912C267.872 246.144 263.36 250.56 260.192 251.712C257.024 252.672 255.2 250.56 254.72 251.424C254.24 252.384 256.736 254.304 261.248 253.728C265.664 253.056 267.008 249.696 276.896 250.464C286.784 251.232 289.088 246.432 298.016 247.584" fill="#F6B40E"/>
    <path d="M318.752 236.928L259.232 264.288C259.232 264.288 258.08 264.768 258.368 265.536C258.752 266.304 259.904 265.824 259.904 265.824L321.344 243.072M298.112 242.4C289.088 242.016 284.096 247.584 276.032 246.912C267.872 246.144 263.36 250.56 260.192 251.712C257.024 252.672 255.2 250.56 254.72 251.424C254.24 252.384 256.736 254.304 261.248 253.728C265.664 253.056 267.008 249.696 276.896 250.464C286.784 251.232 289.088 246.432 298.016 247.584" stroke="#85340A" stroke-width="1.056"/>
    <path d="M320.023 236.684L254.563 239.184C254.563 239.184 253.315 239.187 253.287 240.007C253.348 240.863 254.596 240.861 254.596 240.861L320.066 243.352M298.86 233.841C290.67 230.033 283.927 233.267 276.734 229.56C269.489 225.728 263.63 228.081 260.263 227.933C256.968 227.608 256.091 224.958 255.317 225.573C254.507 226.276 256.078 229.005 260.467 230.2C264.804 231.269 267.331 228.679 276.173 233.172C285.014 237.666 288.98 234.113 296.787 238.594" fill="#F6B40E"/>
    <path d="M320.023 236.684L254.563 239.184C254.563 239.184 253.315 239.187 253.287 240.007C253.348 240.863 254.596 240.861 254.596 240.861L320.066 243.352M298.86 233.841C290.67 230.033 283.927 233.267 276.734 229.56C269.489 225.728 263.63 228.081 260.263 227.933C256.968 227.608 256.091 224.958 255.317 225.573C254.507 226.276 256.078 229.005 260.467 230.2C264.804 231.269 267.331 228.679 276.173 233.172C285.014 237.666 288.98 234.113 296.787 238.594" stroke="#85340A" stroke-width="1.056"/>
    <path d="M321.29 236.945L259.856 214.205C259.856 214.205 258.702 213.73 258.363 214.476C258.091 215.291 259.245 215.766 259.245 215.766L318.778 243.123M302.826 226.22C296.716 219.568 289.249 219.975 284.022 213.798C278.795 207.485 272.482 207.417 269.428 205.991C266.509 204.43 266.712 201.647 265.762 201.918C264.744 202.258 265.151 205.38 268.749 208.163C272.347 210.811 275.673 209.385 282.122 216.92C288.57 224.455 293.594 222.69 299.092 229.818" fill="#F6B40E"/>
    <path d="M321.29 236.945L259.856 214.205C259.856 214.205 258.702 213.73 258.363 214.476C258.091 215.291 259.245 215.766 259.245 215.766L318.778 243.123M302.826 226.22C296.716 219.568 289.249 219.975 284.022 213.798C278.795 207.485 272.482 207.417 269.428 205.991C266.509 204.43 266.712 201.647 265.762 201.918C264.744 202.258 265.151 205.38 268.749 208.163C272.347 210.811 275.673 209.385 282.122 216.92C288.57 224.455 293.594 222.69 299.092 229.818" stroke="#85340A" stroke-width="1.056"/>
    <path d="M322.361 237.671L274.306 193.152C274.306 193.152 273.422 192.272 272.822 192.832C272.26 193.48 273.144 194.361 273.144 194.361L317.676 242.417M309.407 220.697C306.308 212.213 299.253 209.731 296.788 202.024C294.375 194.191 288.569 191.713 286.292 189.227C284.193 186.667 285.446 184.174 284.464 184.061C283.393 183.985 282.575 187.026 284.834 190.974C287.144 194.796 290.763 194.752 293.837 204.182C296.912 213.611 302.228 213.903 304.58 222.592" fill="#F6B40E"/>
    <path d="M322.361 237.671L274.306 193.152C274.306 193.152 273.422 192.272 272.822 192.832C272.26 193.48 273.144 194.361 273.144 194.361L317.676 242.417M309.407 220.697C306.308 212.213 299.253 209.731 296.788 202.024C294.375 194.191 288.569 191.713 286.292 189.227C284.193 186.667 285.446 184.174 284.464 184.061C283.393 183.985 282.575 187.026 284.834 190.974C287.144 194.796 290.763 194.752 293.837 204.182C296.912 213.611 302.228 213.903 304.58 222.592" stroke="#85340A" stroke-width="1.056"/>
    <path d="M296.576 244.128C287.936 244.608 284.096 249.504 276.128 248.544C282.368 250.656 287.264 245.568 296.48 245.856M319.328 238.464L278.432 257.184L320.576 241.536" fill="#85340A"/>
    <path d="M296.779 234.85C288.613 231.987 283.192 235.041 276.198 231.105C281.155 235.444 287.625 232.617 296.029 236.41M319.967 238.324L275.02 239.969L319.944 241.64" fill="#85340A"/>
    <path d="M300.518 226.356C294.069 220.586 287.892 221.332 282.936 215.019C285.855 220.925 292.915 220.789 299.228 227.51M320.611 238.439L278.456 222.758L319.321 241.494" fill="#85340A"/>
    <path d="M307.222 219.939C303.472 212.14 297.48 210.466 295.317 202.737C295.754 209.311 302.328 211.887 305.589 220.511M321.162 238.791L288.217 208.172L318.801 241.12" fill="#85340A"/>
    <path d="M323.072 238.752L295.712 179.232C295.712 179.232 295.232 178.08 294.464 178.368C293.696 178.752 294.176 179.904 294.176 179.904L316.928 241.344M317.6 218.112C317.984 209.088 312.416 204.096 313.088 196.032C313.856 187.872 309.44 183.36 308.288 180.192C307.328 177.024 309.44 175.2 308.576 174.72C307.616 174.24 305.696 176.736 306.272 181.248C306.944 185.664 310.304 187.008 309.536 196.896C308.768 206.784 313.568 209.088 312.416 218.016" fill="#F6B40E"/>
    <path d="M323.072 238.752L295.712 179.232C295.712 179.232 295.232 178.08 294.464 178.368C293.696 178.752 294.176 179.904 294.176 179.904L316.928 241.344M317.6 218.112C317.984 209.088 312.416 204.096 313.088 196.032C313.856 187.872 309.44 183.36 308.288 180.192C307.328 177.024 309.44 175.2 308.576 174.72C307.616 174.24 305.696 176.736 306.272 181.248C306.944 185.664 310.304 187.008 309.536 196.896C308.768 206.784 313.568 209.088 312.416 218.016" stroke="#85340A" stroke-width="1.056"/>
    <path d="M323.316 240.023L320.816 174.563C320.816 174.563 320.813 173.315 319.993 173.287C319.137 173.348 319.139 174.596 319.139 174.596L316.647 240.066M326.159 218.86C329.967 210.67 326.733 203.927 330.44 196.734C334.272 189.489 331.919 183.63 332.067 180.263C332.392 176.968 335.042 176.092 334.427 175.317C333.724 174.507 330.995 176.078 329.8 180.467C328.731 184.804 331.321 187.331 326.828 196.173C322.334 205.014 325.887 208.98 321.406 216.787" fill="#F6B40E"/>
    <path d="M323.316 240.023L320.816 174.563C320.816 174.563 320.813 173.315 319.993 173.287C319.137 173.348 319.139 174.596 319.139 174.596L316.647 240.066M326.159 218.86C329.967 210.67 326.733 203.927 330.44 196.734C334.272 189.489 331.919 183.63 332.067 180.263C332.392 176.968 335.042 176.092 334.427 175.317C333.724 174.507 330.995 176.078 329.8 180.467C328.731 184.804 331.321 187.331 326.828 196.173C322.334 205.014 325.887 208.98 321.406 216.787" stroke="#85340A" stroke-width="1.056"/>
    <path d="M323.055 241.29L345.795 179.856C345.795 179.856 346.27 178.702 345.524 178.363C344.709 178.091 344.234 179.245 344.234 179.245L316.877 238.778M333.78 222.826C340.433 216.716 340.025 209.249 346.203 204.023C352.516 198.796 352.583 192.483 354.009 189.428C355.57 186.509 358.353 186.713 358.082 185.762C357.743 184.744 354.62 185.151 351.837 188.749C349.189 192.347 350.615 195.673 343.08 202.122C335.545 208.571 337.31 213.594 330.182 219.092" fill="#F6B40E"/>
    <path d="M323.055 241.29L345.795 179.856C345.795 179.856 346.27 178.702 345.524 178.363C344.709 178.091 344.234 179.245 344.234 179.245L316.877 238.778M333.78 222.826C340.433 216.716 340.025 209.249 346.203 204.023C352.516 198.796 352.583 192.483 354.009 189.428C355.57 186.509 358.353 186.713 358.082 185.762C357.743 184.744 354.62 185.151 351.837 188.749C349.189 192.347 350.615 195.673 343.08 202.122C335.545 208.571 337.31 213.594 330.182 219.092" stroke="#85340A" stroke-width="1.056"/>
    <path d="M322.329 242.361L366.848 194.306C366.848 194.306 367.728 193.422 367.168 192.822C366.52 192.26 365.639 193.144 365.639 193.144L317.583 237.676M339.303 229.407C347.787 226.308 350.269 219.253 357.976 216.788C365.809 214.375 368.287 208.569 370.773 206.292C373.333 204.193 375.826 205.446 375.939 204.464C376.015 203.393 372.974 202.575 369.026 204.834C365.204 207.144 365.248 210.763 355.818 213.837C346.389 216.912 346.097 222.228 337.408 224.58" fill="#F6B40E"/>
    <path d="M322.329 242.361L366.848 194.306C366.848 194.306 367.728 193.422 367.168 192.822C366.52 192.26 365.639 193.144 365.639 193.144L317.583 237.676M339.303 229.407C347.787 226.308 350.269 219.253 357.976 216.788C365.809 214.375 368.287 208.569 370.773 206.292C373.333 204.193 375.826 205.446 375.939 204.464C376.015 203.393 372.974 202.575 369.026 204.834C365.204 207.144 365.248 210.763 355.818 213.837C346.389 216.912 346.097 222.228 337.408 224.58" stroke="#85340A" stroke-width="1.056"/>
    <path d="M315.872 216.576C315.392 207.936 310.496 204.096 311.456 196.128C309.344 202.368 314.432 207.264 314.144 216.48M321.536 239.328L302.816 198.432L318.464 240.576" fill="#85340A"/>
    <path d="M325.15 216.779C328.013 208.613 324.959 203.192 328.895 196.198C324.556 201.155 327.383 207.625 323.59 216.029M321.676 239.967L320.031 195.02L318.36 239.944" fill="#85340A"/>
    <path d="M333.644 220.518C339.414 214.069 338.668 207.892 344.981 202.936C339.075 205.855 339.211 212.915 332.49 219.228M321.561 240.611L337.242 198.456L318.507 239.321" fill="#85340A"/>
    <path d="M340.061 227.222C347.86 223.472 349.534 217.48 357.263 215.317C350.69 215.754 348.113 222.328 339.489 225.589M321.209 241.162L351.828 208.217L318.88 238.801" fill="#85340A"/>
    <path d="M321.248 243.072L380.768 215.712C380.768 215.712 381.92 215.232 381.632 214.464C381.248 213.696 380.096 214.176 380.096 214.176L318.656 236.928M341.888 237.6C350.912 237.984 355.904 232.416 363.968 233.088C372.128 233.856 376.64 229.44 379.808 228.288C382.976 227.328 384.8 229.44 385.28 228.576C385.76 227.616 383.264 225.696 378.752 226.272C374.336 226.944 372.992 230.304 363.104 229.536C353.216 228.768 350.912 233.568 341.984 232.416" fill="#F6B40E"/>
    <path d="M321.248 243.072L380.768 215.712C380.768 215.712 381.92 215.232 381.632 214.464C381.248 213.696 380.096 214.176 380.096 214.176L318.656 236.928M341.888 237.6C350.912 237.984 355.904 232.416 363.968 233.088C372.128 233.856 376.64 229.44 379.808 228.288C382.976 227.328 384.8 229.44 385.28 228.576C385.76 227.616 383.264 225.696 378.752 226.272C374.336 226.944 372.992 230.304 363.104 229.536C353.216 228.768 350.912 233.568 341.984 232.416" stroke="#85340A" stroke-width="1.056"/>
    <path d="M319.977 243.316L385.437 240.816C385.437 240.816 386.685 240.813 386.713 239.993C386.652 239.137 385.404 239.139 385.404 239.139L319.934 236.648M341.14 246.159C349.33 249.967 356.073 246.733 363.266 250.44C370.511 254.272 376.37 251.919 379.737 252.067C383.032 252.392 383.909 255.042 384.683 254.427C385.493 253.724 383.922 250.995 379.533 249.8C375.196 248.731 372.669 251.321 363.827 246.828C354.986 242.334 351.02 245.887 343.213 241.406" fill="#F6B40E"/>
    <path d="M319.977 243.316L385.437 240.816C385.437 240.816 386.685 240.813 386.713 239.993C386.652 239.137 385.404 239.139 385.404 239.139L319.934 236.648M341.14 246.159C349.33 249.967 356.073 246.733 363.266 250.44C370.511 254.272 376.37 251.919 379.737 252.067C383.032 252.392 383.909 255.042 384.683 254.427C385.493 253.724 383.922 250.995 379.533 249.8C375.196 248.731 372.669 251.321 363.827 246.828C354.986 242.334 351.02 245.887 343.213 241.406" stroke="#85340A" stroke-width="1.056"/>
    <path d="M318.71 243.055L380.144 265.795C380.144 265.795 381.298 266.27 381.637 265.524C381.909 264.709 380.755 264.234 380.755 264.234L321.222 236.877M337.174 253.78C343.284 260.432 350.751 260.025 355.978 266.202C361.205 272.515 367.518 272.583 370.572 274.009C373.491 275.57 373.288 278.353 374.238 278.082C375.256 277.742 374.849 274.62 371.251 271.837C367.653 269.189 364.327 270.615 357.878 263.08C351.43 255.545 346.406 257.31 340.908 250.182" fill="#F6B40E"/>
    <path d="M318.71 243.055L380.144 265.795C380.144 265.795 381.298 266.27 381.637 265.524C381.909 264.709 380.755 264.234 380.755 264.234L321.222 236.877M337.174 253.78C343.284 260.432 350.751 260.025 355.978 266.202C361.205 272.515 367.518 272.583 370.572 274.009C373.491 275.57 373.288 278.353 374.238 278.082C375.256 277.742 374.849 274.62 371.251 271.837C367.653 269.189 364.327 270.615 357.878 263.08C351.43 255.545 346.406 257.31 340.908 250.182" stroke="#85340A" stroke-width="1.056"/>
    <path d="M317.639 242.329L365.694 286.848C365.694 286.848 366.578 287.728 367.178 287.168C367.74 286.52 366.856 285.639 366.856 285.639L322.324 237.583M330.593 259.303C333.692 267.787 340.747 270.269 343.212 277.976C345.625 285.809 351.431 288.287 353.708 290.773C355.807 293.333 354.554 295.826 355.536 295.939C356.607 296.015 357.425 292.974 355.166 289.026C352.856 285.204 349.237 285.248 346.163 275.818C343.088 266.389 337.772 266.097 335.42 257.408" fill="#F6B40E"/>
    <path d="M317.639 242.329L365.694 286.848C365.694 286.848 366.578 287.728 367.178 287.168C367.74 286.52 366.856 285.639 366.856 285.639L322.324 237.583M330.593 259.303C333.692 267.787 340.747 270.269 343.212 277.976C345.625 285.809 351.431 288.287 353.708 290.773C355.807 293.333 354.554 295.826 355.536 295.939C356.607 296.015 357.425 292.974 355.166 289.026C352.856 285.204 349.237 285.248 346.163 275.818C343.088 266.389 337.772 266.097 335.42 257.408" stroke="#85340A" stroke-width="1.056"/>
    <path d="M343.424 235.872C352.064 235.392 355.904 230.496 363.872 231.456C357.632 229.344 352.736 234.432 343.52 234.144M320.672 241.536L361.568 222.816L319.424 238.464" fill="#85340A"/>
    <path d="M343.221 245.15C351.387 248.013 356.808 244.959 363.802 248.895C358.845 244.556 352.375 247.383 343.971 243.59M320.033 241.676L364.98 240.031L320.056 238.36" fill="#85340A"/>
    <path d="M339.482 253.644C345.931 259.414 352.108 258.668 357.064 264.981C354.145 259.075 347.085 259.211 340.772 252.49M319.389 241.561L361.544 257.242L320.679 238.506" fill="#85340A"/>
    <path d="M332.778 260.061C336.528 267.86 342.52 269.534 344.683 277.263C344.246 270.689 337.672 268.113 334.411 259.489M318.838 241.209L351.783 271.828L321.199 238.88" fill="#85340A"/>
    <path d="M320 266.7C334.746 266.7 346.7 254.746 346.7 240C346.7 225.254 334.746 213.3 320 213.3C305.254 213.3 293.3 225.254 293.3 240C293.3 254.746 305.254 266.7 320 266.7Z" fill="#F6B40E" stroke="#85340A" stroke-width="1.4"/>
    <path d="M329 234.3C327.3 234.3 325.5 235.1 324.5 236.7C326.5 238.6 331.1 238.7 334.2 236.5C333.545 235.805 332.755 235.251 331.878 234.873C331 234.494 330.055 234.299 329.1 234.3H329ZM329 234.7C330.8 234.7 332.5 235.5 332.7 236.3C330.7 238.6 327.4 238.3 325.3 236.7C326.3 235.3 327.7 234.7 329.1 234.7H329Z" fill="#843511"/>
    <path d="M329.4 233C326.7 233 326.1 233.6 324.9 234.7C323.7 235.7 323 235.5 322.9 235.7C322.6 235.9 322.9 236.5 323.2 236.3C323.7 236.1 324.5 235.7 325.7 234.7C326.9 233.7 328.2 233.7 329.4 233.7C333.1 233.7 335.1 236.7 335.5 236.5C336 236.3 333.5 233 329.4 233Z" fill="#85340A"/>
    <path d="M336.8 234.3C332.1 230.2 326.1 229.5 322.8 232.6C322.04 233.6 321.526 234.765 321.3 236C320.9 238.4 321.6 240.9 323.4 243.5L322.6 243.9C321 240.8 320.4 237.6 321 234.5L321.6 232.2C326.1 228.5 332.3 228.2 336.8 234.2V234.3Z" fill="#85340A"/>
    <path d="M329 238.1C329.994 238.1 330.8 237.294 330.8 236.3C330.8 235.306 329.994 234.5 329 234.5C328.006 234.5 327.2 235.306 327.2 236.3C327.2 237.294 328.006 238.1 329 238.1Z" fill="#85340A"/>
    <path d="M334.3 237.5C330.8 240.2 327.3 240 325.3 238.8C323.3 237.5 323.3 237.1 323.7 237.1C324.1 237.1 324.5 237.5 326.1 238.4C327.8 239.2 330.2 239.2 334.3 237.5V237.5Z" fill="#85340A"/>
    <path d="M316 243.7C315.722 243.766 315.464 243.896 315.247 244.081C315.029 244.267 314.859 244.501 314.75 244.765C314.641 245.028 314.596 245.314 314.62 245.599C314.643 245.884 314.734 246.158 314.884 246.401C315.035 246.644 315.241 246.847 315.486 246.994C315.73 247.141 316.006 247.228 316.291 247.248C316.576 247.267 316.861 247.218 317.124 247.106C317.386 246.993 317.618 246.82 317.8 246.6C318.46 247.009 319.224 247.218 320 247.2H320.2C320.8 247.2 321.8 247.1 322.5 246.6C322.8 247.1 323.4 247.3 324 247.3C324.477 247.34 324.951 247.188 325.317 246.879C325.682 246.569 325.91 246.127 325.95 245.65C325.99 245.173 325.838 244.699 325.529 244.333C325.219 243.968 324.777 243.74 324.3 243.7C324.8 243.9 325.1 244.3 325.1 244.9C325.1 245.218 324.974 245.523 324.749 245.748C324.523 245.974 324.218 246.1 323.9 246.1C323.582 246.1 323.277 245.974 323.051 245.748C322.826 245.523 322.7 245.218 322.7 244.9C322.463 245.394 322.095 245.813 321.637 246.113C321.179 246.412 320.647 246.581 320.1 246.6C319.57 246.563 319.059 246.387 318.62 246.088C318.181 245.789 317.829 245.379 317.6 244.9C317.6 245.6 317 246.1 316.3 246.1C315.7 246.1 315.1 245.5 315.1 244.9C315.1 244.3 315.4 243.9 315.9 243.7H316ZM318 249.1C315.9 249.1 315 251.1 313.2 252.2C314.2 251.8 315 251 316.5 250.2C317.9 249.4 319.1 250.4 320 250.4C320.8 250.4 322 249.4 323.5 250.2C324.9 251 325.8 251.8 326.8 252.2C324.9 251 324.1 249.2 322 249.2C321.6 249.2 320.8 249.4 320 249.8L318 249.1Z" fill="#85340A"/>
    <path d="M317.2 251.6C316.4 251.6 315.4 251.8 313.8 252.2C317.5 251.4 318.3 252.7 320 252.7C321.6 252.7 322.5 251.4 326.1 252.2C322.1 251 321.2 251.8 320 251.8C319.2 251.8 318.6 251.5 317.2 251.6Z" fill="#85340A"/>
    <path d="M314 252.2H313.2C317.5 252.7 315.5 255.2 320 255.2C324.5 255.2 322.5 252.7 326.8 252.2C322.3 251.8 323.7 254.5 320 254.5C316.5 254.5 317.6 252.2 314 252.2Z" fill="#85340A"/>
    <path d="M323.7 258.9C323.7 257.919 323.31 256.978 322.616 256.284C321.922 255.59 320.981 255.2 320 255.2C319.019 255.2 318.078 255.59 317.384 256.284C316.69 256.978 316.3 257.919 316.3 258.9C316.495 258.065 316.967 257.321 317.639 256.788C318.311 256.256 319.143 255.966 320 255.966C320.857 255.966 321.689 256.256 322.361 256.788C323.033 257.321 323.505 258.065 323.7 258.9Z" fill="#85340A"/>
    <path d="M303.4 234.3C308.1 230.2 314.1 229.5 317.4 232.6C318.16 233.6 318.674 234.765 318.9 236C319.3 238.4 318.6 240.9 316.8 243.5L317.6 243.9C319.2 240.8 319.8 237.6 319.2 234.5L318.6 232.2C314.1 228.5 307.9 228.2 303.4 234.2V234.3Z" fill="#85340A"/>
    <path d="M310.8 233C313.5 233 314.1 233.6 315.3 234.7C316.5 235.7 317.2 235.5 317.3 235.7C317.6 235.9 317.3 236.5 317 236.3C316.5 236.1 315.7 235.7 314.5 234.7C313.3 233.7 312 233.7 310.8 233.7C307.1 233.7 305.1 236.7 304.7 236.5C304.2 236.3 306.7 233 310.8 233Z" fill="#85340A"/>
    <path d="M310.6 234.3C308.9 234.3 307.1 235.1 306.1 236.7C308.1 238.6 312.7 238.7 315.8 236.5C315.145 235.805 314.355 235.251 313.478 234.873C312.6 234.494 311.655 234.299 310.7 234.3H310.6ZM310.6 234.7C312.4 234.7 314.1 235.5 314.3 236.3C312.3 238.6 309 238.3 306.9 236.7C307.9 235.3 309.3 234.7 310.7 234.7H310.6Z" fill="#843511"/>
    <path d="M310.9 238.1C311.894 238.1 312.7 237.294 312.7 236.3C312.7 235.306 311.894 234.5 310.9 234.5C309.906 234.5 309.1 235.306 309.1 236.3C309.1 237.294 309.906 238.1 310.9 238.1Z" fill="#85340A"/>
    <path d="M305.9 237.5C309.4 240.2 312.9 240 314.9 238.8C316.9 237.5 316.9 237.1 316.5 237.1C316.1 237.1 315.7 237.5 314.1 238.4C312.4 239.2 310 239.2 305.9 237.5V237.5Z" fill="#85340A"/>
  </g>
  <defs>
    <clipPath id="clip0_3_1186">
      <rect width="640" height="480" fill="white"/>
    </clipPath>
  </defs>
</svg>
