<svg xmlns="http://www.w3.org/2000/svg" width="640" height="480" fill="none"><g clip-path="url(#a)"><path fill="#74ACDF" d="M0 0h640v480H0z"/><path fill="#fff" d="M0 160h640v160H0z"/><path fill="#F6B40E" d="m316.928 241.248 27.36 59.52s.48 1.152 1.248.864c.768-.384.288-1.536.288-1.536l-22.752-61.44m-.672 23.232c-.384 9.024 5.184 14.016 4.512 22.08-.768 8.16 3.648 12.672 4.8 15.84.96 3.168-1.152 4.992-.288 5.472.96.48 2.88-2.016 2.304-6.528-.672-4.416-4.032-5.76-3.264-15.648s-4.032-12.192-2.88-21.12"/><path stroke="#85340A" stroke-width="1.056" d="m316.928 241.248 27.36 59.52s.48 1.152 1.248.864c.768-.384.288-1.536.288-1.536l-22.752-61.44m-.672 23.232c-.384 9.024 5.184 14.016 4.512 22.08-.768 8.16 3.648 12.672 4.8 15.84.96 3.168-1.152 4.992-.288 5.472.96.48 2.88-2.016 2.304-6.528-.672-4.416-4.032-5.76-3.264-15.648s-4.032-12.192-2.88-21.12"/><path fill="#F6B40E" d="m316.684 239.977 2.5 65.46s.003 1.248.823 1.276c.856-.061.854-1.309.854-1.309l2.492-65.47m-9.512 21.206c-3.808 8.19-.574 14.933-4.281 22.126-3.832 7.245-1.479 13.104-1.627 16.471-.325 3.295-2.975 4.171-2.36 4.946.703.81 3.432-.761 4.627-5.15 1.069-4.337-1.521-6.864 2.972-15.706s.941-12.807 5.422-20.614"/><path stroke="#85340A" stroke-width="1.056" d="m316.684 239.977 2.5 65.46s.003 1.248.823 1.276c.856-.061.854-1.309.854-1.309l2.492-65.47m-9.512 21.206c-3.808 8.19-.574 14.933-4.281 22.126-3.832 7.245-1.479 13.104-1.627 16.471-.325 3.295-2.975 4.171-2.36 4.946.703.81 3.432-.761 4.627-5.15 1.069-4.337-1.521-6.864 2.972-15.706s.941-12.807 5.422-20.614"/><path fill="#F6B40E" d="m316.945 238.71-22.74 61.434s-.475 1.154.271 1.493c.815.272 1.29-.882 1.29-.882l27.357-59.533m-16.903 15.952c-6.653 6.11-6.245 13.577-12.423 18.803-6.313 5.227-6.38 11.54-7.806 14.595-1.561 2.919-4.344 2.715-4.073 3.666.339 1.018 3.462.611 6.245-2.987 2.648-3.598 1.222-6.924 8.757-13.373s5.77-11.472 12.898-16.97"/><path stroke="#85340A" stroke-width="1.056" d="m316.945 238.71-22.74 61.434s-.475 1.154.271 1.493c.815.272 1.29-.882 1.29-.882l27.357-59.533m-16.903 15.952c-6.653 6.11-6.245 13.577-12.423 18.803-6.313 5.227-6.38 11.54-7.806 14.595-1.561 2.919-4.344 2.715-4.073 3.666.339 1.018 3.462.611 6.245-2.987 2.648-3.598 1.222-6.924 8.757-13.373s5.77-11.472 12.898-16.97"/><path fill="#F6B40E" d="m317.671 237.639-44.519 48.055s-.88.884-.32 1.484c.648.562 1.529-.322 1.529-.322l48.056-44.532m-21.72 8.269c-8.484 3.099-10.966 10.154-18.673 12.619-7.833 2.413-10.311 8.219-12.797 10.496-2.56 2.099-5.053.846-5.166 1.828-.076 1.071 2.965 1.889 6.913-.37 3.822-2.31 3.778-5.929 13.208-9.003 9.429-3.075 9.721-8.391 18.41-10.743"/><path stroke="#85340A" stroke-width="1.056" d="m317.671 237.639-44.519 48.055s-.88.884-.32 1.484c.648.562 1.529-.322 1.529-.322l48.056-44.532m-21.72 8.269c-8.484 3.099-10.966 10.154-18.673 12.619-7.833 2.413-10.311 8.219-12.797 10.496-2.56 2.099-5.053.846-5.166 1.828-.076 1.071 2.965 1.889 6.913-.37 3.822-2.31 3.778-5.929 13.208-9.003 9.429-3.075 9.721-8.391 18.41-10.743"/><path fill="#85340A" d="M324.128 263.424c.48 8.64 5.376 12.48 4.416 20.448 2.112-6.24-2.976-11.136-2.688-20.352m-7.392-22.848 18.72 40.896-15.648-42.144"/><path fill="#85340A" d="M314.85 263.221c-2.863 8.166.191 13.587-3.745 20.581 4.339-4.957 1.512-11.427 5.305-19.831m1.914-23.938 1.645 44.947 1.671-44.924"/><path fill="#85340A" d="M306.356 259.482c-5.77 6.449-5.024 12.626-11.337 17.582 5.906-2.919 5.77-9.979 12.491-16.292m10.929-21.383-15.681 42.155 18.735-40.865"/><path fill="#85340A" d="M299.939 252.778c-7.799 3.75-9.473 9.742-17.202 11.905 6.573-.437 9.15-7.011 17.774-10.272m18.28-15.573-30.619 32.945 32.948-30.584"/><path fill="#F6B40E" d="m318.752 236.928-59.52 27.36s-1.152.48-.864 1.248c.384.768 1.536.288 1.536.288l61.44-22.752m-23.232-.672c-9.024-.384-14.016 5.184-22.08 4.512-8.16-.768-12.672 3.648-15.84 4.8-3.168.96-4.992-1.152-5.472-.288-.48.96 2.016 2.88 6.528 2.304 4.416-.672 5.76-4.032 15.648-3.264s12.192-4.032 21.12-2.88"/><path stroke="#85340A" stroke-width="1.056" d="m318.752 236.928-59.52 27.36s-1.152.48-.864 1.248c.384.768 1.536.288 1.536.288l61.44-22.752m-23.232-.672c-9.024-.384-14.016 5.184-22.08 4.512-8.16-.768-12.672 3.648-15.84 4.8-3.168.96-4.992-1.152-5.472-.288-.48.96 2.016 2.88 6.528 2.304 4.416-.672 5.76-4.032 15.648-3.264s12.192-4.032 21.12-2.88"/><path fill="#F6B40E" d="m320.023 236.684-65.46 2.5s-1.248.003-1.276.823c.061.856 1.309.854 1.309.854l65.47 2.491m-21.206-9.511c-8.19-3.808-14.933-.574-22.126-4.281-7.245-3.832-13.104-1.479-16.471-1.627-3.295-.325-4.172-2.975-4.946-2.36-.81.703.761 3.432 5.15 4.627 4.337 1.069 6.864-1.521 15.706 2.972s12.807.941 20.614 5.422"/><path stroke="#85340A" stroke-width="1.056" d="m320.023 236.684-65.46 2.5s-1.248.003-1.276.823c.061.856 1.309.854 1.309.854l65.47 2.491m-21.206-9.511c-8.19-3.808-14.933-.574-22.126-4.281-7.245-3.832-13.104-1.479-16.471-1.627-3.295-.325-4.172-2.975-4.946-2.36-.81.703.761 3.432 5.15 4.627 4.337 1.069 6.864-1.521 15.706 2.972s12.807.941 20.614 5.422"/><path fill="#F6B40E" d="m321.29 236.945-61.434-22.74s-1.154-.475-1.493.271c-.272.815.882 1.29.882 1.29l59.533 27.357m-15.952-16.903c-6.11-6.652-13.577-6.245-18.804-12.422-5.227-6.313-11.54-6.381-14.594-7.807-2.919-1.561-2.716-4.344-3.666-4.073-1.018.34-.611 3.462 2.987 6.245 3.598 2.648 6.924 1.222 13.373 8.757s11.472 5.77 16.97 12.898"/><path stroke="#85340A" stroke-width="1.056" d="m321.29 236.945-61.434-22.74s-1.154-.475-1.493.271c-.272.815.882 1.29.882 1.29l59.533 27.357m-15.952-16.903c-6.11-6.652-13.577-6.245-18.804-12.422-5.227-6.313-11.54-6.381-14.594-7.807-2.919-1.561-2.716-4.344-3.666-4.073-1.018.34-.611 3.462 2.987 6.245 3.598 2.648 6.924 1.222 13.373 8.757s11.472 5.77 16.97 12.898"/><path fill="#F6B40E" d="m322.361 237.671-48.055-44.519s-.884-.88-1.484-.32c-.562.648.322 1.529.322 1.529l44.532 48.056m-8.269-21.72c-3.099-8.484-10.154-10.966-12.619-18.673-2.413-7.833-8.219-10.311-10.496-12.797-2.099-2.56-.846-5.053-1.828-5.166-1.071-.076-1.889 2.965.37 6.913 2.31 3.822 5.929 3.778 9.003 13.208 3.075 9.429 8.391 9.721 10.743 18.41"/><path stroke="#85340A" stroke-width="1.056" d="m322.361 237.671-48.055-44.519s-.884-.88-1.484-.32c-.562.648.322 1.529.322 1.529l44.532 48.056m-8.269-21.72c-3.099-8.484-10.154-10.966-12.619-18.673-2.413-7.833-8.219-10.311-10.496-12.797-2.099-2.56-.846-5.053-1.828-5.166-1.071-.076-1.889 2.965.37 6.913 2.31 3.822 5.929 3.778 9.003 13.208 3.075 9.429 8.391 9.721 10.743 18.41"/><path fill="#85340A" d="M296.576 244.128c-8.64.48-12.48 5.376-20.448 4.416 6.24 2.112 11.136-2.976 20.352-2.688m22.848-7.392-40.896 18.72 42.144-15.648"/><path fill="#85340A" d="M296.779 234.85c-8.166-2.863-13.587.191-20.581-3.745 4.957 4.339 11.427 1.512 19.831 5.305m23.938 1.914-44.947 1.645 44.924 1.671"/><path fill="#85340A" d="M300.518 226.356c-6.449-5.77-12.626-5.024-17.582-11.337 2.919 5.906 9.979 5.77 16.292 12.491m21.383 10.929-42.155-15.681 40.865 18.736"/><path fill="#85340A" d="M307.222 219.939c-3.75-7.799-9.742-9.473-11.905-17.202.437 6.574 7.011 9.15 10.272 17.774m15.573 18.28-32.945-30.619 30.584 32.948"/><path fill="#F6B40E" d="m323.072 238.752-27.36-59.52s-.48-1.152-1.248-.864c-.768.384-.288 1.536-.288 1.536l22.752 61.44m.672-23.232c.384-9.024-5.184-14.016-4.512-22.08.768-8.16-3.648-12.672-4.8-15.84-.96-3.168 1.152-4.992.288-5.472-.96-.48-2.88 2.016-2.304 6.528.672 4.416 4.032 5.76 3.264 15.648s4.032 12.192 2.88 21.12"/><path stroke="#85340A" stroke-width="1.056" d="m323.072 238.752-27.36-59.52s-.48-1.152-1.248-.864c-.768.384-.288 1.536-.288 1.536l22.752 61.44m.672-23.232c.384-9.024-5.184-14.016-4.512-22.08.768-8.16-3.648-12.672-4.8-15.84-.96-3.168 1.152-4.992.288-5.472-.96-.48-2.88 2.016-2.304 6.528.672 4.416 4.032 5.76 3.264 15.648s4.032 12.192 2.88 21.12"/><path fill="#F6B40E" d="m323.316 240.023-2.5-65.46s-.003-1.248-.823-1.276c-.856.061-.854 1.309-.854 1.309l-2.492 65.47m9.512-21.206c3.808-8.19.574-14.933 4.281-22.126 3.832-7.245 1.479-13.104 1.627-16.471.325-3.295 2.975-4.171 2.36-4.946-.703-.81-3.432.761-4.627 5.15-1.069 4.337 1.521 6.864-2.972 15.706s-.941 12.807-5.422 20.614"/><path stroke="#85340A" stroke-width="1.056" d="m323.316 240.023-2.5-65.46s-.003-1.248-.823-1.276c-.856.061-.854 1.309-.854 1.309l-2.492 65.47m9.512-21.206c3.808-8.19.574-14.933 4.281-22.126 3.832-7.245 1.479-13.104 1.627-16.471.325-3.295 2.975-4.171 2.36-4.946-.703-.81-3.432.761-4.627 5.15-1.069 4.337 1.521 6.864-2.972 15.706s-.941 12.807-5.422 20.614"/><path fill="#F6B40E" d="m323.055 241.29 22.74-61.434s.475-1.154-.271-1.493c-.815-.272-1.29.882-1.29.882l-27.357 59.533m16.903-15.952c6.653-6.11 6.245-13.577 12.423-18.803 6.313-5.227 6.38-11.54 7.806-14.595 1.561-2.919 4.344-2.715 4.073-3.666-.339-1.018-3.462-.611-6.245 2.987-2.648 3.598-1.222 6.924-8.757 13.373s-5.77 11.472-12.898 16.97"/><path stroke="#85340A" stroke-width="1.056" d="m323.055 241.29 22.74-61.434s.475-1.154-.271-1.493c-.815-.272-1.29.882-1.29.882l-27.357 59.533m16.903-15.952c6.653-6.11 6.245-13.577 12.423-18.803 6.313-5.227 6.38-11.54 7.806-14.595 1.561-2.919 4.344-2.715 4.073-3.666-.339-1.018-3.462-.611-6.245 2.987-2.648 3.598-1.222 6.924-8.757 13.373s-5.77 11.472-12.898 16.97"/><path fill="#F6B40E" d="m322.329 242.361 44.519-48.055s.88-.884.32-1.484c-.648-.562-1.529.322-1.529.322l-48.056 44.532m21.72-8.269c8.484-3.099 10.966-10.154 18.673-12.619 7.833-2.413 10.311-8.219 12.797-10.496 2.56-2.099 5.053-.846 5.166-1.828.076-1.071-2.965-1.889-6.913.37-3.822 2.31-3.778 5.929-13.208 9.003-9.429 3.075-9.721 8.391-18.41 10.743"/><path stroke="#85340A" stroke-width="1.056" d="m322.329 242.361 44.519-48.055s.88-.884.32-1.484c-.648-.562-1.529.322-1.529.322l-48.056 44.532m21.72-8.269c8.484-3.099 10.966-10.154 18.673-12.619 7.833-2.413 10.311-8.219 12.797-10.496 2.56-2.099 5.053-.846 5.166-1.828.076-1.071-2.965-1.889-6.913.37-3.822 2.31-3.778 5.929-13.208 9.003-9.429 3.075-9.721 8.391-18.41 10.743"/><path fill="#85340A" d="M315.872 216.576c-.48-8.64-5.376-12.48-4.416-20.448-2.112 6.24 2.976 11.136 2.688 20.352m7.392 22.848-18.72-40.896 15.648 42.144"/><path fill="#85340A" d="M325.15 216.779c2.863-8.166-.191-13.587 3.745-20.581-4.339 4.957-1.512 11.427-5.305 19.831m-1.914 23.938-1.645-44.947-1.671 44.924"/><path fill="#85340A" d="M333.644 220.518c5.77-6.449 5.024-12.626 11.337-17.582-5.906 2.919-5.77 9.979-12.491 16.292m-10.929 21.383 15.681-42.155-18.735 40.865"/><path fill="#85340A" d="M340.061 227.222c7.799-3.75 9.473-9.742 17.202-11.905-6.573.437-9.15 7.011-17.774 10.272m-18.28 15.573 30.619-32.945-32.948 30.584"/><path fill="#F6B40E" d="m321.248 243.072 59.52-27.36s1.152-.48.864-1.248c-.384-.768-1.536-.288-1.536-.288l-61.44 22.752m23.232.672c9.024.384 14.016-5.184 22.08-4.512 8.16.768 12.672-3.648 15.84-4.8 3.168-.96 4.992 1.152 5.472.288.48-.96-2.016-2.88-6.528-2.304-4.416.672-5.76 4.032-15.648 3.264s-12.192 4.032-21.12 2.88"/><path stroke="#85340A" stroke-width="1.056" d="m321.248 243.072 59.52-27.36s1.152-.48.864-1.248c-.384-.768-1.536-.288-1.536-.288l-61.44 22.752m23.232.672c9.024.384 14.016-5.184 22.08-4.512 8.16.768 12.672-3.648 15.84-4.8 3.168-.96 4.992 1.152 5.472.288.48-.96-2.016-2.88-6.528-2.304-4.416.672-5.76 4.032-15.648 3.264s-12.192 4.032-21.12 2.88"/><path fill="#F6B40E" d="m319.977 243.316 65.46-2.5s1.248-.003 1.276-.823c-.061-.856-1.309-.854-1.309-.854l-65.47-2.491m21.206 9.511c8.19 3.808 14.933.574 22.126 4.281 7.245 3.832 13.104 1.479 16.471 1.627 3.295.325 4.172 2.975 4.946 2.36.81-.703-.761-3.432-5.15-4.627-4.337-1.069-6.864 1.521-15.706-2.972s-12.807-.941-20.614-5.422"/><path stroke="#85340A" stroke-width="1.056" d="m319.977 243.316 65.46-2.5s1.248-.003 1.276-.823c-.061-.856-1.309-.854-1.309-.854l-65.47-2.491m21.206 9.511c8.19 3.808 14.933.574 22.126 4.281 7.245 3.832 13.104 1.479 16.471 1.627 3.295.325 4.172 2.975 4.946 2.36.81-.703-.761-3.432-5.15-4.627-4.337-1.069-6.864 1.521-15.706-2.972s-12.807-.941-20.614-5.422"/><path fill="#F6B40E" d="m318.71 243.055 61.434 22.74s1.154.475 1.493-.271c.272-.815-.882-1.29-.882-1.29l-59.533-27.357m15.952 16.903c6.11 6.652 13.577 6.245 18.804 12.422 5.227 6.313 11.54 6.381 14.594 7.807 2.919 1.561 2.716 4.344 3.666 4.073 1.018-.34.611-3.462-2.987-6.245-3.598-2.648-6.924-1.222-13.373-8.757s-11.472-5.77-16.97-12.898"/><path stroke="#85340A" stroke-width="1.056" d="m318.71 243.055 61.434 22.74s1.154.475 1.493-.271c.272-.815-.882-1.29-.882-1.29l-59.533-27.357m15.952 16.903c6.11 6.652 13.577 6.245 18.804 12.422 5.227 6.313 11.54 6.381 14.594 7.807 2.919 1.561 2.716 4.344 3.666 4.073 1.018-.34.611-3.462-2.987-6.245-3.598-2.648-6.924-1.222-13.373-8.757s-11.472-5.77-16.97-12.898"/><path fill="#F6B40E" d="m317.639 242.329 48.055 44.519s.884.88 1.484.32c.562-.648-.322-1.529-.322-1.529l-44.532-48.056m8.269 21.72c3.099 8.484 10.154 10.966 12.619 18.673 2.413 7.833 8.219 10.311 10.496 12.797 2.099 2.56.846 5.053 1.828 5.166 1.071.076 1.889-2.965-.37-6.913-2.31-3.822-5.929-3.778-9.003-13.208-3.075-9.429-8.391-9.721-10.743-18.41"/><path stroke="#85340A" stroke-width="1.056" d="m317.639 242.329 48.055 44.519s.884.88 1.484.32c.562-.648-.322-1.529-.322-1.529l-44.532-48.056m8.269 21.72c3.099 8.484 10.154 10.966 12.619 18.673 2.413 7.833 8.219 10.311 10.496 12.797 2.099 2.56.846 5.053 1.828 5.166 1.071.076 1.889-2.965-.37-6.913-2.31-3.822-5.929-3.778-9.003-13.208-3.075-9.429-8.391-9.721-10.743-18.41"/><path fill="#85340A" d="M343.424 235.872c8.64-.48 12.48-5.376 20.448-4.416-6.24-2.112-11.136 2.976-20.352 2.688m-22.848 7.392 40.896-18.72-42.144 15.648"/><path fill="#85340A" d="M343.221 245.15c8.166 2.863 13.587-.191 20.581 3.745-4.957-4.339-11.427-1.512-19.831-5.305m-23.938-1.914 44.947-1.645-44.924-1.671"/><path fill="#85340A" d="M339.482 253.644c6.449 5.77 12.626 5.024 17.582 11.337-2.919-5.906-9.979-5.77-16.292-12.491m-21.383-10.929 42.155 15.681-40.865-18.736"/><path fill="#85340A" d="M332.778 260.061c3.75 7.799 9.742 9.473 11.905 17.202-.437-6.574-7.011-9.15-10.272-17.774m-15.573-18.28 32.945 30.619-30.584-32.948"/><path fill="#F6B40E" stroke="#85340A" stroke-width="1.4" d="M320 266.7c14.746 0 26.7-11.954 26.7-26.7s-11.954-26.7-26.7-26.7-26.7 11.954-26.7 26.7 11.954 26.7 26.7 26.7Z"/><path fill="#843511" d="M329 234.3c-1.7 0-3.5.8-4.5 2.4 2 1.9 6.6 2 9.7-.2a7 7 0 0 0-5.1-2.2zm0 .4c1.8 0 3.5.8 3.7 1.6-2 2.3-5.3 2-7.4.4 1-1.4 2.4-2 3.8-2z"/><path fill="#85340A" d="M329.4 233c-2.7 0-3.3.6-4.5 1.7-1.2 1-1.9.8-2 1-.3.2 0 .8.3.6.5-.2 1.3-.6 2.5-1.6s2.5-1 3.7-1c3.7 0 5.7 3 6.1 2.8.5-.2-2-3.5-6.1-3.5"/><path fill="#85340A" d="M336.8 234.3c-4.7-4.1-10.7-4.8-14-1.7a8 8 0 0 0-1.5 3.4q-.6 3.6 2.1 7.5l-.8.4c-1.6-3.1-2.2-6.3-1.6-9.4l.6-2.3c4.5-3.7 10.7-4 15.2 2z"/><path fill="#85340A" d="M329 238.1a1.8 1.8 0 1 0 0-3.6 1.8 1.8 0 0 0 0 3.6"/><path fill="#85340A" d="M334.3 237.5c-3.5 2.7-7 2.5-9 1.3-2-1.3-2-1.7-1.6-1.7s.8.4 2.4 1.3c1.7.8 4.1.8 8.2-.9M316 243.7a1.8 1.8 0 1 0 1.8 2.9 4 4 0 0 0 2.2.6h.2c.6 0 1.6-.1 2.3-.6.3.5.9.7 1.5.7a1.81 1.81 0 0 0 1.95-1.65 1.81 1.81 0 0 0-1.65-1.95c.5.2.8.6.8 1.2a1.199 1.199 0 1 1-2.4 0 3 3 0 0 1-2.6 1.7 3 3 0 0 1-2.5-1.7c0 .7-.6 1.2-1.3 1.2-.6 0-1.2-.6-1.2-1.2s.3-1 .8-1.2zm2 5.4c-2.1 0-3 2-4.8 3.1 1-.4 1.8-1.2 3.3-2 1.4-.8 2.6.2 3.5.2.8 0 2-1 3.5-.2 1.4.8 2.3 1.6 3.3 2-1.9-1.2-2.7-3-4.8-3-.4 0-1.2.2-2 .6z"/><path fill="#85340A" d="M317.2 251.6c-.8 0-1.8.2-3.4.6 3.7-.8 4.5.5 6.2.5 1.6 0 2.5-1.3 6.1-.5-4-1.2-4.9-.4-6.1-.4-.8 0-1.4-.3-2.8-.2"/><path fill="#85340A" d="M314 252.2h-.8c4.3.5 2.3 3 6.8 3s2.5-2.5 6.8-3c-4.5-.4-3.1 2.3-6.8 2.3-3.5 0-2.4-2.3-6-2.3"/><path fill="#85340A" d="M323.7 258.9a3.7 3.7 0 0 0-7.4 0 3.798 3.798 0 0 1 6.061-2.112 3.8 3.8 0 0 1 1.339 2.112M303.4 234.3c4.7-4.1 10.7-4.8 14-1.7a8 8 0 0 1 1.5 3.4q.6 3.6-2.1 7.5l.8.4c1.6-3.1 2.2-6.3 1.6-9.4l-.6-2.3c-4.5-3.7-10.7-4-15.2 2z"/><path fill="#85340A" d="M310.8 233c2.7 0 3.3.6 4.5 1.7 1.2 1 1.9.8 2 1 .3.2 0 .8-.3.6-.5-.2-1.3-.6-2.5-1.6s-2.5-1-3.7-1c-3.7 0-5.7 3-6.1 2.8-.5-.2 2-3.5 6.1-3.5"/><path fill="#843511" d="M310.6 234.3c-1.7 0-3.5.8-4.5 2.4 2 1.9 6.6 2 9.7-.2a7 7 0 0 0-5.1-2.2zm0 .4c1.8 0 3.5.8 3.7 1.6-2 2.3-5.3 2-7.4.4 1-1.4 2.4-2 3.8-2z"/><path fill="#85340A" d="M310.9 238.1a1.8 1.8 0 1 0 0-3.6 1.8 1.8 0 0 0 0 3.6"/><path fill="#85340A" d="M305.9 237.5c3.5 2.7 7 2.5 9 1.3 2-1.3 2-1.7 1.6-1.7s-.8.4-2.4 1.3c-1.7.8-4.1.8-8.2-.9"/></g><defs><clipPath id="a"><path fill="#fff" d="M0 0h640v480H0z"/></clipPath></defs></svg>