<svg width="640" height="480" viewBox="0 0 640 480" fill="none" xmlns="http://www.w3.org/2000/svg">
  <g clip-path="url(#clip0_4_1240)">
    <path d="M0 0V479.995H719.993V0H0Z" fill="#3399CC"/>
    <path d="M0 319.997V346.663H719.993V319.997H0ZM0 373.33V399.996H719.993V373.33H0Z" fill="#FFFF00"/>
    <path d="M142.7 28L145.6 31L142.6 28H142.7ZM139.7 34L142.7 37L139.7 34ZM145.6 34L148.6 37L145.6 34Z" fill="#99CCCC"/>
    <path d="M139.7 37L142.7 39.9L139.7 36.9M145.6 36.9L148.6 39.9L145.6 36.9Z" fill="#CCCCFF"/>
    <path d="M136.7 42.8L139.7 45.8L136.7 42.8Z" fill="#66CCCC"/>
    <path d="M142.7 42.8L145.6 45.8L142.6 42.8H142.7Z" fill="#CC6666"/>
    <path d="M148.6 42.8L151.5 45.8L148.5 42.8H148.6Z" fill="#66CCCC"/>
    <path d="M136.7 45.8L139.7 48.8L136.7 45.8ZM148.6 45.8L151.5 48.8L148.5 45.8H148.6Z" fill="#CCCCFF"/>
    <path d="M139.7 48.7L142.7 51.7L139.7 48.7ZM145.6 48.7L148.6 51.7L145.6 48.7Z" fill="#FFCCCC"/>
    <path d="M133.8 51.7L136.8 54.7L133.8 51.7Z" fill="#66CCCC"/>
    <path d="M142.2 34L121.5 112.5L42.8 134L121.2 154.5L142.2 232.9L163.1 154.5L241.5 133.5L163.1 112.6L142.1 34.2L142.2 34Z" fill="#CC0000" stroke="white" stroke-width="3.7"/>
    <path d="M151.5 51.7L154.5 54.7L151.5 51.7Z" fill="#66CCCC"/>
    <path d="M133.8 54.6L136.8 57.6L133.8 54.6ZM151.5 54.6L154.5 57.6L151.5 54.6Z" fill="#99CCFF"/>
    <path d="M136.7 57.6L139.7 60.6L136.7 57.6ZM148.6 57.6L151.5 60.6L148.5 57.6H148.6Z" fill="#FFCCCC"/>
    <path d="M130.8 60.5L133.8 63.5L130.8 60.5Z" fill="#6699CC"/>
    <path d="M137.7 62.5L138.7 64.5L137.7 62.5ZM149.5 62.5L150.5 64.5L149.5 62.5Z" fill="#CC3333"/>
    <path d="M154.5 60.5L157.5 63.5L154.5 60.5Z" fill="#6699CC"/>
    <path d="M130.8 63.5L133.8 66.5L130.8 63.5ZM154.5 63.5L157.5 66.5L154.5 63.5Z" fill="#99CCFF"/>
    <path d="M133.8 66.4L136.8 69.4L133.8 66.4ZM151.5 66.4L154.5 69.4L151.5 66.4Z" fill="#FFCCCC"/>
    <path d="M127.9 69.4L130.9 72.4L127.9 69.4ZM157.4 69.4L160.4 72.4L157.4 69.4Z" fill="#6699CC"/>
    <path d="M127.9 72.3L130.9 75.3L127.9 72.3ZM157.4 72.3L160.4 75.3L157.4 72.3Z" fill="#99CCCC"/>
    <path d="M127.9 75.3L130.9 78.3L127.9 75.3ZM157.4 75.3L160.4 78.3L157.4 75.3Z" fill="#CCFFFF"/>
    <path d="M125 78.3L127.9 81.2L124.9 78.2L125 78.3Z" fill="#6699CC"/>
    <path d="M130.8 78.3L133.8 81.2L130.8 78.2M154.5 78.2L157.5 81.2L154.5 78.2Z" fill="#FFCCCC"/>
    <path d="M160.4 78.3L163.4 81.2L160.4 78.2V78.3Z" fill="#6699CC"/>
    <path d="M125 81.2L127.9 84.2L124.9 81.2H125Z" fill="#99CCCC"/>
    <path d="M131.8 83.2L132.8 85.2L131.8 83.2ZM155.4 83.2L156.4 85.2L155.4 83.2Z" fill="#CC3333"/>
    <path d="M160.4 81.2L163.4 84.2L160.4 81.2Z" fill="#99CCCC"/>
    <path d="M125 84.2L127.9 87.2L124.9 84.2M160.4 84.2L163.4 87.2L160.4 84.2Z" fill="#CCFFFF"/>
    <path d="M127.9 87.1L130.9 90.1L127.9 87.1ZM157.4 87.1L160.4 90.1L157.4 87.1Z" fill="#FFCCCC"/>
    <path d="M122 90L125 93L122 90Z" fill="#99CCCC"/>
    <path d="M128.9 92L129.9 94L128.9 92ZM158.4 92L159.4 94L158.4 92Z" fill="#CC3333"/>
    <path d="M163.3 90L166.3 93L163.3 90Z" fill="#99CCCC"/>
    <path d="M122 93L125 96L122 93ZM163.3 93L166.3 96L163.3 93Z" fill="#CCCCFF"/>
    <path d="M125 96L127.9 99L124.9 96M160.4 96L163.4 99L160.4 96Z" fill="#FFCCCC"/>
    <path d="M119 99L122 101.9L119 98.9V99Z" fill="#99CCCC"/>
    <path d="M126 100.9L126.9 102.9L125.9 100.9M161.3 100.9L162.3 102.9L161.3 100.9Z" fill="#CC3333"/>
    <path d="M166.3 99L169.3 101.9L166.3 98.9V99Z" fill="#99CCCC"/>
    <path d="M119 101.9L122 104.9L119 101.9ZM166.3 101.9L169.3 104.9L166.3 101.9Z" fill="#CCCCFF"/>
    <path d="M122 104.8L125 107.8L122 104.8ZM163.3 104.8L166.3 107.8L163.3 104.8Z" fill="#FFCCCC"/>
    <path d="M116 107.8L119 110.8L116 107.8Z" fill="#99CCCC"/>
    <path d="M122 107.8L125 110.8L122 107.8ZM163.3 107.8L166.3 110.8L163.3 107.8Z" fill="#CC3333"/>
    <path d="M169.2 107.8L172.2 110.8L169.2 107.8ZM107.2 110.8L110.2 113.7L107.2 110.7V110.8Z" fill="#99CCCC"/>
    <path d="M110.2 110.7L113.2 113.7L110.2 110.7ZM175.2 110.7L178.1 113.7L175.1 110.7H175.2Z" fill="#CCCCFF"/>
    <path d="M178 110.7L181 113.7L178 110.7ZM98.4 113.7L101.4 116.7L98.4 113.7Z" fill="#99CCCC"/>
    <path d="M101.3 113.7L104.3 116.7L101.3 113.7Z" fill="#CCCCFF"/>
    <path d="M113.1 113.7L116.1 116.7L113.1 113.7Z" fill="#FFCCCC"/>
    <path d="M116 113.7L119 116.7L116 113.7ZM169.2 113.7L172.2 116.7L169.2 113.7Z" fill="#CC3333"/>
    <path d="M172.2 113.7L175.2 116.7L172.2 113.7Z" fill="#FFCCCC"/>
    <path d="M184 113.7L187 116.7L184 113.7Z" fill="#CCCCFF"/>
    <path d="M187 113.7L189.9 116.7L186.9 113.7H187Z" fill="#99CCCC"/>
    <path d="M86.6 116.6L89.6 119.6L86.6 116.6Z" fill="#6699CC"/>
    <path d="M89.5 116.6L92.5 119.6L89.5 116.6Z" fill="#99CCCC"/>
    <path d="M92.5 116.6L95.5 119.6L92.5 116.6Z" fill="#CCFFFF"/>
    <path d="M104.3 116.6L107.3 119.6L104.3 116.6Z" fill="#FFCCCC"/>
    <path d="M109.2 117.6L111.2 118.6L109.2 117.6ZM177.1 117.6L179.1 118.6L177.1 117.6Z" fill="#CC3333"/>
    <path d="M181 116.6L184 119.6L181 116.6Z" fill="#FFCCCC"/>
    <path d="M192.8 116.6L195.8 119.6L192.8 116.6Z" fill="#CCFFFF"/>
    <path d="M195.8 116.6L198.8 119.6L195.8 116.6Z" fill="#99CCCC"/>
    <path d="M198.7 116.6L201.7 119.6L198.7 116.6ZM77.7 119.6L80.7 122.6L77.7 119.6Z" fill="#6699CC"/>
    <path d="M80.7 119.6L83.7 122.6L80.7 119.6Z" fill="#99CCCC"/>
    <path d="M83.6 119.6L86.6 122.6L83.6 119.6Z" fill="#CCFFFF"/>
    <path d="M95.4 119.6L98.4 122.6L95.4 119.6Z" fill="#FFCCCC"/>
    <path d="M100.3 120.6L102.3 121.6L100.3 120.6ZM185.9 120.6L187.9 121.6L185.9 120.6Z" fill="#CC3333"/>
    <path d="M189.9 119.6L192.9 122.6L189.9 119.6Z" fill="#FFCCCC"/>
    <path d="M201.7 119.6L204.7 122.6L201.7 119.6Z" fill="#CCFFFF"/>
    <path d="M204.6 119.6L207.6 122.6L204.6 119.6Z" fill="#99CCCC"/>
    <path d="M207.6 119.6L210.6 122.6L207.6 119.6ZM68.8 122.6L71.8 125.5L68.8 122.5V122.6Z" fill="#6699CC"/>
    <path d="M71.8 122.5L74.8 125.5L71.8 122.5Z" fill="#99CCFF"/>
    <path d="M86.6 122.5L89.6 125.5L86.6 122.5Z" fill="#FFCCCC"/>
    <path d="M91.5 123.5L93.5 124.5L91.5 123.5ZM194.8 123.5L196.8 124.5L194.8 123.5Z" fill="#CC3333"/>
    <path d="M198.7 122.5L201.7 125.5L198.7 122.5Z" fill="#FFCCCC"/>
    <path d="M213.5 122.5L216.5 125.5L213.5 122.5Z" fill="#99CCFF"/>
    <path d="M216.4 122.5L219.4 125.5L216.4 122.5Z" fill="#6699CC"/>
    <path d="M60 125.5L63 128.5L60 125.5Z" fill="#66CCCC"/>
    <path d="M63 125.5L65.9 128.5L62.9 125.5H63Z" fill="#99CCFF"/>
    <path d="M74.8 125.5L77.7 128.5L74.7 125.5H74.8ZM210.6 125.5L213.5 128.5L210.5 125.5H210.6Z" fill="#FFCCCC"/>
    <path d="M222.3 125.5L225.3 128.5L222.3 125.5Z" fill="#99CCFF"/>
    <path d="M225.3 125.5L228.3 128.5L225.3 125.5ZM51.1 128.5L54.1 131.4L51.1 128.4V128.5Z" fill="#66CCCC"/>
    <path d="M54 128.4L57 131.4L54 128.4Z" fill="#CCCCFF"/>
    <path d="M65.9 128.4L68.9 131.4L65.9 128.4Z" fill="#FFCCCC"/>
    <path d="M70.8 129.4L72.8 130.4L70.8 129.4ZM215.5 129.4L217.5 130.4L215.5 129.4Z" fill="#CC3333"/>
    <path d="M219.4 128.4L222.4 131.4L219.4 128.4Z" fill="#FFCCCC"/>
    <path d="M231.2 128.4L234.2 131.4L231.2 128.4Z" fill="#CCCCFF"/>
    <path d="M234.2 128.4L237.2 131.4L234.2 128.4Z" fill="#66CCCC"/>
    <path d="M42.3 131.4L45.3 134.4L42.3 131.4Z" fill="#99CCCC"/>
    <path d="M45.2 131.4L48.2 134.4L45.2 131.4Z" fill="#CCCCFF"/>
    <path d="M57 131.4L60 134.4L57 131.4ZM228.3 131.4L231.3 134.4L228.3 131.4Z" fill="#FFCCCC"/>
    <path d="M240 131.4L243 134.4L240 131.4Z" fill="#CCCCFF"/>
    <path d="M243 131.4L246 134.4L243 131.4ZM36.4 134.4L39.4 137.3L36.4 134.3V134.4Z" fill="#99CCCC"/>
    <path d="M51.1 134.3L54.1 137.3L51.1 134.3ZM234.1 134.3L237.1 137.3L234.1 134.3Z" fill="#CC6666"/>
    <path d="M249 134.3L251.9 137.3L248.9 134.3M42.3 137.3L45.3 140.3L42.3 137.3Z" fill="#99CCCC"/>
    <path d="M45.2 137.3L48.2 140.3L45.2 137.3Z" fill="#CCCCFF"/>
    <path d="M57 137.3L60 140.3L57 137.3ZM228.3 137.3L231.3 140.3L228.3 137.3Z" fill="#FFCCCC"/>
    <path d="M240 137.3L243 140.3L240 137.3Z" fill="#CCCCFF"/>
    <path d="M243 137.3L246 140.3L243 137.3Z" fill="#99CCCC"/>
    <path d="M51.1 140.3L54.1 143.2L51.1 140.2V140.3Z" fill="#66CCCC"/>
    <path d="M54 140.3L57 143.2L54 140.2V140.3Z" fill="#CCCCFF"/>
    <path d="M65.9 140.3L68.9 143.2L65.9 140.2V140.3Z" fill="#FFCCCC"/>
    <path d="M70.8 141.2L72.8 142.2L70.8 141.2ZM215.5 141.2L217.5 142.2L215.5 141.2Z" fill="#CC3333"/>
    <path d="M219.4 140.3L222.4 143.2L219.4 140.2V140.3Z" fill="#FFCCCC"/>
    <path d="M231.2 140.3L234.2 143.2L231.2 140.2V140.3Z" fill="#CCCCFF"/>
    <path d="M234.2 140.3L237.2 143.2L234.2 140.2M60 143.2L63 146.2L60 143.2Z" fill="#66CCCC"/>
    <path d="M63 143.2L65.9 146.2L62.9 143.2H63Z" fill="#99CCFF"/>
    <path d="M74.8 143.2L77.7 146.2L74.7 143.2H74.8ZM210.6 143.2L213.5 146.2L210.5 143.2H210.6Z" fill="#FFCCCC"/>
    <path d="M222.3 143.2L225.3 146.2L222.3 143.2Z" fill="#99CCFF"/>
    <path d="M225.3 143.2L228.3 146.2L225.3 143.2Z" fill="#66CCCC"/>
    <path d="M68.8 146.2L71.8 149.1L68.8 146.1V146.2Z" fill="#6699CC"/>
    <path d="M71.8 146.2L74.8 149.1L71.8 146.1V146.2Z" fill="#99CCFF"/>
    <path d="M86.6 146.2L89.6 149.1L86.6 146.1V146.2Z" fill="#FFCCCC"/>
    <path d="M91.5 147.1L93.5 148.1L91.5 147.1ZM194.8 147.1L196.8 148.1L194.8 147.1Z" fill="#CC3333"/>
    <path d="M198.7 146.2L201.7 149.1L198.7 146.1V146.2Z" fill="#FFCCCC"/>
    <path d="M213.5 146.2L216.5 149.1L213.5 146.1V146.2Z" fill="#99CCFF"/>
    <path d="M216.4 146.2L219.4 149.1L216.4 146.1M77.7 149.1L80.7 152.1L77.7 149.1Z" fill="#6699CC"/>
    <path d="M80.7 149.1L83.7 152.1L80.7 149.1Z" fill="#99CCCC"/>
    <path d="M83.6 149.1L86.6 152.1L83.6 149.1Z" fill="#CCFFFF"/>
    <path d="M95.4 149.1L98.4 152.1L95.4 149.1Z" fill="#FFCCCC"/>
    <path d="M100.3 150L102.3 151L100.3 150ZM185.9 150L187.9 151L185.9 150Z" fill="#CC3333"/>
    <path d="M189.9 149.1L192.9 152.1L189.9 149.1Z" fill="#FFCCCC"/>
    <path d="M201.7 149.1L204.7 152.1L201.7 149.1Z" fill="#CCFFFF"/>
    <path d="M204.6 149.1L207.6 152.1L204.6 149.1Z" fill="#99CCCC"/>
    <path d="M207.6 149.1L210.6 152.1L207.6 149.1ZM86.6 152.1L89.5 155L86.5 152L86.6 152.1Z" fill="#6699CC"/>
    <path d="M89.5 152L92.5 155L89.5 152Z" fill="#99CCCC"/>
    <path d="M92.5 152L95.5 155L92.5 152Z" fill="#CCFFFF"/>
    <path d="M104.3 152L107.3 155L104.3 152Z" fill="#FFCCCC"/>
    <path d="M109.2 153L111.2 154L109.2 153ZM177.1 153L179.1 154L177.1 153Z" fill="#CC3333"/>
    <path d="M181 152L184 155L181 152Z" fill="#FFCCCC"/>
    <path d="M192.8 152L195.8 155L192.8 152Z" fill="#CCFFFF"/>
    <path d="M195.8 152L198.8 155L195.8 152Z" fill="#99CCCC"/>
    <path d="M198.7 152L201.7 155L198.7 152Z" fill="#6699CC"/>
    <path d="M98.4 155L101.4 158L98.4 155Z" fill="#99CCCC"/>
    <path d="M101.3 155L104.3 158L101.3 155Z" fill="#CCCCFF"/>
    <path d="M113.1 155L116.1 158L113.1 155Z" fill="#FFCCCC"/>
    <path d="M116 155L119 158L116 155ZM169.2 155L172.2 158L169.2 155Z" fill="#CC3333"/>
    <path d="M172.2 155L175.2 158L172.2 155Z" fill="#FFCCCC"/>
    <path d="M184 155L187 158L184 155Z" fill="#CCCCFF"/>
    <path d="M187 155L189.9 158L186.9 155M107.2 158L110.2 161L107.2 158Z" fill="#99CCCC"/>
    <path d="M110.2 158L113.2 161L110.2 158ZM175.2 158L178.1 161L175.1 158H175.2Z" fill="#CCCCFF"/>
    <path d="M178 158L181 161L178 158ZM116 161L119 163.9L116 160.9V161Z" fill="#99CCCC"/>
    <path d="M122 161L125 163.9L122 160.9M163.3 160.9L166.3 163.9L163.3 160.9Z" fill="#CC3333"/>
    <path d="M169.2 161L172.2 163.9L169.2 160.9V161Z" fill="#99CCCC"/>
    <path d="M122 163.9L125 166.9L122 163.9ZM163.3 163.9L166.3 166.9L163.3 163.9Z" fill="#FFCCCC"/>
    <path d="M119 166.8L122 169.8L119 166.8Z" fill="#CCCCFF"/>
    <path d="M126 168.8L126.9 170.8L125.9 168.8M161.3 168.8L162.3 170.8L161.3 168.8Z" fill="#CC3333"/>
    <path d="M166.3 166.8L169.3 169.8L166.3 166.8Z" fill="#CCCCFF"/>
    <path d="M119 169.8L122 172.8L119 169.8ZM166.3 169.8L169.3 172.8L166.3 169.8Z" fill="#99CCCC"/>
    <path d="M125 172.7L127.9 175.7L124.9 172.7M160.4 172.7L163.4 175.7L160.4 172.7Z" fill="#FFCCCC"/>
    <path d="M122 175.7L125 178.7L122 175.7Z" fill="#CCCCFF"/>
    <path d="M128.9 177.6L129.9 179.6L128.9 177.6ZM158.4 177.6L159.4 179.6L158.4 177.6Z" fill="#CC3333"/>
    <path d="M163.3 175.7L166.3 178.7L163.3 175.7Z" fill="#CCCCFF"/>
    <path d="M122 178.6L125 181.6L122 178.6ZM163.3 178.6L166.3 181.6L163.3 178.6Z" fill="#99CCCC"/>
    <path d="M127.9 181.6L130.9 184.6L127.9 181.6ZM157.4 181.6L160.4 184.6L157.4 181.6Z" fill="#FFCCCC"/>
    <path d="M125 184.5L127.9 187.5L124.9 184.5H125Z" fill="#CCFFFF"/>
    <path d="M131.8 186.5L132.8 188.5L131.8 186.5ZM155.4 186.5L156.4 188.5L155.4 186.5Z" fill="#CC3333"/>
    <path d="M160.4 184.5L163.4 187.5L160.4 184.5Z" fill="#CCFFFF"/>
    <path d="M125 187.5L127.9 190.5L124.9 187.5M160.4 187.5L163.4 190.5L160.4 187.5Z" fill="#99CCCC"/>
    <path d="M125 190.4L127.9 193.4L124.9 190.4H125Z" fill="#6699CC"/>
    <path d="M130.8 190.4L133.8 193.4L130.8 190.4ZM154.5 190.4L157.5 193.4L154.5 190.4Z" fill="#FFCCCC"/>
    <path d="M160.4 190.4L163.4 193.4L160.4 190.4Z" fill="#6699CC"/>
    <path d="M127.9 193.4L130.9 196.4L127.9 193.4ZM157.4 193.4L160.4 196.4L157.4 193.4Z" fill="#CCFFFF"/>
    <path d="M127.9 196.3L130.9 199.3L127.9 196.3ZM157.4 196.3L160.4 199.3L157.4 196.3Z" fill="#99CCCC"/>
    <path d="M127.9 199.3L130.9 202.3L127.9 199.3ZM157.4 199.3L160.4 202.3L157.4 199.3Z" fill="#6699CC"/>
    <path d="M133.8 202.2L136.8 205.2L133.8 202.2ZM151.5 202.2L154.5 205.2L151.5 202.2Z" fill="#FFCCCC"/>
    <path d="M130.8 205.2L133.8 208.2L130.8 205.2Z" fill="#99CCFF"/>
    <path d="M137.7 207.2L138.7 209.2L137.7 207.2ZM149.5 207.2L150.5 209.2L149.5 207.2Z" fill="#CC3333"/>
    <path d="M154.5 205.2L157.5 208.2L154.5 205.2Z" fill="#99CCFF"/>
    <path d="M130.8 208.2L133.8 211.1L130.8 208.1M154.5 208.1L157.5 211.1L154.5 208.1Z" fill="#6699CC"/>
    <path d="M136.7 211.1L139.7 214.1L136.7 211.1ZM148.6 211.1L151.5 214.1L148.5 211.1H148.6Z" fill="#FFCCCC"/>
    <path d="M133.8 214L136.8 217L133.8 214ZM151.5 214L154.5 217L151.5 214Z" fill="#99CCFF"/>
    <path d="M133.8 217L136.8 220L133.8 217ZM151.5 217L154.5 220L151.5 217Z" fill="#66CCCC"/>
    <path d="M139.7 220L142.7 223L139.7 220ZM145.6 220L148.6 223L145.6 220Z" fill="#FFCCCC"/>
    <path d="M136.7 222.9L139.7 225.9L136.7 222.9ZM148.6 222.9L151.5 225.9L148.5 222.9H148.6Z" fill="#CCCCFF"/>
    <path d="M136.7 225.9L139.7 228.9L136.7 225.9Z" fill="#66CCCC"/>
    <path d="M142.7 225.9L145.6 228.9L142.6 225.9H142.7Z" fill="#CC6666"/>
    <path d="M148.6 225.9L151.5 228.9L148.5 225.9H148.6Z" fill="#66CCCC"/>
    <path d="M139.7 231.8L142.7 234.8L139.7 231.8ZM145.6 231.8L148.6 234.8L145.6 231.8Z" fill="#CCCCFF"/>
    <path d="M139.7 234.7L142.7 237.7L139.7 234.7ZM145.6 234.7L148.6 237.7L145.6 234.7ZM142.6 240.7L145.6 243.6L142.6 240.6V240.7Z" fill="#99CCCC"/>
  </g>
  <defs>
    <clipPath id="clip0_4_1240">
      <rect width="640" height="480" fill="white"/>
    </clipPath>
  </defs>
</svg>
