<svg xmlns="http://www.w3.org/2000/svg" width="640" height="480" fill="none"><g clip-path="url(#a)"><path fill="#39C" d="M0 0v479.995h719.993V0z"/><path fill="#FF0" d="M0 319.997v26.666h719.993v-26.666zm0 53.333v26.666h719.993V373.33z"/><path fill="#9CC" d="m142.7 28 2.9 3-3-3zm-3 6 3 3zm5.9 0 3 3z"/><path fill="#CCF" d="m139.7 37 3 2.9-3-3m5.9 0 3 3z"/><path fill="#6CC" d="m136.7 42.8 3 3z"/><path fill="#C66" d="m142.7 42.8 2.9 3-3-3z"/><path fill="#6CC" d="m148.6 42.8 2.9 3-3-3z"/><path fill="#CCF" d="m136.7 45.8 3 3zm11.9 0 2.9 3-3-3z"/><path fill="#FCC" d="m139.7 48.7 3 3zm5.9 0 3 3z"/><path fill="#6CC" d="m133.8 51.7 3 3z"/><path fill="#C00" stroke="#fff" stroke-width="3.7" d="m142.2 34-20.7 78.5L42.8 134l78.4 20.5 21 78.4 20.9-78.4 78.4-21-78.4-20.9-21-78.4z"/><path fill="#6CC" d="m151.5 51.7 3 3z"/><path fill="#9CF" d="m133.8 54.6 3 3zm17.7 0 3 3z"/><path fill="#FCC" d="m136.7 57.6 3 3zm11.9 0 2.9 3-3-3z"/><path fill="#69C" d="m130.8 60.5 3 3z"/><path fill="#C33" d="m137.7 62.5 1 2zm11.8 0 1 2z"/><path fill="#69C" d="m154.5 60.5 3 3z"/><path fill="#9CF" d="m130.8 63.5 3 3zm23.7 0 3 3z"/><path fill="#FCC" d="m133.8 66.4 3 3zm17.7 0 3 3z"/><path fill="#69C" d="m127.9 69.4 3 3zm29.5 0 3 3z"/><path fill="#9CC" d="m127.9 72.3 3 3zm29.5 0 3 3z"/><path fill="#CFF" d="m127.9 75.3 3 3zm29.5 0 3 3z"/><path fill="#69C" d="m125 78.3 2.9 2.9-3-3z"/><path fill="#FCC" d="m130.8 78.3 3 2.9-3-3m23.7 0 3 3z"/><path fill="#69C" d="m160.4 78.3 3 2.9-3-3z"/><path fill="#9CC" d="m125 81.2 2.9 3-3-3z"/><path fill="#C33" d="m131.8 83.2 1 2zm23.6 0 1 2z"/><path fill="#9CC" d="m160.4 81.2 3 3z"/><path fill="#CFF" d="m125 84.2 2.9 3-3-3m35.5 0 3 3z"/><path fill="#FCC" d="m127.9 87.1 3 3zm29.5 0 3 3z"/><path fill="#9CC" d="m122 90 3 3z"/><path fill="#C33" d="m128.9 92 1 2zm29.5 0 1 2z"/><path fill="#9CC" d="m163.3 90 3 3z"/><path fill="#CCF" d="m122 93 3 3zm41.3 0 3 3z"/><path fill="#FCC" d="m125 96 2.9 3-3-3m35.5 0 3 3z"/><path fill="#9CC" d="m119 99 3 2.9-3-3z"/><path fill="#C33" d="m126 100.9.9 2-1-2m35.4 0 1 2z"/><path fill="#9CC" d="m166.3 99 3 2.9-3-3z"/><path fill="#CCF" d="m119 101.9 3 3zm47.3 0 3 3z"/><path fill="#FCC" d="m122 104.8 3 3zm41.3 0 3 3z"/><path fill="#9CC" d="m116 107.8 3 3z"/><path fill="#C33" d="m122 107.8 3 3zm41.3 0 3 3z"/><path fill="#9CC" d="m169.2 107.8 3 3zm-62 3 3 2.9-3-3z"/><path fill="#CCF" d="m110.2 110.7 3 3zm65 0 2.9 3-3-3z"/><path fill="#9CC" d="m178 110.7 3 3zm-79.6 3 3 3z"/><path fill="#CCF" d="m101.3 113.7 3 3z"/><path fill="#FCC" d="m113.1 113.7 3 3z"/><path fill="#C33" d="m116 113.7 3 3zm53.2 0 3 3z"/><path fill="#FCC" d="m172.2 113.7 3 3z"/><path fill="#CCF" d="m184 113.7 3 3z"/><path fill="#9CC" d="m187 113.7 2.9 3-3-3z"/><path fill="#69C" d="m86.6 116.6 3 3z"/><path fill="#9CC" d="m89.5 116.6 3 3z"/><path fill="#CFF" d="m92.5 116.6 3 3z"/><path fill="#FCC" d="m104.3 116.6 3 3z"/><path fill="#C33" d="m109.2 117.6 2 1zm67.9 0 2 1z"/><path fill="#FCC" d="m181 116.6 3 3z"/><path fill="#CFF" d="m192.8 116.6 3 3z"/><path fill="#9CC" d="m195.8 116.6 3 3z"/><path fill="#69C" d="m198.7 116.6 3 3zm-121 3 3 3z"/><path fill="#9CC" d="m80.7 119.6 3 3z"/><path fill="#CFF" d="m83.6 119.6 3 3z"/><path fill="#FCC" d="m95.4 119.6 3 3z"/><path fill="#C33" d="m100.3 120.6 2 1zm85.6 0 2 1z"/><path fill="#FCC" d="m189.9 119.6 3 3z"/><path fill="#CFF" d="m201.7 119.6 3 3z"/><path fill="#9CC" d="m204.6 119.6 3 3z"/><path fill="#69C" d="m207.6 119.6 3 3zm-138.8 3 3 2.9-3-3z"/><path fill="#9CF" d="m71.8 122.5 3 3z"/><path fill="#FCC" d="m86.6 122.5 3 3z"/><path fill="#C33" d="m91.5 123.5 2 1zm103.3 0 2 1z"/><path fill="#FCC" d="m198.7 122.5 3 3z"/><path fill="#9CF" d="m213.5 122.5 3 3z"/><path fill="#69C" d="m216.4 122.5 3 3z"/><path fill="#6CC" d="m60 125.5 3 3z"/><path fill="#9CF" d="m63 125.5 2.9 3-3-3z"/><path fill="#FCC" d="m74.8 125.5 2.9 3-3-3zm135.8 0 2.9 3-3-3z"/><path fill="#9CF" d="m222.3 125.5 3 3z"/><path fill="#6CC" d="m225.3 125.5 3 3zm-174.2 3 3 2.9-3-3z"/><path fill="#CCF" d="m54 128.4 3 3z"/><path fill="#FCC" d="m65.9 128.4 3 3z"/><path fill="#C33" d="m70.8 129.4 2 1zm144.7 0 2 1z"/><path fill="#FCC" d="m219.4 128.4 3 3z"/><path fill="#CCF" d="m231.2 128.4 3 3z"/><path fill="#6CC" d="m234.2 128.4 3 3z"/><path fill="#9CC" d="m42.3 131.4 3 3z"/><path fill="#CCF" d="m45.2 131.4 3 3z"/><path fill="#FCC" d="m57 131.4 3 3zm171.3 0 3 3z"/><path fill="#CCF" d="m240 131.4 3 3z"/><path fill="#9CC" d="m243 131.4 3 3zm-206.6 3 3 2.9-3-3z"/><path fill="#C66" d="m51.1 134.3 3 3zm183 0 3 3z"/><path fill="#9CC" d="m249 134.3 2.9 3-3-3m-206.6 3 3 3z"/><path fill="#CCF" d="m45.2 137.3 3 3z"/><path fill="#FCC" d="m57 137.3 3 3zm171.3 0 3 3z"/><path fill="#CCF" d="m240 137.3 3 3z"/><path fill="#9CC" d="m243 137.3 3 3z"/><path fill="#6CC" d="m51.1 140.3 3 2.9-3-3z"/><path fill="#CCF" d="m54 140.3 3 2.9-3-3z"/><path fill="#FCC" d="m65.9 140.3 3 2.9-3-3z"/><path fill="#C33" d="m70.8 141.2 2 1zm144.7 0 2 1z"/><path fill="#FCC" d="m219.4 140.3 3 2.9-3-3z"/><path fill="#CCF" d="m231.2 140.3 3 2.9-3-3z"/><path fill="#6CC" d="m234.2 140.3 3 2.9-3-3m-174.2 3 3 3z"/><path fill="#9CF" d="m63 143.2 2.9 3-3-3z"/><path fill="#FCC" d="m74.8 143.2 2.9 3-3-3zm135.8 0 2.9 3-3-3z"/><path fill="#9CF" d="m222.3 143.2 3 3z"/><path fill="#6CC" d="m225.3 143.2 3 3z"/><path fill="#69C" d="m68.8 146.2 3 2.9-3-3z"/><path fill="#9CF" d="m71.8 146.2 3 2.9-3-3z"/><path fill="#FCC" d="m86.6 146.2 3 2.9-3-3z"/><path fill="#C33" d="m91.5 147.1 2 1zm103.3 0 2 1z"/><path fill="#FCC" d="m198.7 146.2 3 2.9-3-3z"/><path fill="#9CF" d="m213.5 146.2 3 2.9-3-3z"/><path fill="#69C" d="m216.4 146.2 3 2.9-3-3m-138.7 3 3 3z"/><path fill="#9CC" d="m80.7 149.1 3 3z"/><path fill="#CFF" d="m83.6 149.1 3 3z"/><path fill="#FCC" d="m95.4 149.1 3 3z"/><path fill="#C33" d="m100.3 150 2 1zm85.6 0 2 1z"/><path fill="#FCC" d="m189.9 149.1 3 3z"/><path fill="#CFF" d="m201.7 149.1 3 3z"/><path fill="#9CC" d="m204.6 149.1 3 3z"/><path fill="#69C" d="m207.6 149.1 3 3zm-121 3 2.9 2.9-3-3z"/><path fill="#9CC" d="m89.5 152 3 3z"/><path fill="#CFF" d="m92.5 152 3 3z"/><path fill="#FCC" d="m104.3 152 3 3z"/><path fill="#C33" d="m109.2 153 2 1zm67.9 0 2 1z"/><path fill="#FCC" d="m181 152 3 3z"/><path fill="#CFF" d="m192.8 152 3 3z"/><path fill="#9CC" d="m195.8 152 3 3z"/><path fill="#69C" d="m198.7 152 3 3z"/><path fill="#9CC" d="m98.4 155 3 3z"/><path fill="#CCF" d="m101.3 155 3 3z"/><path fill="#FCC" d="m113.1 155 3 3z"/><path fill="#C33" d="m116 155 3 3zm53.2 0 3 3z"/><path fill="#FCC" d="m172.2 155 3 3z"/><path fill="#CCF" d="m184 155 3 3z"/><path fill="#9CC" d="m187 155 2.9 3-3-3m-79.7 3 3 3z"/><path fill="#CCF" d="m110.2 158 3 3zm65 0 2.9 3-3-3z"/><path fill="#9CC" d="m178 158 3 3zm-62 3 3 2.9-3-3z"/><path fill="#C33" d="m122 161 3 2.9-3-3m41.3 0 3 3z"/><path fill="#9CC" d="m169.2 161 3 2.9-3-3z"/><path fill="#FCC" d="m122 163.9 3 3zm41.3 0 3 3z"/><path fill="#CCF" d="m119 166.8 3 3z"/><path fill="#C33" d="m126 168.8.9 2-1-2m35.4 0 1 2z"/><path fill="#CCF" d="m166.3 166.8 3 3z"/><path fill="#9CC" d="m119 169.8 3 3zm47.3 0 3 3z"/><path fill="#FCC" d="m125 172.7 2.9 3-3-3m35.5 0 3 3z"/><path fill="#CCF" d="m122 175.7 3 3z"/><path fill="#C33" d="m128.9 177.6 1 2zm29.5 0 1 2z"/><path fill="#CCF" d="m163.3 175.7 3 3z"/><path fill="#9CC" d="m122 178.6 3 3zm41.3 0 3 3z"/><path fill="#FCC" d="m127.9 181.6 3 3zm29.5 0 3 3z"/><path fill="#CFF" d="m125 184.5 2.9 3-3-3z"/><path fill="#C33" d="m131.8 186.5 1 2zm23.6 0 1 2z"/><path fill="#CFF" d="m160.4 184.5 3 3z"/><path fill="#9CC" d="m125 187.5 2.9 3-3-3m35.5 0 3 3z"/><path fill="#69C" d="m125 190.4 2.9 3-3-3z"/><path fill="#FCC" d="m130.8 190.4 3 3zm23.7 0 3 3z"/><path fill="#69C" d="m160.4 190.4 3 3z"/><path fill="#CFF" d="m127.9 193.4 3 3zm29.5 0 3 3z"/><path fill="#9CC" d="m127.9 196.3 3 3zm29.5 0 3 3z"/><path fill="#69C" d="m127.9 199.3 3 3zm29.5 0 3 3z"/><path fill="#FCC" d="m133.8 202.2 3 3zm17.7 0 3 3z"/><path fill="#9CF" d="m130.8 205.2 3 3z"/><path fill="#C33" d="m137.7 207.2 1 2zm11.8 0 1 2z"/><path fill="#9CF" d="m154.5 205.2 3 3z"/><path fill="#69C" d="m130.8 208.2 3 2.9-3-3m23.7 0 3 3z"/><path fill="#FCC" d="m136.7 211.1 3 3zm11.9 0 2.9 3-3-3z"/><path fill="#9CF" d="m133.8 214 3 3zm17.7 0 3 3z"/><path fill="#6CC" d="m133.8 217 3 3zm17.7 0 3 3z"/><path fill="#FCC" d="m139.7 220 3 3zm5.9 0 3 3z"/><path fill="#CCF" d="m136.7 222.9 3 3zm11.9 0 2.9 3-3-3z"/><path fill="#6CC" d="m136.7 225.9 3 3z"/><path fill="#C66" d="m142.7 225.9 2.9 3-3-3z"/><path fill="#6CC" d="m148.6 225.9 2.9 3-3-3z"/><path fill="#CCF" d="m139.7 231.8 3 3zm5.9 0 3 3z"/><path fill="#9CC" d="m139.7 234.7 3 3zm5.9 0 3 3zm-3 6 3 2.9-3-3z"/></g><defs><clipPath id="a"><path fill="#fff" d="M0 0h640v480H0z"/></clipPath></defs></svg>