<svg xmlns="http://www.w3.org/2000/svg" width="640" height="480" fill="none"><g clip-path="url(#a)"><path fill="#012169" d="M0 0h640v480H0z"/><path fill="#012169" fill-rule="evenodd" d="M0 0h400v200H0z" clip-rule="evenodd"/><path fill="url(#b)" fill-rule="evenodd" stroke="#fff" stroke-width="10" d="M412.9 308.9a10 10 0 0 0-1.7 0c-3 .6-7.6 11.3-10 17.6-4.1 5.4-6.2 9.6-7.8 12.7-.7 1.2-1.7 2.6-1.4 4.2-6 1.6-6.3 7.4-6.3 9.6 0 2.5.7 3.7.7 3.7l3.6 7.5v.1c3.8 9 9.4 20.9 12.7 21.8 4.4 1.5 16-3.3 24.8-11.7 16.865 7.873 34.935 11.983 53.2 12.1 20.4 0 38.7-5.5 53-12.1 8.8 8.4 20.4 13.2 25 11.7 3-1 8.7-13 12.6-21.8l3.5-7.6s.7-1.2.7-3.6c0-2.2-.3-8-6.3-9.6.3-1.6-.6-3-1.3-4.3-1.7-3.2-3.8-7.4-7.7-13-2.6-6.2-7.2-16.7-10-17.2-4.2-.8-13 1.5-13 2.4v.4l-17.7 18.6c0 .5.9 14 4.3 26-13.895 5.558-28.551 8.334-43.3 8.2-17 0-31.5-3.4-43.2-8.3a145.4 145.4 0 0 0 4.3-26L424 311.8v-.4c0-.7-6.8-2.5-11.1-2.5Zm4.4 23c2.3 0 4.6 2.2 6.5 4.4l-.1 1.3a83 83 0 0 1-2.8 10.2 74.5 74.5 0 0 1-12.2-9.9c1.9-2.3 5-5.4 8.2-5.8h.4zm126.6 0h.4c3.3.6 6.3 3.7 8.3 6a74.4 74.4 0 0 1-12.3 10 82.5 82.5 0 0 1-2.8-10.3q-.123-.645-.2-1.3c2-2.3 4.3-4.3 6.6-4.3zm-142.4 26.4c2.4 2 5.4 4.4 9.1 6.8a10 10 0 0 1-3.2 1.6c-1.6.4-3.1.3-4.7 0a18.6 18.6 0 0 1-1-5.6 75 75 0 0 1-.2-2.8Zm158.2 0-.1 2.8a19 19 0 0 1-1 5.5 9.24 9.24 0 0 1-4.138.166 9.7 9.7 0 0 1-3.862-1.666c3.7-2.4 6.8-4.8 9.1-6.8Z" clip-rule="evenodd"/><path fill="url(#c)" fill-rule="evenodd" stroke="#000" stroke-width="1.2" d="M426.2 339.6s-6.1-11.1-11.1-10.2c-5.1.7-10 7.8-10.2 8.2-2.828-2.79-5.348-5.981-7.5-9.5.3-.4 7.8-20.9 12-21.8 4-.9 12.7 1.5 12.7 2.3z" clip-rule="evenodd"/><path fill="url(#d)" fill-rule="evenodd" stroke="#000" stroke-width="1.2" d="M439.8 327.7c0 .8-2.2 30.2-10.9 40.4-8.6 10.3-23 16.6-28.2 15.1-5-1.6-16.5-31.3-16.5-31.3s12.2 14.2 21.3 11.8c9.1-2.3 14.6-20.1 16.3-28.9 1.7-8.6.3-25.7.3-25.7l17.8 18.6z" clip-rule="evenodd"/><path fill="url(#e)" fill-rule="evenodd" stroke="#000" stroke-width="1.2" d="M532.9 339.6s6.2-11.1 11.2-10.2c5 .7 9.8 7.8 10.2 8.2 2.828-2.79 5.348-5.981 7.5-9.5-.4-.4-7.9-20.9-12-21.8s-12.8 1.5-12.8 2.3z" clip-rule="evenodd"/><path fill="url(#f)" fill-rule="evenodd" stroke="#000" stroke-width="1.2" d="M519.3 327.7c0 .8 2.2 30.2 10.9 40.4 8.7 10.3 23 16.6 28.2 15.1 5-1.6 16.6-31.3 16.6-31.3s-12.3 14.2-21.4 11.8c-9-2.3-14.5-20.1-16.2-28.9-1.8-8.6-.4-25.7-.4-25.7l-17.8 18.6z" clip-rule="evenodd"/><path fill="url(#g)" fill-rule="evenodd" stroke="#000" stroke-width="1.5" d="M401.2 326.2c-4 5.5-6.1 9.8-7.9 13-1.7 3.2-.6 7.7 3.2 14 4.3 6.7 39 33.4 84.1 33.4 45.2 0 79.8-26.6 84-33.4 4-6.4 5-10.8 3.3-14s-3.9-7.5-7.9-13c0 8.3-28.7 38.5-79.4 38.5s-79.4-30.2-79.4-38.5Z" clip-rule="evenodd"/><path fill="url(#h)" fill-rule="evenodd" stroke="#000" stroke-width="1.2" d="m557.7 378.8 7.8-15.1-3.9-3.2c-1 3.8-5.5 5.1-6.3 10-.7 4.7 3 9.4 2.4 8.3Z" clip-rule="evenodd"/><path fill="url(#i)" fill-rule="evenodd" stroke="#000" stroke-width="1.2" d="M564.8 374.5s1.4-6.8-3-7.6-6.8 3.8-6.1 2c.6-2 3.2-4 3.7-10.7.3-6.7-.4-10.3-.4-10.3s1.8-8.7 8.8-7.5c7.2 1.3 7.5 7.6 7.5 9.9a9 9 0 0 1-.6 3.5z" clip-rule="evenodd"/><path fill="#000" d="m539.2 351.7 1.5 2.8 1-.6-.7-2 .1-.3 1.7-1.2 4.4 8.7v.5l-1 .7.5.8 4.2-3-.4-.8-1 .6h-.3l-4.4-8.8 1.6-1.2h.4l1 1.6 1-.7-1.5-2.8-8 5.7zm-10.5 6.7.4.8.9-.4.3.1 3.9 8.9-.1.4-.8.6.3.8 4.1-2.5-.3-.8-.9.4h-.4l-1.8-4.3 4.3-2.4 1.8 4v.5l-1 .6.4.9 4.2-2.5-.4-.8-.9.4-.3-.2-3.8-8.8v-.4l.8-.6-.3-.8-4.1 2.5.3.8 1-.5.3.2 1.5 3.6-4.2 2.5-1.6-3.7.2-.4.8-.5-.4-.9zm-2.4 7.6.2.8 1.2-.3.4.1.9 3.7-.8.4c-2.5.8-4.4-.5-5.3-3.7-.8-3.2.2-5.6 2.5-6.4a3.1 3.1 0 0 1 1.4-.1l.3.2.8 1.7 1.2-.4-.7-3c-1.3 0-2.5.2-3.5.6-3.6 1.3-5.2 4.5-4.3 8.2 1 3.7 3.9 5.4 7.2 4.3a10.9 10.9 0 0 0 3.4-2L530 366l.2-.4.9-.4-.3-.9zm-9.7 10.3 4.7-1.7-.3-.9-1 .2-.3-.1-2.6-9.6.1-.3 1-.5-.2-.8-4.7 1.6.3.9 1-.3.4.2 2.5 9.5-.2.4-1 .4.3.9zm-25.5 4.6 8.3-.8-.3-3.4-1 .1-.2 2-.2.3-3.5.4-.4-4.9 2-.2.3.3.2 1.3h1l-.4-4.4h-1v1.4l-.2.4-2 .1-.4-4.4 3.1-.3.2.2.4 1.7 1.1-.1-.2-3-7.8.8v.9h1l.3.3.7 9.9-.1.3-1 .2v1zm-12.4-12.3v1h1l.2.3.1 9.9-.2.3-.9.2v.8h4.4v-.9h-1l-.2-.4V375h4.4v4.6l-.2.3-.9.1v1h4.4v-1h-1l-.1-.4-.2-10 .2-.3h1v-1h-4.5v1l1 .1.2.3v4l-4.3.1-.2-4 .3-.3h.9v-1zm-9.4-.3v3.3h1l.3-2 .2-.3h1.9v10.2l-.3.4h-1v1h4.6v-.9l-1-.1-.3-.4.1-10h1.8l.3.2.3 2h1v-3.3zM455 378.9l8 .4.2-3.3h-1l-.3 1.9-.2.2-3.5-.1.2-5 1.9.2.2.3.2 1.4h.8l.2-4.3h-.9l-.2 1.2-.2.3h-2l.2-4.6 3 .2.2.2.1 1.7h1.1v-2.9l-7.5-.4v.9l1 .2.1.3-.4 9.9-.2.3h-1v1m-18.6-5.4 4.4 1.6.2-.8-1-.5v-.4l2.5-9.5.3-.2 1 .3.2-.8-4.3-1.7-.2.9.9.4.2.4-2.7 9.4-.2.3-1-.3zm-7.6-3.3a8.2 8.2 0 0 0 2.6 1.6c2.4.8 4.3-.2 4.8-2.2a4.1 4.1 0 0 0 .088-1.672 3.8 3.8 0 0 0-.588-1.528l-1.8-2c-.6-.9-.8-1.6-.6-2.5.3-.9 1.1-1.4 2.2-1 .4.2.8.4 1 .7v.3l-.2 2 1 .3.8-2.8a7.9 7.9 0 0 0-2.5-1.7c-2-.8-3.8.3-4.4 2.2-.115.471-.14.964-.071 1.446s.23.944.471 1.354c.4 1 1 1.5 1.5 2 .9 1 1.2 2 1 2.9-.3 1-1.2 1.5-2.4 1a3.9 3.9 0 0 1-1.2-.8l-.1-.3.4-2.2-1.1-.4zm-9.8-4.6 7.4 4 1.2-3-1-.5-.9 1.7-.3.1-3.1-1.8 1.8-4.3 1.8 1v.3l-.3 1.3.8.5 1.6-4-.8-.4-.7 1.1-.3.2-1.7-1 1.6-4 2.7 1.5.1.3-.4 1.6 1 .5 1-2.6-6.8-3.9-.4.8.8.6.1.4-3.6 9h-.3l-.9-.3zm-1.1-15-3.7-2.9-.5.8.7.7.1.4-4.6 8.2-.4.1-.7-.5-.5.8 3.6 2.8c1.4 1 2.5 1.5 3.6 1.4 1.6-.2 3-1.2 4-3 1.8-3.4 1.3-6.6-1.6-8.8m-1.6 0 .8.6c2 1.5 2.2 3.7.5 6.6-1.7 3-3.5 3.6-5.4 2l-.8-.4 5-8.7zm29.3 13-.1.8.9.3.1.4-1.7 9.7-.3.2h-1v.8l4.1 1 .2-.8-1-.4-.1-.3.7-4.1h.3c1.5.4 1.8 1.3 1.8 3.2.1.9.1 1.7.8 2.7.3.4.7.8 1.4.9a9 9 0 0 0 1.5.2l.1-.8h-.1c-1-.3-1.5-.7-1.5-1.8-.2-1 0-2-.4-3a2.75 2.75 0 0 0-1.3-1.4c1.7 0 2.7-.9 3-2.5.4-2-.5-3.5-2.9-4l-4.4-1.1zm3 1.7.6.2c1.4.4 2 1.4 1.7 2.9-.3 1.7-1.2 2.3-2.8 1.8l-.5-.1.9-4.8zm54.2 1 .1 1h1l.3.2 1.4 9.8-.2.3-1 .3.2.8 4.5-.8v-1l-1.1.2-.3-.3-.6-4h.3c1.6-.5 2.2.2 3 1.9.3.8.5 1.6 1.5 2.2q.6.45 1.8.3a11 11 0 0 0 1.6-.5l-.1-.9h-.2c-1.1.3-1.7 0-2.2-.9-.4-.8-.7-1.8-1.3-2.5-.4-.5-1-.8-1.8-.8 1.7-.8 2.5-2 2.3-3.7-.3-2-1.7-3-4.2-2.5zm3.5.5h.7c1.6-.4 2.5.2 2.8 1.8.2 1.6-.5 2.6-2.2 3h-.6l-.8-4.8z"/><path fill="url(#j)" fill-rule="evenodd" stroke="#000" stroke-width="1.2" d="m401.5 378.8-7.8-15.1 3.9-3.2c1 3.8 5.5 5.1 6.3 10 .7 4.7-3 9.4-2.4 8.3Z" clip-rule="evenodd"/><path fill="url(#k)" fill-rule="evenodd" stroke="#000" stroke-width="1.2" d="M394.3 374.5s-1.4-6.8 3-7.6 6.8 3.8 6.2 2c-.7-2-3.3-4-3.7-10.7s.3-10.3.3-10.3-1.7-8.7-8.8-7.5c-7.1 1.3-7.5 7.6-7.5 9.9 0 2.2.7 3.5.7 3.5z" clip-rule="evenodd"/><path fill="#0072C4" fill-rule="evenodd" stroke="#fff" stroke-width="3.9" d="M480.5 356.1s-82-27-81.4-129.4l.6-135.6H561l.6 134.8c.5 102.4-81.4 130.1-81.4 130.1z" clip-rule="evenodd"/><path fill="#BCBCBC" fill-rule="evenodd" d="m410.3 123.6 2-2c1.3-.8 2.4-1.7 3.7-2.4 1-.6 3-1.1 3.7-1.6a9.5 9.5 0 0 0 3-2.8c.2-1.7.5-3 .5-5 1.3-1 2.4-1.6 3.6-2 1.7-.6 2-1.4 3.8-1.7 1-.4 2.8-.4 4.4-.4s2.7 1.4 4.2 1.6c1.8.8 2.6 1.4 4.1 2.8.7 1.2 1.3 2.2 2.6 3 1.1.6 2.2 1.6 3.4 2 1.5.9 2.7 1.4 3.8 2.8 1 .8 1.4 2 2.3 2.7a27 27 0 0 0 3.4 2.8c1.5 1.1 3 2 5.2 1.7 1.3 0 2.6-.3 4 0 1.8 0 3.4 0 4.8.5 1.8 0 3.2.2 4.8.4 1.5.2 3 .3 4.7.3 1.5.5 3 .4 4.8.4h9.5c1.7 0 3.4.1 4.7.4a33 33 0 0 0 4.7-.4c1.9 0 3.3-.3 5-.4h5.8c1.5.5 3.4.8 4.4 1.7 1.4.4 2 1.1 3.4 1.5 1 .6 2.6 1.6 3.4 2.8a20.5 20.5 0 0 1 2.7 4.4c1 1.5 1.3 3.3 2 5.2.4 1.8.7 3.5.7 5.5.4 1.7.3 3.6.3 5.6-.3 1.8-.4 3.8-1 5.5 0 2-.4 3.7-.7 5.2-.2 1.6-.6 2.7-.7 4.7v5.6c0 1.8-.4 3.2-.6 5.1a62 62 0 0 0-2.4 6 11.6 11.6 0 0 0-2.7 3.2c-.7.5-1.1 1.3-1 1.6 1.4.5 1 1.6 1 3.5l.7 5.2c.1 2 .5 3 1 4.4.6.8.7.4-.7.4-1 .8-2 .4-2.3-1.2a10.7 10.7 0 0 1-1.4-4.4c-.2-1.8-.5-3.6-1-4.8-.2-2.2-.7-2.2-2.7-2.4-1-.9-2.2-1.1-4-1.1-2 0-2-.2-2 2v5.6c-.4 1.6-1 2.8-1.5 4.3-1 .8-1.4 2.2-2.7 3.2-.5 1.8-1.4 2-3 2.4l-2-2.8c1-1.8 1.7-2 2.3-4 .8-1.6 1.2-2.6 1.7-4-.7-1.2-1.3-1.8-2-3.5a23 23 0 0 1-1.7-4.4c-1.1-.4-2.9-.5-3.7-1.2-1.7-.4-2.1 1.7-4 1.7h-4.8c-2.1 0-2.6 1.2-4.4 1.1-.5.2-1.8 0-3.7 0-1.5.6-3.2.4-4.8.4-1.7 0-3-.5-4.4-.8-1.5-.5-3-1-4.7-1.2-2 0-2.7.2-4 1.2-1 .7-2.6 2.3-3.7 3.2-.5 1.3-.8 3.5-1.5 5.1-.3 1.7-.9 2.6-1.2 4a16.6 16.6 0 0 0-1 4.8c-.2 2.6-.7 2.3-2.1 1.6-.6-1.2-1.5-2.3-2-3.6.2-2 .7-3 .7-5.1-.4-1.7-1.1-1.5-2-.5 0 2.1 0 3.7-.8 4.8a5.3 5.3 0 0 1-.727 1.777 4.7 4.7 0 0 1-1.273 1.323c-.5 1.5-1.6 2.3-2.7 2.8-.2 0 0-.5 0-1.6-.8-1.7 0-3.3 0-5.5 0-2-.2-3.3.4-5.1 0-2-.8-3.8-1-5.2-.7-1.5-1.1-2.2-2.8-2.8-1.2-.6-3-1.2-3.7-2.5-.785-1.215-1.86-2.151-3.1-2.7-1.5-.6-2.3-1.2-3.4-2-1-1.3-1.9-1.8-2.3-3.5-.7-1.2-.8-3.5-1.3-5.2a19.6 19.6 0 0 0-1-4.7 22 22 0 0 0-1-4.8l-1.1-5.2c0-1.9 0-3.8-.4-5.5v-5.6c-.2-1.7-.3-4-.6-5.2 0-2.1-.3-3.3-.8-4.8-.7-1.4-.7-2-2-2.3-.8 1.2-2.2 1.8-4 2-1.2-.3-3-.6-4.4-1.2-1.4-.4-2.2-1-3.3-1.7a35 35 0 0 0-2.1-3c-.2-2.1-.6-3.2-.7-5.3 0-1.5 0-.6 1.4-2.7" clip-rule="evenodd"/><path fill="#FEFEFE" fill-rule="evenodd" d="m430.3 138 .3-.4c-.6.7-.4.3 1-.3.6-.4 2-1.4 2.5-2 .6-.3 1.7-.7 2.2-1.3.6-.8 1.3-1.5 2.2-2.2.9-1 1.7-1.3 2.8-2 1.3-.2 1.9-.8 3.1-.3 1.2.3 1.7.3 2.6-.9 1-.6 2.1-1.4 2.5-2.4v-1.8c0 1.8-.4 2.5-1.5 3-.7 1.1-1.8 2.2-2.2 3.2-.7 1.2-.9 1.9-1.6 2.5-.7.9-1.7 1.4-2 2.8.4.7 0 1 .8 1.1.7.7 1.4.4 2.4 0a12 12 0 0 0 1.9-3.3l1.7-2.9c.8-.6 1.3-1.1 1.6-2.2 1-.6 1.8-1.3 2.5-2 .7-.4 1-.9 2-1.1a5.53 5.53 0 0 1-.7 3.1c-.2 1.6-.1 2.3.3 3.3.7.6.6 1 1 2 .4-1 .6-2.7.7-3.9v-.2c0 1.1 0 2.8-.3 3.6 0 1.6.4 2.4.8 3.6.3.7.7 1 1.1 1.4 0-1.6.5-2.6.6-4.1l.4 3.9c0 1.3.5 2.3 1 3.3.5.4.7 1.5.9.6.6-2 .6-4 1-6.2 0-1 0-2.6.5-3.3l-.6 3.3c.1-1 .2-2.5.6-3.3v-.4c.266 1.518.433 3.055.5 4.6 0 1.2-.1 2.4.2 3.6.7-.4 1.2-1.4 1.7-2.5a15.2 15.2 0 0 1 1.9-3.1l-2 3a15 15 0 0 1 2-3v-.2a37 37 0 0 0-.2 3.8c0 1.3 0 2.8.2 3.7.3 1.5.6 1.7.7 3.3 0 .8-.1 1.7.2 2 1 .3 1-.3 1.2-2 0-1.7.4-3 .5-4.7 0-2.1.2.3.5 1 .437 1.208.674 2.496.7 3.8 0 .8 0 1.6.2 2 1-.5 1.3-1.7 2-2.3.4-1.4 1-2 1.4-2.8 1.2-.3 1.2-.9 1.2-2.5 0-1.4-.1-2.8.3-4 .362-1.213.663-2.449.9-3.7.4-.2.9.5 1.2 1.2.5.9.4 2.2.4 3.6.3 1.3.7 2.2 1.3 3.4.418 1.01.956 1.952 1.6 2.8.3.9.3 2.5.3 3.7 1-1.2 1-3 1.1-4.8-.1-1.2-.1-2.8-.4-4 0-1.2-.3-2.4-.5-3.3-.7-.4-1-.8-.2-2 .7-.7 1.6-.4 2.8-.2.7.7.9 1.1 1 2.8 0 1.5 0 2.6.5 3.6.4.8.9 1.4 1.2 2.8.3.4.6 1 1.1.3.3-.8.5-2.4.8-3.4.2-1 .6-1.6 1.1-2 0 1.6 0 2.5.6 3.7l1.1 3.1c.5.4.6 1.3 1.3 1.7l.2-4.5v-4c0-1.2.4-2 .7-3 .8 1.1.8 1.5.8 3 .7-.3.8-1 1.1-1.9.5-.6.8-.8 1 .6.1 1.5.4 2.8.7 4.2.5.6 1 2.2 1.6 2.8.426.824.929 1.595 1.5 2.3.4.8.4 1.4 1.5 1.6 0-1.9 0-3.8-.3-5.6 0-1.6-.3-2.2-.5-3.7-.4-.9-.6-2.4-.5-2.8a9 9 0 0 1 2.2 3.4l1.5 3.7a16.6 16.6 0 0 1 1.8 2.8c.9.8 1.3 1.7 2.2 2.5.4.5 1.5.8 1.7.5 0-1.6-.3-3-.7-4.4a8.1 8.1 0 0 0-.8-3.4c-1-.9-1.7-1.5-2.2-2.8-.3-.4-.3-.6-.4-1.4a20.7 20.7 0 0 1 3.4 3.9 5.43 5.43 0 0 0 1.9 2c.4.6 1.8 1.4 2.8 1.6.594.869 1.445 1.472 2.4 1.7l-2.4-1.6c.609.832 1.458 1.398 2.4 1.6v.4a11.6 11.6 0 0 0-1.4-4.6c-.475-1.208-1.236-2.246-2.2-3a7.16 7.16 0 0 0-2.4-2.5c-.6-.9-1.6-2.4-2.2-2.8 1.1-.9 2.3.4 3.4 1 1 1.2 1.8 2.7 2.4 3.4a15 15 0 0 0 2.2 3.7c1 .7 1.7 1.3 2.6 2.2 1.4.4.9-.1.5-1.4-.5-1.6 0-1.6 1-.6.6.6 1.4 1.4 2.4 2 .3.6 1 1 1.6.6.3-.4.3-.4.3-.8-.5-1.8-1-3.2-2.2-3.7-.5-.9-1.5-1.7-2.2-2.5-.5-.8-1-1.3-1.4-2.3l1.4 2.2c-.5-.8-1-1.2-1.4-2.2h-.2c1.4 0 2 .5 3 1.2.89.415 1.654 1.11 2.2 2 .5.6 1.2 1.3 1.7 2.1l2.4 2c.8 1.2 1 2 1 3.6.4.9.5 2.5.7 3.4-.2 1.6-.7.3-.8-.6-.1-1.2-.6-1.1-1.4-.8 0 1.7.2 2.2.7 3.4a7.1 7.1 0 0 1-.9 2.8c-.6.4-.7-.8-1.2-1.4 0-1.7-.5-2-1.5-2.8v1.1c.6 1.2 1.2 2.3 1.2 3.9.408 1.179.612 2.435.6 3.7 0 1.4 0 2.7-.3 4 0 1.4-.3 2-.3 3.6v7.9a21.7 21.7 0 0 0-.2 3.6l.2-3.6c-.2 1-.2 2.2-.2 3.6v.2c-.4-1.4-1-2.6-1.2-4a8.8 8.8 0 0 1-1.6-3c-.3-1.2-.3-2.6-.5-3.6-.4-1-.8-2-1.5-1.4-.3 2 0 3.3.7 5.3.4 1.3.4 2.5.8 3.7.5 1.5 1 1.6 0 3.3-.6 1-.8 1.2-1 2.3-.9.5-1.1.8-1.2 2-.3-1.1-1-2.4-1.4-3.7-.5-1.4-1-2.8-1.2-4-.6-.9-1.3-2.4-2-3l-1.8-3.3c-1-1.3-1.2-2-2-2.6-.1-.5-.4-1.3-1-.8 0 1.3 0 2.7.3 3.9.3 1.6.7 2.5.8 4.2v3c-.6-1.6-1.3-2.9-1.7-4.4-.6-.9-1.1-2.5-1.7-3-.4-1.2-.7-2.1-1.2-2.9-.1-.8-.5-.8-.8-1.4 0 1.6.5 2.2.8 3.3.5 1.2.6 2.9.5 3.5-.6-2-1.2-4.1-2-6a26 26 0 0 1-1.8-3.7c-.8-.9-1.5-1-2.2-1.6a4.4 4.4 0 0 1-1.7-1.4c.2 1.5.7 2.5 1 3.6.2 1.4.7 2.6.9 3.7-.2 2-.6-.5-1-1.4-.2-1.6-.7-2.4-1.1-3.3-.7-.6-1.3-1.5-2-2-.7-.3-.4 0-.4 1 0 1.8 0 3 .5 4 .5.8.5 1.9.5 3.4-.1 1.4-.3 2.4-.3 4v2.1c-.5-1.1-1-1.9-1.5-3.3-.7-1.3-1-2.3-1.6-3.7-.5-.2-1.5-.4-2 0 .2 1.4.7 2 .8 3.7-1 1-.8 1.4-1.4-.3-.6-1.3-1.2-1.2-2-2-1.2-.1-.8-1-1.1-2.3 0-1 0-2-.3-3-1.3 0-2 0-2.9.8-.3.8-.2 2.5 0 3.7v3.9c-.3 1-.7 1-1 2.3-.4 1.1-.5 2.5-.9 3.3-.9.9-.5 1-1-.5v-9c0-1.5.3-2.3.3-3.7-.5-1.1-.6-1.4-2.2-1.4a6 6 0 0 0 0 2.8c0 1.4.1 2.7.3 3.7l.2 3.6c0 1.5-.3 2.7-1 3.3-.8.4 0 1-.9 1.3a11 11 0 0 1-2.6-2c-1-.3-1.8-.6-3.1-.6-1.6 0-1.6-.2-2.2-1.6a28.5 28.5 0 0 1-1-4.6c-.5-1.3-.6-2.2-1-3.7a5.04 5.04 0 0 0-1.4-2c-.3 1.6-.6 2.7-.6 4.3-.3.7-.4 2.4-.6 3-.4-.7-.6-2.4-1-3.5-.3-1.7-.7-2.8-2.3-2.2-1.6 0-1.6 0-1.6 2l1.9 3.2v4c0 1.6 0 2.1-1 2.4-.4-1.6-1.2-3.3-2.2-4.7 0-1.1-.4-.8-1.4-.8-.6 0-1.3-.1-1.7.3v2.4c-.5.2-.7 0-1.1-.5-.5.9-.2 2 0 3a10 10 0 0 1-1.2 3.2c-.2-.4-.4-.2 0-.2-1.7-.8-3-1.2-4.4-1.7-.7 0-1.4 1-1.8 1.7-1.3.4-1.8.8-3.2.8l-3 .2c-1 .3-2 .4-3.2.4-.6-.3-1.8-.3-2.1-.6.5-.8 1-1.2 1.4-2.5a15.4 15.4 0 0 0 2-2l1.8-2.3c.4-1.4 1-1.6 1.7-2.2 1.5 0 1.7.6 3.1.8 1.4.6 2.2.9 3-.3 1-.5 2-1.4 3.2-1.6l2.4-1.7c1-.7 1.5-1.5 2.4-2.3.3-1.1 1-2 .7-3.3-1.3-.4-2.1-.3-3 .5-.9 1-1 1.4-2.3 2.2-1 .4-1.4.9-2.6 1.2-1 .4-2.2.2-3.3.2s-2.5 0-3.1.4c1-.8 2.3-1.7 3.3-2 1-.7 1.4-1 2.7-1.2.6-.8 1.1-.8 1.4-2.2.4-1.6-1-1.1-2-.5-.9.2-2 1-2.8 1.3a9.5 9.5 0 0 1-3 .6c-.4-.5.1-.9.4-1.6 1-.5 1.3-.7 1.4-2-1.3.2-1.7.7-2.9.8a18 18 0 0 1-3.8.6h-3.3c-1.2 0-1.8-.3-3.2-.3-1-.6-1-.8-1-2.5.8-1 1.5-.8 3-.8l2.6-1.5c.9-.2 1.4-.6 1.2-1h-3.3c-1.4-.7 0-1 .7-1.5 1 0 2.3 0 3 .5 1.5 0 2-.5 3.1-1.6 1-.8 1.5-1.4 2.5-2 .7-.9 1.4-1.4 1.9-2.2 1-1 1.7-1.7 2.2-2.6.6-.4 1-.8.7-1.4-1.5.2-2.2.9-3.2 1.7a7.4 7.4 0 0 1-1.9 1.6 5.64 5.64 0 0 1-3.1 1.3c-1.2 0-2.2-.3-3.3-.4-1.3-.1-.2-.5.2-1.1.5-.3.9-1.2.5-2-1-.3-2.2-.2-3.3-.2h-3.4c-1.3 0-1.8-.4-2.7-.9-.2-.8 0-.5 1-.5a12 12 0 0 0 3.1-.6c1.1-.3 1.3-.8 1.5-2.2-1.2 0-2.4 0-3.1-.3zm-20.7-6.5c-.2-2-.7-3.1-.7-5.2 0-1.5 0-.6 1.4-2.7l2-2c1.3-.8 2.4-1.7 3.7-2.4 1-.6 3-1.1 3.7-1.6a9.5 9.5 0 0 0 3-2.8c.2-1.7.4-3 .4-5 1.4-1 2.5-1.6 3.7-2 1.7-.6 2-1.4 3.8-1.7 1-.4 2.8-.4 4.4-.4s2.7 1.4 4.2 1.6c1.8.8 2.6 1.4 4 2.8.8 1.2 1.4 2.2 2.7 3 1.1.6 2.2 1.6 3.4 2 0 1.4.3 1.2-.6 1.2-.1 1.5-.4 1.3-1.7 1.4a6.2 6.2 0 0 1-2.2-2.3c.6-1.4.3 1.2 0 1.7-.5.6-.9 1.2-1.6.6-.4-1.4-.7-2.3-.7-4-.2-1.7-.7-.5-1 .3-.3 1.5-.2 2 .3 3.1-1.3 0-2.2-.2-3.1-.3-.9-.3-2 0-3 .6-1.2.9-.7.9-.2 2 1.1.3 2 1 3 1.6l3.3-.8c1.1-.5 2.2-.2 3.3 0 .6.4 1.4.4 1.7.8 0 .9 0 1.8-.3 2.3-.4.4-1 1.4-1.7 1.6a11.2 11.2 0 0 1-3.2 1.5c-1.5 0-2.1.4-3.2 1-.1 1.6-.5 1.9-1.7 2.4a6.77 6.77 0 0 1-3.3.8c-.7 0-1.4 0-1.7-.3a10.7 10.7 0 0 0 2-3.3c.2-.7.6-1 .2-1.5-1.4 0-1.8 0-2 1.6-.1 1.6-.6 1.9-1.6 2.4.3-1.4.3-2.5.7-3.7-.991.193-1.994.293-3 .3-.8.5-1.1.7-.8 1.6-1 .4-2.2.2-3.4 0-1 0-.4-.5-1.2-1-.5-1.1-1-1.4-2.2-1.4-.5.8-1.4 1-2 1.6-1.1.4-1.8 0-2.7-.5-1.2 0-1 .4-.7 1.4.5.3 0 .7.7.8.7.7 1.3.9 2.6.9 1-.4 2.2-.3 3.4-.3s1 .3 1 1.6c-.8.7-2 .6-3.2.6a11.1 11.1 0 0 1-2.9-.8c-1 0-2-.3-2.8 0-.4.5-1.5.7-.2.8.5.6 3.3.3 3.4 1.3.7.8.5 1.9-.6 1.9a1.47 1.47 0 0 0-.85-.275 1.47 1.47 0 0 0-.85.275l-3.1.1c1.8.2-1.3-2.2-2-3.2" clip-rule="evenodd"/><path fill="#BCBCBC" fill-rule="evenodd" d="m417.1 122.2-1.4 1-2.9 2.3c-.5.5-.5.8-1.1.8 1-.1 1.6-.5 2.6-1 1.2-.2 2.4-.5 3-1.2.7-.2 0-1.3-.2-2zm11-13.2c.2 0 .5.8 1 1.4.4 1 .7 1.8.7 3 .3-1.3.8-2.4 1-3.9-.4-.8-.4-1-1.5-1.1 0 .8.2.2-1.2.6" clip-rule="evenodd"/><path fill="#C4C4C2" fill-rule="evenodd" stroke="#000" stroke-width="1.055" d="M421.517 118.917c-.542 0 .868-.633 1.41-.76.434-1.013.651-1.647 1.41-2.28 1.193 0 1.844.507 2.386 1.393 1.084.38 1.41.887 2.603 1.14.542.507 1.084.507 0 .887-.651.38-1.627.507-2.82.507a7 7 0 0 0-2.82.887c-1.626 0-1.41 0-2.169-1.774Z" clip-rule="evenodd"/><path fill="#BCBCBC" fill-rule="evenodd" d="M432.5 109.2v.3c0-.8 0-.4.2 1.2a8.2 8.2 0 0 1 .5 3.3 5.57 5.57 0 0 0 1.5-2.5c0-2.2-.4-2.1-2.2-2.3m8.8 32.3h.3c-.8 0-.3 0 .9-.8.8-.6 1.5-1.6 2.6-2a9.3 9.3 0 0 1 3.1-2c.6-.3 1.1-.8 1.7-.2-.1 1.3-.4 2-1.5 2.5-.5.8-1.3 1.3-2 1.6-.8.5-1.7.5-2 1.5-1.3.7-1.5.5-3-.6zm4.6 8.2c.3-.4 1.9-2.2 2.6-2.8a11.8 11.8 0 0 1 2.4-2.8c.7-1.2 1.6-2 2.2-3.1l1.9-2.8c0 1.2-.2 2.8.2 3.6a6.4 6.4 0 0 1-.8 3.4c-.5 1-1 1.6-2.2 2.3-1 .6-1.6.8-2.5 1.6q-1.059.782-2.2 1.4c-.7.3-.4.3-1.6-.8m-7.5 6.4h.3c-.7 0-.4 0 1-.8 1-1.2 1.8-1.7 3-2.2a6.8 6.8 0 0 0 3-.9c.5-.1 1-.5 1.3 0 .8 1.2 1 1.5-.2 2.3a6.7 6.7 0 0 1-2.4 1.4c-.6.5-1.8.5-3 .8-.8 0-1.4.1-1.8-.6l2 .6c-1 0-1.5.1-3.2-.6m10.3 0v-.2c0 .8 0 .4.5-1.2 1-1.6 1.2-2.5 2.4-2.8.5-.8 1.5-1 2.6-1.4.5.8.1 1.8 0 2.8-.3 1-1.1 1.8-1.7 2.6-.7.5-1 1.1-2.2 1.4-.8 0-.3 0-1.6-1.2" clip-rule="evenodd"/><path fill="#000" fill-rule="evenodd" d="M425.3 119.7c0 .7-.5 1.4-1.2 1.4s-1.2-.7-1.2-1.4c0-.8.6-1.4 1.2-1.4.7 0 1.2.5 1.2 1.4" clip-rule="evenodd"/><path fill="#005120" fill-rule="evenodd" stroke="#002B0D" stroke-width="1.563" d="M428.82 196.129h.976c-3.036 0-1.193-.254 3.796 4.433 2.169-2.027 2.169-2.28 3.795 1.267 1.085 1.9 1.302-.253 2.929-2.28.759 4.053 1.192 8.234 3.795 4.433 3.037 0 6.073-.253 7.7 1.14 1.952 4.181 1.301-.76 2.82 1.141 4.338.506 4.229-4.307 8.784-5.574 2.82 4.18 4.121 1.013 7.591-1.014 2.712.761 5.206 5.447 5.748.887 2.169-4.053 2.277-3.8 3.796 0 2.169 2.28 3.036-1.013 4.771-2.153 3.254 2.153 6.833 2.533 11.496 1.14.868 3.673 2.82 2.027 4.88 1.013 4.23 2.154 5.639 2.787 10.52 0 2.385-3.293 1.084.127 2.819 2.28 3.579-1.266 2.603-1.52 6.724-1.14 4.229 0 4.555 0 5.748-3.293 2.169 2.407 2.819 4.18 5.747 1.14 4.555 0 3.145.633 5.748-1.267 2.061 5.067 2.495 1.52 4.88 3.42-1.341 3.742-3.705 6.86-6.723 8.867-1.844 3.801-3.037 7.601-6.724 9.121-2.711 3.167-5.639 5.067-8.676 7.854-4.121 1.267-8.676 1.013-13.339 1.013h-40.343c-2.819 1.774-7.591 2.534-11.495 3.42-4.338 0-9.435 0-12.472-1.14-2.06-2.407-5.639-5.067-7.591-7.854-2.169-1.9-2.169-5.573-3.904-7.853-1.519-3.167-2.169-8.234-3.796-11.148z" clip-rule="evenodd"/><path fill="#005120" fill-rule="evenodd" d="M521.76 206.263v1.013c0-3.04.108-1.393-1.952 4.56-.325 1.394-1.302 1.774-2.82 2.28m-3.795-3.42h.976c-3.579 3.8-5.965 5.7-6.724 10.134l6.724-10.134c-3.579 3.8-5.965 5.7-6.724 10.134m-7.7-15.707s-.108 3.926-.976 5.573Zm-3.796 7.853v1.014zm-7.699-6.713h.976-1.085c.434 0 .759 0 0 0zm-53.682 0c.434 0 2.386 3.546 4.771 5.573-.542 3.294-1.518 7.094 0 10.134m2.929-8.994c.433 0 2.277 3.547 4.771 5.574zc.433 0 2.277 3.547 4.771 5.574v1.14c0-3.547-.217-7.094.976-8.994 1.085 2.154 2.386 5.447 2.82 2.28 5.422-.253 8.025-2.026 11.495-3.42 0 1.647-.216.887 1.085 2.28m65.069-4.56h.976c-1.844 1.773-3.254 5.447-4.772 7.854m-35.462-11.148h7.591Z" clip-rule="evenodd"/><path stroke="#002B0D" stroke-width="1.563" d="M521.76 206.263v1.013c0-3.04.108-1.393-1.952 4.56-.325 1.394-1.302 1.774-2.82 2.28m-3.795-3.42h.976c-3.579 3.8-5.965 5.7-6.724 10.134l6.724-10.134c-3.579 3.8-5.965 5.7-6.724 10.134m-7.7-15.707s-.108 3.926-.976 5.573m-64.201-4.433c.434 0 2.386 3.546 4.771 5.573-.542 3.294-1.518 7.094 0 10.134m2.929-8.994c.433 0 2.277 3.547 4.771 5.574zm0 0c.433 0 2.277 3.547 4.771 5.574v1.14c0-3.547-.217-7.094.976-8.994 1.085 2.154 2.386 5.447 2.82 2.28 5.422-.253 8.025-2.026 11.495-3.42 0 1.647-.216.887 1.085 2.28m65.069-4.56h.976c-1.844 1.773-3.254 5.447-4.772 7.854m-35.462-11.148h7.591m-.868 8.994v1.014zm-7.699-6.713h.976-1.085c.434 0 .759 0 0 0z"/><path fill="#fff" fill-rule="evenodd" d="M425.9 214.3c-11.5 0-15.4 13.5-26.9 13.5h-.6v.8c0 9.4.6 18.1 1.8 26.2 10.6-.8 14.5-13.4 25.7-13.4 11.5 0 15.3 13.4 26.8 13.4 11.6 0 15.4-13.4 26.9-13.4s15.4 13.4 26.9 13.4 15.3-13.4 26.8-13.4c11 0 15 12.5 25.6 13.4a175 175 0 0 0 1.9-27h-.7c-11.5 0-15.3-13.4-26.8-13.4s-15.4 13.5-26.8 13.5c-11.5 0-15.4-13.5-27-13.5-11.4 0-15.3 13.5-26.8 13.5-11.4 0-15.3-13.5-26.8-13.5zm0 52.7c-9 0-13.2 8.2-20.2 11.8a132 132 0 0 0 8.6 20.5c3.3-2.8 6.7-5.2 11.6-5.2 11.5 0 15.3 13.5 26.8 13.5 11.6 0 15.4-13.5 26.9-13.5s15.4 13.5 26.8 13.5 15.4-13.5 26.9-13.5c4.162.171 8.149 1.934 11.3 5a133 133 0 0 0 8.6-20.4c-6.7-3.7-11-11.7-20-11.7-11.4 0-15.3 13.5-26.8 13.5S491 267 479.6 267s-15.4 13.5-26.9 13.5c-11.4 0-15.3-13.5-26.8-13.5m53.7 52.7c-11.5 0-15.4 13.5-26.9 13.5-10.9 0-14.9-12-25-13.4a132 132 0 0 0 39.3 33c3.6-3.2 7.3 3.6 12.5 3.6 5.3 0 9-6.9 12.5-3.8 14.728-8.024 27.963-19.121 39-32.7-9.8 1.7-14 13.3-24.6 13.3-11.5 0-15.3-13.5-26.8-13.5" clip-rule="evenodd"/><path stroke="#512007" stroke-width=".584" d="M408.26 268.275a106 106 0 0 1 11.349-3.785l17.617 19.81-14.483 3.407z"/><path stroke="#512007" stroke-width=".574" d="M443.012 300.606c.274-4.598 8.065-30.991 8.065-30.991m-5.408 31.291 6.141-31.092m-4.033 31.192 5.133-31.192m-9.624 26.993c1.375-.799 5.316-1.999 5.316-1.999m-3.391-2.599c1.283 0 3.941-1.2 3.941-1.2m-3.208-2.299a20.5 20.5 0 0 1 4.033-1.2m-3.483-3.199 4.308-.8m-2.383-2.999c0 .3 2.933.3 2.933.3m-2.2-3.699 2.933.499"/><path stroke="#512007" stroke-width=".544" d="M493.32 319.854c-.324-7.858-9.511-52.957-9.511-52.957m6.377 51.419-7.241-51.248m3.999 47.319c-.217-2.904-5.296-47.149-5.296-47.149m11.348 46.124c-1.621-1.366-6.269-3.416-6.269-3.416m3.999-4.442c-1.513 0-4.647-2.05-4.647-2.05m3.783-3.929a19 19 0 0 0-4.756-2.05m4.107-5.466-5.08-1.367m2.811-5.125c0 .513-3.459.513-3.459.513m2.594-6.321-3.459.854"/><path stroke="#512007" stroke-width=".584" d="M520.038 303.683c-.324-5.804-9.511-39.116-9.511-39.116m6.377 37.981-7.242-37.854m3.999 34.952c-.216-2.145-5.296-34.826-5.296-34.826m11.349 34.069c-1.621-1.01-6.269-2.524-6.269-2.524m3.999-3.281c-1.513 0-4.647-1.514-4.647-1.514m3.782-2.902a23 23 0 0 0-4.755-1.514m4.107-4.038-5.08-1.01m2.81-3.785c0 .379-3.458.379-3.458.379m2.594-4.669-3.459.631"/><path fill="#DD8B59" fill-rule="evenodd" stroke="#512007" stroke-width=".584" d="m476.135 307.139.973-92.112s2.81-.379 2.81 0c0 .378-.324 91.733-.648 92.112s-3.459.631-3.135 0Zm30.804-88.074-.649 77.348-2.162 3.029.649-80.377z" clip-rule="evenodd"/><path fill="#DD8B59" fill-rule="evenodd" stroke="#512007" stroke-width=".584" d="M441.225 291.997s3.243 37.854 39.342 36.719c36.099-1.136 46.15-38.107 46.15-38.107l-15.671-.757c-.325 0-12.538 17.665-28.318 17.287-15.779-.379-20.751-4.795-24.21-8.454-3.458-3.786-6.485-9.212-6.485-9.212l-18.374-8.454 1.081 8.076zm97.598-3.785-1.081-5.048v-4.29l1.729-4.542s-27.345 4.668-27.345 5.047l-.108 8.58 26.805.126z" clip-rule="evenodd"/><path stroke="#512007" stroke-width=".584" d="M440.036 291.619c.973 0 8.214 1.892 8.214 1.892l7.566 11.735m77.819-26.372-.649 7.571h4.431l-.324-7.571zm-4.648.379-.324 8.075 2.81-.378.324-7.697zm-4.755 8.075v-6.309l2.81-1.135.324 6.309zm-5.405-.378.649-5.552 3.242.378.217 5.931zm-5.944 0 .324-4.795 3.243-.379v5.552z"/><path stroke="#512007" stroke-width=".584" d="M445.332 293.133c.324.378 6.593 24.983 36.748 24.983s37.396-27.886 37.396-27.886"/><path stroke="#512007" stroke-width=".584" d="M524.232 290.988s-14.483 36.592-42.152 34.068c-27.561-2.523-31.992-14.637-34.154-20.946-2.161-6.309-3.458-11.356-3.458-11.356"/><path fill="#DD8B59" fill-rule="evenodd" stroke="#512007" stroke-width=".584" d="M452.249 289.473c.325-2.145.325-68.642.325-68.642l-1.838-.252-.324 67.759 1.837 1.262zm-44.853-21.576 23.778 13.501-.541 1.893s-22.913-12.618-22.913-12.997.216-1.893-.324-2.524z" clip-rule="evenodd"/><path fill="#DD8B59" fill-rule="evenodd" stroke="#512007" stroke-width=".584" d="M418.312 263.859c0 1.009 3.459 23.469 3.459 23.469s2.161.379 2.161 0l-3.675-23.091zm22.049.631c1.188 0 22.697-4.038 22.697-4.038l-.433 4.038-21.076 2.523z" clip-rule="evenodd"/><path fill="#FECF3E" fill-rule="evenodd" stroke="#512007" stroke-width=".584" d="M443.387 234.08c.756 0 7.566 4.038 10.484 3.028 2.918-1.009.972-3.785 1.513-3.785.648 0 2.81 1.893 4.107.379 1.297-1.388 2.162-5.805 1.621-5.426-.648.378-17.293 7.318-17.617 5.804z" clip-rule="evenodd"/><path fill="#DD8B59" fill-rule="evenodd" stroke="#512007" stroke-width=".584" d="M440.685 243.291c1.189.379 25.723-7.697 25.723-7.697s0 2.524-.324 2.524l-25.399 7.697z" clip-rule="evenodd"/><path fill="#FECF3E" fill-rule="evenodd" stroke="#512007" stroke-width=".584" d="M497.427 231.935s1.622 4.416 3.243 3.659 3.134-2.271 3.134-2.271 1.297 3.785 3.459 3.028 3.458-4.795 3.458-4.795 2.162.758 3.135.379 2.161-6.309 2.161-6.309l-18.482 6.309zm-1.837 35.583c-.324.757 1.621 2.524 3.242 2.524 1.622 0 2.162-2.524 2.486-1.767.325.631.325 4.038 4.324 2.902 3.999-1.135 4.107-4.416 4.107-4.416s-1.189 1.136 1.621 1.514 5.62-4.795 5.404-4.795c-.432 0-20.536 4.416-21.184 4.038Z" clip-rule="evenodd"/><path fill="#DD8B59" fill-rule="evenodd" stroke="#512007" stroke-width=".584" d="M441.658 232.566a7.3 7.3 0 0 0 .216 3.407l20.535-8.076s.865-1.892 0-1.892c-.864 0-21.076 7.318-20.86 6.687zm27.02-5.047c.54 0 20.968-7.697 20.968-7.697s.324 3.28 0 3.28l-19.131 6.562-1.945-2.145z" clip-rule="evenodd"/><path fill="#FECF3E" fill-rule="evenodd" stroke="#512007" stroke-width=".584" d="M495.59 243.67s-3.134 4.038-2.162 9.464c.973 5.551 2.162 10.346 2.486 10.346s3.783-7.318 7.566-7.697c3.783-.378 10.7 4.038 10.7 4.038s-.973-8.833-.648-12.87c.324-4.038 5.62-10.978 5.62-10.978l-23.562 7.571z" clip-rule="evenodd"/><path fill="#DD8B59" fill-rule="evenodd" stroke="#512007" stroke-width=".584" d="M467.057 236.982s-.649 3.407-.325 3.407l26.696-8.075v-2.398l-26.371 6.94z" clip-rule="evenodd"/><path fill="#B6B6B4" fill-rule="evenodd" stroke="#512007" stroke-width=".584" d="M433.119 281.398s-6.269-1.009-5.944.757c.324 1.893 3.134 3.659 3.458 4.795s-.972 5.047.973 4.795c1.837-.379 3.675-1.893 3.675-3.029l-.325-6.309z" clip-rule="evenodd"/><path fill="#DD8B59" fill-rule="evenodd" stroke="#512007" stroke-width=".584" d="M468.029 263.102v2.523l22.589-3.659-.648-1.893z" clip-rule="evenodd"/><path fill="#FECF3E" fill-rule="evenodd" stroke="#512007" stroke-width=".584" d="M441.225 267.518c.433 0 0 3.281 2.594 2.524 2.486-.757 3.134-2.524 3.134-2.524s.649 4.038 4.108 3.659c3.458-.378 5.404-4.795 5.404-4.795s.216 3.281 2.377 2.145c2.162-1.135 2.811-3.659 2.811-3.659l-19.779 3.281-.541-.631zm0-21.703s-2.81 1.136-1.837 7.697 3.242 10.347 3.458 10.347c.325 0 2.811-6.309 6.593-7.319 3.783-1.262 10.376 3.281 10.376 3.281s-.648-5.93.324-11.356c.694-3.534 2.103-6.822 4.107-9.59 0 0-22.048 6.94-22.913 6.94z" clip-rule="evenodd"/><path fill="#DD8B59" fill-rule="evenodd" stroke="#512007" stroke-width=".584" d="m494.077 264.868.324 2.271s22.697-3.28 22.697-3.785c0-.252 0-2.524-.432-2.524-.324 0-22.265 4.417-22.697 4.038zm-.324-23.469.324 2.523 26.696-8.328s.648-2.271.324-2.271-26.696 9.211-27.344 8.076Z" clip-rule="evenodd"/><path stroke="#512007" stroke-width=".584" d="m538.39 272.187-19.454-35.836m-2.594 24.858c.324-1.009 1.297-23.091 1.297-23.091m-21.076-8.454s-.324 2.271 0 2.271 19.779-5.552 19.779-5.93 1.945-2.524.324-2.145c-1.513.378-19.455 6.939-20.103 5.804Z"/><path fill="#FECF3E" fill-rule="evenodd" stroke="#512007" stroke-width=".584" d="M469.326 228.654c1.081.253 3.351 4.038 4.648 3.281s3.134-3.028 3.134-3.028-.324 4.416 2.162 3.785c2.594-.757 2.918-3.785 2.918-3.785s1.837 1.261 3.459 0c1.513-1.01 3.026-6.562 2.485-6.562s-18.265 6.562-18.914 6.309zm-.648 10.599c0 .758-3.243 6.562-2.162 12.114s2.702 10.599 3.026 10.599c.325 0 5.08-5.804 9.187-6.94 3.999-1.136 10.052 3.659 9.728 3.659-.325 0-1.622-5.552-1.622-9.589s4.756-16.404 4.756-16.404zm0 26.498c0 .253.864 2.776 3.134 2.776 2.162 0 2.486-2.523 2.486-2.523s-.324 4.416 3.134 4.037c3.459-.378 4.648-4.416 4.648-4.416s.324 2.271 3.242 1.136c2.81-1.136 6.485-4.795 6.269-4.795-.324 0-22.697 4.795-23.021 3.785z" clip-rule="evenodd"/><path fill="#BE0F17" fill-rule="evenodd" stroke="#512007" stroke-width=".575" d="M471.272 251.707c.444.019.864.246 1.165.63s.462.893.445 1.417a2.15 2.15 0 0 1-.537 1.373c-.327.357-.76.546-1.205.526-.444-.019-.863-.246-1.165-.63a2.2 2.2 0 0 1-.445-1.417 2.15 2.15 0 0 1 .538-1.374c.326-.356.759-.545 1.204-.525ZM482.685 248.309c.445.02.864.247 1.166.63.302.384.462.894.444 1.417a2.14 2.14 0 0 1-.537 1.374c-.327.356-.76.545-1.204.526-.445-.02-.864-.246-1.166-.63a2.18 2.18 0 0 1-.444-1.417 2.14 2.14 0 0 1 .537-1.374c.327-.356.76-.545 1.204-.526ZM476.978 255.298c.445.019.864.246 1.166.63s.462.894.444 1.417a2.14 2.14 0 0 1-.537 1.374c-.326.356-.76.545-1.204.525-.444-.019-.864-.246-1.166-.63a2.2 2.2 0 0 1-.444-1.417 2.15 2.15 0 0 1 .537-1.373c.327-.357.76-.546 1.204-.526ZM476.978 244.621c.445.02.864.246 1.166.63s.462.894.444 1.417a2.14 2.14 0 0 1-.537 1.374c-.326.356-.76.545-1.204.526s-.864-.247-1.166-.63a2.2 2.2 0 0 1-.444-1.417 2.15 2.15 0 0 1 .537-1.374c.327-.356.76-.545 1.204-.526Z" clip-rule="evenodd"/><path stroke="#512007" stroke-width=".584" d="M479.27 216.036c0-.252 9.727 4.795 9.727 5.174 0 .378 34.586 54.005 34.91 54.005m-17.293-54.005 8.863 4.416 2.81 8.076m-66.362-13.123c-.324 0 9.728 8.832 9.728 8.832l1.297 7.193m-45.178 37.475c4.323-2.145 34.802-33.311 34.802-33.311m-43.017 27.381 34.262-33.69m22.913 5.047 32.425 62.838m-3.891-36.845s3.783 14.763 7.565 17.034a92 92 0 0 1 8.215 5.805"/><path stroke="#512007" stroke-width=".584" d="M494.833 265.878s2.703 17.413 6.485 20.693 7.566 6.94 7.566 6.94M468.807 265.732s3.675 24.227 11.241 29.779q6.952 5.045 13.834 10.22"/><path stroke="#512007" stroke-width=".584" d="M468.483 265.354s8.106 19.179 15.132 24.983c6.809 5.931 16.212 11.357 16.212 11.357m-57.716-34.7c2.162 4.416 1.838 12.87 4.324 15.772a83 83 0 0 1 6.268 9.59m-10.051-25.11c1.297 2.145 4.755 13.123 6.917 16.404 1.621 3.028 17.617 21.703 17.617 21.703"/><path fill="#000" fill-rule="evenodd" stroke="#512007" stroke-width=".584" d="M461.89 306.236c0 .365-.061.726-.181 1.062a2.8 2.8 0 0 1-.515.901 2.4 2.4 0 0 1-.772.602 2.1 2.1 0 0 1-.91.211c-.312 0-.621-.072-.909-.211a2.4 2.4 0 0 1-.772-.602 2.8 2.8 0 0 1-.515-.901 3.2 3.2 0 0 1-.181-1.062c0-.736.25-1.442.696-1.963.446-.52 1.051-.813 1.681-.813s1.236.293 1.682.813c.446.521.696 1.227.696 1.963Zm11.565 5.931c0 .635-.216 1.245-.602 1.695-.385.449-.907.702-1.452.702s-1.067-.253-1.452-.702c-.385-.45-.601-1.06-.601-1.695 0-.636.216-1.246.601-1.696s.908-.702 1.452-.702c.545 0 1.067.253 1.452.702.386.45.602 1.06.602 1.696Zm14.807 1.514c0 .636-.216 1.245-.601 1.695s-.908.702-1.452.702c-.545 0-1.067-.252-1.453-.702a2.6 2.6 0 0 1-.601-1.695c0-.636.216-1.246.601-1.695.386-.45.908-.703 1.453-.703.544 0 1.067.253 1.452.703s.601 1.059.601 1.695Zm12.862-5.678c0 1.261-.757 2.145-1.73 2.145-.972 0-1.729-1.01-1.729-2.145s.757-2.272 1.729-2.272 1.73 1.01 1.73 2.272Zm10.376-7.193c0 1.136-.973 2.019-2.054 2.019s-2.054-.883-2.054-2.019c0-1.135.973-2.018 2.054-2.018s2.054.883 2.054 2.018Z" clip-rule="evenodd"/><path fill="red" fill-rule="evenodd" stroke="#512007" stroke-width=".584" d="M450.542 222.073c-.973.758-16.645 5.174-14.483 4.795 2.162-.378 14.807 3.786 14.483 2.524s0-6.561 0-7.319Zm26.696-5.425c-.649 0-9.727 4.037-9.403 4.037s10.376 3.281 10.051 2.524-.324-5.552-.648-6.561Zm27.344 3.659c-.648.378-11.348 3.281-9.403 3.659 1.946.379 9.079 3.281 9.079 2.524 0-.631 0-5.805.324-6.309z" clip-rule="evenodd"/><path stroke="#512007" stroke-width=".584" d="M493.234 306.11c.324-5.804 9.511-39.116 9.511-39.116m-6.377 37.98 7.242-37.854m-3.999 34.952c.216-2.145 5.296-34.826 5.296-34.826m-11.349 34.069c1.621-1.009 6.269-2.524 6.269-2.524m-3.999-3.28c1.513 0 4.647-1.514 4.647-1.514m-3.783-2.903a23.2 23.2 0 0 1 4.756-1.514m-4.107-4.038 5.08-1.009m-2.81-3.785c0 .378 3.458.378 3.458.378m-2.594-4.669 3.459.631"/><path stroke="#512007" stroke-width=".597" d="M466.43 310.342c.324-6.072 9.511-40.922 9.511-40.922m-6.377 41.318 7.241-41.054m-4.755 41.186 6.052-41.186m-11.348 35.642c1.621-1.056 6.269-2.64 6.269-2.64m-3.999-3.433c1.513 0 4.647-1.584 4.647-1.584m-3.783-3.036a22.4 22.4 0 0 1 4.756-1.584m-4.107-4.224 5.08-1.056m-2.811-3.96c0 .396 3.459.396 3.459.396m-2.594-4.884 3.459.66"/><path stroke="#512007" stroke-width=".588" d="M466.343 307.682c-.324-5.893-9.511-39.718-9.511-39.718m6.377 38.565-7.242-38.437m3.999 35.49c-.216-2.178-5.295-35.361-5.295-35.361m11.348 34.593c-1.621-1.025-6.269-2.563-6.269-2.563m3.999-3.331c-1.513 0-4.647-1.538-4.647-1.538m3.783-2.946a22.8 22.8 0 0 0-4.756-1.538m4.107-4.1-5.08-1.025m2.81-3.843c0 .384-3.458.384-3.458.384m2.594-4.741-3.459.641"/><path fill="#DD8B59" fill-rule="evenodd" stroke="#512007" stroke-width=".584" d="m509.749 289.852 29.83.757.324-2.524-30.803-.378zm1.297-9.211c3.458 0 29.506-5.805 29.506-5.805s.973-3.785 0-3.785-29.506 7.066-29.506 7.066z" clip-rule="evenodd"/><path fill="#BE0F17" fill-rule="evenodd" stroke="#512007" stroke-width=".575" d="M476.978 249.96c.445.019.864.246 1.166.63s.462.893.444 1.417a2.14 2.14 0 0 1-.537 1.373c-.326.356-.76.546-1.204.526s-.864-.246-1.166-.63a2.2 2.2 0 0 1-.444-1.417 2.15 2.15 0 0 1 .537-1.374c.327-.356.76-.545 1.204-.525Z" clip-rule="evenodd"/><path fill="#012169" d="M0 0h320v240H0z"/><path fill="#fff" d="m37.5 0 122 90.5L281 0h39v31l-120 89.5 120 89V240h-40l-120-89.5L40.5 240H0v-30l119.5-89L0 32V0z"/><path fill="#C8102E" d="M212 140.5 320 220v20l-135.5-99.5zm-92 10 3 17.5-96 72H0zM320 0v1.5l-124.5 94 1-22L295 0zM0 0l119.5 88h-30L0 21z"/><path fill="#fff" d="M120.5 0v240h80V0zM0 80v80h320V80z"/><path fill="#C8102E" d="M0 96.5v48h320v-48zM136.5 0v240h48V0z"/></g><defs><linearGradient id="b" x1="218.597" x2="242.527" y1="569.333" y2="557.186" gradientUnits="userSpaceOnUse"><stop stop-color="#A43907"/><stop offset="1" stop-color="#fff"/></linearGradient><linearGradient id="c" x1="427.557" x2="396.805" y1="335.463" y2="320.462" gradientUnits="userSpaceOnUse"><stop stop-color="#A43907"/><stop offset="1" stop-color="#fff"/></linearGradient><linearGradient id="d" x1="442.406" x2="378.237" y1="347.713" y2="340.198" gradientUnits="userSpaceOnUse"><stop stop-color="#A43907"/><stop offset="1" stop-color="#fff"/></linearGradient><linearGradient id="e" x1="562.008" x2="532.595" y1="318.362" y2="319.756" gradientUnits="userSpaceOnUse"><stop stop-color="#A43907"/><stop offset="1" stop-color="#fff"/></linearGradient><linearGradient id="f" x1="577.754" x2="514.82" y1="335.785" y2="339.166" gradientUnits="userSpaceOnUse"><stop stop-color="#A43907"/><stop offset="1" stop-color="#fff"/></linearGradient><linearGradient id="g" x1="568.774" x2="392.507" y1="356.292" y2="356.292" gradientUnits="userSpaceOnUse"><stop stop-color="#A43907"/><stop offset="1" stop-color="#fff"/></linearGradient><linearGradient id="h" x1="395.881" x2="652.797" y1="370.237" y2="371.056" gradientUnits="userSpaceOnUse"><stop stop-color="#A43907"/><stop offset="1" stop-color="#fff"/></linearGradient><linearGradient id="i" x1="577.875" x2="556.897" y1="352.788" y2="353.335" gradientUnits="userSpaceOnUse"><stop stop-color="#A43907"/><stop offset="1" stop-color="#fff"/></linearGradient><linearGradient id="j" x1="391.778" x2="411.926" y1="377.655" y2="378.84" gradientUnits="userSpaceOnUse"><stop stop-color="#A43907"/><stop offset="1" stop-color="#fff"/></linearGradient><linearGradient id="k" x1="406.65" x2="369.331" y1="372.549" y2="364.266" gradientUnits="userSpaceOnUse"><stop stop-color="#A43907"/><stop offset="1" stop-color="#fff"/></linearGradient><clipPath id="a"><path fill="#fff" d="M0 0h640v480H0z"/></clipPath></defs></svg>