<svg width="640" height="480" viewBox="0 0 640 480" fill="none" xmlns="http://www.w3.org/2000/svg">
  <g clip-path="url(#clip0_6_2813)">
    <path d="M0 0H640V480H0V0Z" fill="#012169"/>
    <path fill-rule="evenodd" clip-rule="evenodd" d="M0 0H400V200H0V0Z" fill="#012169"/>
    <path fill-rule="evenodd" clip-rule="evenodd" d="M412.9 308.9C412.334 308.852 411.766 308.852 411.2 308.9C408.2 309.5 403.6 320.2 401.2 326.5C397.1 331.9 395 336.1 393.4 339.2C392.7 340.4 391.7 341.8 392 343.4C386 345 385.7 350.8 385.7 353C385.7 355.5 386.4 356.7 386.4 356.7L390 364.2V364.3C393.8 373.3 399.4 385.2 402.7 386.1C407.1 387.6 418.7 382.8 427.5 374.4C444.365 382.273 462.435 386.383 480.7 386.5C501.1 386.5 519.4 381 533.7 374.4C542.5 382.8 554.1 387.6 558.7 386.1C561.7 385.1 567.4 373.1 571.3 364.3L574.8 356.7C574.8 356.7 575.5 355.5 575.5 353.1C575.5 350.9 575.2 345.1 569.2 343.5C569.5 341.9 568.6 340.5 567.9 339.2C566.2 336 564.1 331.8 560.2 326.2C557.6 320 553 309.5 550.2 309C546 308.2 537.2 310.5 537.2 311.4V311.8L519.5 330.4C519.5 330.9 520.4 344.4 523.8 356.4C509.905 361.958 495.249 364.734 480.5 364.6C463.5 364.6 449 361.2 437.3 356.3C439.511 347.818 440.952 339.107 441.6 330.3L424 311.8V311.4C424 310.7 417.2 308.9 412.9 308.9V308.9ZM417.3 331.9C419.6 331.9 421.9 334.1 423.8 336.3L423.7 337.6C422.982 341.07 422.046 344.478 420.9 347.8C416.542 344.977 412.454 341.659 408.7 337.9C410.6 335.6 413.7 332.5 416.9 332.1H417.3V331.9ZM543.9 331.9H544.3C547.6 332.5 550.6 335.6 552.6 337.9C548.819 341.702 544.697 345.053 540.3 347.9C539.149 344.546 538.214 341.104 537.5 337.6C537.418 337.17 537.351 336.736 537.3 336.3C539.3 334 541.6 332 543.9 332V331.9ZM401.5 358.3C403.9 360.3 406.9 362.7 410.6 365.1C409.621 365.831 408.539 366.372 407.4 366.7C405.8 367.1 404.3 367 402.7 366.7C402.084 364.911 401.746 363.017 401.7 361.1C401.616 360.168 401.549 359.235 401.5 358.3V358.3ZM559.7 358.3L559.6 361.1C559.538 362.983 559.2 364.842 558.6 366.6C557.245 366.968 555.837 367.024 554.462 366.766C553.087 366.508 551.773 365.942 550.6 365.1C554.3 362.7 557.4 360.3 559.7 358.3Z" fill="url(#paint0_linear_6_2813)" stroke="white" stroke-width="10"/>
    <path fill-rule="evenodd" clip-rule="evenodd" d="M426.2 339.6C426.2 339.6 420.1 328.5 415.1 329.4C410 330.1 405.1 337.2 404.9 337.6C402.072 334.81 399.552 331.619 397.4 328.1C397.7 327.7 405.2 307.2 409.4 306.3C413.4 305.4 422.1 307.8 422.1 308.6L426.2 339.6Z" fill="url(#paint1_linear_6_2813)" stroke="black" stroke-width="1.2"/>
    <path fill-rule="evenodd" clip-rule="evenodd" d="M439.8 327.7C439.8 328.5 437.6 357.9 428.9 368.1C420.3 378.4 405.9 384.7 400.7 383.2C395.7 381.6 384.2 351.9 384.2 351.9C384.2 351.9 396.4 366.1 405.5 363.7C414.6 361.4 420.1 343.6 421.8 334.8C423.5 326.2 422.1 309.1 422.1 309.1L439.9 327.7H439.8Z" fill="url(#paint2_linear_6_2813)" stroke="black" stroke-width="1.2"/>
    <path fill-rule="evenodd" clip-rule="evenodd" d="M532.9 339.6C532.9 339.6 539.1 328.5 544.1 329.4C549.1 330.1 553.9 337.2 554.3 337.6C557.128 334.81 559.648 331.619 561.8 328.1C561.4 327.7 553.9 307.2 549.8 306.3C545.7 305.4 537 307.8 537 308.6L532.9 339.6Z" fill="url(#paint3_linear_6_2813)" stroke="black" stroke-width="1.2"/>
    <path fill-rule="evenodd" clip-rule="evenodd" d="M519.3 327.7C519.3 328.5 521.5 357.9 530.2 368.1C538.9 378.4 553.2 384.7 558.4 383.2C563.4 381.6 575 351.9 575 351.9C575 351.9 562.7 366.1 553.6 363.7C544.6 361.4 539.1 343.6 537.4 334.8C535.6 326.2 537 309.1 537 309.1L519.2 327.7H519.3Z" fill="url(#paint4_linear_6_2813)" stroke="black" stroke-width="1.2"/>
    <path fill-rule="evenodd" clip-rule="evenodd" d="M401.2 326.2C397.2 331.7 395.1 336 393.3 339.2C391.6 342.4 392.7 346.9 396.5 353.2C400.8 359.9 435.5 386.6 480.6 386.6C525.8 386.6 560.4 360 564.6 353.2C568.6 346.8 569.6 342.4 567.9 339.2C566.2 336 564 331.7 560 326.2C560 334.5 531.3 364.7 480.6 364.7C429.9 364.7 401.2 334.5 401.2 326.2V326.2Z" fill="url(#paint5_linear_6_2813)" stroke="black" stroke-width="1.5"/>
    <path fill-rule="evenodd" clip-rule="evenodd" d="M557.7 378.8L565.5 363.7L561.6 360.5C560.6 364.3 556.1 365.6 555.3 370.5C554.6 375.2 558.3 379.9 557.7 378.8Z" fill="url(#paint6_linear_6_2813)" stroke="black" stroke-width="1.2"/>
    <path fill-rule="evenodd" clip-rule="evenodd" d="M564.8 374.5C564.8 374.5 566.2 367.7 561.8 366.9C557.4 366.1 555 370.7 555.7 368.9C556.3 366.9 558.9 364.9 559.4 358.2C559.7 351.5 559 347.9 559 347.9C559 347.9 560.8 339.2 567.8 340.4C575 341.7 575.3 348 575.3 350.3C575.334 351.495 575.13 352.685 574.7 353.8L564.8 374.5Z" fill="url(#paint7_linear_6_2813)" stroke="black" stroke-width="1.2"/>
    <path d="M539.2 351.7L540.7 354.5L541.7 353.9L541 351.9L541.1 351.6L542.8 350.4L547.2 359.1V359.6L546.2 360.3L546.7 361.1L550.9 358.1L550.5 357.3L549.5 357.9H549.2L544.8 349.1L546.4 347.9H546.8L547.8 349.5L548.8 348.8L547.3 346L539.3 351.7H539.2ZM528.7 358.4L529.1 359.2L530 358.8L530.3 358.9L534.2 367.8L534.1 368.2L533.3 368.8L533.6 369.6L537.7 367.1L537.4 366.3L536.5 366.7H536.1L534.3 362.4L538.6 360L540.4 364V364.5L539.4 365.1L539.8 366L544 363.5L543.6 362.7L542.7 363.1L542.4 362.9L538.6 354.1V353.7L539.4 353.1L539.1 352.3L535 354.8L535.3 355.6L536.3 355.1L536.6 355.3L538.1 358.9L533.9 361.4L532.3 357.7L532.5 357.3L533.3 356.8L532.9 355.9L528.7 358.4ZM526.3 366L526.5 366.8L527.7 366.5L528.1 366.6L529 370.3L528.2 370.7C525.7 371.5 523.8 370.2 522.9 367C522.1 363.8 523.1 361.4 525.4 360.6C525.856 360.459 526.332 360.425 526.8 360.5L527.1 360.7L527.9 362.4L529.1 362L528.4 359C527.1 359 525.9 359.2 524.9 359.6C521.3 360.9 519.7 364.1 520.6 367.8C521.6 371.5 524.5 373.2 527.8 372.1C529.026 371.656 530.176 370.98 531.2 370.1L530 366L530.2 365.6L531.1 365.2L530.8 364.3L526.3 366ZM516.6 376.3L521.3 374.6L521 373.7L520 373.9L519.7 373.8L517.1 364.2L517.2 363.9L518.2 363.4L518 362.6L513.3 364.2L513.6 365.1L514.6 364.8L515 365L517.5 374.5L517.3 374.9L516.3 375.3L516.6 376.2V376.3ZM491.1 380.9L499.4 380.1L499.1 376.7L498.1 376.8L497.9 378.8L497.7 379.1L494.2 379.5L493.8 374.6L495.8 374.4L496.1 374.7L496.3 376H497.3L496.9 371.6H495.9V373L495.7 373.4L493.7 373.5L493.3 369.1L496.4 368.8L496.6 369L497 370.7L498.1 370.6L497.9 367.6L490.1 368.4V369.3H491.1L491.4 369.6L492.1 379.5L492 379.8L491 380V381L491.1 380.9ZM478.7 368.6V369.6H479.7L479.9 369.9L480 379.8L479.8 380.1L478.9 380.3V381.1H483.3V380.2H482.3L482.1 379.8V375H486.5V379.6L486.3 379.9L485.4 380V381H489.8V380H488.8L488.7 379.6L488.5 369.6L488.7 369.3H489.7V368.3H485.2V369.3L486.2 369.4L486.4 369.7V373.7L482.1 373.8L481.9 369.8L482.2 369.5H483.1V368.5L478.7 368.6ZM469.3 368.3V371.6H470.3L470.6 369.6L470.8 369.3H472.7V379.5L472.4 379.9H471.4V380.9H476V380L475 379.9L474.7 379.5L474.8 369.5H476.6L476.9 369.7L477.2 371.7H478.2V368.4L469.3 368.3ZM455 378.9L463 379.3L463.2 376H462.2L461.9 377.9L461.7 378.1L458.2 378L458.4 373L460.3 373.2L460.5 373.5L460.7 374.9H461.5L461.7 370.6H460.8L460.6 371.8L460.4 372.1H458.4L458.6 367.5L461.6 367.7L461.8 367.9L461.9 369.6H463V366.7L455.5 366.3V367.2L456.5 367.4L456.6 367.7L456.2 377.6L456 377.9H455V378.8V378.9ZM436.4 373.5L440.8 375.1L441 374.3L440 373.8V373.4L442.5 363.9L442.8 363.7L443.8 364L444 363.2L439.7 361.5L439.5 362.4L440.4 362.8L440.6 363.2L437.9 372.6L437.7 372.9L436.7 372.6L436.4 373.5ZM428.8 370.2C429.575 370.902 430.455 371.444 431.4 371.8C433.8 372.6 435.7 371.6 436.2 369.6C436.345 369.059 436.375 368.486 436.288 367.928C436.201 367.371 435.999 366.846 435.7 366.4L433.9 364.4C433.3 363.5 433.1 362.8 433.3 361.9C433.6 361 434.4 360.5 435.5 360.9C435.9 361.1 436.3 361.3 436.5 361.6V361.9L436.3 363.9L437.3 364.2L438.1 361.4C437.366 360.666 436.519 360.089 435.6 359.7C433.6 358.9 431.8 360 431.2 361.9C431.085 362.371 431.06 362.864 431.129 363.346C431.198 363.828 431.359 364.29 431.6 364.7C432 365.7 432.6 366.2 433.1 366.7C434 367.7 434.3 368.7 434.1 369.6C433.8 370.6 432.9 371.1 431.7 370.6C431.261 370.414 430.855 370.144 430.5 369.8L430.4 369.5L430.8 367.3L429.7 366.9L428.8 370.2ZM419 365.6L426.4 369.6L427.6 366.6L426.6 366.1L425.7 367.8L425.4 367.9L422.3 366.1L424.1 361.8L425.9 362.8V363.1L425.6 364.4L426.4 364.9L428 360.9L427.2 360.5L426.5 361.6L426.2 361.8L424.5 360.8L426.1 356.8L428.8 358.3L428.9 358.6L428.5 360.2L429.5 360.7L430.5 358.1L423.7 354.2L423.3 355L424.1 355.6L424.2 356L420.6 365H420.3L419.4 364.7L419 365.6ZM417.9 350.6L414.2 347.7L413.7 348.5L414.4 349.2L414.5 349.6L409.9 357.8L409.5 357.9L408.8 357.4L408.3 358.2L411.9 361C413.3 362 414.4 362.5 415.5 362.4C417.1 362.2 418.5 361.2 419.5 359.4C421.3 356 420.8 352.8 417.9 350.6V350.6ZM416.3 350.6L417.1 351.2C419.1 352.7 419.3 354.9 417.6 357.8C415.9 360.8 414.1 361.4 412.2 359.8L411.4 359.4L416.4 350.7L416.3 350.6ZM445.6 363.6L445.5 364.4L446.4 364.7L446.5 365.1L444.8 374.8L444.5 375H443.5V375.8L447.6 376.8L447.8 376L446.8 375.6L446.7 375.3L447.4 371.2H447.7C449.2 371.6 449.5 372.5 449.5 374.4C449.6 375.3 449.6 376.1 450.3 377.1C450.6 377.5 451 377.9 451.7 378C452.195 378.109 452.696 378.176 453.2 378.2L453.3 377.4H453.2C452.2 377.1 451.7 376.7 451.7 375.6C451.5 374.6 451.7 373.6 451.3 372.6C451.031 371.975 450.569 371.478 450 371.2C451.7 371.2 452.7 370.3 453 368.7C453.4 366.7 452.5 365.2 450.1 364.7L445.7 363.6H445.6ZM448.6 365.3L449.2 365.5C450.6 365.9 451.2 366.9 450.9 368.4C450.6 370.1 449.7 370.7 448.1 370.2L447.6 370.1L448.5 365.3H448.6ZM502.8 366.3L502.9 367.3H503.9L504.2 367.5L505.6 377.3L505.4 377.6L504.4 377.9L504.6 378.7L509.1 377.9V376.9L508 377.1L507.7 376.8L507.1 372.8H507.4C509 372.3 509.6 373 510.4 374.7C510.7 375.5 510.9 376.3 511.9 376.9C512.3 377.2 512.9 377.3 513.7 377.2C514.243 377.075 514.777 376.908 515.3 376.7L515.2 375.8H515C513.9 376.1 513.3 375.8 512.8 374.9C512.4 374.1 512.1 373.1 511.5 372.4C511.1 371.9 510.5 371.6 509.7 371.6C511.4 370.8 512.2 369.6 512 367.9C511.7 365.9 510.3 364.9 507.8 365.4L502.8 366.3ZM506.3 366.8H507C508.6 366.4 509.5 367 509.8 368.6C510 370.2 509.3 371.2 507.6 371.6H507L506.2 366.8H506.3Z" fill="black"/>
    <path fill-rule="evenodd" clip-rule="evenodd" d="M401.5 378.8L393.7 363.7L397.6 360.5C398.6 364.3 403.1 365.6 403.9 370.5C404.6 375.2 400.9 379.9 401.5 378.8Z" fill="url(#paint8_linear_6_2813)" stroke="black" stroke-width="1.2"/>
    <path fill-rule="evenodd" clip-rule="evenodd" d="M394.3 374.5C394.3 374.5 392.9 367.7 397.3 366.9C401.7 366.1 404.1 370.7 403.5 368.9C402.8 366.9 400.2 364.9 399.8 358.2C399.4 351.5 400.1 347.9 400.1 347.9C400.1 347.9 398.4 339.2 391.3 340.4C384.2 341.7 383.8 348 383.8 350.3C383.8 352.5 384.5 353.8 384.5 353.8L394.3 374.5Z" fill="url(#paint9_linear_6_2813)" stroke="black" stroke-width="1.2"/>
    <path fill-rule="evenodd" clip-rule="evenodd" d="M480.5 356.1C480.5 356.1 398.5 329.1 399.1 226.7L399.7 91.1001H561L561.6 225.9C562.1 328.3 480.2 356 480.2 356L480.5 356.1Z" fill="#0072C4" stroke="white" stroke-width="3.9"/>
    <path fill-rule="evenodd" clip-rule="evenodd" d="M410.3 123.6L412.3 121.6C413.6 120.8 414.7 119.9 416 119.2C417 118.6 419 118.1 419.7 117.6C420.868 116.918 421.891 115.963 422.7 114.8C422.9 113.1 423.2 111.8 423.2 109.8C424.5 108.8 425.6 108.2 426.8 107.8C428.5 107.2 428.8 106.4 430.6 106.1C431.6 105.7 433.4 105.7 435 105.7C436.6 105.7 437.7 107.1 439.2 107.3C441 108.1 441.8 108.7 443.3 110.1C444 111.3 444.6 112.3 445.9 113.1C447 113.7 448.1 114.7 449.3 115.1C450.8 116 452 116.5 453.1 117.9C454.1 118.7 454.5 119.9 455.4 120.6C456.465 121.633 457.602 122.569 458.8 123.4C460.3 124.5 461.8 125.4 464 125.1C465.3 125.1 466.6 124.8 468 125.1C469.8 125.1 471.4 125.1 472.8 125.6C474.6 125.6 476 125.8 477.6 126C479.1 126.2 480.6 126.3 482.3 126.3C483.8 126.8 485.3 126.7 487.1 126.7H496.6C498.3 126.7 500 126.8 501.3 127.1C502.873 127.078 504.442 126.944 506 126.7C507.9 126.7 509.3 126.4 511 126.3H516.8C518.3 126.8 520.2 127.1 521.2 128C522.6 128.4 523.2 129.1 524.6 129.5C525.6 130.1 527.2 131.1 528 132.3C529.069 133.627 529.977 135.106 530.7 136.7C531.7 138.2 532 140 532.7 141.9C533.1 143.7 533.4 145.4 533.4 147.4C533.8 149.1 533.7 151 533.7 153C533.4 154.8 533.3 156.8 532.7 158.5C532.7 160.5 532.3 162.2 532 163.7C531.8 165.3 531.4 166.4 531.3 168.4V174C531.3 175.8 530.9 177.2 530.7 179.1C529.8 181.048 528.999 183.051 528.3 185.1C527.231 185.973 526.315 187.058 525.6 188.3C524.9 188.8 524.5 189.6 524.6 189.9C526 190.4 525.6 191.5 525.6 193.4L526.3 198.6C526.4 200.6 526.8 201.6 527.3 203C527.9 203.8 528 203.4 526.6 203.4C525.6 204.2 524.6 203.8 524.3 202.2C523.528 200.88 523.048 199.371 522.9 197.8C522.7 196 522.4 194.2 521.9 193C521.7 190.8 521.2 190.8 519.2 190.6C518.2 189.7 517 189.5 515.2 189.5C513.2 189.5 513.2 189.3 513.2 191.5V197.1C512.8 198.7 512.2 199.9 511.7 201.4C510.7 202.2 510.3 203.6 509 204.6C508.5 206.4 507.6 206.6 506 207L504 204.2C505 202.4 505.7 202.2 506.3 200.2C507.1 198.6 507.5 197.6 508 196.2C507.3 195 506.7 194.4 506 192.7C505.289 191.308 504.719 189.833 504.3 188.3C503.2 187.9 501.4 187.8 500.6 187.1C498.9 186.7 498.5 188.8 496.6 188.8H491.8C489.7 188.8 489.2 190 487.4 189.9C486.9 190.1 485.6 189.9 483.7 189.9C482.2 190.5 480.5 190.3 478.9 190.3C477.2 190.3 475.9 189.8 474.5 189.5C473 189 471.5 188.5 469.8 188.3C467.8 188.3 467.1 188.5 465.8 189.5C464.8 190.2 463.2 191.8 462.1 192.7C461.6 194 461.3 196.2 460.6 197.8C460.3 199.5 459.7 200.4 459.4 201.8C458.834 203.328 458.496 204.95 458.4 206.6C458.2 209.2 457.7 208.9 456.3 208.2C455.7 207 454.8 205.9 454.3 204.6C454.5 202.6 455 201.6 455 199.5C454.6 197.8 453.9 198 453 199C453 201.1 453 202.7 452.2 203.8C452.063 204.441 451.816 205.045 451.473 205.577C451.129 206.109 450.697 206.559 450.2 206.9C449.7 208.4 448.6 209.2 447.5 209.7C447.3 209.7 447.5 209.2 447.5 208.1C446.7 206.4 447.5 204.8 447.5 202.6C447.5 200.6 447.3 199.3 447.9 197.5C447.9 195.5 447.1 193.7 446.9 192.3C446.2 190.8 445.8 190.1 444.1 189.5C442.9 188.9 441.1 188.3 440.4 187C439.615 185.785 438.54 184.849 437.3 184.3C435.8 183.7 435 183.1 433.9 182.3C432.9 181 432 180.5 431.6 178.8C430.9 177.6 430.8 175.3 430.3 173.6C430.159 171.99 429.823 170.408 429.3 168.9C429.144 167.26 428.808 165.648 428.3 164.1L427.2 158.9C427.2 157 427.2 155.1 426.8 153.4V147.8C426.6 146.1 426.5 143.8 426.2 142.6C426.2 140.5 425.9 139.3 425.4 137.8C424.7 136.4 424.7 135.8 423.4 135.5C422.6 136.7 421.2 137.3 419.4 137.5C418.2 137.2 416.4 136.9 415 136.3C413.6 135.9 412.8 135.3 411.7 134.6C411.049 133.559 410.348 132.557 409.6 131.6C409.4 129.5 409 128.4 408.9 126.3C408.9 124.8 408.9 125.7 410.3 123.6V123.6Z" fill="#BCBCBC"/>
    <path fill-rule="evenodd" clip-rule="evenodd" d="M430.3 138L430.6 137.6C430 138.3 430.2 137.9 431.6 137.3C432.2 136.9 433.6 135.9 434.1 135.3C434.7 135 435.8 134.6 436.3 134C436.9 133.2 437.6 132.5 438.5 131.8C439.4 130.8 440.2 130.5 441.3 129.8C442.6 129.6 443.2 129 444.4 129.5C445.6 129.8 446.1 129.8 447 128.6C448 128 449.1 127.2 449.5 126.2V124.4C449.5 126.2 449.1 126.9 448 127.4C447.3 128.5 446.2 129.6 445.8 130.6C445.1 131.8 444.9 132.5 444.2 133.1C443.5 134 442.5 134.5 442.2 135.9C442.6 136.6 442.2 136.9 443 137C443.7 137.7 444.4 137.4 445.4 137C446.194 136.028 446.837 134.913 447.3 133.7L449 130.8C449.8 130.2 450.3 129.7 450.6 128.6C451.6 128 452.4 127.3 453.1 126.6C453.8 126.2 454.1 125.7 455.1 125.5C455.172 126.593 454.926 127.682 454.4 128.6C454.2 130.2 454.3 130.9 454.7 131.9C455.4 132.5 455.3 132.9 455.7 133.9C456.1 132.9 456.3 131.2 456.4 130V129.8C456.4 130.9 456.4 132.6 456.1 133.4C456.1 135 456.5 135.8 456.9 137C457.2 137.7 457.6 138 458 138.4C458 136.8 458.5 135.8 458.6 134.3L459 138.2C459 139.5 459.5 140.5 460 141.5C460.5 141.9 460.7 143 460.9 142.1C461.5 140.1 461.5 138.1 461.9 135.9C461.9 134.9 461.9 133.3 462.4 132.6L461.8 135.9C461.9 134.9 462 133.4 462.4 132.6V132.2C462.666 133.718 462.833 135.255 462.9 136.8C462.9 138 462.8 139.2 463.1 140.4C463.8 140 464.3 139 464.8 137.9C465.315 136.781 465.954 135.739 466.7 134.8L464.7 137.8C465.253 136.709 465.925 135.702 466.7 134.8V134.6C466.568 135.861 466.502 137.13 466.5 138.4C466.5 139.7 466.5 141.2 466.7 142.1C467 143.6 467.3 143.8 467.4 145.4C467.4 146.2 467.3 147.1 467.6 147.4C468.6 147.7 468.6 147.1 468.8 145.4C468.8 143.7 469.2 142.4 469.3 140.7C469.3 138.6 469.5 141 469.8 141.7C470.237 142.908 470.474 144.196 470.5 145.5C470.5 146.3 470.5 147.1 470.7 147.5C471.7 147 472 145.8 472.7 145.2C473.1 143.8 473.7 143.2 474.1 142.4C475.3 142.1 475.3 141.5 475.3 139.9C475.3 138.5 475.2 137.1 475.6 135.9C475.962 134.687 476.263 133.451 476.5 132.2C476.9 132 477.4 132.7 477.7 133.4C478.2 134.3 478.1 135.6 478.1 137C478.4 138.3 478.8 139.2 479.4 140.4C479.818 141.41 480.356 142.352 481 143.2C481.3 144.1 481.3 145.7 481.3 146.9C482.3 145.7 482.3 143.9 482.4 142.1C482.3 140.9 482.3 139.3 482 138.1C482 136.9 481.7 135.7 481.5 134.8C480.8 134.4 480.5 134 481.3 132.8C482 132.1 482.9 132.4 484.1 132.6C484.8 133.3 485 133.7 485.1 135.4C485.1 136.9 485.1 138 485.6 139C486 139.8 486.5 140.4 486.8 141.8C487.1 142.2 487.4 142.8 487.9 142.1C488.2 141.3 488.4 139.7 488.7 138.7C488.9 137.7 489.3 137.1 489.8 136.7C489.8 138.3 489.8 139.2 490.4 140.4L491.5 143.5C492 143.9 492.1 144.8 492.8 145.2L493 140.7V136.7C493 135.5 493.4 134.7 493.7 133.7C494.5 134.8 494.5 135.2 494.5 136.7C495.2 136.4 495.3 135.7 495.6 134.8C496.1 134.2 496.4 134 496.6 135.4C496.7 136.9 497 138.2 497.3 139.6C497.8 140.2 498.3 141.8 498.9 142.4C499.326 143.224 499.829 143.995 500.4 144.7C500.8 145.5 500.8 146.1 501.9 146.3C501.9 144.4 501.9 142.5 501.6 140.7C501.6 139.1 501.3 138.5 501.1 137C500.7 136.1 500.5 134.6 500.6 134.2C501.562 135.122 502.316 136.287 502.8 137.6L504.3 141.3C504.986 142.16 505.589 143.099 506.1 144.1C507 144.9 507.4 145.8 508.3 146.6C508.7 147.1 509.8 147.4 510 147.1C510 145.5 509.7 144.1 509.3 142.7C509.281 141.511 509.006 140.345 508.5 139.3C507.5 138.4 506.8 137.8 506.3 136.5C506 136.1 506 135.9 505.9 135.1C507.176 136.234 508.318 137.545 509.3 139C509.772 139.841 510.426 140.53 511.2 141C511.6 141.6 513 142.4 514 142.6C514.594 143.469 515.445 144.072 516.4 144.3L514 142.7C514.609 143.532 515.458 144.098 516.4 144.3V144.7C516.253 143.066 515.774 141.492 515 140.1C514.525 138.892 513.764 137.854 512.8 137.1C512.195 136.06 511.371 135.202 510.4 134.6C509.8 133.7 508.8 132.2 508.2 131.8C509.3 130.9 510.5 132.2 511.6 132.8C512.6 134 513.4 135.5 514 136.2C514.563 137.55 515.305 138.798 516.2 139.9C517.2 140.6 517.9 141.2 518.8 142.1C520.2 142.5 519.7 142 519.3 140.7C518.8 139.1 519.3 139.1 520.3 140.1C520.9 140.7 521.7 141.5 522.7 142.1C523 142.7 523.7 143.1 524.3 142.7C524.6 142.3 524.6 142.3 524.6 141.9C524.1 140.1 523.6 138.7 522.4 138.2C521.9 137.3 520.9 136.5 520.2 135.7C519.7 134.9 519.2 134.4 518.8 133.4L520.2 135.6C519.7 134.8 519.2 134.4 518.8 133.4H518.6C520 133.4 520.6 133.9 521.6 134.6C522.49 135.015 523.254 135.71 523.8 136.6C524.3 137.2 525 137.9 525.5 138.7L527.9 140.7C528.7 141.9 528.9 142.7 528.9 144.3C529.3 145.2 529.4 146.8 529.6 147.7C529.4 149.3 528.9 148 528.8 147.1C528.7 145.9 528.2 146 527.4 146.3C527.4 148 527.6 148.5 528.1 149.7C527.994 150.698 527.687 151.655 527.2 152.5C526.6 152.9 526.5 151.7 526 151.1C526 149.4 525.5 149.1 524.5 148.3V149.4C525.1 150.6 525.7 151.7 525.7 153.3C526.108 154.479 526.312 155.735 526.3 157C526.3 158.4 526.3 159.7 526 161C526 162.4 525.7 163 525.7 164.6V172.5C525.533 173.69 525.467 174.896 525.5 176.1L525.7 172.5C525.5 173.5 525.5 174.7 525.5 176.1V176.3C525.1 174.9 524.5 173.7 524.3 172.3C523.589 171.437 523.044 170.415 522.7 169.3C522.4 168.1 522.4 166.7 522.2 165.7C521.8 164.7 521.4 163.7 520.7 164.3C520.4 166.3 520.7 167.6 521.4 169.6C521.8 170.9 521.8 172.1 522.2 173.3C522.7 174.8 523.2 174.9 522.2 176.6C521.6 177.6 521.4 177.8 521.2 178.9C520.3 179.4 520.1 179.7 520 180.9C519.7 179.8 519 178.5 518.6 177.2C518.1 175.8 517.6 174.4 517.4 173.2C516.8 172.3 516.1 170.8 515.4 170.2L513.6 166.9C512.6 165.6 512.4 164.9 511.6 164.3C511.5 163.8 511.2 163 510.6 163.5C510.6 164.8 510.6 166.2 510.9 167.4C511.2 169 511.6 169.9 511.7 171.6V174.6C511.1 173 510.4 171.7 510 170.2C509.4 169.3 508.9 167.7 508.3 167.2C507.9 166 507.6 165.1 507.1 164.3C507 163.5 506.6 163.5 506.3 162.9C506.3 164.5 506.8 165.1 507.1 166.2C507.6 167.4 507.7 169.1 507.6 169.7C507 167.7 506.4 165.6 505.6 163.7C504.903 162.516 504.301 161.279 503.8 160C503 159.1 502.3 159 501.6 158.4C500.941 158.1 500.357 157.619 499.9 157C500.1 158.5 500.6 159.5 500.9 160.6C501.1 162 501.6 163.2 501.8 164.3C501.6 166.3 501.2 163.8 500.8 162.9C500.6 161.3 500.1 160.5 499.7 159.6C499 159 498.4 158.1 497.7 157.6C497 157.3 497.3 157.6 497.3 158.6C497.3 160.4 497.3 161.6 497.8 162.6C498.3 163.4 498.3 164.5 498.3 166C498.2 167.4 498 168.4 498 170V172.1C497.5 171 497 170.2 496.5 168.8C495.8 167.5 495.5 166.5 494.9 165.1C494.4 164.9 493.4 164.7 492.9 165.1C493.1 166.5 493.6 167.1 493.7 168.8C492.7 169.8 492.9 170.2 492.3 168.5C491.7 167.2 491.1 167.3 490.3 166.5C489.1 166.4 489.5 165.5 489.2 164.2C489.2 163.2 489.2 162.2 488.9 161.2C487.6 161.2 486.9 161.2 486 162C485.7 162.8 485.8 164.5 486 165.7V169.6C485.7 170.6 485.3 170.6 485 171.9C484.6 173 484.5 174.4 484.1 175.2C483.2 176.1 483.6 176.2 483.1 174.7V165.7C483.1 164.2 483.4 163.4 483.4 162C482.9 160.9 482.8 160.6 481.2 160.6C480.979 161.52 480.979 162.48 481.2 163.4C481.2 164.8 481.3 166.1 481.5 167.1L481.7 170.7C481.7 172.2 481.4 173.4 480.7 174C479.9 174.4 480.7 175 479.8 175.3C478.852 174.776 477.976 174.103 477.2 173.3C476.2 173 475.4 172.7 474.1 172.7C472.5 172.7 472.5 172.5 471.9 171.1C471.442 169.604 471.107 168.064 470.9 166.5C470.4 165.2 470.3 164.3 469.9 162.8C469.591 162.01 469.109 161.321 468.5 160.8C468.2 162.4 467.9 163.5 467.9 165.1C467.6 165.8 467.5 167.5 467.3 168.1C466.9 167.4 466.7 165.7 466.3 164.6C466 162.9 465.6 161.8 464 162.4C462.4 162.4 462.4 162.4 462.4 164.4L464.3 167.6V171.6C464.3 173.2 464.3 173.7 463.3 174C462.9 172.4 462.1 170.7 461.1 169.3C461.1 168.2 460.7 168.5 459.7 168.5C459.1 168.5 458.4 168.4 458 168.8V171.2C457.5 171.4 457.3 171.2 456.9 170.7C456.4 171.6 456.7 172.7 456.9 173.7C456.687 174.828 456.281 175.91 455.7 176.9C455.5 176.5 455.3 176.7 455.7 176.7C454 175.9 452.7 175.5 451.3 175C450.6 175 449.9 176 449.5 176.7C448.2 177.1 447.7 177.5 446.3 177.5L443.3 177.7C442.3 178 441.3 178.1 440.1 178.1C439.5 177.8 438.3 177.8 438 177.5C438.5 176.7 439 176.3 439.4 175C440.12 174.403 440.789 173.734 441.4 173L443.2 170.7C443.6 169.3 444.2 169.1 444.9 168.5C446.4 168.5 446.6 169.1 448 169.3C449.4 169.9 450.2 170.2 451 169C452 168.5 453 167.6 454.2 167.4L456.6 165.7C457.6 165 458.1 164.2 459 163.4C459.3 162.3 460 161.4 459.7 160.1C458.4 159.7 457.6 159.8 456.7 160.6C455.8 161.6 455.7 162 454.4 162.8C453.4 163.2 453 163.7 451.8 164C450.8 164.4 449.6 164.2 448.5 164.2C447.4 164.2 446 164.2 445.4 164.6C446.4 163.8 447.7 162.9 448.7 162.6C449.7 161.9 450.1 161.6 451.4 161.4C452 160.6 452.5 160.6 452.8 159.2C453.2 157.6 451.8 158.1 450.8 158.7C449.9 158.9 448.8 159.7 448 160C447.031 160.363 446.021 160.565 445 160.6C444.6 160.1 445.1 159.7 445.4 159C446.4 158.5 446.7 158.3 446.8 157C445.5 157.2 445.1 157.7 443.9 157.8C442.658 158.135 441.385 158.336 440.1 158.4H436.8C435.6 158.4 435 158.1 433.6 158.1C432.6 157.5 432.6 157.3 432.6 155.6C433.4 154.6 434.1 154.8 435.6 154.8L438.2 153.3C439.1 153.1 439.6 152.7 439.4 152.3H436.1C434.7 151.6 436.1 151.3 436.8 150.8C437.8 150.8 439.1 150.8 439.8 151.3C441.3 151.3 441.8 150.8 442.9 149.7C443.9 148.9 444.4 148.3 445.4 147.7C446.1 146.8 446.8 146.3 447.3 145.5C448.3 144.5 449 143.8 449.5 142.9C450.1 142.5 450.5 142.1 450.2 141.5C448.7 141.7 448 142.4 447 143.2C446.449 143.846 445.807 144.387 445.1 144.8C444.196 145.549 443.122 146 442 146.1C440.8 146.1 439.8 145.8 438.7 145.7C437.4 145.6 438.5 145.2 438.9 144.6C439.4 144.3 439.8 143.4 439.4 142.6C438.4 142.3 437.2 142.4 436.1 142.4H432.7C431.4 142.4 430.9 142 430 141.5C429.8 140.7 430 141 431 141C432.051 140.939 433.092 140.738 434.1 140.4C435.2 140.1 435.4 139.6 435.6 138.2C434.4 138.2 433.2 138.2 432.5 137.9L430.3 138ZM409.6 131.5C409.4 129.5 408.9 128.4 408.9 126.3C408.9 124.8 408.9 125.7 410.3 123.6L412.3 121.6C413.6 120.8 414.7 119.9 416 119.2C417 118.6 419 118.1 419.7 117.6C420.868 116.918 421.891 115.963 422.7 114.8C422.9 113.1 423.1 111.8 423.1 109.8C424.5 108.8 425.6 108.2 426.8 107.8C428.5 107.2 428.8 106.4 430.6 106.1C431.6 105.7 433.4 105.7 435 105.7C436.6 105.7 437.7 107.1 439.2 107.3C441 108.1 441.8 108.7 443.2 110.1C444 111.3 444.6 112.3 445.9 113.1C447 113.7 448.1 114.7 449.3 115.1C449.3 116.5 449.6 116.3 448.7 116.3C448.6 117.8 448.3 117.6 447 117.7C446.101 117.159 445.343 116.367 444.8 115.4C445.4 114 445.1 116.6 444.8 117.1C444.3 117.7 443.9 118.3 443.2 117.7C442.8 116.3 442.5 115.4 442.5 113.7C442.3 112 441.8 113.2 441.5 114C441.2 115.5 441.3 116 441.8 117.1C440.5 117.1 439.6 116.9 438.7 116.8C437.8 116.5 436.7 116.8 435.7 117.4C434.5 118.3 435 118.3 435.5 119.4C436.6 119.7 437.5 120.4 438.5 121L441.8 120.2C442.9 119.7 444 120 445.1 120.2C445.7 120.6 446.5 120.6 446.8 121C446.8 121.9 446.8 122.8 446.5 123.3C446.1 123.7 445.5 124.7 444.8 124.9C443.805 125.574 442.727 126.079 441.6 126.4C440.1 126.4 439.5 126.8 438.4 127.4C438.3 129 437.9 129.3 436.7 129.8C435.668 130.347 434.539 130.621 433.4 130.6C432.7 130.6 432 130.6 431.7 130.3C432.549 129.353 433.228 128.232 433.7 127C433.9 126.3 434.3 126 433.9 125.5C432.5 125.5 432.1 125.5 431.9 127.1C431.8 128.7 431.3 129 430.3 129.5C430.6 128.1 430.6 127 431 125.8C430.009 125.993 429.006 126.093 428 126.1C427.2 126.6 426.9 126.8 427.2 127.7C426.2 128.1 425 127.9 423.8 127.7C422.8 127.7 423.4 127.2 422.6 126.7C422.1 125.6 421.6 125.3 420.4 125.3C419.9 126.1 419 126.3 418.4 126.9C417.3 127.3 416.6 126.9 415.7 126.4C414.5 126.4 414.7 126.8 415 127.8C415.5 128.1 415 128.5 415.7 128.6C416.4 129.3 417 129.5 418.3 129.5C419.3 129.1 420.5 129.2 421.7 129.2C422.9 129.2 422.7 129.5 422.7 130.8C421.9 131.5 420.7 131.4 419.5 131.4C418.508 131.268 417.534 130.999 416.6 130.6C415.6 130.6 414.6 130.3 413.8 130.6C413.4 131.1 412.3 131.3 413.6 131.4C414.1 132 416.9 131.7 417 132.7C417.7 133.5 417.5 134.6 416.4 134.6C416.145 134.42 415.851 134.325 415.55 134.325C415.249 134.325 414.955 134.42 414.7 134.6L411.6 134.7C413.4 134.9 410.3 132.5 409.6 131.5V131.5Z" fill="#FEFEFE"/>
    <path fill-rule="evenodd" clip-rule="evenodd" d="M417.1 122.2L415.7 123.2L412.8 125.5C412.3 126 412.3 126.3 411.7 126.3C412.7 126.2 413.3 125.8 414.3 125.3C415.5 125.1 416.7 124.8 417.3 124.1C418 123.9 417.3 122.8 417.1 122.1V122.2ZM428.1 109C428.3 109 428.6 109.8 429.1 110.4C429.5 111.4 429.8 112.2 429.8 113.4C430.1 112.1 430.6 111 430.8 109.5C430.4 108.7 430.4 108.5 429.3 108.4C429.3 109.2 429.5 108.6 428.1 109Z" fill="#BCBCBC"/>
    <path fill-rule="evenodd" clip-rule="evenodd" d="M421.517 118.917C420.975 118.917 422.385 118.284 422.927 118.157C423.361 117.144 423.578 116.51 424.337 115.877C425.53 115.877 426.181 116.384 426.723 117.27C427.807 117.65 428.133 118.157 429.326 118.41C429.868 118.917 430.41 118.917 429.326 119.297C428.675 119.677 427.699 119.804 426.506 119.804C425.527 119.89 424.57 120.191 423.686 120.691C422.06 120.691 422.276 120.691 421.517 118.917V118.917Z" fill="#C4C4C2" stroke="black" stroke-width="1.05487"/>
    <path fill-rule="evenodd" clip-rule="evenodd" d="M432.5 109.2V109.5C432.5 108.7 432.5 109.1 432.7 110.7C433.089 111.743 433.26 112.871 433.2 114C433.901 113.335 434.42 112.47 434.7 111.5C434.7 109.3 434.3 109.4 432.5 109.2ZM441.3 141.5H441.6C440.8 141.5 441.3 141.5 442.5 140.7C443.3 140.1 444 139.1 445.1 138.7C446.012 137.818 447.064 137.14 448.2 136.7C448.8 136.4 449.3 135.9 449.9 136.5C449.8 137.8 449.5 138.5 448.4 139C447.9 139.8 447.1 140.3 446.4 140.6C445.6 141.1 444.7 141.1 444.4 142.1C443.1 142.8 442.9 142.6 441.4 141.5H441.3ZM445.9 149.7C446.2 149.3 447.8 147.5 448.5 146.9C449.163 145.83 449.973 144.885 450.9 144.1C451.6 142.9 452.5 142.1 453.1 141L455 138.2C455 139.4 454.8 141 455.2 141.8C455.249 143 454.97 144.188 454.4 145.2C453.9 146.2 453.4 146.8 452.2 147.5C451.2 148.1 450.6 148.3 449.7 149.1C448.995 149.621 448.26 150.089 447.5 150.5C446.8 150.8 447.1 150.8 445.9 149.7V149.7ZM438.4 156.1H438.7C438 156.1 438.3 156.1 439.7 155.3C440.7 154.1 441.5 153.6 442.7 153.1C443.744 153.04 444.766 152.734 445.7 152.2C446.2 152.1 446.7 151.7 447 152.2C447.8 153.4 448 153.7 446.8 154.5C446.091 155.139 445.275 155.615 444.4 155.9C443.8 156.4 442.6 156.4 441.4 156.7C440.6 156.7 440 156.8 439.6 156.1L441.6 156.7C440.6 156.7 440.1 156.8 438.4 156.1V156.1ZM448.7 156.1V155.9C448.7 156.7 448.7 156.3 449.2 154.7C450.2 153.1 450.4 152.2 451.6 151.9C452.1 151.1 453.1 150.9 454.2 150.5C454.7 151.3 454.3 152.3 454.2 153.3C453.9 154.3 453.1 155.1 452.5 155.9C451.8 156.4 451.5 157 450.3 157.3C449.5 157.3 450 157.3 448.7 156.1V156.1Z" fill="#BCBCBC"/>
    <path fill-rule="evenodd" clip-rule="evenodd" d="M425.3 119.7C425.3 120.4 424.8 121.1 424.1 121.1C423.4 121.1 422.9 120.4 422.9 119.7C422.9 118.9 423.5 118.3 424.1 118.3C424.8 118.3 425.3 118.8 425.3 119.7Z" fill="black"/>
    <path fill-rule="evenodd" clip-rule="evenodd" d="M428.82 196.129H429.796C426.76 196.129 428.603 195.875 433.592 200.562C435.761 198.535 435.761 198.282 437.387 201.829C438.472 203.729 438.689 201.576 440.316 199.549C441.075 203.602 441.508 207.783 444.111 203.982C447.148 203.982 450.184 203.729 451.811 205.122C453.763 209.303 453.112 204.362 454.631 206.263C458.969 206.769 458.86 201.956 463.415 200.689C466.235 204.869 467.536 201.702 471.006 199.675C473.718 200.436 476.212 205.122 476.754 200.562C478.923 196.509 479.031 196.762 480.55 200.562C482.719 202.842 483.586 199.549 485.321 198.409C488.575 200.562 492.154 200.942 496.817 199.549C497.685 203.222 499.637 201.576 501.697 200.562C505.927 202.716 507.336 203.349 512.217 200.562C514.602 197.269 513.301 200.689 515.036 202.842C518.615 201.576 517.639 201.322 521.76 201.702C525.989 201.702 526.315 201.702 527.508 198.409C529.677 200.816 530.327 202.589 533.255 199.549C537.81 199.549 536.4 200.182 539.003 198.282C541.064 203.349 541.498 199.802 543.883 201.702C542.542 205.444 540.178 208.562 537.16 210.569C535.316 214.37 534.123 218.17 530.436 219.69C527.725 222.857 524.797 224.757 521.76 227.544C517.639 228.811 513.084 228.557 508.421 228.557H468.078C465.259 230.331 460.487 231.091 456.583 231.977C452.245 231.977 447.148 231.977 444.111 230.837C442.051 228.43 438.472 225.77 436.52 222.983C434.351 221.083 434.351 217.41 432.616 215.13C431.097 211.963 430.447 206.896 428.82 203.982V196.129Z" fill="#005120" stroke="#002B0D" stroke-width="1.56276"/>
    <path fill-rule="evenodd" clip-rule="evenodd" d="M521.76 206.263V207.276C521.76 204.236 521.868 205.883 519.808 211.836C519.483 213.23 518.506 213.61 516.988 214.116M513.193 210.696H514.169C510.59 214.496 508.204 216.396 507.445 220.83L514.169 210.696C510.59 214.496 508.204 216.396 507.445 220.83M499.745 205.123C499.745 205.123 499.637 209.049 498.769 210.696ZM495.949 212.976V213.99V212.976ZM488.25 206.263H489.226H488.141C488.575 206.263 488.9 206.263 488.141 206.263H488.25ZM434.568 206.263C435.002 206.263 436.954 209.809 439.339 211.836C438.797 215.13 437.821 218.93 439.339 221.97M442.268 212.976C442.701 212.976 444.545 216.523 447.039 218.55L442.268 212.976C442.701 212.976 444.545 216.523 447.039 218.55V219.69C447.039 216.143 446.822 212.596 448.015 210.696C449.1 212.85 450.401 216.143 450.835 212.976C456.257 212.723 458.86 210.95 462.33 209.556C462.33 211.203 462.114 210.443 463.415 211.836M528.484 207.276H529.46C527.616 209.049 526.206 212.723 524.688 215.13M489.226 203.982H496.817Z" fill="#005120"/>
    <path d="M521.76 206.263V207.276C521.76 204.236 521.868 205.883 519.808 211.836C519.483 213.23 518.506 213.61 516.988 214.116M513.193 210.696H514.169C510.59 214.496 508.204 216.396 507.445 220.83L514.169 210.696C510.59 214.496 508.204 216.396 507.445 220.83M499.745 205.123C499.745 205.123 499.637 209.049 498.769 210.696M434.568 206.263C435.002 206.263 436.954 209.809 439.339 211.836C438.797 215.13 437.821 218.93 439.339 221.97M442.268 212.976C442.701 212.976 444.545 216.523 447.039 218.55L442.268 212.976ZM442.268 212.976C442.701 212.976 444.545 216.523 447.039 218.55V219.69C447.039 216.143 446.822 212.596 448.015 210.696C449.1 212.85 450.401 216.143 450.835 212.976C456.257 212.723 458.86 210.95 462.33 209.556C462.33 211.203 462.114 210.443 463.415 211.836M528.484 207.276H529.46C527.616 209.049 526.206 212.723 524.688 215.13M489.226 203.982H496.817M495.949 212.976V213.99V212.976ZM488.25 206.263H489.226H488.141C488.575 206.263 488.9 206.263 488.141 206.263H488.25Z" stroke="#002B0D" stroke-width="1.56276"/>
    <path fill-rule="evenodd" clip-rule="evenodd" d="M425.9 214.3C414.4 214.3 410.5 227.8 399 227.8H398.4V228.6C398.4 238 399 246.7 400.2 254.8C410.8 254 414.7 241.4 425.9 241.4C437.4 241.4 441.2 254.8 452.7 254.8C464.3 254.8 468.1 241.4 479.6 241.4C491.1 241.4 495 254.8 506.5 254.8C518 254.8 521.8 241.4 533.3 241.4C544.3 241.4 548.3 253.9 558.9 254.8C560.229 245.879 560.864 236.845 560.8 227.8H560.1C548.6 227.8 544.8 214.4 533.3 214.4C521.8 214.4 517.9 227.9 506.5 227.9C495 227.9 491.1 214.4 479.5 214.4C468.1 214.4 464.2 227.9 452.7 227.9C441.3 227.9 437.4 214.4 425.9 214.4V214.3ZM425.9 267C416.9 267 412.7 275.2 405.7 278.8C408.005 285.912 410.884 292.774 414.3 299.3C417.6 296.5 421 294.1 425.9 294.1C437.4 294.1 441.2 307.6 452.7 307.6C464.3 307.6 468.1 294.1 479.6 294.1C491.1 294.1 495 307.6 506.4 307.6C517.8 307.6 521.8 294.1 533.3 294.1C537.462 294.271 541.449 296.034 544.6 299.1C548.006 292.603 550.884 285.776 553.2 278.7C546.5 275 542.2 267 533.2 267C521.8 267 517.9 280.5 506.4 280.5C494.9 280.5 491 267 479.6 267C468.2 267 464.2 280.5 452.7 280.5C441.3 280.5 437.4 267 425.9 267V267ZM479.6 319.7C468.1 319.7 464.2 333.2 452.7 333.2C441.8 333.2 437.8 321.2 427.7 319.8C438.515 333.265 451.867 344.477 467 352.8C470.6 349.6 474.3 356.4 479.5 356.4C484.8 356.4 488.5 349.5 492 352.6C506.728 344.576 519.963 333.479 531 319.9C521.2 321.6 517 333.2 506.4 333.2C494.9 333.2 491.1 319.7 479.6 319.7V319.7Z" fill="white"/>
    <path d="M408.26 268.275C411.987 266.795 415.775 265.531 419.609 264.49L437.226 284.3L422.743 287.707L408.26 268.275Z" stroke="#512007" stroke-width="0.583904"/>
    <path d="M443.012 300.606C443.286 296.008 451.077 269.615 451.077 269.615M445.669 300.906L451.81 269.814M447.777 301.006L452.91 269.814M443.286 296.807C444.661 296.008 448.602 294.808 448.602 294.808M445.211 292.209C446.494 292.209 449.152 291.009 449.152 291.009M445.944 288.71C447.251 288.171 448.601 287.769 449.977 287.51M446.494 284.311L450.802 283.511M448.419 280.512C448.419 280.812 451.352 280.812 451.352 280.812M449.152 277.113L452.085 277.612" stroke="#512007" stroke-width="0.574338"/>
    <path d="M493.32 319.854C492.996 311.996 483.809 266.897 483.809 266.897M490.186 318.316L482.945 267.068M486.944 314.387C486.727 311.483 481.648 267.238 481.648 267.238M492.996 313.362C491.375 311.996 486.727 309.946 486.727 309.946M490.726 305.504C489.213 305.504 486.079 303.454 486.079 303.454M489.862 299.525C488.321 298.605 486.729 297.918 485.106 297.475M489.213 292.009L484.133 290.642M486.944 285.517C486.944 286.03 483.485 286.03 483.485 286.03M486.079 279.709L482.62 280.563" stroke="#512007" stroke-width="0.543521"/>
    <path d="M520.038 303.683C519.714 297.879 510.527 264.567 510.527 264.567M516.904 302.548L509.662 264.694M513.661 299.646C513.445 297.501 508.365 264.82 508.365 264.82M519.714 298.889C518.093 297.879 513.445 296.365 513.445 296.365M517.444 293.084C515.931 293.084 512.797 291.57 512.797 291.57M516.579 288.668C515.039 287.988 513.447 287.481 511.824 287.154M515.931 283.116L510.851 282.106M513.661 278.321C513.661 278.7 510.203 278.7 510.203 278.7M512.797 274.031L509.338 274.662" stroke="#512007" stroke-width="0.583904"/>
    <path fill-rule="evenodd" clip-rule="evenodd" d="M476.135 307.139L477.108 215.027C477.108 215.027 479.918 214.648 479.918 215.027C479.918 215.405 479.594 306.76 479.27 307.139C478.946 307.517 475.811 307.77 476.135 307.139ZM506.939 219.065L506.29 296.413L504.128 299.442L504.777 219.065H506.939Z" fill="#DD8B59" stroke="#512007" stroke-width="0.583904"/>
    <path fill-rule="evenodd" clip-rule="evenodd" d="M441.225 291.997C441.225 291.997 444.468 329.851 480.567 328.716C516.666 327.58 526.717 290.609 526.717 290.609L511.046 289.852C510.721 289.852 498.508 307.517 482.728 307.139C466.949 306.76 461.977 302.344 458.518 298.685C455.06 294.899 452.033 289.473 452.033 289.473L433.659 281.019L434.74 289.095L441.225 291.997ZM538.823 288.212L537.742 283.164V278.874L539.471 274.332C539.471 274.332 512.126 279 512.126 279.379L512.018 287.959L538.823 288.085V288.212Z" fill="#DD8B59" stroke="#512007" stroke-width="0.583904"/>
    <path d="M440.036 291.619C441.009 291.619 448.25 293.511 448.25 293.511L455.816 305.246M533.635 278.874L532.986 286.445H537.417L537.093 278.874H533.635ZM528.987 279.253L528.663 287.328L531.473 286.95L531.797 279.253H528.987ZM524.232 287.328V281.019L527.042 279.884L527.366 286.193L524.232 287.328ZM518.827 286.95L519.476 281.398L522.718 281.776L522.935 287.707L518.827 286.95ZM512.883 286.95L513.207 282.155L516.45 281.776V287.328L512.883 286.95Z" stroke="#512007" stroke-width="0.583904"/>
    <path d="M445.332 293.133C445.656 293.511 451.925 318.116 482.08 318.116C512.235 318.116 519.476 290.23 519.476 290.23" stroke="#512007" stroke-width="0.583904"/>
    <path d="M524.232 290.988C524.232 290.988 509.749 327.58 482.08 325.056C454.519 322.533 450.088 310.419 447.926 304.11C445.765 297.801 444.468 292.754 444.468 292.754" stroke="#512007" stroke-width="0.583904"/>
    <path fill-rule="evenodd" clip-rule="evenodd" d="M452.249 289.473C452.574 287.328 452.574 220.831 452.574 220.831L450.736 220.579L450.412 288.338L452.249 289.6V289.473ZM407.396 267.897L431.174 281.398L430.633 283.291C430.633 283.291 407.72 270.673 407.72 270.294C407.72 269.915 407.936 268.401 407.396 267.77V267.897Z" fill="#DD8B59" stroke="#512007" stroke-width="0.583904"/>
    <path fill-rule="evenodd" clip-rule="evenodd" d="M418.312 263.859C418.312 264.868 421.771 287.328 421.771 287.328C421.771 287.328 423.932 287.707 423.932 287.328L420.257 264.237L418.312 263.859ZM440.361 264.49C441.549 264.49 463.058 260.452 463.058 260.452L462.625 264.49L441.549 267.013L440.361 264.49Z" fill="#DD8B59" stroke="#512007" stroke-width="0.583904"/>
    <path fill-rule="evenodd" clip-rule="evenodd" d="M443.387 234.08C444.143 234.08 450.953 238.118 453.871 237.108C456.789 236.099 454.843 233.323 455.384 233.323C456.032 233.323 458.194 235.216 459.491 233.702C460.788 232.314 461.653 227.897 461.112 228.276C460.464 228.654 443.819 235.594 443.495 234.08H443.387Z" fill="#FECF3E" stroke="#512007" stroke-width="0.583904"/>
    <path fill-rule="evenodd" clip-rule="evenodd" d="M440.685 243.291C441.874 243.67 466.408 235.594 466.408 235.594C466.408 235.594 466.408 238.118 466.084 238.118L440.685 245.815V243.291Z" fill="#DD8B59" stroke="#512007" stroke-width="0.583904"/>
    <path fill-rule="evenodd" clip-rule="evenodd" d="M497.427 231.935C497.427 231.935 499.049 236.351 500.67 235.594C502.291 234.837 503.804 233.323 503.804 233.323C503.804 233.323 505.101 237.108 507.263 236.351C509.424 235.594 510.721 231.556 510.721 231.556C510.721 231.556 512.883 232.314 513.856 231.935C514.828 231.556 516.017 225.626 516.017 225.626L497.535 231.935H497.427ZM495.59 267.518C495.266 268.275 497.211 270.042 498.832 270.042C500.454 270.042 500.994 267.518 501.318 268.275C501.643 268.906 501.643 272.313 505.642 271.177C509.641 270.042 509.749 266.761 509.749 266.761C509.749 266.761 508.56 267.897 511.37 268.275C514.18 268.654 516.99 263.48 516.774 263.48C516.342 263.48 496.238 267.896 495.59 267.518V267.518Z" fill="#FECF3E" stroke="#512007" stroke-width="0.583904"/>
    <path fill-rule="evenodd" clip-rule="evenodd" d="M441.658 232.566C441.46 233.703 441.535 234.882 441.874 235.973L462.409 227.897C462.409 227.897 463.274 226.005 462.409 226.005C461.545 226.005 441.333 233.323 441.549 232.692L441.658 232.566ZM468.678 227.519C469.218 227.519 489.646 219.822 489.646 219.822C489.646 219.822 489.97 223.102 489.646 223.102L470.515 229.664L468.57 227.519H468.678Z" fill="#DD8B59" stroke="#512007" stroke-width="0.583904"/>
    <path fill-rule="evenodd" clip-rule="evenodd" d="M495.59 243.67C495.59 243.67 492.456 247.708 493.428 253.134C494.401 258.685 495.59 263.48 495.914 263.48C496.239 263.48 499.697 256.162 503.48 255.783C507.263 255.405 514.18 259.821 514.18 259.821C514.18 259.821 513.207 250.988 513.532 246.951C513.856 242.913 519.152 235.973 519.152 235.973L495.59 243.544V243.67Z" fill="#FECF3E" stroke="#512007" stroke-width="0.583904"/>
    <path fill-rule="evenodd" clip-rule="evenodd" d="M467.057 236.982C467.057 236.982 466.408 240.389 466.732 240.389L493.428 232.314V229.916L467.057 236.856V236.982Z" fill="#DD8B59" stroke="#512007" stroke-width="0.583904"/>
    <path fill-rule="evenodd" clip-rule="evenodd" d="M433.119 281.398C433.119 281.398 426.85 280.389 427.175 282.155C427.499 284.048 430.309 285.814 430.633 286.95C430.957 288.086 429.661 291.997 431.606 291.745C433.443 291.366 435.281 289.852 435.281 288.716L434.956 282.407L433.119 281.398Z" fill="#B6B6B4" stroke="#512007" stroke-width="0.583904"/>
    <path fill-rule="evenodd" clip-rule="evenodd" d="M468.029 263.102V265.625L490.618 261.966L489.97 260.073L468.029 263.102Z" fill="#DD8B59" stroke="#512007" stroke-width="0.583904"/>
    <path fill-rule="evenodd" clip-rule="evenodd" d="M441.225 267.518C441.658 267.518 441.225 270.799 443.819 270.042C446.305 269.285 446.953 267.518 446.953 267.518C446.953 267.518 447.602 271.556 451.061 271.177C454.519 270.799 456.465 266.382 456.465 266.382C456.465 266.382 456.681 269.663 458.842 268.527C461.004 267.392 461.653 264.868 461.653 264.868L441.874 268.149L441.333 267.518H441.225ZM441.225 245.815C441.225 245.815 438.415 246.951 439.388 253.512C440.361 260.073 442.63 263.859 442.846 263.859C443.171 263.859 445.657 257.55 449.439 256.54C453.222 255.278 459.815 259.821 459.815 259.821C459.815 259.821 459.167 253.891 460.139 248.465C460.833 244.931 462.242 241.643 464.246 238.875C464.246 238.875 442.198 245.815 441.333 245.815H441.225Z" fill="#FECF3E" stroke="#512007" stroke-width="0.583904"/>
    <path fill-rule="evenodd" clip-rule="evenodd" d="M494.077 264.868L494.401 267.139C494.401 267.139 517.098 263.859 517.098 263.354C517.098 263.102 517.098 260.83 516.666 260.83C516.342 260.83 494.401 265.247 493.969 264.868H494.077ZM493.753 241.399L494.077 243.922L520.773 235.594C520.773 235.594 521.421 233.323 521.097 233.323C520.773 233.323 494.401 242.534 493.753 241.399Z" fill="#DD8B59" stroke="#512007" stroke-width="0.583904"/>
    <path d="M538.39 272.187L518.936 236.351M516.342 261.209C516.666 260.2 517.639 238.118 517.639 238.118M496.563 229.664C496.563 229.664 496.239 231.935 496.563 231.935C496.887 231.935 516.342 226.383 516.342 226.005C516.342 225.626 518.287 223.481 516.666 223.86C515.153 224.238 497.211 230.799 496.563 229.664V229.664Z" stroke="#512007" stroke-width="0.583904"/>
    <path fill-rule="evenodd" clip-rule="evenodd" d="M469.326 228.654C470.407 228.907 472.677 232.692 473.974 231.935C475.271 231.178 477.108 228.907 477.108 228.907C477.108 228.907 476.784 233.323 479.27 232.692C481.864 231.935 482.188 228.907 482.188 228.907C482.188 228.907 484.025 230.168 485.647 228.907C487.16 227.897 488.673 222.345 488.132 222.345C487.592 222.345 469.867 228.907 469.218 228.654H469.326ZM468.678 239.253C468.678 240.011 465.435 245.815 466.516 251.367C467.597 256.919 469.218 261.966 469.542 261.966C469.867 261.966 474.622 256.162 478.729 255.026C482.728 253.89 488.781 258.685 488.457 258.685C488.132 258.685 486.835 253.133 486.835 249.096C486.835 245.058 491.591 232.692 491.591 232.692L468.678 239.253ZM468.678 265.751C468.678 266.004 469.542 268.527 471.812 268.527C473.974 268.527 474.298 266.004 474.298 266.004C474.298 266.004 473.974 270.42 477.432 270.041C480.891 269.663 482.08 265.625 482.08 265.625C482.08 265.625 482.404 267.896 485.322 266.761C488.132 265.625 491.807 261.966 491.591 261.966C491.267 261.966 468.894 266.761 468.57 265.751H468.678Z" fill="#FECF3E" stroke="#512007" stroke-width="0.583904"/>
    <path fill-rule="evenodd" clip-rule="evenodd" d="M471.272 251.707C471.716 251.726 472.136 251.953 472.437 252.337C472.739 252.721 472.899 253.23 472.882 253.754C472.864 254.277 472.671 254.771 472.345 255.127C472.018 255.484 471.585 255.673 471.14 255.653C470.696 255.634 470.277 255.407 469.975 255.023C469.673 254.639 469.513 254.129 469.53 253.606C469.548 253.083 469.741 252.589 470.068 252.232C470.394 251.876 470.827 251.687 471.272 251.707V251.707Z" fill="#BE0F17" stroke="#512007" stroke-width="0.57467"/>
    <path fill-rule="evenodd" clip-rule="evenodd" d="M482.685 248.309C483.13 248.329 483.549 248.556 483.851 248.939C484.153 249.323 484.313 249.833 484.295 250.356C484.278 250.88 484.084 251.374 483.758 251.73C483.431 252.086 482.998 252.275 482.554 252.256C482.109 252.236 481.69 252.01 481.388 251.626C481.086 251.242 480.926 250.732 480.944 250.209C480.961 249.686 481.154 249.191 481.481 248.835C481.808 248.479 482.241 248.29 482.685 248.309V248.309Z" fill="#BE0F17" stroke="#512007" stroke-width="0.57467"/>
    <path fill-rule="evenodd" clip-rule="evenodd" d="M476.978 255.298C477.423 255.317 477.842 255.544 478.144 255.928C478.446 256.312 478.606 256.822 478.588 257.345C478.571 257.868 478.378 258.362 478.051 258.719C477.725 259.075 477.291 259.264 476.847 259.244C476.403 259.225 475.983 258.998 475.681 258.614C475.379 258.23 475.22 257.721 475.237 257.197C475.255 256.674 475.448 256.18 475.774 255.824C476.101 255.467 476.534 255.278 476.978 255.298V255.298Z" fill="#BE0F17" stroke="#512007" stroke-width="0.57467"/>
    <path fill-rule="evenodd" clip-rule="evenodd" d="M476.978 244.621C477.423 244.641 477.842 244.867 478.144 245.251C478.446 245.635 478.606 246.145 478.588 246.668C478.571 247.192 478.378 247.686 478.051 248.042C477.725 248.398 477.291 248.587 476.847 248.568C476.403 248.548 475.983 248.321 475.681 247.938C475.379 247.554 475.22 247.044 475.237 246.521C475.255 245.997 475.448 245.503 475.774 245.147C476.101 244.791 476.534 244.602 476.978 244.621V244.621Z" fill="#BE0F17" stroke="#512007" stroke-width="0.57467"/>
    <path d="M479.27 216.036C479.27 215.784 488.997 220.831 488.997 221.21C488.997 221.588 523.583 275.215 523.907 275.215M506.614 221.21L515.477 225.626L518.287 233.702M451.925 220.579C451.601 220.579 461.653 229.411 461.653 229.411L462.95 236.604M417.772 274.079C422.095 271.934 452.574 240.768 452.574 240.768M409.557 268.149L443.819 234.459M466.732 239.506L499.157 302.344M495.266 265.499C495.266 265.499 499.049 280.262 502.831 282.533C505.653 284.302 508.395 286.239 511.046 288.338" stroke="#512007" stroke-width="0.583904"/>
    <path d="M494.833 265.878C494.833 265.878 497.536 283.291 501.318 286.571C505.101 289.852 508.884 293.511 508.884 293.511" stroke="#512007" stroke-width="0.583904"/>
    <path d="M468.807 265.732C468.807 265.732 472.482 289.959 480.048 295.511C484.683 298.874 489.294 302.281 493.882 305.731" stroke="#512007" stroke-width="0.583904"/>
    <path d="M468.483 265.354C468.483 265.354 476.589 284.533 483.615 290.337C490.424 296.268 499.827 301.694 499.827 301.694M442.111 266.994C444.273 271.41 443.949 279.864 446.435 282.766C448.72 285.782 450.815 288.987 452.703 292.356M442.652 267.246C443.949 269.391 447.407 280.369 449.569 283.65C451.19 286.678 467.186 305.353 467.186 305.353" stroke="#512007" stroke-width="0.583904"/>
    <path fill-rule="evenodd" clip-rule="evenodd" d="M461.89 306.236C461.89 306.601 461.829 306.962 461.709 307.298C461.59 307.635 461.415 307.941 461.194 308.199C460.973 308.457 460.711 308.661 460.422 308.801C460.134 308.94 459.825 309.012 459.512 309.012C459.2 309.012 458.891 308.94 458.603 308.801C458.314 308.661 458.052 308.457 457.831 308.199C457.61 307.941 457.435 307.635 457.316 307.298C457.196 306.962 457.135 306.601 457.135 306.236C457.135 305.5 457.385 304.794 457.831 304.273C458.277 303.753 458.882 303.46 459.512 303.46C460.143 303.46 460.748 303.753 461.194 304.273C461.64 304.794 461.89 305.5 461.89 306.236ZM473.455 312.167C473.455 312.802 473.239 313.412 472.853 313.862C472.468 314.311 471.946 314.564 471.401 314.564C470.857 314.564 470.334 314.311 469.949 313.862C469.564 313.412 469.348 312.802 469.348 312.167C469.348 311.531 469.564 310.921 469.949 310.471C470.334 310.022 470.857 309.769 471.401 309.769C471.946 309.769 472.468 310.022 472.853 310.471C473.239 310.921 473.455 311.531 473.455 312.167V312.167ZM488.262 313.681C488.262 314.317 488.046 314.926 487.661 315.376C487.276 315.826 486.753 316.078 486.209 316.078C485.664 316.078 485.142 315.826 484.756 315.376C484.371 314.926 484.155 314.317 484.155 313.681C484.155 313.045 484.371 312.435 484.756 311.986C485.142 311.536 485.664 311.283 486.209 311.283C486.753 311.283 487.276 311.536 487.661 311.986C488.046 312.435 488.262 313.045 488.262 313.681V313.681ZM501.124 308.003C501.124 309.264 500.367 310.148 499.394 310.148C498.422 310.148 497.665 309.138 497.665 308.003C497.665 306.867 498.422 305.731 499.394 305.731C500.367 305.731 501.124 306.741 501.124 308.003ZM511.5 300.81C511.5 301.946 510.527 302.829 509.446 302.829C508.365 302.829 507.392 301.946 507.392 300.81C507.392 299.675 508.365 298.792 509.446 298.792C510.527 298.792 511.5 299.675 511.5 300.81Z" fill="black" stroke="#512007" stroke-width="0.583904"/>
    <path fill-rule="evenodd" clip-rule="evenodd" d="M450.542 222.073C449.569 222.831 433.897 227.247 436.059 226.868C438.221 226.49 450.866 230.654 450.542 229.392C450.218 228.13 450.542 222.831 450.542 222.073ZM477.238 216.648C476.589 216.648 467.511 220.685 467.835 220.685C468.159 220.685 478.211 223.966 477.886 223.209C477.562 222.452 477.562 217.657 477.238 216.648ZM504.582 220.307C503.934 220.685 493.234 223.588 495.179 223.966C497.125 224.345 504.258 227.247 504.258 226.49C504.258 225.859 504.258 220.685 504.582 220.181V220.307Z" fill="#FF0000" stroke="#512007" stroke-width="0.583904"/>
    <path d="M493.234 306.11C493.558 300.306 502.745 266.994 502.745 266.994M496.368 304.974L503.61 267.12M499.611 302.072C499.827 299.927 504.907 267.246 504.907 267.246M493.558 301.315C495.179 300.306 499.827 298.791 499.827 298.791M495.828 295.511C497.341 295.511 500.475 293.997 500.475 293.997M496.692 291.094C498.233 290.415 499.825 289.908 501.448 289.58M497.341 285.542L502.421 284.533M499.611 280.748C499.611 281.126 503.069 281.126 503.069 281.126M500.475 276.457L503.934 277.088" stroke="#512007" stroke-width="0.583904"/>
    <path d="M466.43 310.342C466.754 304.27 475.941 269.42 475.941 269.42M469.564 310.738L476.805 269.684M472.05 310.87L478.102 269.684M466.754 305.326C468.375 304.27 473.023 302.686 473.023 302.686M469.024 299.253C470.537 299.253 473.671 297.669 473.671 297.669M469.888 294.633C471.429 293.922 473.021 293.392 474.644 293.049M470.537 288.825L475.617 287.769M472.806 283.809C472.806 284.205 476.265 284.205 476.265 284.205M473.671 279.321L477.13 279.981" stroke="#512007" stroke-width="0.597227"/>
    <path d="M466.343 307.682C466.019 301.789 456.832 267.964 456.832 267.964M463.209 306.529L455.967 268.092M459.966 303.582C459.75 301.404 454.671 268.221 454.671 268.221M466.019 302.814C464.398 301.789 459.75 300.251 459.75 300.251M463.749 296.92C462.236 296.92 459.102 295.382 459.102 295.382M462.885 292.436C461.344 291.745 459.752 291.231 458.129 290.898M462.236 286.798L457.156 285.773M459.966 281.93C459.966 282.314 456.508 282.314 456.508 282.314M459.102 277.573L455.643 278.214" stroke="#512007" stroke-width="0.588378"/>
    <path fill-rule="evenodd" clip-rule="evenodd" d="M509.749 289.852L539.579 290.609L539.903 288.085L509.1 287.707L509.749 289.852ZM511.046 280.641C514.504 280.641 540.552 274.836 540.552 274.836C540.552 274.836 541.525 271.051 540.552 271.051C539.579 271.051 511.046 278.117 511.046 278.117V280.641Z" fill="#DD8B59" stroke="#512007" stroke-width="0.583904"/>
    <path fill-rule="evenodd" clip-rule="evenodd" d="M476.978 249.96C477.423 249.979 477.842 250.206 478.144 250.59C478.446 250.974 478.606 251.483 478.588 252.007C478.571 252.53 478.378 253.024 478.051 253.38C477.725 253.736 477.291 253.926 476.847 253.906C476.403 253.886 475.983 253.66 475.681 253.276C475.379 252.892 475.22 252.382 475.237 251.859C475.255 251.336 475.448 250.842 475.774 250.485C476.101 250.129 476.534 249.94 476.978 249.96V249.96Z" fill="#BE0F17" stroke="#512007" stroke-width="0.57467"/>
    <path d="M0 0H320V240H0V0Z" fill="#012169"/>
    <path d="M37.5 0L159.5 90.5L281 0H320V31L200 120.5L320 209.5V240H280L160 150.5L40.5 240H0V210L119.5 121L0 32V0H37.5Z" fill="white"/>
    <path d="M212 140.5L320 220V240L184.5 140.5H212ZM120 150.5L123 168L27 240H0L120 150.5ZM320 0V1.5L195.5 95.5L196.5 73.5L295 0H320ZM0 0L119.5 88H89.5L0 21V0Z" fill="#C8102E"/>
    <path d="M120.5 0V240H200.5V0H120.5ZM0 80V160H320V80H0Z" fill="white"/>
    <path d="M0 96.5V144.5H320V96.5H0ZM136.5 0V240H184.5V0H136.5Z" fill="#C8102E"/>
  </g>
  <defs>
    <linearGradient id="paint0_linear_6_2813" x1="218.597" y1="569.333" x2="242.527" y2="557.186" gradientUnits="userSpaceOnUse">
      <stop stop-color="#A43907"/>
      <stop offset="1" stop-color="white"/>
    </linearGradient>
    <linearGradient id="paint1_linear_6_2813" x1="427.557" y1="335.463" x2="396.805" y2="320.462" gradientUnits="userSpaceOnUse">
      <stop stop-color="#A43907"/>
      <stop offset="1" stop-color="white"/>
    </linearGradient>
    <linearGradient id="paint2_linear_6_2813" x1="442.406" y1="347.713" x2="378.237" y2="340.198" gradientUnits="userSpaceOnUse">
      <stop stop-color="#A43907"/>
      <stop offset="1" stop-color="white"/>
    </linearGradient>
    <linearGradient id="paint3_linear_6_2813" x1="562.008" y1="318.362" x2="532.595" y2="319.756" gradientUnits="userSpaceOnUse">
      <stop stop-color="#A43907"/>
      <stop offset="1" stop-color="white"/>
    </linearGradient>
    <linearGradient id="paint4_linear_6_2813" x1="577.754" y1="335.785" x2="514.82" y2="339.166" gradientUnits="userSpaceOnUse">
      <stop stop-color="#A43907"/>
      <stop offset="1" stop-color="white"/>
    </linearGradient>
    <linearGradient id="paint5_linear_6_2813" x1="568.774" y1="356.292" x2="392.507" y2="356.292" gradientUnits="userSpaceOnUse">
      <stop stop-color="#A43907"/>
      <stop offset="1" stop-color="white"/>
    </linearGradient>
    <linearGradient id="paint6_linear_6_2813" x1="395.881" y1="370.237" x2="652.797" y2="371.056" gradientUnits="userSpaceOnUse">
      <stop stop-color="#A43907"/>
      <stop offset="1" stop-color="white"/>
    </linearGradient>
    <linearGradient id="paint7_linear_6_2813" x1="577.875" y1="352.788" x2="556.897" y2="353.335" gradientUnits="userSpaceOnUse">
      <stop stop-color="#A43907"/>
      <stop offset="1" stop-color="white"/>
    </linearGradient>
    <linearGradient id="paint8_linear_6_2813" x1="391.778" y1="377.655" x2="411.926" y2="378.84" gradientUnits="userSpaceOnUse">
      <stop stop-color="#A43907"/>
      <stop offset="1" stop-color="white"/>
    </linearGradient>
    <linearGradient id="paint9_linear_6_2813" x1="406.65" y1="372.549" x2="369.331" y2="364.266" gradientUnits="userSpaceOnUse">
      <stop stop-color="#A43907"/>
      <stop offset="1" stop-color="white"/>
    </linearGradient>
    <clipPath id="clip0_6_2813">
      <rect width="640" height="480" fill="white"/>
    </clipPath>
  </defs>
</svg>
