<svg xmlns="http://www.w3.org/2000/svg" width="640" height="480" fill="none"><g clip-path="url(#a)"><path fill="#CE1126" d="M0 0h640v480H0z"/><path fill="#007A5E" d="M67.2 67.2h505.6v345.6H67.2z"/><path fill="#FCD116" d="M67.2 67.3h505.6L67.2 412.9h505.6z"/><path fill="#CE1126" d="M319.9 297.7c31.812 0 57.6-25.788 57.6-57.6s-25.788-57.6-57.6-57.6-57.6 25.788-57.6 57.6 25.788 57.6 57.6 57.6"/><path fill="#FCD116" d="m320 187.2-16.316 50.216 25.108 8.158"/><path fill="#FCD116" d="m320 187.2 16.316 50.216-25.108 8.158"/><path fill="#FCD116" d="M370.216 223.684h-52.8v26.4"/><path fill="#FCD116" d="M370.216 223.684 327.5 254.719l-15.518-21.358"/><path fill="#FCD116" d="M351.035 282.716 334.719 232.5l-25.108 8.158"/><path fill="#FCD116" d="m351.035 282.716-42.716-31.035 15.518-21.358"/><path fill="#FCD116" d="m288.965 282.716 42.716-31.035-15.517-21.358"/><path fill="#FCD116" d="m288.965 282.716 16.316-50.216 25.108 8.158"/><path fill="#FCD116" d="m269.784 223.684 42.716 31.035 15.518-21.358"/><path fill="#FCD116" d="M269.784 223.684h52.8v26.4M189.7 2.4l-9.641 29.673 14.836 4.82"/><path fill="#FCD116" d="m189.7 2.4 9.641 29.673-14.836 4.82"/><path fill="#FCD116" d="M219.373 23.959h-31.2v15.6"/><path fill="#FCD116" d="m219.373 23.959-25.241 18.339-9.17-12.621"/><path fill="#FCD116" d="m208.039 58.841-9.641-29.672-14.837 4.82"/><path fill="#FCD116" d="m208.039 58.841-25.241-18.339 9.169-12.62"/><path fill="#FCD116" d="m171.361 58.841 25.241-18.339-9.169-12.62"/><path fill="#FCD116" d="m171.361 58.841 9.641-29.673 14.837 4.821"/><path fill="#FCD116" d="m160.027 23.959 25.241 18.339 9.17-12.621"/><path fill="#FCD116" d="M160.027 23.959h31.2v15.6M320 2.4l-9.641 29.673 14.836 4.82"/><path fill="#FCD116" d="m320 2.4 9.641 29.673-14.836 4.82"/><path fill="#FCD116" d="M349.673 23.959h-31.2v15.6"/><path fill="#FCD116" d="m349.673 23.959-25.241 18.339-9.17-12.621"/><path fill="#FCD116" d="m338.339 58.841-9.641-29.672-14.837 4.82"/><path fill="#FCD116" d="m338.339 58.841-25.241-18.339 9.169-12.62"/><path fill="#FCD116" d="m301.661 58.841 25.241-18.339-9.169-12.62"/><path fill="#FCD116" d="m301.661 58.841 9.641-29.673 14.837 4.821"/><path fill="#FCD116" d="m290.327 23.959 25.241 18.339 9.17-12.621"/><path fill="#FCD116" d="M290.327 23.959h31.2v15.6M450.3 2.4l-9.641 29.673 14.836 4.82"/><path fill="#FCD116" d="m450.3 2.4 9.641 29.673-14.836 4.82"/><path fill="#FCD116" d="M479.973 23.959h-31.2v15.6"/><path fill="#FCD116" d="m479.973 23.959-25.241 18.339-9.17-12.621"/><path fill="#FCD116" d="m468.639 58.841-9.641-29.672-14.837 4.82"/><path fill="#FCD116" d="m468.639 58.841-25.241-18.339 9.169-12.62"/><path fill="#FCD116" d="m431.961 58.841 25.241-18.339-9.169-12.62"/><path fill="#FCD116" d="m431.961 58.841 9.641-29.673 14.837 4.821"/><path fill="#FCD116" d="m420.627 23.959 25.241 18.339 9.17-12.621"/><path fill="#FCD116" d="M420.627 23.959h31.2v15.6"/><path fill="#CE1126" d="M102.3 240.7a80.4 80.4 0 0 0 33.5 33.2 111 111 0 0 0-11.3-45z"/><path fill="#FCD116" d="M90.1 194.7c10.4 21.7-27.1 73.7 35.5 85.9a63.2 63.2 0 0 1-10.9-41.9 70 70 0 0 1 32.5 30.8c16.4-59.5-42-55.8-57.1-74.8M189.7 417l-9.641 29.673 14.836 4.821"/><path fill="#FCD116" d="m189.7 417 9.641 29.673-14.836 4.821"/><path fill="#FCD116" d="M219.373 438.559h-31.2v15.6"/><path fill="#FCD116" d="m219.373 438.559-25.241 18.339-9.17-12.621"/><path fill="#FCD116" d="m208.039 473.441-9.641-29.673-14.837 4.821"/><path fill="#FCD116" d="m208.039 473.441-25.241-18.338 9.169-12.621"/><path fill="#FCD116" d="m171.361 473.441 25.241-18.339-9.169-12.62"/><path fill="#FCD116" d="m171.361 473.441 9.641-29.673 14.837 4.821"/><path fill="#FCD116" d="m160.027 438.559 25.241 18.338 9.17-12.62"/><path fill="#FCD116" d="M160.027 438.559h31.2v15.6M320 417l-9.641 29.673 14.836 4.821"/><path fill="#FCD116" d="m320 417 9.641 29.673-14.836 4.821"/><path fill="#FCD116" d="M349.673 438.559h-31.2v15.6"/><path fill="#FCD116" d="m349.673 438.559-25.241 18.339-9.17-12.621"/><path fill="#FCD116" d="m338.339 473.441-9.641-29.673-14.837 4.821"/><path fill="#FCD116" d="m338.339 473.441-25.241-18.338 9.169-12.621"/><path fill="#FCD116" d="m301.661 473.441 25.241-18.339-9.169-12.62"/><path fill="#FCD116" d="m301.661 473.441 9.641-29.673 14.837 4.821"/><path fill="#FCD116" d="m290.327 438.559 25.241 18.338 9.17-12.62"/><path fill="#FCD116" d="M290.327 438.559h31.2v15.6M450.3 417l-9.641 29.673 14.836 4.821"/><path fill="#FCD116" d="m450.3 417 9.641 29.673-14.836 4.821"/><path fill="#FCD116" d="M479.973 438.559h-31.2v15.6"/><path fill="#FCD116" d="m479.973 438.559-25.241 18.339-9.17-12.621"/><path fill="#FCD116" d="m468.639 473.441-9.641-29.673-14.837 4.821"/><path fill="#FCD116" d="m468.639 473.441-25.241-18.338 9.169-12.621"/><path fill="#FCD116" d="m431.961 473.441 25.241-18.339-9.169-12.62"/><path fill="#FCD116" d="m431.961 473.441 9.641-29.673 14.837 4.821"/><path fill="#FCD116" d="m420.627 438.559 25.241 18.338 9.17-12.62"/><path fill="#FCD116" d="M420.627 438.559h31.2v15.6"/></g><defs><clipPath id="a"><path fill="#fff" d="M0 0h640v480H0z"/></clipPath></defs></svg>