<svg xmlns="http://www.w3.org/2000/svg" width="640" height="480" fill="none"><g clip-path="url(#a)"><path fill="#D21034" d="M0 0h640v480H0z"/><path fill="#00209F" d="M0 0h640v240H0z"/><path fill="#fff" d="M244.3 179.7h151.4v120.5H244.3z"/><path fill="#016A16" stroke="#016A16" stroke-width=".3" d="m350.5 266.8-31 1-30.7.3s-15.8 5.8-22.3 7.1c-6.4 1.3-5.6 3.4-10.5 4.6-4 .9-4.5 1.1-6.8 1.3-1.5 0-3.2 1.2-5 2.4v16.7h151.5v-15.9c-1.6-.9-3.2-1.5-4.8-2-2.2-.8-3.7-1.6-7.7-2.5-5-1.1-4.2-3.3-10.6-4.6-6.5-1.3-22.1-8.4-22.1-8.4Z"/><path fill="#F1B517" stroke="#000" stroke-width=".32" d="M311.2 229.6h2.24l4.16 17.12-.96 5.44-5.44-22.4z"/><path fill="#fff" stroke="#000" stroke-width=".32" d="m308.8 218.08 1.6 13.28h1.6l-3.2-13.12z"/><path fill="#F1B517" stroke="#000" stroke-width=".32" d="m313.12 247.36-6.88-18.4 2.56-.16 8 22.4-3.68-3.84Z"/><path fill="#fff" stroke="#000" stroke-width=".32" d="m303.04 218.4 2.88 12.8h2.24l-5.12-12.8Z"/><path fill="#F1B517" stroke="#000" stroke-width=".32" d="m307.04 240.96-4-8.8 1.6-.32 7.52 14.4z"/><path fill="#fff" stroke="#000" stroke-width=".32" d="m297.6 222.08 4.64 12.16h2.24l-6.72-12.16z"/><path fill="#0A328C" stroke="#000" stroke-width=".32" d="m307.68 242.24-18.4-20c-5.76 4.48-4.64 12.8-4.64 12.8l20.8 16.32 2.08-9.12z"/><path fill="#D20014" stroke="#000" stroke-width=".32" d="m318.24 253.12-13.6-13.76c-5.76.32-1.28 8.8-.96 9.92l14.4 12.32v-8.48z"/><path fill="#F1B517" stroke="#000" stroke-width=".32" d="m316.96 250.88-28-30.08-1.12.8 29.76 32.96-.64-3.68Zm-29.6-32-.64-.8v-1.44l-5.76-3.68 2.56 5.92 2.08.32.48.64 1.28-.96Z"/><path fill="#F1B517" stroke="#000" stroke-width=".32" d="M284.32 220.96a13.45 13.45 0 0 1 4.32-3.52l1.6 2.4-3.52 2.88-2.4-1.6z"/><path fill="#0A328C" stroke="#0A328C" stroke-width=".32" d="m281.28 226.08.96 1.6c.64-.16 6.4-5.6 6.4-5.6h4.32l1.12-1.44c-3.2-3.2-5.92.48-5.92.48l-6.88 4.8z"/><path fill="#D20014" stroke="#D20014" stroke-width=".32" d="M284.8 228.8c0-1.6 2.88-5.12 3.2-5.28 2.08.64 4 1.92 6.24-2.88-1.92 2.24-5.6 0-5.6 0l-1.6 1.28v.64l-4.8 4.48 2.4 1.76z"/><path fill="#0A328C" stroke="#000" stroke-width=".32" d="m299.68 247.52-23.04-18.24c-4 4-.64 16.32-.64 16.32l22.4 12.16 1.12-10.24z"/><path fill="#D20014" stroke="#000" stroke-width=".32" d="m318.72 262.4-19.04-15.36c-6.4.96-1.28 10.4-.96 11.52l20 10.88v-7.2z"/><path fill="#F1B517" stroke="#000" stroke-width=".32" d="m317.92 259.2-40.96-30.72-.8.96 42.88 33.6-1.12-3.84Zm-42.88-32.32-.64-.64-.32-1.28-6.4-2.72 3.68 5.28h2.08l.64.64.96-1.28Z"/><path fill="#F1B517" stroke="#000" stroke-width=".32" d="M272.48 229.44a13.1 13.1 0 0 1 3.68-4.16l1.92 2.08-2.88 3.36z"/><path fill="#0A328C" stroke="#0A328C" stroke-width=".32" d="M270.4 234.56v1.76c.64-.32 5.92-5.92 5.92-5.92l4-.8.96-1.28c-2.88-3.36-5.92 1.12-5.92 1.12l-5.12 5.12z"/><path fill="#D20014" stroke="#D20014" stroke-width=".32" d="M273.6 237.6c-.32-1.6 1.92-6.08 2.24-6.4 2.56.8 4.8 1.92 5.6-3.2-1.6 2.56-5.6.64-5.6.64l-1.28 1.6v.8l-4 5.28 3.04 1.28Z"/><path fill="#0A328C" stroke="#000" stroke-width=".32" d="M297.92 258.72a4422 4422 0 0 1-29.6-16.8c-2.08 3.68-.16 8.8.8 9.6 0 2.4-.96 3.68 1.12 8.8.64 3.2 2.08 6.24 4.32 8 2.56 10.24 13.12 11.04 17.12 2.56l6.4-12.16z"/><path fill="#D20014" stroke="#000" stroke-width=".32" d="m317.28 269.6-20-11.68c-6.4.8 0 12.8.48 13.92l19.52 6.88z"/><path fill="#F1B517" stroke="#000" stroke-width=".32" d="m313.92 265.28-45.28-24-.8.96 48 26.72-1.92-3.68ZM266.4 240l-.8-.48-.48-1.28-6.56-1.6 4.32 4.64 1.92-.32.96.48.64-1.44Z"/><path fill="#F1B517" stroke="#000" stroke-width=".32" d="M264.32 242.88c.64-1.6 1.28-3.04 2.88-4.8l2.24 1.76-2.24 3.84z"/><path fill="#0A328C" stroke="#0A328C" stroke-width=".32" d="m262.56 248.32.96 1.92 4.8-7.36 4-1.44.8-1.6c-3.2-2.88-5.6 2.24-5.6 2.24z"/><path fill="#D20014" stroke="#D20014" stroke-width=".32" d="M266.88 250.88c-.32-1.6.8-6.72 1.12-6.88 2.4.8 4.48.96 5.12-4.16-1.6 2.4-5.28 1.6-5.28 1.6l-1.12 1.6.16.64-3.2 6.4 3.2.8Z"/><path fill="#F1B517" stroke="#000" stroke-width=".32" d="M328.64 229.6h-2.24l-4.16 17.12.96 5.44 5.44-22.4z"/><path fill="#fff" stroke="#000" stroke-width=".32" d="m331.04 218.08-1.6 13.28h-1.6l3.2-13.12z"/><path fill="#F1B517" stroke="#000" stroke-width=".32" d="m326.72 247.36 6.88-18.4-2.56-.16-8 22.4 3.68-3.84Z"/><path fill="#fff" stroke="#000" stroke-width=".32" d="m336.8 218.4-2.88 12.8h-2.24l5.12-12.8Z"/><path fill="#F1B517" stroke="#000" stroke-width=".32" d="m332.8 240.96 4-8.8-1.6-.32-7.52 14.4z"/><path fill="#fff" stroke="#000" stroke-width=".32" d="m342.24 222.08-4.64 12.16h-2.24l6.72-12.16z"/><path fill="#0A328C" stroke="#000" stroke-width=".32" d="m332.16 242.24 18.4-20c5.76 4.48 4.64 12.8 4.64 12.8l-20.8 16.32-2.08-9.12z"/><path fill="#D20014" stroke="#000" stroke-width=".32" d="m321.6 253.12 13.6-13.76c5.76.32 1.28 8.8.96 9.92l-14.4 12.32v-8.48z"/><path fill="#F1B517" stroke="#000" stroke-width=".32" d="m322.88 250.88 28-30.08 1.12.8-29.76 32.96.64-3.68Zm29.6-32 .64-.8v-1.44l5.76-3.68-2.56 5.92-2.08.32-.48.64-1.28-.96Z"/><path fill="#F1B517" stroke="#000" stroke-width=".32" d="M355.52 220.96a13.45 13.45 0 0 0-4.32-3.52l-1.6 2.4 3.52 2.88 2.4-1.6z"/><path fill="#0A328C" stroke="#0A328C" stroke-width=".32" d="m358.56 226.08-.96 1.6c-.64-.16-6.4-5.6-6.4-5.6h-4.32l-1.12-1.44c3.2-3.2 5.92.48 5.92.48l6.88 4.8z"/><path fill="#D20014" stroke="#D20014" stroke-width=".32" d="M355.04 228.8c0-1.6-2.88-5.12-3.2-5.28-2.08.64-4 1.92-6.24-2.88 1.92 2.24 5.6 0 5.6 0l1.6 1.28v.64l4.8 4.48-2.4 1.76z"/><path fill="#0A328C" stroke="#000" stroke-width=".32" d="m340.16 247.52 23.04-18.24c4 4 .64 16.32.64 16.32l-22.4 12.16-1.12-10.24z"/><path fill="#D20014" stroke="#000" stroke-width=".32" d="m321.12 262.4 19.04-15.36c6.4.96 1.28 10.4.96 11.52l-20 10.88v-7.2z"/><path fill="#F1B517" stroke="#000" stroke-width=".32" d="m321.92 259.2 40.96-30.72.8.96-42.88 33.6 1.12-3.84Zm42.88-32.32.64-.64.32-1.28 6.4-2.72-3.68 5.28h-2.08l-.64.64-.96-1.28Z"/><path fill="#F1B517" stroke="#000" stroke-width=".32" d="M367.36 229.44a13.1 13.1 0 0 0-3.68-4.16l-1.92 2.08 2.88 3.36z"/><path fill="#0A328C" stroke="#0A328C" stroke-width=".32" d="M369.44 234.56v1.76c-.64-.32-5.92-5.92-5.92-5.92l-4-.8-.96-1.28c2.88-3.36 5.92 1.12 5.92 1.12l5.12 5.12z"/><path fill="#D20014" stroke="#D20014" stroke-width=".32" d="M366.24 237.6c.32-1.6-1.92-6.08-2.24-6.4-2.56.8-4.8 1.92-5.6-3.2 1.6 2.56 5.6.64 5.6.64l1.28 1.6v.8l4 5.28-3.04 1.28Z"/><path fill="#0A328C" stroke="#000" stroke-width=".32" d="M341.92 258.72a4422 4422 0 0 0 29.6-16.8c2.08 3.68.16 8.8-.8 9.6 0 2.4.96 3.68-1.12 8.8-.64 3.2-2.08 6.24-4.32 8-2.56 10.24-13.12 11.04-17.12 2.56l-6.4-12.16z"/><path fill="#D20014" stroke="#000" stroke-width=".32" d="m322.56 269.6 20-11.68c6.4.8 0 12.8-.48 13.92l-19.52 6.88z"/><path fill="#F1B517" stroke="#000" stroke-width=".32" d="m325.92 265.28 45.28-24 .8.96-48 26.72 1.92-3.68ZM373.44 240l.8-.48.48-1.28 6.56-1.6-4.32 4.64-1.92-.32-.96.48-.64-1.44Z"/><path fill="#F1B517" stroke="#000" stroke-width=".32" d="M375.52 242.88c-.64-1.6-1.28-3.04-2.88-4.8l-2.24 1.76 2.24 3.84z"/><path fill="#0A328C" stroke="#0A328C" stroke-width=".32" d="m377.28 248.32-.96 1.92-4.8-7.36-4-1.44-.8-1.6c3.2-2.88 5.6 2.24 5.6 2.24z"/><path fill="#D20014" stroke="#D20014" stroke-width=".32" d="M372.96 250.88c.32-1.6-.8-6.72-1.12-6.88-2.4.8-4.48.96-5.12-4.16 1.6 2.4 5.28 1.6 5.28 1.6l1.12 1.6-.16.64 3.2 6.4-3.2.8Z"/><path fill="#016A16" stroke="#016A16" stroke-width=".32" d="m318.08 200.96-.8 14.4h4.64l-.64-14.4 4.8-.48-.48-5.76-12 .48v5.12l4.48.64Z"/><path fill="#016A16" d="M319.68 195.04c-12.48-12.48-22.24-6.4-24.48-4.64 1.6.32 2.88-.64 3.68-.8l-1.6 1.92s4-1.6 4.48-1.6c-.64.48-1.28 1.6-1.28 1.6.32 0 2.56-1.76 2.88-1.76-.64.64-.8 2.4-.8 2.4l1.92-.8c.48.32-.16.96.16.96 3.2-.32 7.52 2.72 8 3.68"/><path stroke="#000" stroke-width=".32" d="M319.68 195.04c-12.48-12.48-22.24-6.4-24.48-4.64 1.6.32 2.88-.64 3.68-.8l-1.6 1.92s4-1.6 4.48-1.6c-.64.48-1.28 1.6-1.28 1.6.32 0 2.56-1.76 2.88-1.76-.64.64-.8 2.4-.8 2.4l1.92-.8c.48.32-.16.96.16.96 3.2-.32 7.52 2.72 8 3.68"/><path fill="#016A16" d="M316.64 197.28c-1.28-2.88-24.96-8-29.76.48 1.92.48 3.68-1.6 3.68-1.6v1.92l3.04-2.56-1.12 2.56 2.4-2.08v2.08l3.2-3.2-.48 1.76 2.72-1.12-.32 1.6"/><path stroke="#000" stroke-width=".32" d="M316.64 197.28c-1.28-2.88-24.96-8-29.76.48 1.92.48 3.68-1.6 3.68-1.6v1.92l3.04-2.56-1.12 2.56 2.4-2.08v2.08l3.2-3.2-.48 1.76 2.72-1.12-.32 1.6"/><path fill="#016A16" d="M315.52 197.76c-6.08-4-15.36-1.28-15.36-1.28-6.08 3.2-9.28 2.72-9.92 8.96.48-.16 2.08-2.24 2.08-2.24l1.28 2.4.32-3.36.96 2.72 1.6-4.48.32 3.04 2.24-3.04.96.96.96-2.4.96 1.6s1.6-.96 2.4-.48l1.6-1.92.48 1.44 1.6-1.6.48 1.12 1.44-1.28v.96h4.8"/><path stroke="#000" stroke-width=".32" d="M315.52 197.76c-6.08-4-15.36-1.28-15.36-1.28-6.08 3.2-9.28 2.72-9.92 8.96.48-.16 2.08-2.24 2.08-2.24l1.28 2.4.32-3.36.96 2.72 1.6-4.48.32 3.04 2.24-3.04.96.96.96-2.4.96 1.6s1.6-.96 2.4-.48l1.6-1.92.48 1.44 1.6-1.6.48 1.12 1.44-1.28v.96h4.8"/><path fill="#016A16" d="M314.24 198.4c-4.32 0-16.48 4.64-19.52 9.28a21 21 0 0 1 2.08-.96l.48 1.92.8-1.92.16 1.6c.48-1.28.96-1.28 1.92-.16l.32-1.76.48 1.6.8-1.76s.48 1.92.8 1.92c0 0 1.28-3.52 1.92-3.68l.16 2.24.8-2.24.8 1.6v-2.24l.96 1.6s.32-1.6.96-1.92l1.28 1.12 5.44-4"/><path stroke="#000" stroke-width=".32" d="M314.24 198.4c-4.32 0-16.48 4.64-19.52 9.28a21 21 0 0 1 2.08-.96l.48 1.92.8-1.92.16 1.6c.48-1.28.96-1.28 1.92-.16l.32-1.76.48 1.6.8-1.76s.48 1.92.8 1.92c0 0 1.28-3.52 1.92-3.68l.16 2.24.8-2.24.8 1.6v-2.24l.96 1.6s.32-1.6.96-1.92l1.28 1.12 5.44-4"/><path fill="#016A16" d="M315.04 199.52c-5.6 2.08-10.72 9.92-10.24 13.12 2.4-3.2 1.92-2.72 3.04.96 0 0 .32-3.2.8-3.52l.8 2.24.16-3.04h.8l-.16-1.76 1.12.8c-.32-1.12-.48-1.44.64-2.4 0 0-1.6.16-.32-2.4l1.12.96s-.32-1.12 0-1.6l4.16-1.28"/><path stroke="#000" stroke-width=".32" d="M315.04 199.52c-5.6 2.08-10.72 9.92-10.24 13.12 2.4-3.2 1.92-2.72 3.04.96 0 0 .32-3.2.8-3.52l.8 2.24.16-3.04h.8l-.16-1.76 1.12.8c-.32-1.12-.48-1.44.64-2.4 0 0-1.6.16-.32-2.4l1.12.96s-.32-1.12 0-1.6l4.16-1.28"/><path fill="#016A16" d="m315.52 200-2.08 4.16 1.12.32-2.56 1.76 2.08-.16s-3.2 1.12-3.52 4.32l3.2-1.6s-2.72 2.88-3.2 4.64l2.08-1.6s-1.92 1.92-1.6 4.8l1.44-1.6c-.32 3.68-.32 4 1.28 6.72 0 0-.32-4.16 0-4.8l3.68 3.84-1.92-5.28s2.24 3.2 3.52 3.04l-2.88-4.32 2.88 2.24-3.2-4.8 2.88.96s-2.08-2.72-1.92-4.48l2.08 2.24s-.8-2.4-.64-3.2l1.12.16-2.08-2.24 1.44-.32-.16-1.6.96-.16v-1.76m-1.76 0c-3.52 4.8-1.76 12-3.84 15.84Z"/><path stroke="#000" stroke-width=".32" d="m315.52 200-2.08 4.16 1.12.32-2.56 1.76 2.08-.16s-3.2 1.12-3.52 4.32l3.2-1.6s-2.72 2.88-3.2 4.64l2.08-1.6s-1.92 1.92-1.6 4.8l1.44-1.6c-.32 3.68-.32 4 1.28 6.72 0 0-.32-4.16 0-4.8l3.68 3.84-1.92-5.28s2.24 3.2 3.52 3.04l-2.88-4.32 2.88 2.24-3.2-4.8 2.88.96s-2.08-2.72-1.92-4.48l2.08 2.24s-.8-2.4-.64-3.2l1.12.16-2.08-2.24 1.44-.32-.16-1.6.96-.16v-1.76m-1.76 0c-3.52 4.8-1.76 12-3.84 15.84"/><path fill="#016A16" d="M320.16 195.04c12.48-12.48 22.24-6.4 24.48-4.64-1.6.32-2.88-.64-3.68-.8l1.6 1.92s-4-1.6-4.48-1.6c.64.48 1.28 1.6 1.28 1.6-.32 0-2.56-1.76-2.88-1.76.64.64.8 2.4.8 2.4l-1.92-.8c-.48.32.16.96-.16.96-3.2-.32-7.52 2.72-8 3.68"/><path stroke="#000" stroke-width=".32" d="M320.16 195.04c12.48-12.48 22.24-6.4 24.48-4.64-1.6.32-2.88-.64-3.68-.8l1.6 1.92s-4-1.6-4.48-1.6c.64.48 1.28 1.6 1.28 1.6-.32 0-2.56-1.76-2.88-1.76.64.64.8 2.4.8 2.4l-1.92-.8c-.48.32.16.96-.16.96-3.2-.32-7.52 2.72-8 3.68"/><path fill="#016A16" d="M323.2 197.28c1.28-2.88 24.96-8 29.76.48-1.92.48-3.68-1.6-3.68-1.6v1.92l-3.04-2.56 1.12 2.56-2.4-2.08v2.08l-3.2-3.2.48 1.76-2.72-1.12.32 1.6"/><path stroke="#000" stroke-width=".32" d="M323.2 197.28c1.28-2.88 24.96-8 29.76.48-1.92.48-3.68-1.6-3.68-1.6v1.92l-3.04-2.56 1.12 2.56-2.4-2.08v2.08l-3.2-3.2.48 1.76-2.72-1.12.32 1.6"/><path fill="#016A16" d="M324.32 197.76c6.08-4 15.36-1.28 15.36-1.28 6.08 3.2 9.28 2.72 9.92 8.96-.48-.16-2.08-2.24-2.08-2.24l-1.28 2.4-.32-3.36-.96 2.72-1.6-4.48-.32 3.04-2.24-3.04-.96.96-.96-2.4-.96 1.6s-1.6-.96-2.4-.48l-1.6-1.92-.48 1.44-1.6-1.6-.48 1.12-1.44-1.28v.96h-4.8"/><path stroke="#000" stroke-width=".32" d="M324.32 197.76c6.08-4 15.36-1.28 15.36-1.28 6.08 3.2 9.28 2.72 9.92 8.96-.48-.16-2.08-2.24-2.08-2.24l-1.28 2.4-.32-3.36-.96 2.72-1.6-4.48-.32 3.04-2.24-3.04-.96.96-.96-2.4-.96 1.6s-1.6-.96-2.4-.48l-1.6-1.92-.48 1.44-1.6-1.6-.48 1.12-1.44-1.28v.96h-4.8"/><path fill="#016A16" d="M325.6 198.4c4.32 0 16.48 4.64 19.52 9.28a21 21 0 0 0-2.08-.96l-.48 1.92-.8-1.92-.16 1.6c-.48-1.28-.96-1.28-1.92-.16l-.32-1.76-.48 1.6-.8-1.76s-.48 1.92-.8 1.92c0 0-1.28-3.52-1.92-3.68l-.16 2.24-.8-2.24-.8 1.6v-2.24l-.96 1.6s-.32-1.6-.96-1.92l-1.28 1.12-5.44-4"/><path stroke="#000" stroke-width=".32" d="M325.6 198.4c4.32 0 16.48 4.64 19.52 9.28a21 21 0 0 0-2.08-.96l-.48 1.92-.8-1.92-.16 1.6c-.48-1.28-.96-1.28-1.92-.16l-.32-1.76-.48 1.6-.8-1.76s-.48 1.92-.8 1.92c0 0-1.28-3.52-1.92-3.68l-.16 2.24-.8-2.24-.8 1.6v-2.24l-.96 1.6s-.32-1.6-.96-1.92l-1.28 1.12-5.44-4"/><path fill="#016A16" d="M324.8 199.52c5.6 2.08 10.72 9.92 10.24 13.12-2.4-3.2-1.92-2.72-3.04.96 0 0-.32-3.2-.8-3.52l-.8 2.24-.16-3.04h-.8l.16-1.76-1.12.8c.32-1.12.48-1.44-.64-2.4 0 0 1.6.16.32-2.4l-1.12.96s.32-1.12 0-1.6l-4.16-1.28"/><path stroke="#000" stroke-width=".32" d="M324.8 199.52c5.6 2.08 10.72 9.92 10.24 13.12-2.4-3.2-1.92-2.72-3.04.96 0 0-.32-3.2-.8-3.52l-.8 2.24-.16-3.04h-.8l.16-1.76-1.12.8c.32-1.12.48-1.44-.64-2.4 0 0 1.6.16.32-2.4l-1.12.96s.32-1.12 0-1.6l-4.16-1.28"/><path fill="#016A16" d="m324.32 200 2.08 4.16-1.12.32 2.56 1.76-2.08-.16s3.2 1.12 3.52 4.32l-3.2-1.6s2.72 2.88 3.2 4.64l-2.08-1.6s1.92 1.92 1.6 4.8l-1.44-1.6c.32 3.68.32 4-1.28 6.72 0 0 .32-4.16 0-4.8l-3.68 3.84 1.92-5.28s-2.24 3.2-3.52 3.04l2.88-4.32-2.88 2.24 3.2-4.8-2.88.96s2.08-2.72 1.92-4.48l-2.08 2.24s.8-2.4.64-3.2l-1.12.16 2.08-2.24-1.44-.32.16-1.6-.96-.16v-1.76m1.76 0c3.52 4.8 1.76 12 3.84 15.84Z"/><path stroke="#000" stroke-width=".32" d="m324.32 200 2.08 4.16-1.12.32 2.56 1.76-2.08-.16s3.2 1.12 3.52 4.32l-3.2-1.6s2.72 2.88 3.2 4.64l-2.08-1.6s1.92 1.92 1.6 4.8l-1.44-1.6c.32 3.68.32 4-1.28 6.72 0 0 .32-4.16 0-4.8l-3.68 3.84 1.92-5.28s-2.24 3.2-3.52 3.04l2.88-4.32-2.88 2.24 3.2-4.8-2.88.96s2.08-2.72 1.92-4.48l-2.08 2.24s.8-2.4.64-3.2l-1.12.16 2.08-2.24-1.44-.32.16-1.6-.96-.16v-1.76m1.76 0c3.52 4.8 1.76 12 3.84 15.84"/><path fill="#F1B517" stroke="#000" stroke-width=".32" d="M321.6 266.4s1.76-16 1.76-22.72c0-5.44-1.28-17.28-1.28-17.28h-5.28s-.8 11.84-.64 17.28c0 6.72 1.76 22.72 1.76 22.72z"/><path fill="#F1B517" stroke="#000" stroke-width=".32" d="M316.32 227.2h6.4l-.8-4.32h-4.64l-.96 4.16z"/><path fill="#F1B517" stroke="#000" stroke-width=".32" d="M316.8 223.68h5.6l-1.12-4.32h-3.52l-1.12 4.32z"/><path fill="#F1B517" stroke="#000" stroke-width=".32" d="M317.12 220.32h4.8l-.96-4.32h-3.04z"/><path fill="#F1B517" d="M321.12 215.52h-3.2l-.48 1.6h4zm.64 47.52h-4.16Zm.32-3.2h-4.8Zm.64-3.2h-6.08Zm.32-3.36h-6.4Zm0-3.52h-6.56Zm.16-3.2h-7.04Zm0-2.72h-7.36Zm0-3.52h-7.36Zm-.16-3.36h-7.2Zm-.32-3.52h-6.56Zm-.32-3.2h-5.92Z"/><path stroke="#000" stroke-width=".32" d="M321.76 263.04h-4.16m4.48-3.2h-4.8m5.44-3.2h-6.08m6.4-3.36h-6.4m6.4-3.52h-6.56m6.72-3.2h-7.04m7.04-2.72h-7.36m7.36-3.52h-7.36m7.2-3.36h-7.2m6.88-3.52h-6.56m6.24-3.2h-5.92m4.64-14.72h-3.2l-.48 1.6h4z"/><path fill="#0A328C" stroke="#0A328C" stroke-width=".32" d="M320 190.4c-1.28-.48-3.68-2.08-3.04-3.04l1.12-1.92c1.6-3.52 0-2.24 0-3.2-.32-1.28 6.08-.32 6.08 2.08 0 .8-.48.32-.32 4.16l-1.28 2.4c-.919.12-1.854.01-2.72-.32z"/><path fill="#F1B517" stroke="#000" stroke-width=".32" d="m320.64 200-1.6-1.44.48-11.36 1.6.48-.48 12.16z"/><path fill="#D20014" stroke="#D20014" stroke-width=".32" d="M322.72 190.88c.96-.64 1.6-2.4.96-3.36-1.6-2.08-2.72-1.28-5.44-2.24-.48.64-1.6 1.6-1.44 2.56 3.68 1.6 2.24.32 3.52.48.64 0 .96.8 2.4 2.4z"/><path fill="#016A16" stroke="#fff" stroke-linecap="round" stroke-width=".32" d="M301.6 256.48c-.32-.8-1.6-1.44-3.2-1.44s-2.72.64-3.2 1.44a1.3 1.3 0 0 1 0-.64c0-1.12 1.44-1.92 3.2-1.92 1.92 0 3.36.8 3.36 1.92.054.21.054.43 0 .64zM301.44 258.88c0 1.92-1.44 3.68-3.04 3.68s-2.88-1.6-2.88-3.84v-1.92h5.92v2.08Z"/><path fill="#fff" d="M298.4 257.6c1.591 0 2.88-.645 2.88-1.44s-1.289-1.44-2.88-1.44-2.88.645-2.88 1.44 1.289 1.44 2.88 1.44"/><path fill="#016A16" stroke="#F1B517" stroke-width=".32" d="m297.76 257.6-.48-5.12h2.24l-.32 5.28h-1.44z"/><path fill="#016A16" stroke="#fff" stroke-linecap="round" stroke-width=".32" d="M301.6 256.16c-.32.8-1.6 1.44-3.2 1.44s-2.72-.64-3.2-1.44c-.054.21-.054.43 0 .64 0 1.12 1.44 1.92 3.2 1.92 1.92 0 3.36-.8 3.36-1.92.054-.21.054-.43 0-.64z"/><path fill="#F1B517" stroke="#000" stroke-width=".32" d="m313.6 276.48-11.2-3.52-4.96-8.48-17.44-.8.64 6.4 14.88 2.72 1.28 2.56 17.12 4.8-.32-3.68Z"/><path fill="#503200" stroke="#000" stroke-width=".32" d="M301.92 278.88 284 252.48l-.8.8 17.6 26.24z"/><path fill="#fff" stroke="#000" stroke-width=".32" d="m285.76 253.6-1.92-3.2c-.48-.64-.96-.8-1.76-.32-.8.32-.64 1.12-.32 1.76l1.6 3.04 2.4-1.28Z"/><path fill="#F1B517" stroke="#000" stroke-width=".32" d="m304 262.56-36-3.68-.96 5.28 35.84 3.68z"/><path fill="#F1B517" stroke="#000" stroke-width=".32" d="m267.2 257.6-.8 7.2h1.6l.96-6.56-1.6-.64zm6.08 1.12-.32 6.56h.96l.8-5.6-1.28-.96zm24.48 2.88-.96 6.08h1.76l.8-6.08zm5.28.16-1.12 7.04 1.92.32.64-3.68c0 .8.8 1.28 1.6 1.28.96 0 1.6-.8 1.6-1.6 0-.96-.64-1.6-1.6-1.6a1.6 1.6 0 0 0-1.6.96l.48-2.56-1.92-.16Zm-12.8 1.12-5.12 5.6.64.64 6.4-4.32-2.08-1.92zM278.4 276.8l4.96-5.6-.48-.64-6.4 4.32 1.92 1.92Zm12.96-1.44-5.92-4.64-.64.48 4.8 6.08 1.76-1.92Zm-14.88-10.72 6.24 4.48.64-.48-4.8-6.08zm6.72-3.68.64 7.36h.8l1.92-7.2zm1.92 17.6-.48-7.2h-.96l-1.12 7.36h2.56zm8.16-9.6-7.68.64v.8l7.68.96v-2.56zm-18.24 2.4 7.52-1.12v-.64l-7.68-.8v2.56z"/><path fill="#F1B517" stroke="#000" stroke-width=".32" d="M284.32 271.68c1.149 0 2.08-.86 2.08-1.92s-.931-1.92-2.08-1.92-2.08.86-2.08 1.92.931 1.92 2.08 1.92Z"/><path fill="#F1B517" fill-rule="evenodd" stroke="#000" stroke-linecap="round" stroke-width=".32" d="M295.04 269.76c0 5.6-4.8 10.4-10.72 10.4a10.563 10.563 0 0 1-10.72-10.4c0-5.76 4.8-10.4 10.72-10.4a10.57 10.57 0 0 1 7.514 2.979 10.56 10.56 0 0 1 3.206 7.421Zm-2.08 0a8.5 8.5 0 0 1-2.596 5.95 8.48 8.48 0 0 1-6.044 2.37 8.48 8.48 0 0 1-6.1-2.426 8.49 8.49 0 0 1-2.54-6.054 8.48 8.48 0 0 1 8.64-8.16 8.48 8.48 0 0 1 8.64 8.32z" clip-rule="evenodd"/><path fill="#F1B517" d="m277.6 264.48-1.6-1.28Zm12-1.28 1.6-1.6Zm3.2 13.12-1.76-1.44Zm-15.2 1.6 1.6-1.6Zm36.32-18.56 1.76 9.6-1.44.64-1.6-10.08h1.28z"/><path stroke="#000" stroke-width=".32" d="m277.6 264.48-1.6-1.28m13.6 0 1.6-1.6m1.6 14.72-1.76-1.44m-13.44 3.04 1.6-1.6m34.72-16.96 1.76 9.6-1.44.64-1.6-10.08h1.28z"/><path fill="#fff" stroke="#000" stroke-width=".32" d="M312.96 258.24c-.8-.48-1.92.16-3.84-2.08-3.04 2.72 0 3.2.32 5.92.8.32 1.44-2.24 3.68-2.4l3.68-.32-.8-1.12h-3.2z"/><path fill="#fff" stroke="#000" stroke-width=".32" d="m314.24 260-.32-2.72c-.48-1.12-1.6-.16-1.6.32l.32 2.72z"/><path fill="#F1B517" fill-rule="evenodd" stroke="#000" stroke-width=".32" d="M305.28 267.84v2.56c-.96.32-.8.96-.8 1.92v7.52c-.16.64-1.12.64-1.6.96-.48.48-.32 1.28 1.6 1.6l1.6.16c2.4-.48 2.88-1.28 1.6-1.6-.48-.32-1.44-.64-1.6-.96v-1.92h1.6c.32 0 1.12-.96 1.12-1.76v-4c0-2.24-1.6-2.56-2.24-2.4v-2.08h-1.28Zm2.56 4.32c0-.64-.96-1.28-1.28-1.28s-1.12.8-1.12 1.44v1.6c0 .64.48 2.56 1.44 2.72.32 0 .96-.64.96-1.28v-3.2Z" clip-rule="evenodd"/><path fill="#fff" d="M294.88 275.68c-1.12-.32-1.12 1.92-1.12 1.92h1.6c.8.32 1.28 1.28.96 1.92-.48.32-3.52-.8-3.68 0 .48 3.04 4.64 4.16 6.08 2.88 1.44-1.44 1.76-4.8-2.88-5.92zm.96.96-.48.96Z"/><path stroke="#000" stroke-width=".32" d="m295.84 276.64-.48.96m-.48-1.92c-1.12-.32-1.12 1.92-1.12 1.92h1.6c.8.32 1.28 1.28.96 1.92-.48.32-3.52-.8-3.68 0 .48 3.04 4.64 4.16 6.08 2.88 1.44-1.44 1.76-4.8-2.88-5.92z"/><path fill="#F1B517" d="m264 276.8-1.6-6.4Zm1.76-.32-2.4-4.96Zm4-1.28-5.28-2.88Zm2.4-.64-9.92-4.32Z"/><path stroke="#000" stroke-width=".32" d="m264 276.8-1.6-6.4m3.36 6.08-2.4-4.96m6.4 3.68-5.28-2.88m7.68 2.24-9.92-4.32"/><path fill="#D20014" stroke="#D20014" stroke-width=".32" d="m256.32 265.6-4.16.16c-.32.16.8 1.44.64 1.76-.96 1.76-7.04 1.6-7.52 1.28-.8-.8 5.6-1.28 5.76-1.6 0-.64-.96-1.92-.8-2.72 0-1.12 2.72-1.6 2.72-1.6z"/><path fill="#503200" stroke="#000" stroke-width=".32" d="m261.12 268.8-8-6.72s-.48-.32-.8 0 0 .64 0 .64l8.64 7.04.16-.8z"/><path fill="#F1B517" stroke="#000" stroke-width=".32" d="m269.12 275.52-6.72-5.76-.48-1.6-1.28.96c-.48.32-.96 1.28-.96 1.28h1.76l5.76 5.44 1.76-.32zM292 284.48a1.12 1.12 0 1 0 .001-2.239 1.12 1.12 0 0 0-.001 2.239ZM288.96 282.24a1.12 1.12 0 1 0 .001-2.239 1.12 1.12 0 0 0-.001 2.239ZM284.96 283.68a1.12 1.12 0 1 0 .001-2.239 1.12 1.12 0 0 0-.001 2.239ZM278.72 284.96a1.12 1.12 0 1 0 .001-2.239 1.12 1.12 0 0 0-.001 2.239ZM276 285.28a1.12 1.12 0 1 0 .001-2.239 1.12 1.12 0 0 0-.001 2.239ZM273.28 285.28a1.12 1.12 0 1 0 .001-2.239 1.12 1.12 0 0 0-.001 2.239ZM270.72 285.28a1.12 1.12 0 1 0 .001-2.239 1.12 1.12 0 0 0-.001 2.239ZM272 283.2a1.12 1.12 0 1 0 .001-2.239A1.12 1.12 0 0 0 272 283.2Z"/><path fill="#F1B517" stroke="#000" stroke-width=".32" d="M274.56 283.36a1.12 1.12 0 1 0 .001-2.239 1.12 1.12 0 0 0-.001 2.239ZM276.96 283.04a1.12 1.12 0 1 0 .001-2.239 1.12 1.12 0 0 0-.001 2.239Z"/><path fill="#F1B517" stroke="#000" stroke-width=".32" d="M275.84 281.12a1.12 1.12 0 1 0 .001-2.239 1.12 1.12 0 0 0-.001 2.239ZM273.28 280.96a1.12 1.12 0 1 0 .001-2.239 1.12 1.12 0 0 0-.001 2.239Z"/><path fill="#F1B517" fill-rule="evenodd" stroke="#000" stroke-width=".32" d="M298.4 284.8c0-.48-1.28-.32-1.28-.96s1.92 0 2.08.48c1.12-.96 1.6-.32 2.24 0 .96-1.28 2.08-1.28 3.2-.32.64-.64 2.24-.48 2.72.32 1.12-.96 2.08-.8 2.72 0 .32-.48.8-.48 1.12 0 .48-1.12 1.92-.8 2.56 0 .48-.64 1.12-.16 1.76.16.48-.32 1.28-.32 1.28 0 0 .64-.96.48-.96.96 0 .32.64 0 .64.64 0 .48-.96.64-1.12 0-.48.64-1.76.32-1.92-.32a1.29 1.29 0 0 1-.96.433 1.28 1.28 0 0 1-.96-.433c-.48.32-1.12.32-1.28 0-.8.8-2.24.64-2.72-.32h-.48a1.6 1.6 0 0 1-1.858.4 1.6 1.6 0 0 1-.542-.4c-1.44.96-2.24.64-3.04 0-.8 1.12-2.24 1.12-2.4 0-.64.48-1.92.64-1.92 0 0-.32 1.12-.16 1.12-.64Zm2.56.16c0 .32-.32.48-.64.48s-.64-.16-.64-.48.16-.32.64-.32.64.16.64.32Zm3.04-.32c0 .32-.48.48-.96.48s-.8-.16-.8-.48c0-.16.32-.48.8-.48s.8.32.8.48zm5.6.32c0 .32-.32.48-.8.48s-.64-.16-.64-.48c0-.16.32-.48.64-.48s.8.16.8.48Zm-3.04 0c0 .32-.32.48-.8.48s-.64-.16-.64-.64c0-.32.32-.64.64-.64s.8.32.8.64zm6.4 0c0 .16-.16.48-.48.48-.48 0-.8-.32-.8-.64s.32-.48.8-.48c.32 0 .64.16.64.48zm-1.92 0c0 .32 0 .48-.32.48q-.48 0-.48-.48c0-.32.16-.32.48-.32zm3.84.16c0 .32 0 .64-.48.64-.16 0-.48-.32-.48-.64s.32-.48.48-.48q.48 0 .48.48Z" clip-rule="evenodd"/><path fill="#F1B517" stroke="#000" stroke-width=".32" d="m326.24 276.48 11.2-3.52 4.96-8.48 17.44-.8-.64 6.4-14.88 2.72-1.28 2.56-17.12 4.8.32-3.68Z"/><path fill="#503200" stroke="#000" stroke-width=".32" d="m337.92 278.88 17.92-26.4.8.8-17.6 26.24z"/><path fill="#fff" stroke="#000" stroke-width=".32" d="m354.08 253.6 1.92-3.2c.48-.64.96-.8 1.76-.32.8.32.64 1.12.32 1.76l-1.6 3.04-2.4-1.28Z"/><path fill="#F1B517" stroke="#000" stroke-width=".32" d="m335.84 262.56 36-3.68.96 5.28-35.84 3.68z"/><path fill="#F1B517" stroke="#000" stroke-width=".32" d="m372.64 257.6.8 7.2h-1.6l-.96-6.56 1.6-.64zm-6.08 1.12.32 6.56h-.96l-.8-5.6 1.28-.96zm-24.48 2.88.96 6.08h-1.76l-.8-6.08zm-5.28.16 1.12 7.04-1.92.32-.64-3.68c0 .8-.8 1.28-1.6 1.28-.96 0-1.6-.8-1.6-1.6 0-.96.64-1.6 1.6-1.6a1.6 1.6 0 0 1 1.6.96l-.48-2.56 1.92-.16Zm12.8 1.12 5.12 5.6-.64.64-6.4-4.32 2.08-1.92zm11.84 13.92-4.96-5.6.48-.64 6.4 4.32-1.92 1.92Zm-12.96-1.44 5.92-4.64.64.48-4.8 6.08-1.76-1.92Zm14.88-10.72-6.24 4.48-.64-.48 4.8-6.08zm-6.72-3.68-.64 7.36h-.8l-1.92-7.2zm-1.92 17.6.48-7.2h.96l1.12 7.36h-2.56zm-8.16-9.6 7.68.64v.8l-7.68.96v-2.56zm18.24 2.4-7.52-1.12v-.64l7.68-.8v2.56z"/><path fill="#F1B517" stroke="#000" stroke-width=".32" d="M355.52 271.68c-1.149 0-2.08-.86-2.08-1.92s.931-1.92 2.08-1.92 2.08.86 2.08 1.92-.931 1.92-2.08 1.92Z"/><path fill="#F1B517" fill-rule="evenodd" stroke="#000" stroke-linecap="round" stroke-width=".32" d="M344.8 269.76c0 5.6 4.8 10.4 10.72 10.4a10.563 10.563 0 0 0 10.72-10.4c0-5.76-4.8-10.4-10.72-10.4a10.57 10.57 0 0 0-7.514 2.979 10.56 10.56 0 0 0-3.206 7.421Zm2.08 0a8.5 8.5 0 0 0 2.596 5.95 8.48 8.48 0 0 0 6.044 2.37 8.48 8.48 0 0 0 6.1-2.426 8.49 8.49 0 0 0 2.54-6.054 8.48 8.48 0 0 0-8.64-8.16 8.48 8.48 0 0 0-8.64 8.32z" clip-rule="evenodd"/><path fill="#F1B517" d="m362.24 264.48 1.6-1.28Zm-12-1.28-1.6-1.6Zm-3.2 13.12 1.76-1.44Zm15.2 1.6-1.6-1.6Zm-36.32-18.56-1.76 9.6 1.44.64 1.6-10.08h-1.28z"/><path stroke="#000" stroke-width=".32" d="m362.24 264.48 1.6-1.28m-13.6 0-1.6-1.6m-1.6 14.72 1.76-1.44m13.44 3.04-1.6-1.6m-34.72-16.96-1.76 9.6 1.44.64 1.6-10.08h-1.28z"/><path fill="#fff" stroke="#000" stroke-width=".32" d="M326.88 258.24c.8-.48 1.92.16 3.84-2.08 3.04 2.72 0 3.2-.32 5.92-.8.32-1.44-2.24-3.68-2.4l-3.68-.32.8-1.12h3.2z"/><path fill="#fff" stroke="#000" stroke-width=".32" d="m325.6 260 .32-2.72c.48-1.12 1.6-.16 1.6.32l-.32 2.72z"/><path fill="#F1B517" fill-rule="evenodd" stroke="#000" stroke-width=".32" d="M334.56 267.84v2.56c.96.32.8.96.8 1.92v7.52c.16.64 1.12.64 1.6.96.48.48.32 1.28-1.6 1.6l-1.6.16c-2.4-.48-2.88-1.28-1.6-1.6.48-.32 1.44-.64 1.6-.96v-1.92h-1.6c-.32 0-1.12-.96-1.12-1.76v-4c0-2.24 1.6-2.56 2.24-2.4v-2.08h1.28Zm-2.56 4.32c0-.64.96-1.28 1.28-1.28s1.12.8 1.12 1.44v1.6c0 .64-.48 2.56-1.44 2.72-.32 0-.96-.64-.96-1.28v-3.2Z" clip-rule="evenodd"/><path fill="#fff" d="M344.96 275.68c1.12-.32 1.12 1.92 1.12 1.92h-1.6c-.8.32-1.28 1.28-.96 1.92.48.32 3.52-.8 3.68 0-.48 3.04-4.64 4.16-6.08 2.88-1.44-1.44-1.76-4.8 2.88-5.92zm-.96.96.48.96Z"/><path stroke="#000" stroke-width=".32" d="m344 276.64.48.96m.48-1.92c1.12-.32 1.12 1.92 1.12 1.92h-1.6c-.8.32-1.28 1.28-.96 1.92.48.32 3.52-.8 3.68 0-.48 3.04-4.64 4.16-6.08 2.88-1.44-1.44-1.76-4.8 2.88-5.92z"/><path fill="#F1B517" d="m375.84 276.8 1.6-6.4Zm-1.76-.32 2.4-4.96Zm-4-1.28 5.28-2.88Zm-2.4-.64 9.92-4.32Z"/><path stroke="#000" stroke-width=".32" d="m375.84 276.8 1.6-6.4m-3.36 6.08 2.4-4.96m-6.4 3.68 5.28-2.88m-7.68 2.24 9.92-4.32"/><path fill="#D20014" stroke="#D20014" stroke-width=".32" d="m383.52 265.6 4.16.16c.32.16-.8 1.44-.64 1.76.96 1.76 7.04 1.6 7.52 1.28.8-.8-5.6-1.28-5.76-1.6 0-.64.96-1.92.8-2.72 0-1.12-2.72-1.6-2.72-1.6z"/><path fill="#503200" stroke="#000" stroke-width=".32" d="m378.72 268.8 8-6.72s.48-.32.8 0 0 .64 0 .64l-8.64 7.04-.16-.8z"/><path fill="#F1B517" stroke="#000" stroke-width=".32" d="m370.72 275.52 6.72-5.76.48-1.6 1.28.96c.48.32.96 1.28.96 1.28h-1.76l-5.76 5.44-1.76-.32zM347.84 284.48a1.12 1.12 0 1 1-.001-2.239 1.12 1.12 0 0 1 .001 2.239ZM350.88 282.24a1.12 1.12 0 1 1-.001-2.239 1.12 1.12 0 0 1 .001 2.239ZM354.88 283.68a1.12 1.12 0 1 1-.001-2.239 1.12 1.12 0 0 1 .001 2.239ZM361.12 284.96a1.12 1.12 0 1 1-.001-2.239 1.12 1.12 0 0 1 .001 2.239ZM363.84 285.28a1.12 1.12 0 1 1-.001-2.239 1.12 1.12 0 0 1 .001 2.239ZM366.56 285.28a1.12 1.12 0 1 1-.001-2.239 1.12 1.12 0 0 1 .001 2.239ZM369.12 285.28a1.12 1.12 0 1 1-.001-2.239 1.12 1.12 0 0 1 .001 2.239ZM367.84 283.2a1.12 1.12 0 1 1-.001-2.239 1.12 1.12 0 0 1 .001 2.239Z"/><path fill="#F1B517" stroke="#000" stroke-width=".32" d="M365.28 283.36a1.12 1.12 0 1 1-.001-2.239 1.12 1.12 0 0 1 .001 2.239ZM362.88 283.04a1.12 1.12 0 1 1-.001-2.239 1.12 1.12 0 0 1 .001 2.239Z"/><path fill="#F1B517" stroke="#000" stroke-width=".32" d="M364 281.12a1.12 1.12 0 1 1-.001-2.239 1.12 1.12 0 0 1 .001 2.239ZM366.56 280.96a1.12 1.12 0 1 1-.001-2.239 1.12 1.12 0 0 1 .001 2.239Z"/><path fill="#F1B517" fill-rule="evenodd" stroke="#000" stroke-width=".32" d="M341.44 284.8c0-.48 1.28-.32 1.28-.96s-1.92 0-2.08.48c-1.12-.96-1.6-.32-2.24 0-.96-1.28-2.08-1.28-3.2-.32-.64-.64-2.24-.48-2.72.32-1.12-.96-2.08-.8-2.72 0-.32-.48-.8-.48-1.12 0-.48-1.12-1.92-.8-2.56 0-.48-.64-1.12-.16-1.76.16-.48-.32-1.28-.32-1.28 0 0 .64.96.48.96.96 0 .32-.64 0-.64.64 0 .48.96.64 1.12 0 .48.64 1.76.32 1.92-.32a1.29 1.29 0 0 0 .96.433 1.28 1.28 0 0 0 .96-.433c.48.32 1.12.32 1.28 0 .8.8 2.24.64 2.72-.32h.48a1.6 1.6 0 0 0 1.858.4c.207-.093.392-.23.542-.4 1.44.96 2.24.64 3.04 0 .8 1.12 2.24 1.12 2.4 0 .64.48 1.92.64 1.92 0 0-.32-1.12-.16-1.12-.64Zm-2.56.16c0 .32.32.48.64.48s.64-.16.64-.48-.16-.32-.64-.32-.64.16-.64.32Zm-3.04-.32c0 .32.48.48.96.48s.8-.16.8-.48c0-.16-.32-.48-.8-.48s-.8.32-.8.48zm-5.6.32c0 .32.32.48.8.48s.64-.16.64-.48c0-.16-.32-.48-.64-.48s-.8.16-.8.48Zm3.04 0c0 .32.32.48.8.48s.64-.16.64-.64c0-.32-.32-.64-.64-.64s-.8.32-.8.64zm-6.4 0c0 .16.16.48.48.48.48 0 .8-.32.8-.64s-.32-.48-.8-.48c-.32 0-.64.16-.64.48zm1.92 0c0 .32 0 .48.32.48q.48 0 .48-.48c0-.32-.16-.32-.48-.32zm-3.84.16c0 .32 0 .64.48.64.16 0 .48-.32.48-.64s-.32-.48-.48-.48q-.48 0-.48.48Z" clip-rule="evenodd"/><path fill="#0A328C" stroke="#0A328C" stroke-width=".32" d="M319.68 265.12c-4 0-7.2 1.6-7.2 3.36 0 .32 0 .64.32.96.8.96 3.68 1.6 7.04 1.6 3.2 0 5.76-.48 6.72-1.44.32-.32.48-.64.48-1.12 0-1.76-3.2-3.2-7.36-3.2z"/><path fill="#F1B517" stroke="#000" stroke-width=".32" d="M327.04 268.8V280c0 1.44-3.2 2.4-7.2 2.4s-7.36-.96-7.36-2.4v-11.2c0 1.28 3.2 2.4 7.2 2.4 4.16 0 7.36-1.12 7.36-2.4Z"/><path fill="#D20014" stroke="#D20014" stroke-width=".32" d="M312.48 268.8v1.6l3.52 11.2 2.88-8.64 3.2 8.8 2.08-8.32 2.88 5.6V276l-2.56-5.44a13 13 0 0 1-.96.32l-1.6 6.08-2.4-5.76q-.56.013-1.12 0l-2.4 5.76-2.56-7.04c-.64-.32-.96-.8-.96-1.12Z"/><path fill="#0A328C" stroke="#0A328C" stroke-width=".32" d="M327.04 277.92V280c0 1.44-3.2 2.4-7.2 2.4s-7.36-.96-7.36-2.4v-2.08c0 1.44 3.2 2.4 7.2 2.4 4.16 0 7.36-.96 7.36-2.4Z"/><path fill="#F1B517" stroke="#000" stroke-width=".32" d="m322.72 280-1.76.32v2.08l1.92-.16v-2.08zm-7.68-.16v2.08l1.76.32v-2.08a14 14 0 0 1-1.76-.32Zm-2.56-1.92V280c0 .48.32.8.8 1.12v-2.08c-.48-.32-.8-.64-.8-1.12Zm14.56.32c0 .32-.64.8-1.28 1.12v2.08c.8-.32 1.28-.8 1.28-1.44v-1.76Z"/><path stroke="#000" stroke-width=".32" d="M327.04 268.8V280c0 1.44-3.2 2.4-7.2 2.4s-7.36-.96-7.36-2.4v-11.2"/><path fill="#fff" stroke="#fff" stroke-width=".32" d="M325.44 268c0 .8-2.56 1.6-5.6 1.6-3.2 0-5.76-.8-5.76-1.6s2.56-1.44 5.6-1.44c3.2 0 5.76.64 5.76 1.6z"/><path fill="#F1B517" stroke="#000" stroke-width=".32" d="m317.92 269.12.32 1.92h1.6l.16-1.92h-2.08Zm6.56-.48-1.6.32.16 1.92 1.6-.32v-1.76zm-8.64-3.2-1.12.48.16 1.6.96-.32v-1.76Zm3.84-.48h-.48l.32 1.92h.96l.32-1.92a16 16 0 0 0-1.12 0Zm4.32.64-.16 1.6 1.12.48v-1.6a9 9 0 0 0-.96-.48Zm-10.4 4.48.32-2.08-1.6-.8v2.4zm13.44-.48v-2.08l-1.28.48zm14.88-13.6c1.28 0 3.2 1.6 3.36 4 0 1.6-2.72 1.6-2.72 1.6 0 .8-1.6 1.44-2.88 1.6-1.28 0 .32-2.4.32-2.4-.8-2.08.32-4.32.32-4.32z"/><path fill="#F1B517" d="M340 260.8h1.28s0 .48.32.48.48-.64.48-.64H344"/><path stroke="#000" stroke-width=".32" d="M340 260.8h1.28s0 .48.32.48.48-.64.48-.64H344"/><path fill="#D20014" stroke="#F1B517" stroke-width=".32" d="M342.56 257.44c1.12-.8.16-2.4-.64-2.4h-1.6c-.96 0-2.24.96-2.08 1.6 0 .8.64 1.12 1.28.96.32 0 .96-.96 1.28-.96.48 0 1.6.96 1.76.8Z"/><path fill="#F1B517" fill-rule="evenodd" stroke="#000" stroke-width=".32" d="M262.72 279.68c-.96.16-1.12 1.28-.8 2.4-4.16 1.12-8 2.72-11.84 3.84-.16-.8 1.92-2.88 1.92-2.88.48.16.96 1.44.96 1.44 0-2.56 2.56-4.16 2.56-4.16-1.6-.32-5.92 1.6-6.4 2.24 0 0 1.6-.32 1.92 0 0 0-3.52 3.68-3.68 4.8.64 1.12 6.4 2.08 6.4 2.08 0 .32-1.6 1.6-1.6 1.6 2.4.32 5.92-1.28 6.88-2.24 0 0-2.72-.32-4.8-2.08 0 0 .32 1.12 0 1.6 0 0-3.2-.96-3.68-1.6 0 0 8-1.92 11.84-3.2.16.8.96 2.08 1.92 1.76.48-.16.32-1.28 0-2.24a1.28 1.28 0 0 0 .96.32c.64 0 1.12-.48 1.12-1.12s-.48-1.12-1.12-1.12a1.28 1.28 0 0 0-1.12.8c-.16-.8-.64-2.24-1.28-2.08zm3.2 2.56c0 .32-.32.48-.64.48a.49.49 0 0 1-.449-.068.48.48 0 0 1-.191-.412c0-.32.32-.64.64-.64s.48.32.48.64z" clip-rule="evenodd"/><path fill="#F1B517" stroke="#000" stroke-width=".32" d="M388.8 284.64c.32-.64 0-3.52 0-3.52-.8 0-1.6 1.12-1.6 1.12.8-2.56-1.28-6.4-1.28-6.4 1.44.16 6.24 4.8 6.4 5.76 0 0-2.08-.8-2.4-.64.48 2.4 2.08 3.52 2.72 4.8 0 0-2.72.48-2.56 2.88h-1.76c-.64-.8.16-2.08.16-2.08l-12.32-5.12c-.8-.32-2.56-1.28-2.24-2.24.16-.8 3.2.48 3.84.8l11.2 4.64z"/><path fill="#F1B517" stroke="#000" stroke-width=".32" d="m376.96 282.4 1.6-2.56c.48-.8-.64-1.6-1.44-.64l-1.6 2.4c-.64 1.44.8 1.76 1.6.8z"/><path fill="#fff" stroke="#000" stroke-width=".3" d="m290.2 288.6-.1-3-3.5.3-.2 3.1 3.8-.4Z"/><path fill="#fff" stroke="#000" stroke-width=".3" d="m264.4 292.7-4.7-2.7c19.4 1.8 23.4-5 28.1-5.3 3-.3 3.3 3.2-2.3 1.5l1.5 3.6s-13.8 7.8-27.4 4.6l4.8-1.7Zm84.8-4.1.1-3 4.3.2.2 3.1z"/><path fill="#fff" stroke="#000" stroke-width=".3" d="m375.9 292 4.5-2.5c-22.4.7-17.3-3.6-28.4-4.8-3-.4-5 3.4 2.2 1.5l-1.4 3.6h3.5c7.6 5 17.8 5.5 24.6 3.9l-5-1.7Z"/><path fill="#fff" stroke="#000" stroke-width=".3" d="M285.5 286.3v5s12.3 4.6 34.4 4.6c22.2 0 34.4-4.6 34.4-4.6v-5s-9.3 4.3-34.4 4.3c-25 0-34.4-4.3-34.4-4.3Z"/><path fill="#000" d="m287.3 291.3 1.1-3.7.5.2-1 3.2 2 .5-.2.5zm3.6-1.6v-.7l.2-.7.6.2-.2.6-.3.7zm5.3-.3.5.2-.4 2.1-.4 1c-.127.176-.3.314-.5.4h-1a2 2 0 0 1-.9-.4 1 1 0 0 1-.4-.6l.1-1 .5-2.2.5.1-.5 2.2a2.1 2.1 0 0 0 0 .8.7.7 0 0 0 .2.4l.5.2h1l.4-1zm.6 4 .6-3.7h.6l1.5 3.4.5-3h.5l-.6 3.9-.5-.1-1.6-3.3-.5 3-.5-.1zm4 .7.6-3.8h.5l-.5 3.8h-.6m1.6-1.7c0-.6.3-1.1.7-1.4a2 2 0 0 1 1.4-.4c.4 0 .7.1 1 .3l.5.8c.2.3.2.7.1 1a2.2 2.2 0 0 1-.3 1 1.7 1.7 0 0 1-.8.7 2 2 0 0 1-1 .1 2 2 0 0 1-1-.3 1.7 1.7 0 0 1-.5-.8 2.1 2.1 0 0 1-.1-1m.5 0c0 .5 0 1 .3 1.2.2.3.5.5.9.5s.7 0 1-.3c.3-.2.4-.6.5-1a1.9 1.9 0 0 0 0-1 1.2 1.2 0 0 0-.5-.5 1.3 1.3 0 0 0-.7-.3c-.3 0-.7 0-1 .3-.2.2-.4.6-.5 1.2zm3.7 2.3.3-3.8h.6l1.8 3.2.2-3h.5l-.3 3.9h-.5l-1.9-3.2-.2 3h-.5zm5.6.4.1-3.8 2.7.1v.5l-2.1-.1-.1 1.1 1.9.1v.5l-2-.1v1.8h-.5zm3 .1 1.5-3.8h.6l1.5 4h-.6l-.4-1.3h-1.7l-.4 1.2h-.6zm1-1.5h1.4l-.4-1a10 10 0 0 1-.2-.9l-.2.8-.5 1.1zm3.1 1.6v-3.8h.6v3.8zm2.5 0V292h-1.3v-.4h3.1v.4h-1.3v3.4h-.5zm4 0-.3-4h.6l.1 3.4h2v.4l-2.5.1zm2.6-.2 1.2-4h.6l2 3.7h-.7l-.5-1h-1.7l-.3 1.3zm1-1.7h1.4l-.5-1-.4-.9a5 5 0 0 1-.1.8zm4.7 1.2-.4-3.8 2.6-.3.1.5-2.1.2v1.2l2-.2v.5l-1.9.2.2 1.7zm3-2.1a2 2 0 0 1-.068-.821c.034-.276.125-.541.268-.779a2 2 0 0 1 1.3-.7l1 .1c.4.1.6.3.8.6l.4 1-.1 1a1.6 1.6 0 0 1-.6.8 2 2 0 0 1-.9.4 2 2 0 0 1-1-.1 1.7 1.7 0 0 1-.8-.6 2.1 2.1 0 0 1-.4-1zm.5-.1c0 .4.2.8.5 1 .3.3.6.3 1 .3s.7-.2 1-.5c.2-.3.2-.7.2-1.2a2 2 0 0 0-.3-.8 1.3 1.3 0 0 0-.6-.5 1.4 1.4 0 0 0-.7 0c-.4 0-.7.1-1 .4-.1.3-.2.7-.1 1.3m4.1 1.3-.6-3.8 1.7-.3h.8c.2 0 .4 0 .5.2l.3.6c0 .3 0 .5-.2.7-.1.2-.4.4-.7.5q.155.033.3.1l.5.5 1 .9h-.7l-.7-.6a7 7 0 0 0-.5-.5 1.2 1.2 0 0 0-.3-.2.8.8 0 0 0-.3 0h-.3l-.6.1.4 1.7h-.6zm.2-2.2 1-.2c.211-.029.414-.096.6-.2a.61.61 0 0 0 .3-.6.6.6 0 0 0-.2-.4h-.7l-1.3.1zm6.3-.4h.5c0 .4-.1.8-.3 1a2 2 0 0 1-1 .6 2 2 0 0 1-1 0 1.6 1.6 0 0 1-.8-.6 2.6 2.6 0 0 1-.5-1 2.2 2.2 0 0 1 0-1c0-.4.3-.7.5-.9l.9-.4h1c.4.2.6.4.8.8l-.5.2a1.2 1.2 0 0 0-.5-.5 1.1 1.1 0 0 0-.7 0 1 1 0 0 0-.7.3c-.18.19-.287.438-.3.7v.7c.08.29.216.562.4.8.1.2.3.4.6.4h.7c.226-.035.436-.14.6-.3.2-.2.3-.5.3-.8m1.4 1-1-3.7 2.7-.7.2.4-2.3.6.3 1.1 2.1-.5.2.4-2.2.6.4 1.2 2.4-.6v.4z"/></g><defs><clipPath id="a"><path fill="#fff" d="M0 0h640v480H0z"/></clipPath></defs></svg>