<svg width="640" height="480" viewBox="0 0 640 480" fill="none" xmlns="http://www.w3.org/2000/svg">
  <g clip-path="url(#clip0_6_1831)">
    <path d="M0 0H640V480H0V0Z" fill="white"/>
    <path fill-rule="evenodd" clip-rule="evenodd" d="M-80 0V32L270.4 240L-78.4 448V480H-27.2L321.6 272L668.8 480H720V448L372.8 240L721.6 32V0H668.8L320 208L-27.2 0H-78.4H-80Z" fill="#DF112D"/>
    <path d="M361.6 72C372.8 113.6 366.4 164.8 320 193.6C273.6 164.8 267.2 113.6 278.4 72C289.6 62.4 339.2 56 361.6 72Z" fill="#E8112D"/>
    <path d="M320 64C336 64 348.8 67.2 361.6 73.6C363.904 59.7383 369.38 46.5964 377.6 35.2C369.6 35.2 366.4 38.4 366.4 43.2C364.8 38.4 356.8 38.4 353.6 41.6C363.2 46.4 356.8 57.6 348.8 56C344 54.4 342.4 51.2 342.4 48C343.587 47.7994 344.655 47.1603 345.393 46.2093C346.13 45.2584 346.484 44.065 346.383 42.8657C346.283 41.6663 345.735 40.5486 344.849 39.7339C343.963 38.9192 342.804 38.4671 341.6 38.4671C340.396 38.4671 339.237 38.9192 338.351 39.7339C337.465 40.5486 336.917 41.6663 336.817 42.8657C336.716 44.065 337.07 45.2584 337.807 46.2093C338.545 47.1603 339.613 47.7994 340.8 48C337.846 51.0146 333.82 52.7398 329.6 52.8C327.763 51.9311 326.196 50.5786 325.069 48.8875C323.941 47.1963 323.295 45.2302 323.2 43.2C323.2 35.2 332.8 33.6 334.4 35.2C334.4 30.4 324.8 24 323.2 30.4C324.852 27.2931 325.434 23.7283 324.855 20.2574C324.277 16.7864 322.57 13.603 320 11.2C317.774 13.4812 316.281 16.3752 315.711 19.511C315.14 22.6467 315.52 25.8812 316.8 28.8C313.6 24 305.6 28.8 305.6 35.2C307.2 33.6 315.2 35.2 315.2 43.2C315.2 46.4 315.2 51.2 310.4 51.2C308.44 51.968 306.283 52.0709 304.259 51.4927C302.236 50.9145 300.458 49.6873 299.2 48L302.4 46.4C303.315 45.8716 304.03 45.0561 304.435 44.0799C304.839 43.1037 304.91 42.0213 304.636 41.0007C304.363 39.9801 303.76 39.0782 302.922 38.4349C302.084 37.7917 301.057 37.443 300 37.443C298.943 37.443 297.916 37.7917 297.078 38.4349C296.24 39.0782 295.637 39.9801 295.364 41.0007C295.09 42.0213 295.161 43.1037 295.565 44.0799C295.97 45.0561 296.685 45.8716 297.6 46.4C297.6 51.2 294.4 54.4 291.2 54.4C289.521 54.4 287.884 53.8717 286.522 52.8899C285.16 51.9081 284.141 50.5227 283.611 48.9298C283.08 47.3369 283.063 45.6173 283.564 44.0146C284.065 42.4119 285.057 41.0074 286.4 40C283.2 36.8 275.2 36.8 273.6 43.2C273.6 38.4 270.4 35.2 260.8 35.2C269.02 46.5964 274.496 59.7383 276.8 73.6C290.096 66.6327 305.004 63.3199 320 64V64Z" fill="#F9DD16"/>
    <path d="M356.8 105.6H353.6H358.4C360 105.6 361.6 104 360 102.4H363.2L360 99.2H363.2L360 96H361.6C361.319 95.5135 361.171 94.9617 361.171 94.4C361.171 93.8383 361.319 93.2865 361.6 92.8H350.4L342.4 91.2L352 86.4C352 83.2 347.2 78.4 339.2 81.6L321.6 80L332.8 76.8L345.6 75.2H334.4C329.6 75.2 318.4 73.6 318.4 80C318.4 86.4 329.6 84.8 340.8 83.2L350.4 84.8L340.8 88C336.062 86.906 331.138 86.906 326.4 88H315.2C312 88 307.2 88 304 84.8C304 84.8 297.6 88 297.6 91.2V96C300.8 99.2 297.6 97.6 294.4 97.6L286.4 96C284.8 92.8 283.2 91.2 280 92.8V96H283.2C282.714 95.7191 282.162 95.5713 281.6 95.5713C281.038 95.5713 280.486 95.7191 280 96V99.2H284.8H281.6V100.8H288C287.151 100.8 286.337 101.137 285.737 101.737C285.137 102.337 284.8 103.151 284.8 104C286.4 102.4 288 104 291.2 104L288 105.6C289.6 105.6 299.2 107.2 299.2 104V105.6C299.2 105.6 304 105.6 304 102.4V105.6C304 105.6 307.2 105.6 308.8 102.4V99.2H316.8C320 96 321.6 99.2 323.2 97.6H326.4C328 97.6 329.6 97.6 331.2 94.4C334.4 96 339.2 97.6 348.8 96C353.6 96 356.8 97.6 356.8 100.8H348.8C348.8 100.8 347.2 102.4 348.8 104C350.4 105.6 348.8 104 350.4 104C350.4 104 348.8 105.6 350.4 107.2L355.2 105.6H356.8ZM292.8 78.4V80L294.4 83.2L296 78.4H292.8Z" fill="#F9DD16"/>
    <path d="M304 80C305.6 78.4 307.2 78.4 307.2 80L305.6 83.2L304 78.4V80Z" fill="#F9DD16"/>
    <path d="M299.2 76.8C304 76.8 305.6 80 305.6 83.2L302.4 89.6L299.2 91.2L296 89.6C296 84.8 292.8 86.4 292.8 83.2C292.8 80 292.8 76.8 299.2 76.8V76.8Z" fill="#F9DD16"/>
    <path d="M286.4 89.6001H283.2C284.8 89.6001 284.8 92.8001 289.6 92.8001H286.4C288 92.8001 289.6 96.0001 294.4 96.0001C296 96.0001 294.4 96.0001 294.4 96.0001C294.4 97.6001 297.6 96.0001 299.2 99.2001C299.2 97.6001 296 94.4001 299.2 91.2001C292.8 91.2001 291.2 88.0001 289.6 86.4001C286.4 84.8001 286.4 81.6001 284.8 78.4001C284.8 78.4001 283.2 75.2001 281.6 76.8001V80.0001H280C281.6 80.0001 280 83.2001 283.2 84.8001C281.6 83.2001 280 81.6001 278.4 83.2001H280L286.4 89.6001V89.6001ZM328 105.6H336L339.2 104V100.8C337.6 100.8 336 99.2001 337.6 97.6001C332.8 91.2001 323.2 94.4001 323.2 97.6001L329.6 100.8H331.2H320L321.6 102.4L318.4 104C318.4 107.2 321.6 104 321.6 104V105.6C321.6 105.6 321.6 107.2 323.2 105.6C324.235 105.234 325.365 105.234 326.4 105.6H328Z" fill="#F9DD16"/>
    <path d="M299.2 89.5999H300.8V86.3999H296V87.9999L299.2 89.5999V89.5999Z" fill="#FF0016"/>
    <path d="M281.6 76.8C281.6 75.2 278.4 76.8 278.4 76.8H281.6ZM281.6 78.4L276.8 80H280L281.6 78.4ZM281.6 83.2H276.8H280H281.6ZM281.6 94.4C280 94.4 278.4 94.4 278.4 97.6C278.4 96 280 97.6 281.6 97.6V94.4ZM281.6 97.6L278.4 100.8L281.6 99.2V96V97.6ZM281.6 99.2C281.6 99.2 280 100.8 281.6 102.4V97.6V99.2ZM321.6 104C320 104 318.4 104 318.4 107.2L321.6 105.6V104V104ZM323.2 104C321.6 104 320 107.2 321.6 108.8L323.2 107.2V105.6V104ZM323.2 100.8C320 100.8 318.4 100.8 318.4 104L321.6 102.4L323.2 100.8ZM348.8 104C348.8 104 345.6 105.6 347.2 107.2L348.8 105.6V104V104ZM348.8 102.4L345.6 104H348.8V99.2V102.4ZM348.8 105.6C348.8 105.6 347.2 108.8 348.8 108.8H350.4V104L348.8 105.6ZM300.8 89.6V96C297.6 96 297.6 96 297.6 92.8V89.6H299.2H300.8Z" fill="#0051BA"/>
    <path d="M350.4 139.2H353.6C353.6 139.2 355.2 139.2 353.6 137.6H356.8L355.2 134.4H356.8L355.2 131.2C354.919 130.713 354.771 130.162 354.771 129.6C354.771 129.038 354.919 128.486 355.2 128H347.2L339.2 126.4C344 128 348.8 124.8 348.8 121.6C348.8 118.4 344 115.2 337.6 118.4L320 116.8L329.6 113.6H342.4L331.2 112C326.4 110.4 316.8 112 316.8 116.8C316.8 121.6 328 121.6 337.6 120H345.6L337.6 123.2C333.387 122.24 329.013 122.24 324.8 123.2L313.6 124.8C312 124.8 307.2 124.8 304 121.6L297.6 126.4L299.2 132.8C300.8 134.4 299.2 132.8 296 132.8H288C288 129.6 284.8 128 283.2 129.6V131.2H286.4C285.914 130.919 285.362 130.771 284.8 130.771C284.238 130.771 283.686 130.919 283.2 131.2V134.4H286.4H284.8C288 134.4 288 137.6 289.6 136C289.075 135.864 288.525 135.864 288 136C288 136 291.2 139.2 292.8 137.6L291.2 140.8C291.2 139.2 300.8 140.8 300.8 137.6V140.8C300.8 140.8 304 140.8 305.6 137.6H308.8V134.4H312L316.8 132.8H324.8C326.4 132.8 328 132.8 329.6 129.6C332.8 131.2 336 132.8 345.6 131.2C348.8 131.2 350.4 131.2 350.4 134.4V136H344V139.2C344 140.8 345.6 139.2 347.2 139.2C345.6 139.2 344 139.2 345.6 140.8H347.2L350.4 139.2V139.2ZM296 115.2H292.8L294.4 120L296 115.2V115.2Z" fill="#F9DD16"/>
    <path d="M304 115.2H307.2L305.6 120L304 115.2Z" fill="#F9DD16"/>
    <path d="M300.8 113.6C305.6 113.6 305.6 116.8 305.6 120C305.6 123.2 304 120 302.4 124.8L299.2 126.4H297.6C297.6 121.6 294.4 121.6 294.4 120C294.4 118.4 294.4 113.6 300.8 113.6V113.6Z" fill="#F9DD16"/>
    <path d="M288 124.8H286.4C286.4 124.8 286.4 128 291.2 128H288L294.4 131.2C297.6 131.2 294.4 131.2 294.4 131.2L300.8 134.4C300.8 131.2 297.6 129.6 299.2 126.4C294.4 126.4 292.8 123.2 291.2 121.6C288 121.6 288 118.4 288 115.2L284.8 113.6C284.8 113.6 283.2 113.6 284.8 113.6V116.8H283.2L284.8 120H281.6C284.8 120 286.4 124.8 288 124.8V124.8ZM326.4 139.2H324.8H337.6V136C336 136 334.4 134.4 336 131.2C331.2 126.4 323.2 129.6 323.2 131.2L329.6 134.4C329.6 134.4 332.8 134.4 329.6 136H326.4C323.2 136 321.6 134.4 320 136V139.2H321.6C321.6 139.2 321.6 140.8 323.2 139.2C324.235 138.834 325.365 138.834 326.4 139.2V139.2Z" fill="#F9DD16"/>
    <path d="M300.8 126.4V124.8C300.8 124.8 302.4 123.2 300.8 121.6C302.4 123.2 300.8 123.2 300.8 121.6C300.8 123.2 297.6 123.2 297.6 121.6V124.8H300.8V126.4Z" fill="#FF0016"/>
    <path d="M299.2 123.2L296 121.6ZM299.2 121.6H296ZM299.2 121.6L296 123.2ZM300.8 123.2L304 121.6ZM300.8 121.6H304ZM300.8 121.6L304 123.2Z" fill="black"/>
    <path d="M284.8 112L281.6 113.6H284.8V112ZM284.8 115.2L280 116.8H283.2L284.8 115.2ZM283.2 120C283.2 118.4 280 120 280 120H283.2ZM283.2 129.6L280 131.2H284.8L283.2 129.6ZM283.2 132.8C283.2 132.8 280 132.8 283.2 136V132.8ZM286.4 132.8L283.2 137.6L286.4 136V134.4V132.8ZM318.4 137.6C318.4 137.6 316.8 137.6 318.4 140.8L320 139.2V137.6H318.4ZM321.6 139.2C321.6 139.2 318.4 140.8 320 142.4L321.6 140.8V139.2ZM321.6 134.4C320 134.4 316.8 136 318.4 137.6H320V136L321.6 134.4ZM344 139.2C344 139.2 342.4 139.2 344 140.8V137.6V139.2ZM344 136L342.4 137.6H345.6V136H344ZM345.6 140.8C345.6 140.8 344 140.8 345.6 142.4V140.8ZM300.8 124.8V131.2V128C300.8 126.4 300.8 124.8 299.2 126.4V124.8H300.8Z" fill="#0051BA"/>
    <path d="M350.368 166.88C349.472 166.88 349.472 168.08 349.248 168.08C351.04 168.08 351.936 167.36 352.384 166.4V167.84C353.728 167.36 354.176 166.16 353.728 165.44L355.296 165.92C354.4 165.2 355.072 163.52 353.504 162.56C353.952 162.56 354.848 163.04 355.296 163.76C355.072 162.08 354.848 161.12 353.504 160.16H354.624C354.331 159.951 354.095 159.664 353.938 159.328C353.78 158.991 353.708 158.616 353.728 158.24C353.728 157.28 353.28 157.28 352.384 157.52L348.352 157.76C346.112 157.76 343.872 157.76 342.08 156.32C344.992 157.76 348.8 154.88 348.8 152.72C348.8 150.32 345.664 147.92 339.84 149.36C334.016 150.8 326.848 150.32 326.848 148.16C326.848 146 332 145.76 334.688 146.24C337.376 146.72 339.168 146.96 344.096 145.04C342.976 145.52 338.944 145.76 335.808 144.8C332.672 143.84 325.056 143.84 325.056 148.16C325.056 152.72 333.12 152.24 340.288 151.04C344.32 150.56 346.56 151.04 346.56 152.24C346.56 153.68 342.752 154.16 339.84 153.92C336.765 153.476 333.638 153.721 330.656 154.64C327.744 155.6 325.728 154.64 322.592 155.36C321.024 155.36 317.216 155.36 315.424 152C314.304 152.96 310.944 154.64 310.272 156.56C309.6 158 310.272 159.68 311.168 161.36C312.512 163.28 310.496 163.04 308.928 163.04C307.136 163.04 304.448 163.04 303.104 161.12C301.76 159.68 300.192 158.48 298.848 159.44C298.176 160.16 298.848 160.88 299.296 160.64L301.088 161.12C300.728 160.945 300.331 160.874 299.938 160.917C299.544 160.959 299.168 161.112 298.848 161.36C298.176 161.84 298.848 162.8 299.52 162.56C299.968 162.32 301.088 162.08 301.76 162.56C301.088 162.56 300.192 162.56 299.968 163.04C299.744 163.52 299.968 164 300.64 164C301.984 164 302.208 164.96 303.552 164.72C303.239 164.738 302.934 164.835 302.662 165.001C302.39 165.168 302.158 165.4 301.984 165.68C303.328 164.96 304.448 166.64 306.016 166.16C305.568 166.4 304.448 167.12 304.448 167.6C305.344 166.4 311.616 168.56 311.616 165.92L311.392 167.84C312.064 167.36 314.528 167.12 315.424 165.44C315.424 165.92 315.424 166.64 314.976 166.88C315.648 166.88 316.768 166.4 317.888 164.72C318.336 164 318.336 163.52 318.336 163.04C319.456 163.04 320.128 162.8 321.024 162.08C321.92 161.36 322.816 162.8 324.384 161.6C325.728 160.64 327.072 161.6 327.968 161.12C328.64 160.64 329.76 161.12 330.656 160.64C331.552 160.16 332.896 160.88 334.24 159.68C336.48 160.64 339.392 162.08 345.888 160.88C349.472 160.16 350.816 161.6 350.816 163.28C350.816 164.72 349.92 164.72 349.472 164.72C347.232 164.96 346.56 164 345.664 164.24C345.216 164.48 344.768 165.44 345.664 165.92C344.992 166.16 344.992 166.88 345.44 167.12C345.888 167.36 346.56 167.12 347.232 166.88C346.336 167.12 345.664 167.84 346.112 168.56C346.336 169.04 347.008 169.28 347.68 168.56C348.352 167.6 349.472 166.88 350.368 166.88V166.88ZM308.704 147.68C306.912 146.96 306.464 146.96 306.688 148.64C306.688 149.36 307.36 150.32 307.808 150.8C307.808 150.08 308.032 148.4 308.704 147.92V147.68Z" fill="#F9DD16" stroke="black" stroke-width="0.231862"/>
    <path d="M314.752 147.92C316.544 146.96 317.216 146.96 316.768 148.64C316.768 149.36 316.096 150.32 315.648 150.8C315.648 150.08 315.648 148.4 314.752 147.92Z" fill="#F9DD16" stroke="black" stroke-width="0.231862"/>
    <path d="M311.84 146.72C315.424 146.72 315.872 148.64 315.648 150.8C315.648 153.2 314.528 152.24 313.856 155.6C313.632 156.56 312.736 156.8 311.616 156.8C310.944 156.8 310.048 156.8 309.6 155.36C308.928 152.24 307.808 152.96 307.808 150.56C307.808 148.64 308.256 146.72 311.84 146.72V146.72Z" fill="#F9DD16" stroke="black" stroke-width="0.231862"/>
    <path d="M302.656 155.6C301.76 155.12 301.088 155.6 300.64 155.6C301.984 155.84 301.984 157.52 304.672 158C304 158 303.776 158.48 303.104 158C304.224 158.96 305.344 160.16 308.032 160.16C309.6 160.16 308.48 160.88 307.584 160.4C308.48 161.6 310.496 160.64 311.84 162.8C311.84 161.12 309.6 158.72 310.72 157.04C306.912 156.8 306.688 154.64 304.672 152.96C302.88 151.52 302.656 150.08 301.984 147.44C301.76 146.24 300.416 145.52 299.744 145.76C299.072 145.76 298.624 146.48 299.296 146.96C299.744 147.44 300.64 147.44 300.64 148.64C299.968 147.68 298.848 147.44 298.4 147.92C298.176 148.4 298.4 149.12 298.848 149.12C299.968 149.12 299.296 150.56 300.416 151.52C299.296 150.32 298.4 150.08 297.728 150.8C297.504 151.28 297.728 152 298.624 152C299.744 152 300.864 154.88 302.656 155.6V155.6ZM331.776 166.64C331.328 166.64 331.552 167.84 330.656 167.84C332.448 167.84 333.568 167.36 334.24 166.64L333.792 167.84C334.688 167.12 337.152 166.88 338.272 167.12C339.392 167.36 339.616 166.88 340.064 166.16C340.512 165.2 340.064 164.72 339.392 164.24C338.72 163.52 338.496 162.56 338.72 161.12C335.584 156.32 329.76 158.72 329.76 160.64C331.776 163.28 332 163.04 333.792 163.28C335.36 163.76 336.48 163.76 335.36 164.72C334.912 165.2 333.12 164.72 332 164.96C329.088 164.96 327.52 162.8 326.848 164C326.176 164.96 326.848 165.44 328.192 165.44C327.296 165.44 325.952 165.44 326.176 166.4C326.624 168.08 327.968 166.16 328.64 166.64C328.192 166.64 327.296 166.88 327.296 167.36C327.296 167.84 328.416 168.56 329.536 167.36C330.187 166.858 330.975 166.605 331.776 166.64V166.64Z" fill="#F9DD16" stroke="black" stroke-width="0.231862"/>
    <path d="M334.24 159.68C333.344 159.2 332.224 158.96 331.104 159.2M318.56 159.2C317.664 161.12 318.112 162.08 318.336 163.04M309.376 149.6C309.824 150.08 310.272 149.12 311.168 150.08C310.944 149.84 310.496 150.8 309.824 150.08M314.304 149.84C313.632 149.84 313.184 149.12 312.288 150.08C312.512 149.84 312.96 150.8 313.632 150.08M312.288 150.08V150.8C312.512 152.48 312.96 153.2 311.616 153.2C310.496 153.2 310.944 152.48 311.168 150.8V150.08" stroke="black" stroke-width="0.231862"/>
    <path d="M311.84 156.08C312.736 156.08 313.184 156.08 313.184 154.64C313.184 154.16 313.856 153.92 313.408 152.96C313.856 153.92 311.84 153.92 311.84 153.44C311.84 153.92 309.6 153.92 310.048 152.96C309.824 153.92 310.496 154.16 310.272 154.64C310.272 156.08 310.72 156.08 311.84 156.08V156.08Z" fill="#FF0016" stroke="black" stroke-width="0.231862"/>
    <path d="M310.72 153.2L308.48 152.48ZM310.72 153.2H308.48ZM310.72 153.44L308.704 154.16ZM312.512 153.2L314.752 152.48ZM312.512 153.2H315.2ZM312.512 153.44L314.752 154.16Z" fill="black"/>
    <path d="M310.72 153.2L308.48 152.48M310.72 153.2H308.48M310.72 153.44L308.704 154.16M312.512 153.2L314.752 152.48M312.512 153.2H315.2M312.512 153.44L314.752 154.16" stroke="black" stroke-width="0.231862"/>
    <path d="M292.8 147.2H294.4H292.8ZM292.8 148.8H289.6H292.8ZM292.8 152H289.6H291.2H292.8ZM292.8 161.6C292.8 160 291.2 161.6 291.2 161.6H292.8ZM292.8 161.6C292.8 161.6 291.2 164.8 292.8 164.8V163.2V161.6ZM320 166.4C320 166.4 316.8 168 318.4 169.6V166.4H320ZM320 168V171.2V169.6V168ZM320 164.8L318.4 166.4H320V164.8ZM337.6 168V169.6V168ZM337.6 166.4C337.6 166.4 336 166.4 337.6 166.4V166.4ZM337.6 169.6V171.2H339.2V169.6H337.6ZM305.6 156.8V161.6V156.8Z" fill="#0051BA"/>
  </g>
  <defs>
    <clipPath id="clip0_6_1831">
      <rect width="640" height="480" fill="white"/>
    </clipPath>
  </defs>
</svg>
