<svg xmlns="http://www.w3.org/2000/svg" width="640" height="480" fill="none"><g clip-path="url(#a)"><path fill="#fff" d="M0 0h640v480H0z"/><path fill="#DF112D" fill-rule="evenodd" d="M-80 0v32l350.4 208-348.8 208v32h51.2l348.8-208 347.2 208H720v-32L372.8 240 721.6 32V0h-52.8L320 208-27.2 0H-80" clip-rule="evenodd"/><path fill="#E8112D" d="M361.6 72c11.2 41.6 4.8 92.8-41.6 121.6-46.4-28.8-52.8-80-41.6-121.6 11.2-9.6 60.8-16 83.2 0"/><path fill="#F9DD16" d="M320 64c16 0 28.8 3.2 41.6 9.6a91.2 91.2 0 0 1 16-38.4c-8 0-11.2 3.2-11.2 8-1.6-4.8-9.6-4.8-12.8-1.6 9.6 4.8 3.2 16-4.8 14.4-4.8-1.6-6.4-4.8-6.4-8a4.8 4.8 0 1 0-1.6 0 16 16 0 0 1-11.2 4.8 11.2 11.2 0 0 1-6.4-9.6c0-8 9.6-9.6 11.2-8 0-4.8-9.6-11.2-11.2-4.8a16 16 0 0 0-3.2-19.2 15.995 15.995 0 0 0-3.2 17.6c-3.2-4.8-11.2 0-11.2 6.4 1.6-1.6 9.6 0 9.6 8 0 3.2 0 8-4.8 8a9.6 9.6 0 0 1-11.2-3.2l3.2-1.6a4.799 4.799 0 0 0 .522-7.965 4.799 4.799 0 0 0-7.357 5.645 4.8 4.8 0 0 0 2.035 2.32c0 4.8-3.2 8-6.4 8a8 8 0 0 1-4.8-14.4c-3.2-3.2-11.2-3.2-12.8 3.2 0-4.8-3.2-8-12.8-8a91.2 91.2 0 0 1 16 38.4A84.8 84.8 0 0 1 320 64M356.8 105.6h-3.2 4.8c1.6 0 3.2-1.6 1.6-3.2h3.2l-3.2-3.2h3.2L360 96h1.6a3.2 3.2 0 0 1 0-3.2h-11.2l-8-1.6 9.6-4.8c0-3.2-4.8-8-12.8-4.8L321.6 80l11.2-3.2 12.8-1.6h-11.2c-4.8 0-16-1.6-16 4.8s11.2 4.8 22.4 3.2l9.6 1.6-9.6 3.2a32 32 0 0 0-14.4 0h-11.2c-3.2 0-8 0-11.2-3.2 0 0-6.4 3.2-6.4 6.4V96c3.2 3.2 0 1.6-3.2 1.6l-8-1.6c-1.6-3.2-3.2-4.8-6.4-3.2V96h3.2a3.2 3.2 0 0 0-3.2 0v3.2h4.8-3.2v1.6h6.4a3.2 3.2 0 0 0-3.2 3.2c1.6-1.6 3.2 0 6.4 0l-3.2 1.6c1.6 0 11.2 1.6 11.2-1.6v1.6s4.8 0 4.8-3.2v3.2s3.2 0 4.8-3.2v-3.2h8c3.2-3.2 4.8 0 6.4-1.6h3.2c1.6 0 3.2 0 4.8-3.2 3.2 1.6 8 3.2 17.6 1.6 4.8 0 8 1.6 8 4.8h-8s-1.6 1.6 0 3.2 0 0 1.6 0c0 0-1.6 1.6 0 3.2l4.8-1.6zm-64-27.2V80l1.6 3.2 1.6-4.8z"/><path fill="#F9DD16" d="M304 80c1.6-1.6 3.2-1.6 3.2 0l-1.6 3.2-1.6-4.8z"/><path fill="#F9DD16" d="M299.2 76.8c4.8 0 6.4 3.2 6.4 6.4l-3.2 6.4-3.2 1.6-3.2-1.6c0-4.8-3.2-3.2-3.2-6.4s0-6.4 6.4-6.4"/><path fill="#F9DD16" d="M286.4 89.6h-3.2c1.6 0 1.6 3.2 6.4 3.2h-3.2c1.6 0 3.2 3.2 8 3.2 1.6 0 0 0 0 0 0 1.6 3.2 0 4.8 3.2 0-1.6-3.2-4.8 0-8-6.4 0-8-3.2-9.6-4.8-3.2-1.6-3.2-4.8-4.8-8 0 0-1.6-3.2-3.2-1.6V80H280c1.6 0 0 3.2 3.2 4.8-1.6-1.6-3.2-3.2-4.8-1.6h1.6zm41.6 16h8l3.2-1.6v-3.2c-1.6 0-3.2-1.6-1.6-3.2-4.8-6.4-14.4-3.2-14.4 0l6.4 3.2h1.6H320l1.6 1.6-3.2 1.6c0 3.2 3.2 0 3.2 0v1.6s0 1.6 1.6 0a4.8 4.8 0 0 1 3.2 0z"/><path fill="#FF0016" d="M299.2 89.6h1.6v-3.2H296V88z"/><path fill="#0051BA" d="M281.6 76.8c0-1.6-3.2 0-3.2 0zm0 1.6-4.8 1.6h3.2zm0 4.8h-4.8 4.8m0 11.2c-1.6 0-3.2 0-3.2 3.2 0-1.6 1.6 0 3.2 0zm0 3.2-3.2 3.2 3.2-1.6V96zm0 1.6s-1.6 1.6 0 3.2v-4.8zm40 4.8c-1.6 0-3.2 0-3.2 3.2l3.2-1.6zm1.6 0c-1.6 0-3.2 3.2-1.6 4.8l1.6-1.6V104m0-3.2c-3.2 0-4.8 0-4.8 3.2l3.2-1.6zm25.6 3.2s-3.2 1.6-1.6 3.2l1.6-1.6zm0-1.6-3.2 1.6h3.2v-4.8zm0 3.2s-1.6 3.2 0 3.2h1.6V104zm-48-16V96c-3.2 0-3.2 0-3.2-3.2v-3.2h3.2"/><path fill="#F9DD16" d="M350.4 139.2h3.2s1.6 0 0-1.6h3.2l-1.6-3.2h1.6l-1.6-3.2a3.2 3.2 0 0 1 0-3.2h-8l-8-1.6c4.8 1.6 9.6-1.6 9.6-4.8s-4.8-6.4-11.2-3.2l-17.6-1.6 9.6-3.2h12.8l-11.2-1.6c-4.8-1.6-14.4 0-14.4 4.8s11.2 4.8 20.8 3.2h8l-8 3.2a28.8 28.8 0 0 0-12.8 0l-11.2 1.6c-1.6 0-6.4 0-9.6-3.2l-6.4 4.8 1.6 6.4c1.6 1.6 0 0-3.2 0h-8c0-3.2-3.2-4.8-4.8-3.2v1.6h3.2a3.2 3.2 0 0 0-3.2 0v3.2h3.2-1.6c3.2 0 3.2 3.2 4.8 1.6a3.2 3.2 0 0 0-1.6 0s3.2 3.2 4.8 1.6l-1.6 3.2c0-1.6 9.6 0 9.6-3.2v3.2s3.2 0 4.8-3.2h3.2v-3.2h3.2l4.8-1.6h8c1.6 0 3.2 0 4.8-3.2 3.2 1.6 6.4 3.2 16 1.6 3.2 0 4.8 0 4.8 3.2v1.6H344v3.2c0 1.6 1.6 0 3.2 0-1.6 0-3.2 0-1.6 1.6h1.6zm-54.4-24h-3.2l1.6 4.8z"/><path fill="#F9DD16" d="M304 115.2h3.2l-1.6 4.8z"/><path fill="#F9DD16" d="M300.8 113.6c4.8 0 4.8 3.2 4.8 6.4s-1.6 0-3.2 4.8l-3.2 1.6h-1.6c0-4.8-3.2-4.8-3.2-6.4s0-6.4 6.4-6.4"/><path fill="#F9DD16" d="M288 124.8h-1.6s0 3.2 4.8 3.2H288l6.4 3.2c3.2 0 0 0 0 0l6.4 3.2c0-3.2-3.2-4.8-1.6-8-4.8 0-6.4-3.2-8-4.8-3.2 0-3.2-3.2-3.2-6.4l-3.2-1.6s-1.6 0 0 0v3.2h-1.6l1.6 3.2h-3.2c3.2 0 4.8 4.8 6.4 4.8m38.4 14.4h-1.6 12.8V136c-1.6 0-3.2-1.6-1.6-4.8-4.8-4.8-12.8-1.6-12.8 0l6.4 3.2s3.2 0 0 1.6h-3.2c-3.2 0-4.8-1.6-6.4 0v3.2h1.6s0 1.6 1.6 0a4.8 4.8 0 0 1 3.2 0"/><path fill="#FF0016" d="M300.8 126.4v-1.6s1.6-1.6 0-3.2c1.6 1.6 0 1.6 0 0 0 1.6-3.2 1.6-3.2 0v3.2h3.2z"/><path fill="#000" d="m299.2 123.2-3.2-1.6Zm0-1.6H296Zm0 0-3.2 1.6Zm1.6 1.6 3.2-1.6Zm0-1.6h3.2Zm0 0 3.2 1.6Z"/><path fill="#0051BA" d="m284.8 112-3.2 1.6h3.2zm0 3.2-4.8 1.6h3.2zm-1.6 4.8c0-1.6-3.2 0-3.2 0zm0 9.6-3.2 1.6h4.8zm0 3.2s-3.2 0 0 3.2zm3.2 0-3.2 4.8 3.2-1.6v-3.2m32 4.8s-1.6 0 0 3.2l1.6-1.6v-1.6zm3.2 1.6s-3.2 1.6-1.6 3.2l1.6-1.6zm0-4.8c-1.6 0-4.8 1.6-3.2 3.2h1.6V136zm22.4 4.8s-1.6 0 0 1.6v-3.2zm0-3.2-1.6 1.6h3.2V136zm1.6 4.8s-1.6 0 0 1.6zm-44.8-16v6.4-3.2c0-1.6 0-3.2-1.6-1.6v-1.6z"/><path fill="#F9DD16" stroke="#000" stroke-width=".232" d="M350.368 166.88c-.896 0-.896 1.2-1.12 1.2 1.792 0 2.688-.72 3.136-1.68v1.44c1.344-.48 1.792-1.68 1.344-2.4l1.568.48c-.896-.72-.224-2.4-1.792-3.36.448 0 1.344.48 1.792 1.2-.224-1.68-.448-2.64-1.792-3.6h1.12a2.1 2.1 0 0 1-.686-.832 2.3 2.3 0 0 1-.21-1.088c0-.96-.448-.96-1.344-.72l-4.032.24c-2.24 0-4.48 0-6.272-1.44 2.912 1.44 6.72-1.44 6.72-3.6 0-2.4-3.136-4.8-8.96-3.36s-12.992.96-12.992-1.2 5.152-2.4 7.84-1.92 4.48.72 9.408-1.2c-1.12.48-5.152.72-8.288-.24s-10.752-.96-10.752 3.36c0 4.56 8.064 4.08 15.232 2.88 4.032-.48 6.272 0 6.272 1.2 0 1.44-3.808 1.92-6.72 1.68a21 21 0 0 0-9.184.72c-2.912.96-4.928 0-8.064.72-1.568 0-5.376 0-7.168-3.36-1.12.96-4.48 2.64-5.152 4.56-.672 1.44 0 3.12.896 4.8 1.344 1.92-.672 1.68-2.24 1.68-1.792 0-4.48 0-5.824-1.92-1.344-1.44-2.912-2.64-4.256-1.68-.672.72 0 1.44.448 1.2l1.792.48a2.1 2.1 0 0 0-1.15-.203 2.15 2.15 0 0 0-1.09.443c-.672.48 0 1.44.672 1.2.448-.24 1.568-.48 2.24 0-.672 0-1.568 0-1.792.48s0 .96.672.96c1.344 0 1.568.96 2.912.72a1.9 1.9 0 0 0-.89.281 2.1 2.1 0 0 0-.678.679c1.344-.72 2.464.96 4.032.48-.448.24-1.568.96-1.568 1.44.896-1.2 7.168.96 7.168-1.68l-.224 1.92c.672-.48 3.136-.72 4.032-2.4 0 .48 0 1.2-.448 1.44.672 0 1.792-.48 2.912-2.16.448-.72.448-1.2.448-1.68 1.12 0 1.792-.24 2.688-.96s1.792.72 3.36-.48c1.344-.96 2.688 0 3.584-.48.672-.48 1.792 0 2.688-.48s2.24.24 3.584-.96c2.24.96 5.152 2.4 11.648 1.2 3.584-.72 4.928.72 4.928 2.4 0 1.44-.896 1.44-1.344 1.44-2.24.24-2.912-.72-3.808-.48-.448.24-.896 1.2 0 1.68-.672.24-.672.96-.224 1.2s1.12 0 1.792-.24c-.896.24-1.568.96-1.12 1.68.224.48.896.72 1.568 0 .672-.96 1.792-1.68 2.688-1.68Zm-41.664-19.2c-1.792-.72-2.24-.72-2.016.96 0 .72.672 1.68 1.12 2.16 0-.72.224-2.4.896-2.88z"/><path fill="#F9DD16" stroke="#000" stroke-width=".232" d="M314.752 147.92c1.792-.96 2.464-.96 2.016.72 0 .72-.672 1.68-1.12 2.16 0-.72 0-2.4-.896-2.88Z"/><path fill="#F9DD16" stroke="#000" stroke-width=".232" d="M311.84 146.72c3.584 0 4.032 1.92 3.808 4.08 0 2.4-1.12 1.44-1.792 4.8-.224.96-1.12 1.2-2.24 1.2-.672 0-1.568 0-2.016-1.44-.672-3.12-1.792-2.4-1.792-4.8 0-1.92.448-3.84 4.032-3.84Z"/><path fill="#F9DD16" stroke="#000" stroke-width=".232" d="M302.656 155.6c-.896-.48-1.568 0-2.016 0 1.344.24 1.344 1.92 4.032 2.4-.672 0-.896.48-1.568 0 1.12.96 2.24 2.16 4.928 2.16 1.568 0 .448.72-.448.24.896 1.2 2.912.24 4.256 2.4 0-1.68-2.24-4.08-1.12-5.76-3.808-.24-4.032-2.4-6.048-4.08-1.792-1.44-2.016-2.88-2.688-5.52-.224-1.2-1.568-1.92-2.24-1.68-.672 0-1.12.72-.448 1.2.448.48 1.344.48 1.344 1.68-.672-.96-1.792-1.2-2.24-.72-.224.48 0 1.2.448 1.2 1.12 0 .448 1.44 1.568 2.4q-1.68-1.8-2.688-.72c-.224.48 0 1.2.896 1.2 1.12 0 2.24 2.88 4.032 3.6Zm29.12 11.04c-.448 0-.224 1.2-1.12 1.2 1.792 0 2.912-.48 3.584-1.2l-.448 1.2c.896-.72 3.36-.96 4.48-.72s1.344-.24 1.792-.96c.448-.96 0-1.44-.672-1.92-.672-.72-.896-1.68-.672-3.12-3.136-4.8-8.96-2.4-8.96-.48 2.016 2.64 2.24 2.4 4.032 2.64 1.568.48 2.688.48 1.568 1.44-.448.48-2.24 0-3.36.24-2.912 0-4.48-2.16-5.152-.96-.672.96 0 1.44 1.344 1.44-.896 0-2.24 0-2.016.96.448 1.68 1.792-.24 2.464.24-.448 0-1.344.24-1.344.72s1.12 1.2 2.24 0a3.42 3.42 0 0 1 2.24-.72Z"/><path stroke="#000" stroke-width=".232" d="M334.24 159.68c-.896-.48-2.016-.72-3.136-.48m-12.544 0c-.896 1.92-.448 2.88-.224 3.84m-8.96-13.44c.448.48.896-.48 1.792.48-.224-.24-.672.72-1.344 0m4.48-.24c-.672 0-1.12-.72-2.016.24.224-.24.672.72 1.344 0m-1.344 0v.72c.224 1.68.672 2.4-.672 2.4-1.12 0-.672-.72-.448-2.4v-.72"/><path fill="#FF0016" stroke="#000" stroke-width=".232" d="M311.84 156.08c.896 0 1.344 0 1.344-1.44 0-.48.672-.72.224-1.68.448.96-1.568.96-1.568.48 0 .48-2.24.48-1.792-.48-.224.96.448 1.2.224 1.68 0 1.44.448 1.44 1.568 1.44Z"/><path fill="#000" d="m310.72 153.2-2.24-.72Zm0 0h-2.24Zm0 .24-2.016.72Zm1.792-.24 2.24-.72Zm0 0h2.688Zm0 .24 2.24.72Z"/><path stroke="#000" stroke-width=".232" d="m310.72 153.2-2.24-.72m2.24.72h-2.24m2.24.24-2.016.72m3.808-.96 2.24-.72m-2.24.72h2.688m-2.688.24 2.24.72"/><path fill="#0051BA" d="M292.8 147.2h1.6zm0 1.6h-3.2zm0 3.2h-3.2 3.2m0 9.6c0-1.6-1.6 0-1.6 0zm0 0s-1.6 3.2 0 3.2v-3.2m27.2 4.8s-3.2 1.6-1.6 3.2v-3.2zm0 1.6v3.2-3.2m0-3.2-1.6 1.6h1.6zm17.6 3.2v1.6zm0-1.6s-1.6 0 0 0m0 3.2v1.6h1.6v-1.6zm-32-12.8v4.8z"/></g><defs><clipPath id="a"><path fill="#fff" d="M0 0h640v480H0z"/></clipPath></defs></svg>