<svg xmlns="http://www.w3.org/2000/svg" width="640" height="480" fill="none"><g clip-path="url(#a)"><path fill="#fff" fill-rule="evenodd" d="M-.012.025h640.125v480H-.012z" clip-rule="evenodd"/><path fill="#000" fill-rule="evenodd" d="M70.119 145.814 136.7 45.98l16.639 11.097-66.581 99.834zm24.958 16.646 66.582-99.835 16.639 11.097-66.582 99.835zm24.959 16.645 66.581-99.834 16.639 11.096-66.581 99.835zM436.178 389.946l66.582-99.835 16.639 11.097-66.581 99.835zm24.959 16.645 66.581-99.834 16.64 11.097-66.582 99.834zm24.959 16.646 66.581-99.835 16.639 11.097-66.581 99.834zM461.15 334.48l83.195 55.485Z" clip-rule="evenodd"/><path stroke="#fff" stroke-width="10" d="m461.15 334.48 83.195 55.485"/><path fill="#CD2E3A" fill-rule="evenodd" d="M219.883 173.575a120 120 0 0 1 199.669 133.163z" clip-rule="evenodd"/><path fill="#0047A0" fill-rule="evenodd" d="M219.883 173.575a120 120 0 0 0-17.839 90.095 119.997 119.997 0 0 0 141.187 94.16 120 120 0 0 0 76.321-51.092 60.001 60.001 0 1 0-99.835-66.581z" clip-rule="evenodd"/><path fill="#CD2E3A" d="M319.717 240.157c18.386-27.569 10.942-64.822-16.626-83.208s-64.822-10.942-83.208 16.626-10.942 64.822 16.626 83.208 64.822 10.942 83.208-16.626"/><path fill="#000" fill-rule="evenodd" d="m136.975 434.372-66.581-99.835 16.639-11.097 66.581 99.835zm24.959-16.646-66.582-99.834 16.639-11.097 66.582 99.834zm24.958-16.645-66.581-99.835 16.639-11.097 66.581 99.835zM503.035 190.24l-66.581-99.834 16.639-11.097 66.581 99.834zm24.959-16.645L461.412 73.76l16.639-11.097 66.582 99.835zm24.958-16.646-66.581-99.834 16.639-11.097 66.581 99.834zM124.483 370.583l24.959-16.645Zm336.942-224.712 29.118-19.419Zm54.077-36.065 24.958-16.645Z" clip-rule="evenodd"/><path stroke="#fff" stroke-width="10" d="m124.483 370.583 24.959-16.645m311.983-208.067 29.118-19.419m24.959-16.646 24.958-16.645"/></g><defs><clipPath id="a"><path fill="#fff" d="M0 0h640v480H0z"/></clipPath></defs></svg>