<svg xmlns="http://www.w3.org/2000/svg" width="640" height="480" fill="none"><g clip-path="url(#a)"><path fill="#006" d="M0 0h640v480H0z"/><path fill="#012169" d="M0 0h320v240H0z"/><path fill="#fff" d="m37.5 0 122 90.5L281 0h39v31l-120 89.5 120 89V240h-40l-120-89.5L40.5 240H0v-30l119.5-89L0 32V0z"/><path fill="#C8102E" d="M212 140.5 320 220v20l-135.5-99.5zm-92 10 3 17.5-96 72H0zM320 0v1.5l-124.5 94 1-22L295 0zM0 0l119.5 88h-30L0 21z"/><path fill="#fff" d="M120.5 0v240h80V0zM0 80v80h320V80z"/><path fill="#C8102E" d="M0 96.5v48h320v-48zM136.5 0v240h48V0z"/><path fill="#fff" stroke="#fff" stroke-linejoin="round" stroke-width="8.365" d="M555.585 181.827v81.385c0 70.58-33.373 94.804-78.074 113.974-44.701-19.17-78.422-43.394-78.422-113.974V181.74h156.496z"/><path fill="#FCEA83" stroke="#fff" stroke-linejoin="round" stroke-width="8.365" d="M350.554 370.563c2.527 6.623 20.477 15.424 41.39 4.183 14.203-8.017 23.352-19.17 32.153-39.211 2.44-5.054 3.747-11.328-2.092-15.075-4.618-3.398-12.199-7.145-15.51-10.456-1.655-1.743-3.311-2.963-4.531-4.183.872.872 1.656 1.656 2.44 2.876 8.365 10.021-.349 24.659-9.585 33.46-6.709 6.274-18.734 21.697-36.336 7.058-3.747-3.311-12.547 10.456-7.842 21.348zm253.914 0c-2.962 6.623-20.912 15.424-41.389 4.183-14.116-8.017-23.353-19.17-32.502-39.211-2.091-5.054-3.398-11.328 2.44-15.075 4.618-3.398 12.199-7.145 15.51-10.456 1.655-1.743 2.875-2.963 4.531-4.183-.871.872-1.656 1.656-2.44 2.876-8.365 10.021.349 24.659 9.149 33.46 6.71 6.274 19.17 21.697 36.772 7.058 3.747-3.311 12.112 10.456 7.842 21.348z"/><path fill="#FCEA83" stroke="#fff" stroke-linejoin="round" stroke-width="8.365" d="M477.511 406.464c33.373 0 84.783-15.075 112.406-67.705 4.531-8.714 0-13.332-5.49-16.207a63.6 63.6 0 0 1-16.73-12.199c6.709 6.709 5.402 11.327.871 18.821-21.348 35.551-50.539 53.501-91.057 53.501s-69.709-17.95-91.057-53.501c-4.531-7.494-5.838-12.112.436-18.734a57.5 57.5 0 0 1-16.73 12.112c-5.403 2.875-10.021 7.493-5.403 16.207 27.535 52.63 79.294 67.705 112.754 67.705Z"/><path fill="#C8102E" stroke="#fff" stroke-linejoin="round" stroke-width="8.365" d="M400.222 335.883c-.872-4.182-6.187-2.527-7.843 2.527a59.6 59.6 0 0 1-5.925-9.236c-4.967-7.494-5.838-12.548 1.307-19.606 3.311-3.311 10.021-7.145 14.552-2.962 9.585 7.929 4.618 20.912-2.091 29.277Zm154.143 0c.871-4.182 6.71-2.527 8.365 2.527 2.091-2.962 4.183-5.838 5.838-9.236 4.967-7.494 5.838-12.548-1.742-19.606-2.876-3.311-9.585-7.145-14.552-2.962-9.237 7.929-4.618 20.912 2.091 29.277Zm-203.811 34.681c-4.182-6.274-7.494-22.656-8.365-26.751-1.22-3.747-1.656-7.145 2.963-8.714 4.618-1.743 8.713 4.096 10.804 9.149 2.092 4.967 5.49 12.461 9.237 21.697-9.237-5.402-16.73-1.742-14.639 4.619Zm253.914 0c3.747-6.274 7.058-22.656 8.365-26.751.872-3.747 1.656-7.145-2.962-8.714-4.618-1.743-8.714 4.096-10.805 9.149-2.091 4.967-5.49 12.461-9.237 21.697 9.237-5.402 16.295-1.742 14.639 4.619Z"/><path fill="#fff" stroke="#fff" stroke-linejoin="round" stroke-width="8.365" d="M445.358 181.391c-5.403 1.22-9.149 1.656-14.203-2.962-3.311-3.312-2.527-9.15.871-11.328 3.747-2.44 7.058-4.095 11.676-2.876 4.619 1.308 16.73 12.548 13.768 12.984-2.963 0-7.494 2.875-12.112 4.182Zm12.896-20.041c1.743-1.307 3.834-2.091 9.236-2.614 5.054-.349 8.714-.349 10.021 3.485 1.743 4.531 2.963 9.934 6.274 12.461-2.091 1.22-12.548 2.527-16.295.435-4.966-2.526-6.273-12.199-9.149-13.767zm35.987.436c1.656-1.307 3.747-1.307 9.149-.872 5.403.436 7.494.872 8.714 4.619 1.307 4.182 0 9.584 2.614 13.331-2.614.872-10.892.872-13.854-2.091-4.531-3.311-4.183-12.983-6.623-15.074z"/><path fill="#073163" stroke="#fff" stroke-linejoin="round" stroke-width="8.365" d="M519.249 164.225c-3.747-.871-6.274-1.219-7.842 0 2.004 2.527.349 12.548 4.531 15.859 2.876 2.091 10.456 2.614 12.112-2.091 2.091-4.183 2.091-10.456-8.714-13.768zm-42.958-4.182c1.22-1.22 3.747-1.656 8.714-1.656 5.489 0 8.713.872 10.456 4.183 1.743 4.182 1.22 9.585 4.183 12.983-1.22 1.656-12.548 1.656-15.859-.871-4.618-2.963-5.054-12.548-7.494-14.639Zm-35.464 3.747c0-2.092 2.875-2.44 10.456-2.876 7.407-.871 7.842-.435 10.369 4.967 1.22 2.963 2.876 7.929 6.274 9.585-9.236 2.178-12.199 3.398-17.166.436a25.45 25.45 0 0 1-8.713-9.15c-.436-1.22-.436-2.527-1.307-2.962z"/><path fill="#059334" stroke="#fff" stroke-linejoin="round" stroke-width="8.365" d="M441.611 126.67c-2.963 0-5.402-1.22-7.145-3.311-2.876-3.834-10.805-5.49-14.203-2.092-1.22.872-2.876.872-4.096 1.22-2.091 0-4.618 2.092-3.834 6.274 1.743-1.307 2.092 0 3.399 0 .871-.436.435.436.435 1.22 0 2.091 4.531 6.274 8.714 5.838 4.618 0 6.709 1.743 7.494 2.614 1.307 1.133.435.784 1.307 2.876 1.22 1.22 1.655 1.655-.436 3.311a8.45 8.45 0 0 0 0 12.983c5.402 4.096 19.17 10.456 34.68-1.743 14.988-11.676 38.34-4.966 40.083-.871 2.091 4.27 2.875 6.71 3.311 8.801.436 1.743 2.527 3.398 5.489 2.962 2.876 0 6.187 1.22 7.843 2.527 2.178 1.22 5.054.872 4.269-2.962-1.742-11.676-8.8-13.332-9.585-18.734 4.096.348 6.971.348 8.714-1.308 1.22-1.655 2.876-4.618 4.618-5.402 1.22-.871 1.22-1.743-.435-1.307-2.092.436-3.312 1.307-7.146.871-19.17-2.091-73.02-16.73-83.476-13.767Z"/><path fill="#000" stroke="#fff" stroke-linejoin="round" stroke-width="8.365" d="M526.83 140.873a30.3 30.3 0 0 0-8.016 8.365c-4.096 5.402-16.643 10.805-32.154 10.805-14.987 0-24.136-2.44-30.846-7.842a52.8 52.8 0 0 0-9.236-5.926c-4.531-2.091-5.403-6.709-4.183-10.456-1.22 2.091-2.004 4.183-4.531 3.747-1.742 0-5.054 0-4.182 1.743-.436-.872-.436-2.092-.872-2.614l-.871-.785c1.307.872 4.27-1.655 6.361-1.655 1.656.435 3.747-1.656 3.311-4.183l-1.22-5.402c3.311-1.743 47.141 6.274 55.942 7.058 8.713.435 33.808 4.182 30.497 7.145Z"/><path fill="#059334" stroke="#fff" stroke-linejoin="round" stroke-width="8.365" d="M447.449 125.014c4.183-4.182 9.149-6.274 14.203-5.054h1.22c2.614-2.091 8.365-2.527 11.764-.871h1.655c4.967-1.656 14.552 0 17.95 3.398l1.22.872c11.328-.872 17.95 4.095 25.88 12.112.871.871 2.091 2.439 4.182 2.875 2.527.436 2.963 1.743.871 2.963a32.9 32.9 0 0 0-8.713 7.842c-3.834 5.054-15.946 10.108-31.021 10.108-14.551 0-23.352-2.614-30.062-7.581-3.746-2.876-6.622-4.531-8.713-5.838-2.527-.872-5.838-4.183-4.618-7.494.871-3.311-1.22-7.494-2.876-11.676 1.22-.872 4.531-2.091 6.187-1.22z"/><path fill="#00493D" stroke="#fff" stroke-linejoin="round" stroke-width="8.365" d="M521.341 135.471c-7.843-8.017-14.552-12.984-25.88-12.199 0 .435 0 1.742-.435 2.614a57.76 57.76 0 0 1 20.476 15.423c1.743-1.743 4.619-3.747 5.839-5.838Zm-27.1-12.984c-3.398-3.311-12.983-5.054-17.95-3.311 0 1.656 0 4.183-.871 5.838 2.963 1.22 5.402 4.183 7.929 7.058 1.743-.435 5.838-1.655 7.93-2.091a38.3 38.3 0 0 0 2.962-7.494Zm-19.605-3.398c-3.399-1.656-9.237-1.22-11.764.871-.871 1.743-1.22 5.054-1.22 6.71 1.743 0 4.183 1.22 4.967 2.091 2.614-.871 5.925-2.527 7.145-3.747.436-1.742 1.22-4.182.872-5.838zm-27.187 5.925c4.183-4.182 9.15-6.274 14.203-5.054-.871 1.307-1.219 3.747-1.219 6.274-4.619-.436-10.457.872-12.984 2.527z"/><path fill="#00493D" stroke="#fff" stroke-linejoin="round" stroke-width="8.365" d="M513.847 142.093a55.95 55.95 0 0 0-19.17-14.639c0 .436-.871 2.091-1.307 3.398 2.527 3.747 7.494 12.112 9.585 16.73 2.091-.871 7.929-3.398 10.892-5.489Zm-31.718 9.236a156 156 0 0 0 1.22-17.166c2.091-.435 6.274-1.655 7.93-2.091 2.091 3.399 7.145 12.199 9.236 16.295-5.054 1.22-13.419 3.311-18.386 2.962Zm-14.639-20.041c2.092-.871 5.054-2.614 7.059-4.183 1.742 1.22 5.053 4.183 6.273 5.839 0 3.746-1.22 14.638-1.655 18.298-3.311 0-8.714-.784-11.677-2.44.436-6.273.872-13.331 0-17.514Zm-20.912 4.967c.435-.872.871-3.747.871-4.967 3.311-2.091 11.676-4.183 17.95-.871.436 4.182 0 14.638-.435 17.165a84 84 0 0 0-18.299-11.327z"/><path fill="#000" d="M425.752 128.674c-.871 0-1.307-2.44-2.962-2.44-.436 0-1.656.436-2.092 0 0 .871.436 1.743.872 2.091.436 1.22 2.527.436 4.182.436z"/><path stroke="#fff" stroke-linejoin="round" stroke-width="8.365" d="M425.752 135.819c4.967 0 5.838-6.274 8.365-6.622m-5.489 7.058c3.747 1.742 6.709-7.058 9.585-6.71m-17.079-4.095c1.22 0 2.091-1.743 4.183.348.871.872 2.091 1.307 2.962 1.307m-.871 4.532c-1.743 2.614-4.618 4.182-6.274 3.398m-.871-13.768c-1.22.872-2.004 2.44-2.876 3.747m-1.22 2.44v2.091"/><path fill="#000" d="M460.868 121.267c-8.801-6.709-19.257-12.983-28.842-14.203a244 244 0 0 1 28.406 22.133"/><path stroke="#fff" stroke-linejoin="round" stroke-width="8.365" d="M460.868 121.267c-8.801-6.709-19.257-12.983-28.842-14.203a244 244 0 0 1 28.406 22.133"/><path fill="#000" d="M465.835 114.994c-10.456-7.146-22.568-15.075-34.244-15.86a108 108 0 0 1 28.754 24.225m18.822-20.042a81 81 0 0 1 20.477-28.057c-4.183 8.8-8.714 26.75-10.892 33.895"/><path stroke="#fff" stroke-linejoin="round" stroke-width="8.365" d="M465.835 114.994c-10.456-7.146-22.568-15.075-34.244-15.86a108 108 0 0 1 28.754 24.225m18.822-20.042a81 81 0 0 1 20.477-28.057c-4.183 8.8-8.714 26.75-10.892 33.895"/><path fill="#000" d="M488.403 101.226a42.18 42.18 0 0 1 21.261-22.22 88.2 88.2 0 0 0-15.858 30.498"/><path stroke="#fff" stroke-linejoin="round" stroke-width="8.365" d="M488.403 101.226a42.18 42.18 0 0 1 21.261-22.22 88.2 88.2 0 0 0-15.858 30.498"/><path fill="#000" d="M492.15 109.504a73.63 73.63 0 0 1 32.937-27.535c-10.456 10.456-25.879 29.626-29.626 37.207m2.527-.436c7.494-4.182 22.568-10.892 33.373-8.713-6.622 2.44-26.663 11.589-35.464 20.041"/><path stroke="#fff" stroke-linejoin="round" stroke-width="8.365" d="M492.15 109.504a73.63 73.63 0 0 1 32.937-27.535c-10.456 10.456-25.879 29.626-29.626 37.207m2.527-.436c7.494-4.182 22.568-10.892 33.373-8.713-6.622 2.44-26.663 11.589-35.464 20.041"/><path fill="#000" d="M496.332 115.778c7.059-7.494 20.042-18.735 33.809-23.353-10.02 9.585-31.369 31.369-34.244 34.68m-19.606-15.858c-5.054-15.51-12.547-30.062-23.788-34.68a114.1 114.1 0 0 1 18.299 42.609m-4.183-8.365c-8.278-10.021-19.606-20.041-32.502-22.133a78.5 78.5 0 0 1 28.755 33.809"/><path stroke="#fff" stroke-linejoin="round" stroke-width="8.365" d="M496.332 115.778c7.059-7.494 20.042-18.735 33.809-23.353-10.02 9.585-31.369 31.369-34.244 34.68m-19.606-15.858c-5.054-15.51-12.547-30.062-23.788-34.68a114.1 114.1 0 0 1 18.299 42.609m-4.183-8.365c-8.278-10.021-19.606-20.041-32.502-22.133a78.5 78.5 0 0 1 28.755 33.809"/><path fill="#000" d="M471.324 110.375c-10.456-18.821-18.472-22.132-23.003-25.879 3.746 7.058 12.896 25.879 18.298 33.809"/><path stroke="#fff" stroke-linejoin="round" stroke-width="8.365" d="M471.324 110.375c-10.456-18.821-18.472-22.132-23.003-25.879 3.746 7.058 12.896 25.879 18.298 33.809M450.412 109.155a50.3 50.3 0 0 1 14.987 14.552"/><path fill="#000" d="M450.412 117.869c2.44 2.091 7.058 4.618 11.24 8.365Zm49.667 6.274c4.183-3.311 13.332-8.714 17.95-10.456Zm-2.962-2.876c4.182-5.489 12.547-12.983 15.51-15.51Zm11.676-25.966a250 250 0 0 0-15.859 19.693Zm-10.805-3.747a137 137 0 0 0-10.456 18.386Zm-33.024.871c2.527 6.71 7.145 17.95 8.713 22.569Zm-3.747 7.058c1.742 2.614 5.054 8.365 6.274 12.548Z"/><path stroke="#fff" stroke-linejoin="round" stroke-width="8.365" d="M450.412 117.869c2.44 2.091 7.058 4.618 11.24 8.365m38.427-2.091c4.183-3.311 13.332-8.714 17.95-10.456m-20.912 7.58c4.182-5.489 12.547-12.983 15.51-15.51m-3.834-10.456a250 250 0 0 0-15.859 19.693m5.054-23.44a137 137 0 0 0-10.456 18.386m-22.568-17.515c2.527 6.71 7.145 17.95 8.713 22.569m-12.46-15.51c1.742 2.613 5.054 8.364 6.274 12.547"/><path fill="#000" stroke="#fff" stroke-linejoin="round" stroke-width="8.365" d="M475.42 97.392c0-3.747 2.527-7.842 5.054-7.842 2.875 0 4.967 4.967 4.967 7.842 0 3.398-2.527 6.274-4.967 6.274-2.614 0-5.054-2.44-5.054-6.274Z"/><path fill="#000" stroke="#fff" stroke-linejoin="round" stroke-width="8.365" d="M470.017 100.79c.436-4.182 3.312-7.493 5.839-7.145 2.526.436 3.746 5.49 3.311 8.365-.436 3.312-3.311 5.838-5.403 5.403-2.091 0-4.182-2.876-3.747-6.623Zm11.241 1.22c-.871-3.747.871-7.842 3.398-8.365 2.44-.348 4.967 3.747 5.403 7.145.871 3.312-1.307 6.623-3.399 6.623-2.004.435-4.966-1.656-5.402-5.403Z"/><path fill="#000" stroke="#fff" stroke-linejoin="round" stroke-width="8.365" d="M474.984 105.321c0-4.095 2.527-7.842 5.054-7.842 2.876 0 4.967 4.531 4.967 7.842 0 3.399-2.44 6.274-4.967 6.274s-5.054-2.44-5.054-6.274Z"/><path fill="#000" stroke="#fff" stroke-linejoin="round" stroke-width="8.365" d="M467.49 107.413c0-3.747 2.963-7.843 5.403-7.843 2.614 0 5.054 4.967 5.054 7.843 0 3.398-2.963 6.274-5.054 6.274-2.44 0-5.403-2.44-5.403-6.274Zm15.424-1.656c0-3.747 2.614-7.842 5.053-7.842 2.876 0 4.967 4.967 4.967 7.842 0 3.398-2.44 6.274-4.967 6.274s-5.053-2.527-5.053-6.274Z"/><path fill="#000" stroke="#fff" stroke-linejoin="round" stroke-width="8.365" d="M481.258 109.155c0-4.182 2.963-7.929 5.402-7.929 2.614 0 5.054 4.531 5.054 7.842 0 3.399-2.527 6.361-5.054 6.361-2.439 0-5.402-2.614-5.402-6.274Z"/><path fill="#000" stroke="#fff" stroke-linejoin="round" stroke-width="8.365" d="M474.636 112.902c0-4.182 2.439-7.929 4.966-7.929 2.963 0 5.054 4.967 5.054 7.842 0 3.486-2.614 6.361-5.054 6.361-2.527 0-5.053-2.614-5.053-6.274zm-10.457 0c0-4.182 2.092-7.929 4.183-7.929s3.747 4.967 3.747 7.842c0 3.486-2.092 6.361-3.747 6.361-2.091 0-4.183-2.614-4.183-6.274Zm23.353-.784c0-3.834 2.091-7.581 4.182-7.581s4.183 4.618 4.183 7.494c0 3.747-2.527 6.274-4.183 6.274-2.091 0-4.182-2.527-4.182-6.274z"/><path fill="#000" stroke="#fff" stroke-linejoin="round" stroke-width="8.365" d="M490.059 119.089c.871-4.095 3.311-7.494 4.966-6.971 1.743.349 2.092 5.315 1.308 8.278-.436 3.747-2.963 5.838-4.619 5.402-1.742-.348-2.527-3.311-1.742-6.622z"/><path fill="#000" stroke="#fff" stroke-linejoin="round" stroke-width="8.365" d="M482.129 117.869c.436-3.747 2.876-7.494 4.967-7.058 2.527 0 3.747 4.967 3.398 7.842-.435 3.834-2.614 6.361-4.618 5.926-2.091 0-4.182-2.963-3.747-6.71Zm-11.676 1.22c-1.307-4.095-3.834-6.971-5.489-6.622-1.656.435-2.092 5.402-1.22 8.365.871 3.311 3.311 5.402 4.966 4.966 1.307-.348 2.614-3.311 1.743-6.622z"/><path fill="#000" stroke="#fff" stroke-linejoin="round" stroke-width="8.365" d="M467.49 118.305c0-3.747 2.092-7.494 4.183-7.494 2.527 0 4.183 4.618 4.183 7.494 0 3.747-2.092 6.274-4.183 6.274-1.743 0-4.183-2.527-4.183-6.274Z"/><path fill="#000" stroke="#fff" stroke-linejoin="round" stroke-width="8.365" d="M473.764 119.96c0-4.182 2.527-7.842 4.967-7.842 2.963 0 5.054 4.531 5.054 7.842 0 3.399-2.527 6.274-5.054 6.274-2.44 0-4.967-2.527-4.967-6.274Zm2.092-45.92c-.872 3.31-3.747 6.273-1.743 10.892-3.66-1.307-6.971-1.743-9.934 1.655 3.747-.435 7.058.872 8.714 3.311-3.311-.435-4.967 1.308-5.838 3.399 2.962-.872 5.838-1.743 7.145-1.307-1.307 1.307-3.398 3.31-3.747 5.054 2.44-2.092 5.403-1.743 7.058-2.963-1.22 2.963 1.22 5.838 3.311 8.714-.348-4.096 2.092-6.971.872-9.15 3.747.872 4.182 4.183 9.585 4.183-2.092-1.22-3.312-5.403-5.838-5.403 1.219-.435 6.273-.871 7.145 0-.872-1.742-3.834-3.31-5.49-3.31 1.743-1.743 4.618-5.055 6.71-5.926-2.963.436-7.494.871-9.15 3.398 4.096-3.398 3.311-9.585 7.843-10.456-2.44-.436-6.187 1.22-9.15 4.183 1.307-2.527 1.307-5.839 2.963-6.71-3.398.871-7.145 5.054-8.365 7.145a15.7 15.7 0 0 0-2.091-6.71Z"/><path fill="#000" d="M477.947 80.75c0 1.22 0 3.746-.436 4.53Zm5.402-.436c-.871.87-2.527 3.746-2.527 6.273Z"/><path stroke="#fff" stroke-linejoin="round" stroke-width="8.365" d="M477.947 80.75c0 1.22 0 3.746-.436 4.53m5.838-4.966c-.871.87-2.527 3.746-2.527 6.273M485.876 85.28a6.62 6.62 0 0 0-2.962 3.834"/><path fill="#FCEA83" stroke="#000" stroke-width="1.22" d="M350.554 370.563c2.527 6.623 20.477 15.423 41.39 4.183 14.203-8.017 23.352-19.17 32.153-39.211 2.44-5.054 3.747-11.328-2.092-15.075-4.618-3.398-12.199-7.145-15.51-10.456-1.655-1.743-3.311-2.963-4.531-4.183.872.872 1.656 1.656 2.44 2.876 8.365 10.02-.349 24.659-9.585 33.46-6.709 6.274-18.734 21.697-36.336 7.058-3.747-3.311-12.547 10.456-7.842 21.348zm253.914 0c-2.962 6.623-20.912 15.423-41.389 4.183-14.116-8.017-23.353-19.17-32.502-39.211-2.091-5.054-3.398-11.328 2.44-15.075 4.618-3.398 12.199-7.145 15.51-10.456 1.655-1.743 2.875-2.963 4.531-4.183-.871.872-1.656 1.656-2.44 2.876-8.365 10.02.349 24.659 9.149 33.46 6.71 6.274 19.17 21.697 36.772 7.058 3.747-3.311 12.112 10.456 7.842 21.348z"/><path fill="#FCEA83" stroke="#000" stroke-width="1.22" d="M477.511 406.463c33.373 0 84.783-15.074 112.406-67.704 4.531-8.714 0-13.332-5.49-16.208a63.6 63.6 0 0 1-16.73-12.199c6.709 6.71 5.402 11.328.871 18.822-21.348 35.551-50.539 53.501-91.057 53.501s-69.709-17.95-91.057-53.501c-4.531-7.494-5.838-12.112.436-18.734a57.5 57.5 0 0 1-16.73 12.111c-5.403 2.876-10.021 7.494-5.403 16.208 27.535 52.63 79.294 67.704 112.754 67.704Z"/><path fill="#C8102E" stroke="#000" stroke-width="1.22" d="M400.222 335.883c-.872-4.182-6.187-2.527-7.843 2.527a59.6 59.6 0 0 1-5.925-9.236c-4.967-7.494-5.838-12.548 1.307-19.606 3.311-3.311 10.021-7.145 14.552-2.962 9.585 7.929 4.618 20.912-2.091 29.277Zm154.143 0c.871-4.182 6.71-2.527 8.365 2.527 2.091-2.962 4.183-5.838 5.838-9.236 4.967-7.494 5.838-12.548-1.742-19.606-2.876-3.311-9.585-7.145-14.552-2.962-9.237 7.929-4.618 20.912 2.091 29.277Zm-203.811 34.68c-4.182-6.273-7.494-22.655-8.365-26.75-1.22-3.747-1.656-7.145 2.963-8.714 4.618-1.743 8.713 4.095 10.804 9.149 2.092 4.967 5.49 12.461 9.237 21.697-9.237-5.402-16.73-1.743-14.639 4.618Zm253.914 0c3.747-6.273 7.058-22.655 8.365-26.75.872-3.747 1.656-7.145-2.962-8.714-4.618-1.743-8.714 4.095-10.805 9.149-2.091 4.967-5.49 12.461-9.237 21.697 9.237-5.402 16.295-1.743 14.639 4.618Z"/><path fill="#00493D" d="m374.778 332.921-3.311 1.742c-.872.349-.872 1.22-.872 1.656h-.435l-1.656-3.747h.436c0 .349.435.872 1.22.349l7.145-3.747c.871-.436.871-.871.435-1.22l.349-.436 2.091 4.183h-.348c-.436-.436-.872-.872-1.743-.436l-2.875 1.743 1.219 2.44 3.399-1.22c.871-.436.348-1.307.348-1.743h.436l1.743 3.834c-.436-.436-.872-.871-1.743-.436l-7.058 3.747c-.871.436-.871.872-.436 1.22l-.435.436-2.092-3.747.436-.436c.436.436.871.872 1.743.436l3.311-1.743zm7.145 5.489c.871-.435.871-.871.349-1.742h.435l4.183 6.273-2.876 2.092v-.349c1.656-1.307 1.656-2.963 1.22-3.398s-.871-.872-.871-1.22c-.349 0-.349-.436-1.22.436l-2.963 2.091c.436.348.872 1.655 2.963.348h.436l-4.619 3.399v-.436c2.092-1.743 1.22-2.963.872-3.311l-2.963 2.091c-.871.349-.871.871-.871 1.22.435 0 .435.436.871.871.436.872 1.743 1.656 3.747.872l.436.348-3.312 1.22-4.182-6.622h.436c.348.348.871.871 1.655.348zm6.622 15.859-2.875 2.44c-.436.436-.436 1.307 0 1.743h-.436l-2.962-2.963.435-.436c.436.436.872.872 1.743 0l5.402-5.402c.872-.436.872-.872.349-1.743l2.963 3.486c-.436-.523-1.22-.523-1.743 0l-2.44 2.439 2.091 2.092 2.527-2.092c.872-.871.436-1.22 0-1.742l.436-.349 2.875 3.311h-.435c-.349 0-.872-.348-1.656.436l-5.402 5.054c-.872.871-.872 1.22-.436 1.655v.436l-2.875-3.398c.348 0 1.219.435 1.655 0l2.876-2.876zm6.274 8.801 1.307 1.22 1.656-3.747s-1.307.348-3.399 1.655zl-.436.348-.871-.871c-.348.436-.784.436-1.22.871-1.22.872-.871 1.307-.348 1.743v.349l-2.092-2.092h.349l1.743-.435 8.278-4.531.435.348s-.435.436-4.182 8.801c0 .871-.349 1.22 0 2.091l-3.311-2.875.435-.436c.436.871 1.22.871 1.656 0 0-.436.435-1.307.435-1.743l-1.307-1.22.436-.435zm3.311 8.278.436-.436c.436.436.871.436 1.743 0l5.402-7.058-.436-.436c-.871-.435-2.091-.435-3.311.872v-.436l1.656-2.091 6.274 4.618-2.092 2.44h-.435c1.22-1.22.871-2.876 0-3.311v-.436l-5.403 7.145c-.871.436-.435 1.22 0 1.656h-.435z"/><path fill="#00493D" d="m409.022 373.003-2.091 2.963c-.436.871 0 1.22.436 1.743l-.436.348-3.311-2.527v-.436c.871.436 1.22.436 1.655-.348l4.619-6.274c.348-.871 0-1.307-.436-1.743l.436-.348 3.311 2.44v.435c-.872-.435-1.22-.435-1.743.436l-2.004 2.963 2.527 1.655 2.091-2.962c.349-.872 0-1.22-.436-1.656l.436-.436 3.311 2.527v.436c-.435-.436-1.22-.436-1.742.436l-4.096 6.622c-.871.436-.435.871 0 1.307v.349l-3.747-2.44h.436c.349 0 .871 0 1.22-.436l2.091-3.311zm8.365 11.764.436-.436c.436.436 1.22.436 1.656-.436l3.311-7.058c.435-.871 0-1.307-.436-1.743l7.145 3.399-1.743 3.311-.348-.436c1.22-1.655 0-3.311-.436-3.747-.435 0-.871-.435-1.22-.435-.435 0-.435 0-.871.871-.436.436-1.656 2.876-1.656 2.876.436.435 1.22 1.307 2.963-.872h.349l-2.44 5.054-.436-.348c1.22-2.615-.436-2.963-.871-2.963l-1.656 3.311c-.436.871 0 1.307.436 1.307v.436zm12.112 5.838c-1.22-.872-1.22-3.399 0-5.838.872-2.615 2.527-4.619 4.183-3.834 1.22.435.871 2.962 0 5.489-1.307 2.876-2.963 4.531-4.183 4.183h-.435c2.962 1.22 5.053-.436 6.273-3.399 1.22-2.439.872-5.402-1.742-6.622-2.44-1.307-4.967.349-6.187 3.311-1.22 2.963-.871 5.838 1.743 6.71zm12.896.784 1.743-4.967c.349-.871 0-1.307-.436-1.743l2.092.436v.436c-.436 0-.872 0-1.307.871l-1.656 4.967c-.871 2.091-2.091 3.747-4.531 2.963-1.743-.436-2.963-2.527-2.091-4.619l2.091-5.402c.348-.871 0-1.307-.436-1.743v-.348l3.747 1.655v.436c-.436-.436-1.22-.436-1.22.436l-2.178 5.315c-.436 1.655-.436 3.311.871 3.747 1.22.435 2.44-.436 3.224-2.527zm3.834-5.403c0-.435 0-.435-.435-.435l2.875.435 2.614 7.93 1.22-5.054c.349-.871 0-1.22-.436-1.656l2.44.436-.348.436c-.436 0-.872 0-1.307.871l-2.092 9.149h-.348l-3.398-10.02-2.092 6.709c0 1.22.436 1.22.872 1.656v.435l-2.527-.871v-.436c.435.436 1.22 0 1.22-.871l2.091-7.494zm14.203 8.366c-.871 3.746-2.614 4.618-3.398 4.618h-.871s-.349-.436 0-.872l1.307-8.365c.436-.435.436-.871.871-.435h.872c.784 0 1.568 1.742 1.219 5.054l1.22.435c.872-4.182-.871-5.925-2.962-6.274-1.656-.435-4.183-.871-4.183-.871v.436c.436.435 1.307.435.872 1.742l-1.22 7.407q-.654 1.307-1.307 1.307h-.349l4.095.871c2.092.349 4.183 0 5.054-4.618zm3.747-3.399c0-.871-.871-1.22-1.307-1.22v-.435l7.581.871-.436 3.311c0-2.091-1.307-2.875-2.091-2.875-.436-.436-.871-.436-1.307-.436-.348 0-.348 0-.348 1.22l-.436 3.398c.436 0 1.655.349 2.527-2.091l-.436 5.402h-.436c0-2.527-1.219-2.527-1.742-2.527l-.349 3.747c0 .872 0 .872.436.872l.871.435c1.22 0 2.44-.435 3.311-2.962h.436l-.871 3.311-7.93-.871c.872 0 1.22-.349 1.743-1.133zm13.768 5.054c0 3.747-1.307 4.967-2.527 4.967-.436-.349-.436-.349-.871-.349l-.349-.435.436-8.714c0-.523 0-.523.348-.523h.872c.871 0 2.091 1.307 2.091 5.054h1.655c0-4.182-2.091-5.402-4.182-5.402-1.743-.436-4.183-.436-4.183-.436v.436c.436 0 1.307.348 1.307 1.22l-.435 7.929c0 .871-.436 1.22-.872 1.22v.436h3.747c2.091 0 4.183-.872 4.618-5.403h-1.742zm12.112 3.311c0 .872.435.872 1.22.872v.435l-4.619.349c.436-.349 1.307-.871 1.307-1.656l-.871-7.842c-.436-.871-.871-.871-1.655-.871v-.436l4.618-.436c-.436.436-1.307.872-.872 1.743zm4.182.872v-.436c.436 0 .872-.436.872-1.22l-1.743-8.714h-.436c-.871.349-1.655 1.133-1.22 2.876h-.435l-.436-2.963 7.581-1.22.348 2.876h-.348c0-1.656-1.307-2.091-2.614-2.091h-.349l1.743 8.713c0 .872.348 1.307 1.22 1.307v.436zm17.95-8.365-1.742-4.967c0-.872-.785-.872-1.22-.872v-.435l2.091-.872v.436c-.436.436-.436.436-.436 1.307l1.743 5.403c.349 1.742.349 4.182-2.091 5.053-1.743.349-3.747-.435-4.183-2.962l-1.743-5.403c-.348-.871-.784-.871-1.219-.871l-.436-.436 4.182-1.22v.436c-.348.436-.871.872-.348 1.656l1.22 5.402c.435 1.743 1.742 2.527 2.875 2.527 1.307-.436 1.743-2.091 1.307-4.182m4.618-2.963c2.005-.871 1.656-2.004 1.22-3.311-.435-1.22-1.22-2.091-2.091-1.656-.436 0-.871.436-.436.872zl.349.436.871 3.398c.436.871 1.22.871 1.743.348v.436l-3.834 1.743-.436-.436c.872-.435.872-.871.872-1.743l-2.963-7.058c-.436-1.219-.871-.871-1.655-.871v-.348l4.182-1.743c1.743-.349 3.311 0 4.183 1.743.435 2.091-.436 3.311-2.092 4.182-.435 0-.871.349-.871.349zM527.179 390.082c-1.22.523-2.876-1.22-4.183-4.095-1.22-2.527-1.22-5.054 0-5.403 1.307-.436 2.963 1.22 4.183 3.747 1.307 2.527 1.307 4.967 0 5.838 2.614-.871 3.398-3.747 2.091-6.709-1.22-2.527-3.747-4.183-6.274-3.312a4.88 4.88 0 0 0-2.668 4.849c.065.653.261 1.286.577 1.861 1.307 2.875 3.834 4.531 6.274 3.311zm.435-11.589h-.784l2.44-1.743 7.581 4.183-2.614-4.531c-.349-.872-1.22-.872-1.569-.872v-.435l2.091-.872c-.435.523-.871.872 0 1.743l4.183 8.365-.436.436-9.236-5.054 3.398 6.274c.349.871 1.22.871 1.656.435v.436l-2.091 1.22v-.436c.435-.436.435-.871 0-1.655l-3.312-6.71-1.307-.871zm18.822 1.22v-.436c0-.436.435-.871 0-1.656l-5.054-7.058h-.436c-.871.349-1.22 2.092 0 3.312l-.348.435-1.743-2.962 6.274-4.183 1.742 2.614c-1.307-1.307-2.614-1.307-3.398-.871l-.436.348 5.054 7.146c.436.871 1.22.871 1.743.435v.349zM551.054 369.692l2.44 2.963c.435.348 1.307.348 1.742 0v.348l-3.398 2.963v-.436c.436-.435.436-.871 0-1.655l-4.967-6.274c-.435-.872-.871-.436-1.742-.436l3.398-2.875v.435c0 .349-.436.872 0 1.656l2.091 2.44 2.44-1.656-2.004-2.875c-.436-.872-1.307-.436-1.743-.436l3.399-2.963v.436c-.436.436-.436.871 0 1.743l4.966 6.186q.654.654 1.307 0l.349.436-3.311 2.963-.436-.436c.436-.436.871-.871.436-1.743l-2.527-2.875zm3.747-8.801c-.436-.348-1.307-.348-1.743 0v-.348l5.49-5.054 2.527 2.527h-.436c-1.307-1.743-2.963-.871-3.747-.436 0 .436-.436.436-.871.872 0 0 0 .348.435 1.219l2.527 2.527c.349-.435 1.656-1.307 0-3.398h.349l3.398 3.834v.349c-2.091-2.092-2.963-.872-3.398-.349l2.614 2.44c.348.871.784.871.784.871l1.22-1.22c.436-.435.871-1.742 0-4.182h.436l1.655 2.875-5.402 5.403-.436-.349c.436-.435.872-.871 0-1.743zm10.02-11.676c-.435.436-.435 1.307.349 1.743.871.784 1.743.784 3.398 0 .872-.436 2.44-.872 3.747.348 2.091 2.092 1.22 3.747.871 4.619-.435.435-1.307.871-1.742 1.22-.436 0-.436 0-.436.435v.436l-2.875-2.527h.435c1.656.871 3.311 1.22 4.183 0 .871-.871 0-1.743-.436-2.091-.871-.872-1.743-.872-2.963 0-1.219.435-2.875.435-4.182-.436-1.656-1.656-1.656-2.876-.871-4.183l1.742-1.219c.436 0 .436 0 0-.872l2.963 2.091h-.436c-2.091-.871-3.398-.348-3.747.436m3.747-3.311c-.871-.436-1.307 0-1.743.436h-.348l4.618-6.71 2.876 2.091-.436.436a2.87 2.87 0 0 0-3.747 0c0 .436-.436.871-.436 1.22-.348 0-.348.436.436.871.436.436 2.963 2.092 2.963 2.092.435-.436 1.22-1.307-.436-2.963v-.436l4.183 3.399c-2.527-1.307-2.963 0-3.312.348l2.876 2.091c.871.436 1.22.436 1.22.436 0-.436.435-.871.871-1.22.436-.871.872-2.091-.871-3.747l.435-.435 2.092 2.527-4.183 6.273h-.435c.435-.871.435-1.307-.349-2.091zm11.241-7.494-1.22 2.092c-1.743-1.743-2.527-2.963-2.527-2.963zh.871c.436 0 1.22.349 1.656.349 1.22.435.871.871.435 1.743h.436l2.091-3.834c-.871.871-1.307.435-2.091.435-8.801-1.655-9.585-2.091-9.585-2.091v.436l6.622 7.493c.436.436.436 1.307.436 1.743h.436l1.22-2.091-.436-.436c-.436.871-.871 1.22-1.656 0l-.871-.871 1.307-2.876zm-2.527-9.236c-.349.436-.349 1.307.871 1.743 1.22.348 1.743 0 2.963-.872 1.22-.871 2.44-1.743 4.095-.871 2.614 1.307 2.091 3.398 1.743 4.182l-1.307 1.743v.784l-3.311-1.742c2.091.435 3.747 0 4.182-1.22.436-.872-.435-1.656-.871-2.092-.872-.348-1.656 0-2.876.872-1.307 1.22-2.614 1.743-4.182.871-1.743-.871-2.527-2.091-1.743-3.398 0-.872.871-1.22 1.307-1.656 0-.435 0-.435-.436-.871v-.349l3.399 1.656h-.436c-2.091-.436-3.398.436-3.398 1.22"/><path fill="#fff" stroke="#000" stroke-width="1.22" d="M445.358 181.391c-5.403 1.22-9.149 1.656-14.203-2.962-3.311-3.312-2.527-9.15.871-11.328 3.747-2.44 7.058-4.095 11.676-2.876 4.619 1.308 16.73 12.548 13.768 12.984-2.963 0-7.494 2.875-12.112 4.182Zm12.896-20.041c1.743-1.307 3.834-2.091 9.236-2.614 5.054-.349 8.714-.349 10.021 3.485 1.743 4.531 2.963 9.934 6.274 12.461-2.091 1.22-12.548 2.527-16.295.435-4.966-2.526-6.273-12.199-9.149-13.767zm35.987.436c1.656-1.307 3.747-1.307 9.149-.872 5.403.436 7.494.872 8.714 4.619 1.307 4.182 0 9.584 2.614 13.331-2.614.872-10.892.872-13.854-2.091-4.531-3.311-4.183-12.983-6.623-15.074z"/><path fill="#073163" stroke="#000" stroke-width="1.22" d="M519.249 164.225c-3.747-.871-6.274-1.219-7.842 0 2.004 2.527.349 12.548 4.531 15.859 2.876 2.091 10.456 2.614 12.112-2.091 2.091-4.183 2.091-10.456-8.714-13.768zm-42.958-4.182c1.22-1.22 3.747-1.656 8.714-1.656 5.489 0 8.713.872 10.456 4.183 1.743 4.182 1.22 9.585 4.183 12.983-1.22 1.656-12.548 1.656-15.859-.871-4.618-2.963-5.054-12.548-7.494-14.639Zm-35.464 3.747c0-2.092 2.875-2.44 10.456-2.876 7.407-.871 7.842-.435 10.369 4.967 1.22 2.963 2.876 7.929 6.274 9.585-9.236 2.178-12.199 3.398-17.166.436a25.45 25.45 0 0 1-8.713-9.15c-.436-1.22-.436-2.527-1.307-2.962z"/><path fill="#F9D050" d="M460.868 121.267c-8.801-6.709-19.257-12.983-28.842-14.203a244 244 0 0 1 28.406 22.133"/><path stroke="#000" stroke-width=".523" d="M460.868 121.267c-8.801-6.709-19.257-12.983-28.842-14.203a244 244 0 0 1 28.406 22.133"/><path fill="#F9D050" d="M465.835 114.994c-10.456-7.146-22.568-15.075-34.244-15.86a108 108 0 0 1 28.754 24.225m18.822-20.042a81 81 0 0 1 20.477-28.057c-4.183 8.8-8.714 26.75-10.892 33.895"/><path stroke="#000" stroke-width=".523" d="M465.835 114.994c-10.456-7.146-22.568-15.075-34.244-15.86a108 108 0 0 1 28.754 24.225m18.822-20.042a81 81 0 0 1 20.477-28.057c-4.183 8.8-8.714 26.75-10.892 33.895"/><path fill="#F9D050" d="M488.403 101.226a42.18 42.18 0 0 1 21.261-22.22 88.2 88.2 0 0 0-15.858 30.498"/><path stroke="#000" stroke-width=".523" d="M488.403 101.226a42.18 42.18 0 0 1 21.261-22.22 88.2 88.2 0 0 0-15.858 30.498"/><path fill="#F9D050" d="M492.15 109.504a73.63 73.63 0 0 1 32.937-27.535c-10.456 10.456-25.879 29.626-29.626 37.207m2.527-.436c7.494-4.182 22.568-10.892 33.373-8.713-6.622 2.44-26.663 11.589-35.464 20.041"/><path stroke="#000" stroke-width=".523" d="M492.15 109.504a73.63 73.63 0 0 1 32.937-27.535c-10.456 10.456-25.879 29.626-29.626 37.207m2.527-.436c7.494-4.182 22.568-10.892 33.373-8.713-6.622 2.44-26.663 11.589-35.464 20.041"/><path fill="#F9D050" d="M496.332 115.778c7.059-7.494 20.042-18.735 33.809-23.353-10.02 9.585-31.369 31.369-34.244 34.68m-19.606-15.858c-5.054-15.51-12.547-30.062-23.788-34.68a114.1 114.1 0 0 1 18.299 42.609m-4.183-8.365c-8.278-10.021-19.606-20.041-32.502-22.133a78.5 78.5 0 0 1 28.755 33.809"/><path stroke="#000" stroke-width=".523" d="M496.332 115.778c7.059-7.494 20.042-18.735 33.809-23.353-10.02 9.585-31.369 31.369-34.244 34.68m-19.606-15.858c-5.054-15.51-12.547-30.062-23.788-34.68a114.1 114.1 0 0 1 18.299 42.609m-4.183-8.365c-8.278-10.021-19.606-20.041-32.502-22.133a78.5 78.5 0 0 1 28.755 33.809"/><path fill="#F9D050" d="M471.324 110.375c-10.456-18.821-18.472-22.132-23.003-25.879 3.746 7.058 12.896 25.879 18.298 33.809"/><path stroke="#000" stroke-width=".523" d="M471.324 110.375c-10.456-18.821-18.472-22.132-23.003-25.879 3.746 7.058 12.896 25.879 18.298 33.809M450.412 109.155a50.3 50.3 0 0 1 14.987 14.552"/><path fill="#F9D050" d="M450.412 117.869c2.44 2.091 7.058 4.618 11.24 8.365Zm49.667 6.274c4.183-3.311 13.332-8.714 17.95-10.456Zm-2.962-2.876c4.182-5.489 12.547-12.983 15.51-15.51Zm11.676-25.966a250 250 0 0 0-15.859 19.693Zm-10.805-3.747a137 137 0 0 0-10.456 18.386Zm-33.024.871c2.527 6.71 7.145 17.95 8.713 22.569Zm-3.747 7.058c1.742 2.614 5.054 8.365 6.274 12.548Z"/><path stroke="#000" stroke-width=".523" d="M450.412 117.869c2.44 2.091 7.058 4.618 11.24 8.365m38.427-2.091c4.183-3.311 13.332-8.714 17.95-10.456m-20.912 7.58c4.182-5.489 12.547-12.983 15.51-15.51m-3.834-10.456a250 250 0 0 0-15.859 19.693m5.054-23.44a137 137 0 0 0-10.456 18.386m-22.568-17.515c2.527 6.71 7.145 17.95 8.713 22.569m-12.46-15.51c1.742 2.613 5.054 8.364 6.274 12.547"/><path fill="#F9D050" stroke="#000" stroke-width=".523" d="M475.42 97.392c0-3.747 2.527-7.842 5.054-7.842 2.875 0 4.967 4.967 4.967 7.842 0 3.398-2.527 6.274-4.967 6.274-2.614 0-5.054-2.44-5.054-6.274Z"/><path fill="#F9D050" stroke="#000" stroke-width=".523" d="M470.017 100.79c.436-4.182 3.312-7.493 5.839-7.145 2.526.436 3.746 5.49 3.311 8.365-.436 3.312-3.311 5.838-5.403 5.403-2.091 0-4.182-2.876-3.747-6.623Zm11.241 1.22c-.871-3.747.871-7.842 3.398-8.365 2.44-.348 4.967 3.747 5.403 7.145.871 3.312-1.307 6.623-3.399 6.623-2.004.435-4.966-1.656-5.402-5.403Z"/><path fill="#F9D050" stroke="#000" stroke-width=".523" d="M474.984 105.321c0-4.095 2.527-7.842 5.054-7.842 2.876 0 4.967 4.531 4.967 7.842 0 3.399-2.44 6.274-4.967 6.274s-5.054-2.44-5.054-6.274Z"/><path fill="#F9D050" stroke="#000" stroke-width=".523" d="M467.49 107.413c0-3.747 2.963-7.843 5.403-7.843 2.614 0 5.054 4.967 5.054 7.843 0 3.398-2.963 6.274-5.054 6.274-2.44 0-5.403-2.44-5.403-6.274Zm15.424-1.656c0-3.747 2.614-7.842 5.053-7.842 2.876 0 4.967 4.967 4.967 7.842 0 3.398-2.44 6.274-4.967 6.274s-5.053-2.527-5.053-6.274Z"/><path fill="#F9D050" stroke="#000" stroke-width=".523" d="M481.258 109.155c0-4.182 2.963-7.929 5.402-7.929 2.614 0 5.054 4.531 5.054 7.842 0 3.399-2.527 6.361-5.054 6.361-2.439 0-5.402-2.614-5.402-6.274Z"/><path fill="#F9D050" stroke="#000" stroke-width=".523" d="M474.636 112.902c0-4.182 2.439-7.929 4.966-7.929 2.963 0 5.054 4.967 5.054 7.842 0 3.486-2.614 6.361-5.054 6.361-2.527 0-5.053-2.614-5.053-6.274zm-10.457 0c0-4.182 2.092-7.929 4.183-7.929s3.747 4.967 3.747 7.842c0 3.486-2.092 6.361-3.747 6.361-2.091 0-4.183-2.614-4.183-6.274Zm23.353-.784c0-3.834 2.091-7.581 4.182-7.581s4.183 4.618 4.183 7.494c0 3.747-2.527 6.274-4.183 6.274-2.091 0-4.182-2.527-4.182-6.274z"/><path fill="#F9D050" stroke="#000" stroke-width=".523" d="M490.059 119.089c.871-4.095 3.311-7.494 4.966-6.971 1.743.349 2.092 5.315 1.308 8.278-.436 3.747-2.963 5.838-4.619 5.402-1.742-.348-2.527-3.311-1.742-6.622z"/><path fill="#F9D050" stroke="#000" stroke-width=".523" d="M482.129 117.869c.436-3.747 2.876-7.494 4.967-7.058 2.527 0 3.747 4.967 3.398 7.842-.435 3.834-2.614 6.361-4.618 5.926-2.091 0-4.182-2.963-3.747-6.71Zm-11.676 1.22c-1.307-4.095-3.834-6.971-5.489-6.622-1.656.435-2.092 5.402-1.22 8.365.871 3.311 3.311 5.402 4.966 4.966 1.307-.348 2.614-3.311 1.743-6.622z"/><path fill="#F9D050" stroke="#000" stroke-width=".523" d="M467.49 118.305c0-3.747 2.092-7.494 4.183-7.494 2.527 0 4.183 4.618 4.183 7.494 0 3.747-2.092 6.274-4.183 6.274-1.743 0-4.183-2.527-4.183-6.274Z"/><path fill="#F9D050" stroke="#000" stroke-width=".523" d="M473.764 119.96c0-4.182 2.527-7.842 4.967-7.842 2.963 0 5.054 4.531 5.054 7.842 0 3.399-2.527 6.274-5.054 6.274-2.44 0-4.967-2.527-4.967-6.274Zm2.092-45.92c-.872 3.31-3.747 6.273-1.743 10.892-3.66-1.307-6.971-1.743-9.934 1.655 3.747-.435 7.058.872 8.714 3.311-3.311-.435-4.967 1.308-5.838 3.399 2.962-.872 5.838-1.743 7.145-1.307-1.307 1.307-3.398 3.31-3.747 5.054 2.44-2.092 5.403-1.743 7.058-2.963-1.22 2.963 1.22 5.838 3.311 8.714-.348-4.096 2.092-6.971.872-9.15 3.747.872 4.182 4.183 9.585 4.183-2.092-1.22-3.312-5.403-5.838-5.403 1.219-.435 6.273-.871 7.145 0-.872-1.742-3.834-3.31-5.49-3.31 1.743-1.743 4.618-5.055 6.71-5.926-2.963.436-7.494.871-9.15 3.398 4.096-3.398 3.311-9.585 7.843-10.456-2.44-.436-6.187 1.22-9.15 4.183 1.307-2.527 1.307-5.839 2.963-6.71-3.398.871-7.145 5.054-8.365 7.145a15.7 15.7 0 0 0-2.091-6.71Z"/><path fill="#F9D050" d="M477.947 80.75c0 1.22 0 3.746-.436 4.53Zm5.402-.436c-.871.87-2.527 3.746-2.527 6.273Z"/><path stroke="#000" stroke-width=".523" d="M477.947 80.75c0 1.22 0 3.746-.436 4.53m5.838-4.966c-.871.87-2.527 3.746-2.527 6.273M485.876 85.28a6.62 6.62 0 0 0-2.962 3.834"/><path fill="#059334" stroke="#000" stroke-width="1.22" d="M441.611 126.67c-2.963 0-5.402-1.22-7.145-3.311-2.876-3.834-10.805-5.49-14.203-2.092-1.22.872-2.876.872-4.096 1.22-2.091 0-4.618 2.092-3.834 6.274 1.743-1.307 2.092 0 3.399 0 .871-.436.435.436.435 1.22 0 2.091 4.531 6.274 8.714 5.838 4.618 0 6.709 1.743 7.494 2.614 1.307 1.133.435.784 1.307 2.876 1.22 1.22 1.655 1.655-.436 3.311a8.45 8.45 0 0 0 0 12.983c5.402 4.096 19.17 10.456 34.68-1.743 14.988-11.676 38.34-4.966 40.083-.871 2.091 4.27 2.875 6.71 3.311 8.801.436 1.743 2.527 3.398 5.489 2.962 2.876 0 6.187 1.22 7.843 2.527 2.178 1.22 5.054.872 4.269-2.962-1.742-11.676-8.8-13.332-9.585-18.734 4.096.348 6.971.348 8.714-1.308 1.22-1.655 2.876-4.618 4.618-5.402 1.22-.871 1.22-1.743-.435-1.307-2.092.436-3.312 1.307-7.146.871-19.17-2.091-73.02-16.73-83.476-13.767Z"/><path fill="#000" stroke="#000" stroke-width="1.22" d="M526.83 140.873a30.3 30.3 0 0 0-8.016 8.365c-4.096 5.402-16.643 10.805-32.154 10.805-14.987 0-24.136-2.44-30.846-7.842a52.8 52.8 0 0 0-9.236-5.926c-4.531-2.091-5.403-6.709-4.183-10.456-1.22 2.091-2.004 4.183-4.531 3.747-1.742 0-5.054 0-4.182 1.743-.436-.872-.436-2.092-.872-2.614l-.871-.785c1.307.872 4.27-1.655 6.361-1.655 1.656.435 3.747-1.656 3.311-4.183l-1.22-5.402c3.311-1.743 47.141 6.274 55.942 7.058 8.713.435 33.808 4.182 30.497 7.145Z"/><path fill="#059334" stroke="#000" stroke-width="1.22" d="M447.449 125.014c4.183-4.182 9.149-6.274 14.203-5.054h1.22c2.614-2.091 8.365-2.527 11.764-.871h1.655c4.967-1.656 14.552 0 17.95 3.398l1.22.872c11.328-.872 17.95 4.095 25.88 12.112.871.871 2.091 2.439 4.182 2.875 2.527.436 2.963 1.743.871 2.963a32.9 32.9 0 0 0-8.713 7.842c-3.834 5.054-15.946 10.108-31.021 10.108-14.551 0-23.352-2.614-30.062-7.581-3.746-2.876-6.622-4.531-8.713-5.838-2.527-.872-5.838-4.183-4.618-7.494.871-3.311-1.22-7.494-2.876-11.676 1.22-.872 4.531-2.091 6.187-1.22z"/><path fill="#00493D" stroke="#000" stroke-width="1.22" d="M521.341 135.471c-7.843-8.017-14.552-12.984-25.88-12.199 0 .435 0 1.742-.435 2.614a57.76 57.76 0 0 1 20.476 15.423c1.743-1.743 4.619-3.747 5.839-5.838Zm-27.1-12.984c-3.398-3.311-12.983-5.054-17.95-3.311 0 1.656 0 4.183-.871 5.838 2.963 1.22 5.402 4.183 7.929 7.058 1.743-.435 5.838-1.655 7.93-2.091a38.3 38.3 0 0 0 2.962-7.494Zm-19.605-3.398c-3.399-1.656-9.237-1.22-11.764.871-.871 1.743-1.22 5.054-1.22 6.71 1.743 0 4.183 1.22 4.967 2.091 2.614-.871 5.925-2.527 7.145-3.747.436-1.742 1.22-4.182.872-5.838zm-27.187 5.925c4.183-4.182 9.15-6.274 14.203-5.054-.871 1.307-1.219 3.747-1.219 6.274-4.619-.436-10.457.872-12.984 2.527z"/><path fill="#00493D" stroke="#000" stroke-width="1.22" d="M513.847 142.093a55.95 55.95 0 0 0-19.17-14.639c0 .436-.871 2.091-1.307 3.398 2.527 3.747 7.494 12.112 9.585 16.73 2.091-.871 7.929-3.398 10.892-5.489Zm-31.718 9.236a156 156 0 0 0 1.22-17.166c2.091-.435 6.274-1.655 7.93-2.091 2.091 3.399 7.145 12.199 9.236 16.295-5.054 1.22-13.419 3.311-18.386 2.962Zm-14.639-20.041c2.092-.871 5.054-2.614 7.059-4.183 1.742 1.22 5.053 4.183 6.273 5.839 0 3.746-1.22 14.638-1.655 18.298-3.311 0-8.714-.784-11.677-2.44.436-6.273.872-13.331 0-17.514Zm-20.912 4.967c.435-.872.871-3.747.871-4.967 3.311-2.091 11.676-4.183 17.95-.871.436 4.182 0 14.638-.435 17.165a84 84 0 0 0-18.299-11.327z"/><path fill="#000" d="M425.752 128.674c-.871 0-1.307-2.44-2.962-2.44-.436 0-1.656.436-2.092 0 0 .871.436 1.743.872 2.091.436 1.22 2.527.436 4.182.436z"/><path stroke="#000" stroke-width="1.22" d="M425.752 135.819c4.967 0 5.838-6.274 8.365-6.622m-5.489 7.058c3.747 1.742 6.709-7.058 9.585-6.71m-17.079-4.095c1.22 0 2.091-1.743 4.183.348.871.872 2.091 1.307 2.962 1.307m-.871 4.532c-1.743 2.614-4.618 4.182-6.274 3.398m-.871-13.768c-1.22.872-2.004 2.44-2.876 3.747m-1.22 2.44v2.091"/><path fill="#fff" d="M555.585 181.827v81.385c0 70.58-33.373 94.804-78.074 113.974-44.701-19.17-78.422-43.394-78.422-113.974V181.74h156.496z"/><path fill="#C8102E" d="M477.511 250.664c3.747 0 9.585-3.311 14.639-8.365 5.402-5.838 14.639-7.842 24.224 0 9.585 7.93 15.423 4.618 20.477 0 4.967-4.531 9.149-6.273 18.734-6.273v-54.199H399.002v54.286c9.585 0 13.767 1.742 18.821 6.273 4.967 4.619 10.805 7.93 20.477 0 10.021-7.842 18.734-5.838 24.572 0 4.618 5.054 10.457 8.365 14.639 8.365z"/><path fill="#0B50A0" d="M477.511 292.49c5.054 0 15.075-5.49 17.514-6.71 9.237-5.489 15.859-.436 21.349 2.091 5.838 2.44 16.643 5.403 23.352 0 6.71-5.489 10.457-5.053 15.075-5.053.871-6.274.871-12.548.871-19.606v-5.054c-5.925-1.22-8.801.436-15.074 5.925-6.274 5.403-13.419 4.183-22.656.872-8.713-3.834-17.427-10.457-26.228 0a21.1 21.1 0 0 1-14.203 6.971c-6.274 0-11.676-4.096-14.203-6.971-9.149-10.457-17.514-3.834-26.315 0-9.149 3.311-16.73 4.531-22.917-.872-5.838-5.489-8.801-7.145-15.074-5.925v5.054c0 7.058.435 13.332 1.22 19.606 4.618 0 8.016-.436 14.638 5.053 6.71 5.403 17.95 2.44 23.44 0 5.838-2.527 12.46-7.58 21.697-2.091 2.527 1.22 12.112 6.622 17.514 6.622zm0 17.95a44.45 44.45 0 0 0 20.477-6.274c8.365-4.618 14.203-2.614 22.568 1.655 8.714 4.183 15.859 2.876 20.913 0 2.44-1.742 4.531-5.053 9.933-3.746-2.439 10.456-6.273 19.605-10.804 27.099a28.33 28.33 0 0 1-21.784-1.656c-8.714-4.182-19.606-6.709-25.444-2.962a31.37 31.37 0 0 1-15.859 5.054c-4.618 0-10.456-1.743-15.859-5.054-5.838-3.747-16.73-1.22-25.443 2.962a28.32 28.32 0 0 1-21.784 1.743c-4.531-7.581-8.278-16.817-10.805-27.186 5.402-1.307 7.493 2.091 10.02 3.746a20.83 20.83 0 0 0 20.477 0c8.714-4.182 14.552-6.273 22.917-1.742a44.45 44.45 0 0 0 20.477 6.361m0 66.746a167.2 167.2 0 0 0 44.701-25.88c-3.398-1.22-5.403-.435-8.365-2.527s-11.676-2.875-19.17 1.308a33.99 33.99 0 0 1-34.245 0c-7.58-4.183-16.294-3.399-19.169-1.308-2.963 2.092-5.054 1.308-8.453 2.615a161 161 0 0 0 44.701 25.792"/><path fill="#F9D050" stroke="#000" stroke-width="1.22" d="M466.619 202.217c.436.871-.348 2.962 0 3.747.871 1.742.871 2.614 2.091 3.398h2.963c9.149 0 20.041-3.747 29.191-3.747 8.8 0 14.203 2.876 19.169 2.876 2.963 0 5.49-2.092 5.49-4.183s-3.311-3.311-10.456-3.311c-10.021 0-15.423 2.527-23.788 2.527-12.548 0-14.639-4.618-14.639-6.71s2.091-4.966 8.8-4.966c2.092 0 3.747-.436 4.619-1.307.435-.872 1.655-2.527 4.182-3.747 2.876-1.743 8.714 0 11.676-2.092 0 1.743-2.526 4.183-4.618 5.054 4.183-1.307 8.714-1.307 9.585 2.092-2.091-1.307-5.402-.436-6.622 0-1.743.348-2.527.871-4.183 1.219 1.656-.435 2.527 2.876 4.967 2.876-2.44 2.091-6.622 2.091-10.805.436-1.307-.436-4.618-1.656-6.709-1.656-4.183 0-6.71.871-6.71 2.527 0 2.091 2.614 3.311 10.021 3.311 7.581 0 11.763-2.091 23.004-2.091-.872-1.22.436-2.527-1.22-3.747 4.182 0 8.714 1.22 10.456 4.183-.435-2.963 2.004-5.403 1.22-7.93 2.527.436 4.618 2.876 4.967 4.967 0-1.22 1.743-1.22 1.743-2.44a6.45 6.45 0 0 1 3.311 6.622c1.22-2.091 2.527-1.219 3.311-3.746.871 1.742.436 6.709-2.527 8.365 2.614-1.743 6.274-1.743 8.801 1.22-2.527-.349-3.747.871-4.967 1.307a38.7 38.7 0 0 1-19.693 4.182c-6.622-.436-7.493-1.743-11.676-1.743 2.527.436 7.494 5.49 12.199 5.49 2.876 0 4.967 0 6.187-.436 1.22-.435 3.311 0 4.966.872 1.308 1.22 3.834 2.439 5.49 2.091-.436 1.656-1.307 2.44-2.527 2.875 2.091 1.307.871 2.092 2.963 3.747-.872 0-1.743.872-2.963.436 1.22 1.22 1.22 2.963 2.527 3.747-.436 0-1.743.435-2.527 0 1.22 1.743 0 3.747 1.22 4.618 1.307 1.743-1.22 3.747-3.311 2.091.436 1.22-.872 2.527-2.091 2.092s-2.092-1.743-1.743-2.092c0-.435 0-.435.523-.871-.872 1.307-2.527 1.307-3.399.871-.348-.435-.871-.871-.871-1.22-2.875.872-4.095-1.742-3.66-2.962.349-1.22 2.876-1.743 3.747-1.22.871.348 1.656.871 2.527 0 .871-.436 1.22-1.307 1.22-2.091 0-1.307-1.22-5.054-6.709-4.619-6.274.436-16.295-1.22-21.262-2.962-.435-.349-.871-.349-1.307-.872 0 1.743-1.655 2.614-1.655 4.27 0 2.091.871 3.747 3.398 4.531-1.307 2.091-3.398 1.743-4.183.436 0 1.307-1.742 2.091-1.742 3.747-.349-.872-.872-1.22-1.22-2.092-1.22 2.963-4.618 4.619-6.274 3.834-2.091 1.656-4.531 1.22-5.402-.435-1.22.871-2.963.871-3.747 0 0 1.22-.872.871-1.307 2.527 0 .871-1.656 1.22-2.44.871-.871-.523-1.307-2.178-.436-2.963-1.22.872-2.527.872-3.311 0 0-.871 0-2.091.871-2.614h.785c-.872-.348-2.092 0-2.963-.348-.871-.872-.871-1.743-.436-2.527.436-.436 1.743-1.22 2.614-.436l.349.436c0-.872.436-1.656.871-1.656.872-.435 2.004-.435 3.312.872.871 1.219 1.655 1.219 4.182.871 2.091 0 5.402-2.178 7.842-4.27-6.971-1.22-2.875-5.838-.784-7.493-1.656-.436-4.182-.436-5.838.435-8.714 4.618-17.95 10.021-23.788 8.365a5.2 5.2 0 0 0 .871 2.44c-1.307 0-3.834 0-4.618-1.22-.436.872-1.22 2.963-.436 4.618-.871-.871-3.311-1.742-4.618-2.091.871.872 0 2.527.436 3.747-1.22-1.22-3.311-2.091-4.183-1.22s-2.527 1.22-3.747.871a6.53 6.53 0 0 1-3.311 2.44c0-.871 0-2.091-.435-2.527-.436 1.307-1.743 2.963-3.312 3.747 0-.871 0-2.091-.435-2.875 0 1.655-3.311 2.527-3.747 3.747.436-1.22.436-2.527.436-3.312a6.36 6.36 0 0 1-4.183 2.876c.349-.871.871-1.743.349-2.527-.349 1.743-2.876 2.614-4.967 2.091 0 .872-1.743 2.091-3.747.872-1.307-.436-2.091-1.743-1.307-2.527-1.656 0-3.311-1.656-2.44-2.876 0-.436.349-.871.349-1.307-1.22-.871-1.656-2.527-.349-3.747.349-.435 1.656-.435 2.44-.435 0-3.312 2.963-3.312 4.182-.872.872 1.307 3.399 3.398 5.49 2.963.871 0 1.22-.436 2.091-.436a37.5 37.5 0 0 0 10.457-5.402c.348-1.22.348-2.092.348-2.876-1.655.872-3.311 1.656-4.182 2.876v-1.22c-1.22 0-3.312-.436-4.183-.436.436-.436.871-2.527 1.743-2.963-2.091.436-4.183 0-5.925-.348.871-.871.871-2.091 1.307-3.398-.872.435-2.963-.349-4.619 0 .436-1.22.872-2.876 2.092-3.312-1.743.436-3.747 0-5.838-.871 1.742 0 2.526-2.091 3.746-2.091-3.311 0-4.182-1.656-5.838-2.44 1.22.349 2.092-.871 3.311-.871-1.219-.436-3.311-2.527-2.439-3.747-.436.436-.872 1.22-1.743 1.743-.871.348-2.44 0-3.747-1.307-.871-1.743-.436-3.747 1.307-4.183a2.004 2.004 0 0 1-1.307-3.398c.436-.872 2.091-2.004 2.963-.872l1.22 1.743c-.436-.871-.436-2.527-.436-3.747.436-1.22 1.307-1.22 2.614-1.743 1.133 0 2.004 1.308 2.004 2.615 0 1.219.436 2.004.871 3.746l.349-1.742c0-1.656 2.091-1.22 3.398-.872 1.22.523 1.656 2.963 0 4.27-.871.871-.435 2.091.436 2.875 2.876 4.619 7.842 8.366 12.112 8.801 0-1.743.871-3.311 2.091-4.618 0-.871.349-2.091.872-2.875.348-2.527 1.568-3.747 3.224-2.963-.349-.436-.872-.871-.872-1.22-1.22-1.307-2.44-3.398-1.568-5.054s3.311-1.22 4.182-.348c-.435-2.615 2.44-4.619 2.44-5.926.436 1.307 1.307 2.963.871 4.183.436-1.656 3.312-3.747 5.403-4.531-.871 1.22 1.743 3.311 1.307 4.531.871-2.091 4.182-3.311 6.622-3.311-.871.871-.871 2.527-.871 3.311 1.307 0 3.485-.349 4.27-1.656 0 1.743-.872 3.399-1.743 4.183.436-.436 2.091-.436 3.398-.436-1.307 1.307-.871 2.614-2.091 3.398 1.655-.871 3.747-.871 4.182.872.872 1.22-.435 3.311-1.307 4.531-.871.436-1.655 1.22-2.091 1.22Z"/><path stroke="#000" stroke-width="1.22" d="M440.827 207.271c-2.963 1.22-3.834 4.182-4.27 5.838"/><path stroke="#000" stroke-width="1.22" d="M440.391 210.146c-4.182 2.614-5.925 4.618-5.054 9.237m7.058 3.398c2.614-.872 4.183-1.743 6.274-5.49"/><path stroke="#000" stroke-width="1.22" d="M447.449 218.947c-.871 1.742 0 4.618-1.22 5.838a7.67 7.67 0 0 0 4.183-5.838"/><path stroke="#000" stroke-width="1.22" d="M448.321 223.565c1.655-.871 4.182-3.398 5.402-6.274-.436 1.22 0 3.311-.871 4.619 2.091-2.092 2.962-3.399 3.398-5.49l.348 1.743c.872-.872 1.743-1.743 1.743-3.399m-.087 1.22v2.092c1.743-1.22 2.178-2.876 2.178-4.967"/><path stroke="#000" stroke-width="1.22" d="M459.997 215.636c2.527-1.743 2.875-4.183 2.875-7.93m0 4.183c1.743-1.307 2.092-2.091 2.092-5.925m-5.403-11.241c-.871 0-1.743.436-1.743 1.743 0 .784-1.22 2.004-1.22 3.311-.348 1.656-1.219 2.091-2.439 1.656-1.307-.872-1.307-.872-1.307-2.092 0-1.742 2.091-2.091 2.091-3.747.436-.871.871-2.091 1.307-2.091-2.091 1.22-5.054.349-5.49-2.091"/><path stroke="#000" stroke-width="1.22" d="M463.308 195.943c-.871.436-1.743-.871-2.876-.349-.435 0-1.742.349-2.091 0"/><path stroke="#000" stroke-width="1.22" d="M457.47 198.034c.436.436 2.527 1.307 4.618.436-1.743.436-2.963-1.656-1.307-2.876m-7.058-1.742c-1.743 0-2.963 1.307-2.527 2.614.436 1.22 2.091 1.22 3.311.348m-3.747 17.95c.436-.435.872-1.22.872-1.742.871 0 1.742-.349 2.091-.785 1.656 0 2.875-1.22 3.311-2.439.872 0 1.307-2.092 1.743-2.963.348.436 1.22 0 1.655-1.743.872.523 2.092 0 2.44-1.22m-17.078-2.875c0 .435-.872 1.22-1.743 1.742.436.785 0 2.876-.784 3.225.435.871 0 2.091-.436 2.962 0 .436.436 1.743.436 2.091m4.182-18.385c-.871 2.091-.435 4.618 1.22 5.054"/><path stroke="#000" stroke-width="1.22" d="M448.321 199.254c-.436 2.178-.436 5.054-.872 6.361-.435.871-1.22 3.747 2.091 4.531 3.747.871 5.839.436 7.93-5.838m6.274 16.294c0 .436-.436 1.307-1.22 1.307m4.095-2.091c0 .872-.871 2.091-1.22 2.44m4.183-3.311c0 .871 0 2.091-.872 2.527m-24.572-28.407c.349 0 .871.872 1.22 1.656-1.22-.871-2.527 1.22-1.743 2.527m-.784 2.875-1.656 1.307m.436 2.44c-.436 0-.871.436-1.22.436m-18.821-7.929c0-.436 0-.436.436-.872m-4.183-.348c-.436 0-.436 0-.871-.436m1.22 6.274h.871m-2.527-2.527a4.36 4.36 0 0 0-2.44-1.22m25.444 16.73c-2.963 2.44-4.183 4.531-4.618 7.494m7.493-5.49a9.6 9.6 0 0 1-3.311 3.834m-12.896 8.714a9.596 9.596 0 0 1-8.365-1.22c-.436-.436-.871-.436-1.307-.872m22.132-3.659c-.348 1.568-.871 3.659-1.655 4.095 3.398-1.743 6.274-4.182 6.709-7.929m-29.277 11.676c1.307-.436 2.614.436 3.398-.436m69.273-13.331c.871.435 2.091.871 2.527 1.219.436-.871 2.091-2.091 3.311-2.439m-35.464 10.02c-.436-1.742.436-3.747 2.962-4.618m-19.257 11.676c.436-.871.436-2.091.872-2.875m-19.257 4.182c-.436.872-1.22 1.656-1.22 2.44m-5.054-1.655s0-.436.436-.436c.871-.349 2.091-1.22 2.527-2.091m53.85-3.312c-.872.436-1.22 0-1.656-.435m1.22 2.527s-.349.435-.871.435m2.962 1.656c-.435.436-.871.871-1.22.871m13.332 0c.871-.435 1.307-1.307 1.743-2.962m-7.145 2.527c1.22-.436 2.091-1.307 3.311-2.527m8.365-.872c0-.871 0-1.655.436-2.439m30.497 6.273c-.871-.871-.871-2.091.436-2.962.871-.436 1.22-.872 2.091-1.22"/><path stroke="#000" stroke-width="1.22" d="M498.772 219.295c-6.622-2.875-6.186-6.622-11.676-6.186m41.39 19.257c.435.348 0 1.655 0 2.004m3.747-2.004c-.436 1.22-.436 1.655-.436 2.875m-31.718-42.174h-3.485m-31.63 14.204c0 .871 1.307 2.527 4.618 2.527-.436 0-.872-.436-.872-.436m-2.091-7.145c-.348.435-.871 0-.871 0-.785-.872.523-2.44 1.742-3.311-1.219.435-2.091.435-2.962.435-.872 2.527-3.311 3.747-4.967 2.091-.436 1.656-2.527 3.747-4.182 3.312-1.743-.872-2.092-2.092-1.743-3.312-2.004 2.44-4.531.872-5.315 0-.436-.871 0-2.962.871-5.489"/><path fill="#000" d="M493.37 218.075c-1.22.872-2.527 0-3.747 1.307-.871.872.436 1.22 1.22 1.22-.349 1.307-.349 1.743 1.743 1.743-.872 1.22 1.655 1.656 1.22 3.311a4.01 4.01 0 0 0 .871-4.182c-.436-1.307-2.614-2.092-1.307-3.399"/><path fill="#073163" d="M455.379 204.744c-1.743-.872-2.092-2.092-1.743-3.311-.349.871-1.133 1.219-2.004 1.219-1.743 3.747-3.747 7.146-6.274 7.146-2.963.348-2.527 3.311-.436 3.311 4.618.871 6.71-.872 10.457-8.365m-41.303-10.021c1.22-1.22.349-2.527-.436-2.875-1.307-.436-3.746 0-5.053 2.004 1.307-.349 2.614-.349 2.962.435.436.872 1.22 1.743 2.527.436m2.091-7.494c2.876 0 3.747.436 4.096 1.656.435.871-.349 2.091-1.22 2.091-1.22 0-2.527-.871-2.091-1.22.435-.871.435-2.091-.872-2.614zm8.278 6.623c2.092.435 2.963-.872 1.743-2.44-.436-1.307-1.743-2.091-3.834-1.743 2.091 1.307 0 3.398 2.091 4.183m-15.423 7.145a3.49 3.49 0 0 0 4.183 1.743c1.22-.523 1.742-1.743 1.22-2.615-.872-1.219-2.092-1.655-2.44 0-.871 1.743-2.091 1.308-2.963.872m6.274 25.444c-.871-1.656-3.311-1.656-5.402 0 .871-.436 2.439 0 2.875.871s1.307.871 1.743.871c.348-.435 1.22-.871.784-1.742m3.311-2.44c0-2.092-2.875-2.614-4.531-1.743.871 0 2.091.871 2.091 1.743.349.871 1.22 1.22 1.656 1.22.871-.436 1.22-.872.871-1.22zm-4.182 7.493c-2.44-.435-3.747 2.527-3.747 4.532.436-1.22 1.743-2.005 2.962-1.656 1.22 0 1.656-.349 1.656-1.22.436-.871 0-1.22-.871-1.743zm.435 7.058c.872.436 1.743-.435 2.092-1.655 0-.871 1.742-.871 2.091-.436.871.436.871 2.091-.436 2.963-.871.435-2.875.871-3.747-.872m58.033-12.547c-.871-.349-2.876-1.22-4.531 0 1.22-.349 2.091.436 2.44 1.307 0 .871 1.307 1.22 1.742.436.349-.436.872-1.307.349-1.743m-3.747 2.962c-1.656-.871-3.747 1.22-4.182 2.963a6.1 6.1 0 0 1 2.962-1.307c.872.436 1.656 0 1.656-.871.435-.349.435-.785-.436-.785m2.178 3.399c-1.307 0-2.962 1.655-2.962 3.311.348-.871 1.22-1.307 2.091-.871.871 0 2.091-.436 2.091-1.22q0-1.307-1.307-1.307zm3.66 3.311c-.871-.436-2.091 0-2.091 1.22s0 2.527-.349 2.962c.872-.871 1.656-1.307 2.44-1.742.436-.349.872-1.656 0-2.44m47.228-3.747c-.871-.871-2.091-.436-2.527.349-.436.871-.871 2.962 0 4.618 0-.871.871-2.091 1.743-2.091 1.22-.436 1.568-2.092.784-2.876m2.527 1.656c-1.743.871-1.743 3.747-.436 5.402 0-.871.436-2.091 1.22-2.527 1.307 0 1.743-1.655 1.307-2.44-.871-.871-1.743-.435-2.091-.435m4.967 1.655c-.872-.435-1.743.436-1.743 1.22-.349 1.307.523 2.963 1.743 3.747 0-.871.435-1.656.871-2.091 1.22-.872.871-2.44-.871-2.876m3.746-.435c-.871 0-1.655 1.22-.871 2.527.436.871 1.307 1.219 2.963.871-.436 0-1.22-1.307-.872-1.743.436-.871 0-1.655-1.22-1.655"/><path fill="#F9D050" d="m417.387 312.879 20.913-64.306 20.913 64.306-54.809-39.646h67.792z"/><path fill="#024919" d="m421.57 307.041 43.394-31.717h-53.415l42.958 31.717-16.207-50.887z"/><path fill="#F9D050" d="m495.897 312.879 20.912-64.306 20.913 64.306-54.808-39.646h67.791z"/><path fill="#024919" d="m500.079 307.041 43.394-31.717h-53.414l42.958 31.717-16.208-50.887z"/><path fill="#F9D050" d="m456.598 358.364 20.913-64.306 20.913 64.306-54.809-39.646h67.792z"/><path fill="#024919" d="m460.781 352.526 43.394-31.717H450.76l42.958 31.717-16.207-50.887z"/><path stroke="#000" stroke-width="1.22" d="M555.585 181.827v81.385c0 70.58-33.373 94.804-78.074 113.974-44.701-19.17-78.422-43.394-78.422-113.974V181.74h156.496z"/></g><defs><clipPath id="a"><path fill="#fff" d="M0 0h640v480H0z"/></clipPath></defs></svg>