<svg width="640" height="480" viewBox="0 0 640 480" fill="none" xmlns="http://www.w3.org/2000/svg">
  <g clip-path="url(#clip0_6_2734)">
    <path d="M0 0H640V480H0V0Z" fill="#FFB700"/>
    <path d="M26.7 240L114.7 26.7H202.7V453.3H114.7L26.7 240Z" fill="#FF5B00"/>
    <path d="M26.7 26.7H114.7V453.3H26.7V26.7Z" fill="#005641"/>
    <path d="M229.3 26.7H616V453.3H229.3V26.7Z" fill="#8D2029"/>
    <path d="M579.3 408.6C579.3 408.6 582.9 415.9 586.9 419C592.9 423.4 604.9 423 610.2 428.3C616.3 434.4 609.7 442.5 609.7 443.3L610.1 447.5C610.1 447.5 605.9 447.5 604.1 447.8C601.5 448.2 600.5 450.4 595.5 450.1C583.2 449.3 583.7 438.1 583 428.6C582.4 425 581 420.2 580.1 416.6C579.4 413.6 579.3 408.6 579.3 408.6Z" fill="#FFB700" stroke="black" stroke-width="1.1"/>
    <path d="M266 408.6C266 408.6 262.4 415.9 258.4 419C252.4 423.4 240.4 423 235.1 428.3C229 434.4 235.6 442.5 235.6 443.3L235.2 447.5C235.2 447.5 239.4 447.5 241.2 447.8C243.8 448.2 244.8 450.4 249.8 450.1C262.1 449.3 261.6 438.1 262.3 428.6C262.9 425 264.3 420.2 265.2 416.6C265.9 413.6 266 408.6 266 408.6Z" fill="#FFB700" stroke="black" stroke-width="1.1"/>
    <path d="M579.3 71.4C579.3 71.4 582.9 64.1 586.9 61C592.9 56.6 604.9 57 610.2 51.7C616.3 45.6 609.7 37.5 609.7 36.7L610.1 32.5C610.1 32.5 605.9 32.5 604.1 32.2C601.5 31.8 600.5 29.6 595.5 29.9C583.2 30.7 583.7 41.9 583 51.4C582.4 55 581 59.8 580.1 63.4C579.4 66.4 579.3 71.4 579.3 71.4Z" fill="#FFB700" stroke="black" stroke-width="1.1"/>
    <path d="M266.1 71.4C266.1 71.4 262.5 64.1 258.5 61C252.5 56.6 240.5 57 235.2 51.7C229.1 45.6 235.7 37.5 235.7 36.7L235.3 32.5C235.3 32.5 239.5 32.5 241.3 32.2C243.9 31.8 244.9 29.6 249.9 29.9C262.2 30.7 261.7 41.9 262.4 51.4C263 55 264.4 59.8 265.3 63.4C266 66.4 266.1 71.4 266.1 71.4Z" fill="#FFB700" stroke="black" stroke-width="1.1"/>
    <path d="M363.5 339.8L365.8 338.4L366.8 339.8C368.1 341.6 371.8 341.5 374.2 339.8L376.1 338.3L377.7 339.7C379.7 341.6 383.5 341.6 386 339.7C387.7 338.5 388 338.4 389 339.4C389.7 340 391.7 340.6 393.4 340.9C396.6 341.3 396.6 341.3 398.4 338.5C400 336.2 400.2 335.3 399.9 333C399.621 331.243 399.421 329.475 399.3 327.7C399.1 325.1 399.2 325.1 402.9 323.7C404.737 323.137 406.539 322.469 408.3 321.7C409.8 320.8 414 315.9 414 314.9C414 314.7 412.4 314.3 410.4 314.1C402.4 313.1 401.1 308.9 406.3 301.1C414.6 288.1 419.7 275.6 419.7 267.7C419.7 264.1 420 262.9 420.4 263.7C422.3 266.8 418.9 280.1 413.9 289.7L411.9 293.5L413.8 293.1C414.8 292.8 421.2 290.1 427.8 287.1C446 278.9 452.2 277.3 464 277.8C473.9 278.2 478 280.1 485 287.4C488.7 291.4 492.3 294.1 498.8 298.2C512.6 306.8 513.2 307.6 513.9 317.8C514.6 328.1 514.2 328.7 506.4 330.4C499.7 331.9 495.5 335 494.4 339.4C493.8 341.6 495.1 341.7 498.4 339.5L500.9 337.9L502 339.5C503.5 341.6 506.5 341.6 509 339.5L511 338L513 339.5C516 342 520 341.4 521.2 338.3C521.4 337.8 522 337.9 523.2 339C525.5 341 531.2 341.8 531.8 340.2C532 339.6 531.6 338.2 530.8 337C527.5 332 526.4 329.7 526.4 327C526.4 323.2 527.4 321.3 531.8 318.3C537 314.5 538.6 309.7 534.6 309.7C532.2 309.7 529.7 307.5 528.1 304C524.9 296.8 525.6 288.8 530.4 275.4C534.08 267.516 535.926 258.9 535.8 250.2C535.8 242.8 535.6 241.6 534 237.5C532.748 234.649 531.207 231.935 529.4 229.4L526.6 225.7L530.1 222.7C540.9 213.8 538.7 199.2 525.7 193.6C521.7 191.8 520.7 191.7 513.7 191.7C509.7 191.7 503.2 192.3 499.7 193C495.002 193.743 490.256 194.144 485.5 194.2C478.7 194.2 477.5 194 474.9 192.6C472.2 191.2 471.7 190.5 471.2 187.1C471.152 186.78 471.027 186.476 470.835 186.214C470.643 185.953 470.391 185.742 470.1 185.6C469.1 185.3 464.9 189 464.3 190.6C463.9 191.5 463.7 191.4 462.8 190.3C461.952 189.21 461.277 187.996 460.8 186.7C459.8 183.4 461.1 181 465 179.1L468 177.7L466.2 176.6C462.6 174.3 456.4 175.9 454.2 179.6C453.5 180.6 452.8 181.6 452.6 181.6C452.4 181.6 451.2 180.6 450 179.3C445.3 174.7 446.9 167.9 453.2 165.9C456.5 164.8 459.5 165.6 460.1 167.9C461.1 171.2 463.9 166.8 463.4 162.7C463.1 160 463.1 159.9 465 159.9C467.6 159.9 473 163.3 474.8 165.9C476.8 169 476.6 173.9 474.4 177.5L472.7 180.3L475 179.9C478.2 179.2 481.4 177.2 483 174.7C483.843 173.108 484.317 171.346 484.386 169.546C484.455 167.745 484.118 165.952 483.4 164.3C481.9 161.6 482.1 161.2 484.3 162.1C487.9 163.6 489.9 165.3 491.3 168.2C492.7 170.8 492.8 171.4 492.1 174.2C491.621 175.905 490.879 177.524 489.9 179C488.7 180.6 488.6 180.9 489.6 180.9C491.4 180.9 495 179.2 496.3 177.9C497 177.1 498 175.4 498.5 173.9L499.5 171.4L500.5 173.4C502 176.1 505 178.6 508.6 180.2C512.5 181.8 514.1 181.9 512.1 180.4C510.7 179.4 508.1 171.9 509 171.2C513.316 173.617 517.257 176.649 520.7 180.2C526.4 185.3 530 187 535.2 187C541.9 187 545.8 181.2 542.8 175.7C541.1 172.5 537.2 172 534.8 174.7C533.8 176 533.5 177 533.8 178.4C534.2 180 534.1 180.2 532.6 180.2C530.6 180.2 526.8 177.7 520 172C510.535 163.854 499.654 157.516 487.9 153.3C479.937 151.459 471.714 151.02 463.6 152C457.2 153.2 449.6 156.9 445.4 160.8C438.1 167.8 438 177.1 445.1 185.6L447.1 188L445.8 190.2C444.822 191.776 444.338 193.608 444.409 195.461C444.48 197.314 445.104 199.104 446.2 200.6C447.2 202 448.2 203.1 448.5 203.1C448.7 203.1 448.9 202.2 449 201.1C449.2 198.4 450.4 196.6 452.4 195.9C454.2 195.2 455.4 195.6 463.6 198.9C472.3 202.3 486.6 202.5 501.8 199.5C508.388 197.979 515.244 198.047 521.8 199.7C529 202.7 530.6 210.4 525.4 216.2C523.1 218.8 521 219.8 513.7 221.8C507.344 223.476 500.737 223.984 494.2 223.3C483.4 223.2 479.5 223.4 475.2 224.3C470.3 225.3 467.4 225.4 453.4 225.1L437.1 224.7L438.9 226.1C439.864 226.956 440.901 227.726 442 228.4C443.3 229.1 443.2 229.2 441.4 229.9C440.4 230.3 438 230.6 436.1 230.6H432.8L432.4 233.4C432.131 234.72 432.131 236.08 432.4 237.4C432.8 238.4 432.6 238.6 431.6 238.2C430.9 237.9 429 237.4 427.3 237.1C425.585 236.732 423.91 236.196 422.3 235.5C420.4 234.5 420.2 234.5 419.5 235.8C418.9 236.8 413.3 241 412.5 241C412.139 238.406 411.397 235.879 410.3 233.5C409.3 231.4 408.4 229 408.1 228.3C407.8 227.2 407.6 227.1 407.1 228C406.8 228.5 406.4 230 406.1 231.2C405.75 232.82 405.142 234.373 404.3 235.8L402.8 238L401.8 236.1C400.8 234.1 399.2 231.9 398.6 231.9C398.4 231.9 398.1 232.5 397.9 233.4C397.4 235 393.5 239.7 392.5 239.7C392.2 239.7 391.9 238.4 391.9 236.7C391.9 235.2 391.6 233.8 391.2 233.8C390.8 233.8 390.5 234.3 390.5 234.8C390.5 236 387.2 239.8 386 239.8C385.6 239.8 384.8 240.2 384.3 240.8C383.1 242.1 382.1 241.9 382.6 240.4C382.74 239.119 382.604 237.823 382.2 236.6L381.2 233.4C381 232.9 379.8 233.1 377.2 233.9C373.2 235.2 371.8 234.9 373.9 233.3C374.7 232.7 375.9 230.6 376.5 228.7C377.2 226.7 378.2 225 378.7 224.8C379.4 224.6 379.4 224.8 378.5 226C377.921 226.761 377.543 227.655 377.4 228.6C377.4 229.1 376.9 230.4 376.4 231.5C375.8 232.5 375.4 233.5 375.5 233.6C375.6 233.7 377.2 233.1 379 232.3L382.2 230.7V232.1C382.2 232.9 382.6 234.9 383.1 236.6L384 239.6L386.2 238.6C388.4 237.6 390.5 234 390.5 231.1C390.5 229.7 391.3 229.9 391.7 231.4C391.7 231.8 392.3 233.5 392.7 235.1L393.7 237.9L395.2 236.1C396.1 235.1 397.1 233.1 397.5 231.8C398.3 229.4 399.5 228.3 399.5 230.1C399.5 231.3 402.9 235.9 403.5 235.5C403.9 235.3 404.5 233.6 405 231.7C406 227.7 407.5 225.1 408.5 225.7C408.9 225.9 409 226.3 408.8 226.7C408.6 226.9 409.4 229.5 410.6 232.3C411.469 234.399 412.336 236.499 413.2 238.6C413.6 239.6 414 239.6 416.5 237.3C418 235.9 419.5 234.4 419.6 233.9C419.9 233.1 420.2 233.2 421.6 234.1C424.548 235.658 427.778 236.61 431.1 236.9C431.3 236.7 431.5 234.9 431.5 232.9L431.6 229.2L433.6 229.6C434.6 229.9 436.9 229.9 438.6 229.6L441.6 229.2L438.9 227.2C437.4 226.2 435.9 224.9 435.5 224.3C435.2 223.7 433.8 223.1 432.3 223C428.2 222.6 420.9 218.6 420.9 216.6C420.9 216.2 421.9 216.9 423.1 218C425.9 220.5 429.7 222 433.1 222H435.5L434 220C432.931 218.449 432.246 216.667 432 214.8C431.8 211.8 431.5 211.4 428.4 209.3C426.602 208.026 424.928 206.587 423.4 205L421.7 203.1L420.8 205.4C420.3 206.7 419.8 207.7 419.5 207.7C419.3 207.7 418.3 206.9 417.5 206C416.937 205.348 416.259 204.806 415.5 204.4C415.2 204.4 414.5 205.6 413.7 207.1L412.3 209.8L411.3 208.3C410.41 207.074 409.406 205.935 408.3 204.9C407.1 203.9 406.6 203.1 407 203.1C407.4 203.1 408.7 204.1 410 205.4L412.2 207.7L413.2 206C413.778 204.822 413.953 203.487 413.7 202.2C413.3 200.4 413.4 200.3 414 201.5C414.862 202.629 415.871 203.638 417 204.5L419.2 206.3L420.7 203.6C422.2 200.8 422.2 200.8 422.8 202.5C423.8 204.6 430.3 210 435.8 213.1C436.8 213.6 436.4 212 434.8 208.1C434.32 206.819 434.049 205.468 434 204.1C434 202.3 433.5 201.5 431.2 199.7C429.77 198.786 428.574 197.55 427.706 196.092C426.837 194.634 426.322 192.993 426.2 191.3C425.9 189.6 425.3 187.8 424.8 187.2C424.2 186.2 424 186.8 424.2 189.8C424.4 191.9 424.1 194.5 423.6 195.6L422.8 197.6L422.2 195.9C421.8 195 420.2 193.4 418.7 192.4C417.2 191.4 416.1 190.4 416.3 190.2C416.5 190 418.1 190.9 419.8 192.2C422.5 194.3 423 194.5 423.4 193.6C423.8 192.6 423.4 188 422.6 184.8C422.2 183.2 422.2 183.2 424.2 185.2C425.6 186.6 426.4 188.4 427.1 191.4C427.9 195.2 428.3 195.9 431.8 199C433.9 200.9 435.8 202.3 435.9 202.2C436.1 202 436.3 197.2 436.5 191.4C436.9 180.3 436.5 177.6 433.8 174.2L432.4 172.4L434.6 170.1C437.065 167.743 438.711 164.659 439.3 161.3L439.7 158.6L437.3 160.9C435.3 162.8 434.3 163.2 432 163.2C429.7 163.2 428.8 162.8 427.3 161.2C424.963 158.951 422.115 157.303 419 156.4C417.8 156 417.4 156.2 417.4 157C417.4 157.6 416.8 159.2 416 160.7L414.6 163.3L411.6 160.3C409.7 158.6 407.6 157.1 405.9 156.7C401.8 155.7 401.6 155.7 401.6 158.8C401.6 163.5 399.6 164.4 396 161.3C393.2 158.9 391 158.3 385.7 159L381.7 159.4L382.4 161.2C383 162.7 382.9 163.4 381.6 165.1C379.5 167.9 376.8 169.1 372.6 169.1C370.6 169.1 368.2 169.5 367.2 170C366.2 170.5 363.6 171 361.5 171.2C359.5 171.4 357.2 171.8 356.5 172C355.5 172.4 355.5 172 355.8 169.8C356.3 166.4 353.8 163.8 350.1 163.8C345.2 163.8 343 168.2 344.9 174C345.289 175.251 345.623 176.519 345.9 177.8C347.213 180.301 348.976 182.538 351.1 184.4C353.7 187 356.1 189.7 356.5 190.4C357.305 191.443 358.329 192.296 359.5 192.9L361.7 194.1L361.4 191.7C361.1 189.1 361.6 188.7 363 190.6C363.5 191.2 364.8 192.3 365.8 192.9C367.5 193.9 367.8 193.9 367.8 193.1C367.8 192.5 368.1 191.2 368.5 190.2L369.2 188.4L370.5 190.9C371.2 192.3 373.5 195.4 375.6 197.9C379.7 202.6 382.3 207.9 381 209.1C380.4 209.6 379 209.6 376 209C373.8 208.6 371 208.3 369.8 208.5C367.5 208.8 367.3 208.5 368.8 206.7C370.3 204.7 370 204.4 367 204.4C363.5 204.4 354.8 202.7 351.4 201.4C348.2 200.1 347.4 200.4 346.4 203.5L344.7 209.1L343.7 212.1L347.3 211.8C349.156 211.606 350.994 211.272 352.8 210.8C353.508 210.564 354.254 210.462 355 210.5C355.2 210.6 354.7 211.8 354 213.2L352.6 215.6L354.8 215.2C356 214.9 357.8 214.3 358.8 213.8C360.6 213 360.8 213 362.2 215.3C363.9 218 365.2 217.9 365.5 215C365.8 212 366.8 212.4 368.7 216.4C370.5 220.2 372.3 221.6 372.7 219.4C372.8 218.6 373.7 217.4 374.8 216.6C377 215.1 378.6 215.6 379.5 217.9C380.5 220.4 378.3 222.9 372.1 226.7C366.358 229.87 361.418 234.312 357.657 239.685C353.896 245.058 351.413 251.22 350.4 257.7C348.5 269.5 354.4 281.7 366 290.6C371.6 294.8 380.5 299.2 379.9 297.6C377.5 290.3 377.6 276.6 380 274.3C380.4 273.9 380.3 275.3 379.7 277.4C377.7 285.3 378.7 291.5 383.7 306.1C388.1 319.3 387.5 325 381.1 328.7C379.1 329.9 377.8 330.1 372.3 330C366.3 330 365.6 330 363.7 331.6C361.403 333.946 359.899 336.954 359.4 340.2C359.4 341.5 360.8 341.3 363.4 339.8H363.5Z" fill="#FFB700" stroke="black" stroke-width="5.6"/>
    <path d="M460.5 339.5L463 337.9L464.7 339.5C466.9 341.6 469.6 341.5 471.7 339.4C472.7 338.4 473.5 337.8 473.6 337.9L474.5 339.5C475 340.4 476.1 340.8 478.1 341C480.4 341.1 481.1 341 482.1 339.6L483.1 337.9L485.6 339.5C492.4 343.9 496 339.3 492.9 330.2C491.4 325.6 492.3 323 497.2 317.2C499.3 314.7 501 312 501 311.2C501 310.1 500.6 309.9 497.8 310C495.2 310 494.4 309.7 493 308.2C490.7 305.7 490.9 302.8 493.4 299.6L495.4 297.1L491.8 294.7C488.926 292.577 486.249 290.201 483.8 287.6C481.617 285.024 478.948 282.903 475.946 281.359C472.943 279.814 469.665 278.877 466.3 278.6L461.6 278.1V281.7C461.6 286.2 463.8 290.6 469.6 298C476.2 306.4 476.6 307.7 476.9 318.7L477.2 328L475.2 329.8C473.5 331.4 472.8 331.7 467.2 332C461.9 332.3 460.7 332.6 459.2 334C457.445 335.28 456.232 337.171 455.8 339.3C455.5 340.8 455.6 341.1 456.7 341.1C457.4 341.1 459.1 340.4 460.5 339.5V339.5ZM318.3 315.5C318.905 314.612 319.251 313.573 319.3 312.5C319.3 311.5 319.9 311.1 322.5 310.7L325.6 310.3L323.6 308.6C321.1 306.6 320.8 305.1 323 305.1C325.2 305.1 328.8 302.9 329.4 301.2C329.7 300.4 329.4 299.4 329 298.9C327.8 297.5 325.5 297.7 325.1 299.3C324.6 300.9 323.9 300.9 322.1 299.3C319.6 296.8 319.5 291.7 322.1 288.7C323.2 287.3 323.2 287.3 321.7 285.8C320.1 284.2 318.9 281.2 319.7 280.4C319.9 280.2 321.2 280.4 322.5 280.9C324.5 281.5 325.2 281.5 326 280.9C328.3 279 325.8 276.6 322 277.2C320.4 277.4 319.8 277.2 319.6 276.4C319.4 275.8 318.1 275 316.6 274.6C313.9 273.9 313.9 273.9 313.9 275.8C313.9 277.8 312.7 278.2 310.5 276.9C308.7 275.9 307 276.7 307 278.6C307 280.4 308.7 281.2 312 281C314.4 280.9 314.5 282.7 312.2 285.3L310.5 287.3L311.8 289.2C313.8 292 313.6 296.7 311.5 299.1L309.8 300.9L308.7 299.4C307.1 297.4 305 297.5 304.4 299.7C304.1 301.1 304.4 301.7 306.2 303.3C307.4 304.3 309.2 305.1 310.1 305.1C312.4 305.1 312.3 307 309.9 308.8L307.9 310.3L310.9 310.7C312.5 311 313.9 311.4 313.9 311.7C313.9 313 315.9 316.9 316.5 316.9C316.9 316.9 317.7 316.2 318.3 315.4V315.5Z" fill="#FFB700" stroke="black" stroke-width="5.6"/>
    <path d="M356.5 298.9C359.2 297.9 365 292.9 365 291.8C365 291.4 363.4 289.6 361.4 287.8C357.4 284.2 352.9 277.9 351.7 274.3C351.1 272.3 348.2 269.1 340 261.1L329.1 250.6L326 251.4C324.2 251.8 322.1 252.2 321.3 252.2C319.8 252.2 319.8 252.2 321.8 253.8L323.8 255.4L326.8 253.8C329.5 252.2 329.6 252.2 329.9 253.5C330.1 254.2 329.7 255.5 328.9 256.4C328.2 257.3 327.8 258.4 327.9 258.7C328.2 259 327.5 259.7 326.4 260.3C324.4 261.3 322.9 264.6 324.5 264.6C326 264.6 329.2 260.6 328.8 259.3C328.6 258.6 328.8 257.9 329 257.7C330.3 257 330.2 260.1 329 261.7C328.2 262.5 327.8 263.5 328 263.9C328.2 264.2 327.5 264.9 326.4 265.5C324.4 266.5 322.9 269.8 324.5 269.8C326.1 269.8 329.2 266 328.9 264.6C328.7 263.9 328.7 263.1 329 262.9C329.9 262.5 330.3 264.9 329.6 266.1C329.416 266.437 329.32 266.816 329.32 267.2C329.32 267.584 329.416 267.962 329.6 268.3C330.3 269.6 329.6 272 328.3 272.8C327.8 273.1 328.1 273.8 329.5 274.8C331.5 276.2 331.5 276.4 331.5 282.8C331.5 288.2 331.7 289.6 332.7 290.5C333.7 291.5 333.9 291.5 333.9 290.5C333.9 289.5 335.9 288.1 337.4 288.1C337.9 288.1 340.8 290.6 343.9 293.6C347 296.6 350.3 299.3 351.2 299.4L353.4 299.8C353.7 299.8 355.1 299.5 356.5 298.8V298.9ZM323.2 272.8C323.2 271.1 319.6 269.2 315.3 268.8C311.8 268.3 311.8 268.4 311.8 270.1C311.8 271.5 312.3 272.1 314.8 273.1C318.6 274.8 323.2 274.6 323.2 272.8Z" fill="#FFB700" stroke="black" stroke-width="5.6"/>
    <path d="M327.1 272.6C328.9 271 329.7 269.2 328.6 269.2C327.4 269.2 324.2 272 324.2 273.2C324.2 274.8 324.8 274.7 327.2 272.6H327.1ZM323.4 267.5C323.5 266.5 322.9 265.9 321.1 265C317.1 263.3 312.5 262.4 311.4 263.3C309.3 265 310.7 267.2 314 267.6C315.4 267.7 317.2 268.1 318.1 268.5C320.7 269.5 323.1 269 323.4 267.5V267.5ZM323.4 262.2C323.6 260.9 322.7 260.4 315.4 257.8C309.9 255.8 307.5 256.8 309.3 260.1C309.9 261.2 310.9 261.7 313.2 262.1C314.9 262.3 317.2 262.8 318.3 263.2C321.3 264.2 323.1 263.8 323.3 262.2H323.4ZM327 257.3C328.1 256.2 329 254.9 329 254.3C329 252.8 324.7 255.6 324.1 257.6C323.5 259.9 324.6 259.8 327.1 257.3H327ZM323.4 257C323.6 255.4 321 254 315.8 252.9C311.9 252 310.2 252.5 310.5 254.3C310.7 255.3 312 256 315.5 257.1C321.4 258.9 323.1 258.9 323.4 257V257ZM328.4 249.6C335.2 246.6 335.7 239.1 329.4 237.1C326.8 236.3 325.2 236.8 324.2 238.5C323.4 239.9 323.9 242.3 324.9 242.3C325.3 242.3 325.6 242.8 325.6 243.3C325.6 246 315.4 247.1 311.2 245C309.7 244.3 309.2 242.3 310.3 242.3C311.3 242.3 311.9 240.3 311.4 239C310.8 237 308.8 236.4 306.1 237.2C299.8 238.8 300 246.2 306.4 249.2C313.481 251.799 321.23 251.94 328.4 249.6V249.6Z" fill="#FFB700" stroke="black" stroke-width="5.6"/>
    <path d="M324.3 243.8C324.7 243.4 324.5 242.8 323.9 242.4C322.5 241.3 322.6 239.6 324.1 237.7C325.3 236.3 325.4 234.1 325.8 212.6C326.5 175.5 329.3 147.6 332.9 140.8C334.4 138.2 334.2 138.2 330.4 140.8C325.415 144.273 321.39 148.952 318.7 154.4C312.5 165.9 310.4 181.4 310.4 214.6C310.4 233.4 310.5 235.9 311.6 237.6C312.6 239.4 312.6 240 312 241.8C311.5 242.9 311.3 244.1 311.5 244.3C312.9 245.6 322.9 245.3 324.3 243.8ZM380.4 208.4C380.7 208.1 380.2 206.4 379.4 204.8C378.2 202.2 377.7 201.8 376 201.8C368.004 201.105 360.206 198.935 353 195.4C347.9 193.1 346 192.6 345.5 193.2C343.9 194.7 346.5 198.2 350.5 200.1C356.386 202.221 362.552 203.468 368.8 203.8C371.5 203.8 371.6 203.8 370 206.1L369 207.7H372L377 208.3C380 209 380 209 380.4 208.4V208.4Z" fill="#FFB700" stroke="black" stroke-width="5.6"/>
    <path d="M412 225.1C412 224.1 409.1 221.6 406.3 219.9C404 218.6 403.6 218.5 403.6 219.6C403.6 221.2 402.2 225.3 401.6 225.3C401.3 225.3 400.8 224.5 400.6 223.6C400.3 222.6 399.2 220.6 398.1 219.3L396.1 216.8L394.7 219.1C393.3 221.3 390.8 223.4 389.7 223.4C389.5 223.4 389.4 222.2 389.7 220.9C389.8 219.3 389.7 218.1 389.2 217.9C388.8 217.6 388.4 217.7 388.4 218.1C388.4 218.9 385 222.7 384.4 222.7C384 222.7 383.6 221.7 383.4 220.3L382.6 215.5C382.4 214.3 382.9 215.1 383.6 217.5L385.2 221.6L386.8 219.1C387.524 218.067 388.066 216.917 388.4 215.7C388.4 215.2 388.7 215 389.1 215.2C389.5 215.4 390 217.1 390.2 218.9L390.7 222.3L392.5 220.3C393.442 219.297 394.311 218.227 395.1 217.1C395.8 215.9 395.9 215.9 397.4 217.1C398.2 217.9 399.5 219.6 400.3 221C401.1 222.4 401.8 223.4 401.9 223.3L402.5 220.1L402.9 217.1C403 216.6 408.3 220.1 410.3 221.8C411.5 222.9 412.7 223.7 412.9 223.5C413.1 223.3 413.3 221.7 413.3 219.8C413.3 217 413 216.2 411.3 214.7C409.3 212.9 409.3 212.9 408.5 214.2C407.5 215.9 406.4 215.9 406.4 214.2C406.4 213 402.6 208.3 401.7 208.3C401.4 208.3 400.6 209.3 399.9 210.6C399.2 211.9 398.4 212.9 398.2 212.9C397.2 212.9 391.9 206.9 391.9 205.9C391.9 205.1 392.3 205.3 393.2 206.7C394.094 208.013 395.134 209.221 396.3 210.3C398.3 212.1 399.1 211.7 399.9 208.2C400.2 207.2 400.6 206.4 400.9 206.4C401.7 206.4 406.3 211.3 406.9 212.9L407.6 214.5L408.1 212.7C408.7 210.5 409.4 210.5 410.4 212.5C410.8 213.3 412.8 215.1 414.8 216.3L418.5 218.7L419.2 216.3C419.6 215 420.2 214.3 420.4 214.7C420.8 215.2 419.8 219.2 419.1 220C419.1 220.1 417.8 219.4 416.5 218.5L414 216.7V219.9C414 221.6 413.8 223.7 413.6 224.5C413.1 226.1 411.9 226.5 411.9 225.1H412ZM393.5 199.7C389.1 196.1 388.5 195.3 388.5 193.5L388.6 191.7L388.9 193.4C389.1 194.4 390.3 196 391.7 197.2L394.3 199.2L395.8 197.4C396.7 196.4 397.4 195.2 397.4 194.8C397.4 193.6 397.6 193.7 400.6 196.3C403.2 198.6 403.3 198.6 403.6 197.1C403.9 196.3 403.8 194.7 403.6 193.6C402.6 190.6 402.8 190.2 404.1 192L406.5 194.8C407.5 195.9 407.6 195.9 408 194.5C408.3 193.6 408.5 192.1 408.5 191.1V189.2L410.8 191.9C413.1 194.5 413.3 194.6 413.9 193.3C414.4 192.6 414.7 190.9 414.7 189.6C414.7 187.8 414.9 187.4 415.3 188C416.1 189.2 415.6 192.2 414.2 194.8L413.2 196.8L411.9 194.7C410.2 192.1 409.6 192.1 408.6 194.9C407.6 197.6 406.9 197.8 405.9 195.7C405.3 194.4 405.1 194.6 404.7 197.4L404.2 200.4L401.2 198.1L398.2 195.8L396.7 197.3C396 198.2 395.4 199.3 395.4 199.7C395.4 200.7 394.6 200.7 393.5 199.7V199.7ZM432.5 186.1C431 184.7 429.9 183.3 430.1 183.1C430.4 182.8 430.6 182.7 430.7 182.9C431.668 183.931 432.669 184.932 433.7 185.9C437.1 189.5 436.4 189.6 432.6 186.1H432.5ZM380.5 180.7C379.1 178.7 379.2 177.5 381 175.3C382.2 173.8 382.8 173.6 385 173.9C386.5 174 389.6 175.3 391.9 176.7C395.224 178.686 399.028 179.723 402.9 179.7L401.2 176.9C399 173.6 399 173.2 401.6 175.2C404.2 177.3 407.3 177.9 414.3 177.7L417.7 177.6L415.7 175.6C413 172.9 413.8 172.6 416.9 175.3C419.7 177.8 419.6 178 413.5 178.6C410.956 178.857 408.388 178.688 405.9 178.1C402.5 177.1 402.3 177.2 403 178.3C403.4 179 404 179.5 404.3 179.5C404.7 179.5 405 179.9 405 180.3C405 181.6 397.6 180.4 394 178.7C386 174.6 385 174.2 383 174.8C382.467 175.005 381.981 175.314 381.569 175.709C381.157 176.104 380.827 176.576 380.6 177.1C379.3 180.4 384 183 385.9 180.1C386.5 179.2 386.4 178.7 385.4 177.6C384 176.2 384.2 176 386 176.6C387.3 177.1 387.4 180.2 386.2 181.4C384.9 182.7 381.7 182.4 380.5 180.7Z" fill="black" stroke="black" stroke-width="5.6"/>
    <path d="M412.4 172.6C411.4 171.6 412.2 171.4 416.7 171.3C422.3 171.2 425.7 170.3 429.7 167.7C432.9 165.7 433.8 166.1 430.7 168.2C428 170.2 423.7 171.6 419.4 172L414.3 172.7C413.5 172.9 412.6 172.8 412.3 172.6H412.4Z" fill="black" stroke="black" stroke-width="5.6"/>
    <path d="M363.5 339.8L365.8 338.4L366.8 339.8C368.1 341.6 371.8 341.5 374.2 339.8L376.1 338.3L377.7 339.7C379.7 341.6 383.5 341.6 386 339.7C387.7 338.5 388 338.4 389 339.4C389.7 340 391.7 340.6 393.4 340.9C396.6 341.3 396.6 341.3 398.4 338.5C400 336.2 400.2 335.3 399.9 333C399.621 331.243 399.421 329.475 399.3 327.7C399.1 325.1 399.2 325.1 402.9 323.7C404.737 323.137 406.539 322.469 408.3 321.7C409.8 320.8 414 315.9 414 314.9C414 314.7 412.4 314.3 410.4 314.1C402.4 313.1 401.1 308.9 406.3 301.1C414.6 288.1 419.7 275.6 419.7 267.7C419.7 264.1 420 262.9 420.4 263.7C422.3 266.8 418.9 280.1 413.9 289.7L411.9 293.5L413.8 293.1C414.8 292.8 421.2 290.1 427.8 287.1C446 278.9 452.2 277.3 464 277.8C473.9 278.2 478 280.1 485 287.4C488.7 291.4 492.3 294.1 498.8 298.2C512.6 306.8 513.2 307.6 513.9 317.8C514.6 328.1 514.2 328.7 506.4 330.4C499.7 331.9 495.5 335 494.4 339.4C493.8 341.6 495.1 341.7 498.4 339.5L500.9 337.9L502 339.5C503.5 341.6 506.5 341.6 509 339.5L511 338L513 339.5C516 342 520 341.4 521.2 338.3C521.4 337.8 522 337.9 523.2 339C525.5 341 531.2 341.8 531.8 340.2C532 339.6 531.6 338.2 530.8 337C527.5 332 526.4 329.7 526.4 327C526.4 323.2 527.4 321.3 531.8 318.3C537 314.5 538.6 309.7 534.6 309.7C532.2 309.7 529.7 307.5 528.1 304C524.9 296.8 525.6 288.8 530.4 275.4C534.08 267.516 535.926 258.9 535.8 250.2C535.8 242.8 535.6 241.6 534 237.5C532.748 234.649 531.207 231.935 529.4 229.4L526.6 225.7L530.1 222.7C540.9 213.8 538.7 199.2 525.7 193.6C521.7 191.8 520.7 191.7 513.7 191.7C509.7 191.7 503.2 192.3 499.7 193C495.002 193.743 490.256 194.144 485.5 194.2C478.7 194.2 477.5 194 474.9 192.6C472.2 191.2 471.7 190.5 471.2 187.1C471.152 186.78 471.027 186.476 470.835 186.214C470.643 185.953 470.391 185.742 470.1 185.6C469.1 185.3 464.9 189 464.3 190.6C463.9 191.5 463.7 191.4 462.8 190.3C461.952 189.21 461.277 187.996 460.8 186.7C459.8 183.4 461.1 181 465 179.1L468 177.7L466.2 176.6C462.6 174.3 456.4 175.9 454.2 179.6C453.5 180.6 452.8 181.6 452.6 181.6C452.4 181.6 451.2 180.6 450 179.3C445.3 174.7 446.9 167.9 453.2 165.9C456.5 164.8 459.5 165.6 460.1 167.9C461.1 171.2 463.9 166.8 463.4 162.7C463.1 160 463.1 159.9 465 159.9C467.6 159.9 473 163.3 474.8 165.9C476.8 169 476.6 173.9 474.4 177.5L472.7 180.3L475 179.9C478.2 179.2 481.4 177.2 483 174.7C483.843 173.108 484.317 171.346 484.386 169.546C484.455 167.745 484.118 165.952 483.4 164.3C481.9 161.6 482.1 161.2 484.3 162.1C487.9 163.6 489.9 165.3 491.3 168.2C492.7 170.8 492.8 171.4 492.1 174.2C491.621 175.905 490.879 177.524 489.9 179C488.7 180.6 488.6 180.9 489.6 180.9C491.4 180.9 495 179.2 496.3 177.9C497 177.1 498 175.4 498.5 173.9L499.5 171.4L500.5 173.4C502 176.1 505 178.6 508.6 180.2C512.5 181.8 514.1 181.9 512.1 180.4C510.7 179.4 508.1 171.9 509 171.2C513.316 173.617 517.257 176.649 520.7 180.2C526.4 185.3 530 187 535.2 187C541.9 187 545.8 181.2 542.8 175.7C541.1 172.5 537.2 172 534.8 174.7C533.8 176 533.5 177 533.8 178.4C534.2 180 534.1 180.2 532.6 180.2C530.6 180.2 526.8 177.7 520 172C510.535 163.854 499.654 157.516 487.9 153.3C479.937 151.459 471.714 151.02 463.6 152C457.2 153.2 449.6 156.9 445.4 160.8C438.1 167.8 438 177.1 445.1 185.6L447.1 188L445.8 190.2C444.822 191.776 444.338 193.608 444.409 195.461C444.48 197.314 445.104 199.104 446.2 200.6C447.2 202 448.2 203.1 448.5 203.1C448.7 203.1 448.9 202.2 449 201.1C449.2 198.4 450.4 196.6 452.4 195.9C454.2 195.2 455.4 195.6 463.6 198.9C472.3 202.3 486.6 202.5 501.8 199.5C508.388 197.979 515.244 198.047 521.8 199.7C529 202.7 530.6 210.4 525.4 216.2C523.1 218.8 521 219.8 513.7 221.8C507.344 223.476 500.737 223.984 494.2 223.3C483.4 223.2 479.5 223.4 475.2 224.3C470.3 225.3 467.4 225.4 453.4 225.1L437.1 224.7L438.9 226.1C439.864 226.956 440.901 227.726 442 228.4C443.3 229.1 443.2 229.2 441.4 229.9C440.4 230.3 438 230.6 436.1 230.6H432.8L432.4 233.4C432.131 234.72 432.131 236.08 432.4 237.4C432.8 238.4 432.6 238.6 431.6 238.2C430.9 237.9 429 237.4 427.3 237.1C425.585 236.732 423.91 236.196 422.3 235.5C420.4 234.5 420.2 234.5 419.5 235.8C418.9 236.8 413.3 241 412.5 241C412.139 238.406 411.397 235.879 410.3 233.5C409.3 231.4 408.4 229 408.1 228.3C407.8 227.2 407.6 227.1 407.1 228C406.8 228.5 406.4 230 406.1 231.2C405.75 232.82 405.142 234.373 404.3 235.8L402.8 238L401.8 236.1C400.8 234.1 399.2 231.9 398.6 231.9C398.4 231.9 398.1 232.5 397.9 233.4C397.4 235 393.5 239.7 392.5 239.7C392.2 239.7 391.9 238.4 391.9 236.7C391.9 235.2 391.6 233.8 391.2 233.8C390.8 233.8 390.5 234.3 390.5 234.8C390.5 236 387.2 239.8 386 239.8C385.6 239.8 384.8 240.2 384.3 240.8C383.1 242.1 382.1 241.9 382.6 240.4C382.74 239.119 382.604 237.823 382.2 236.6L381.2 233.4C381 232.9 379.8 233.1 377.2 233.9C373.2 235.2 371.8 234.9 373.9 233.3C374.7 232.7 375.9 230.6 376.5 228.7C377.2 226.7 378.2 225 378.7 224.8C379.4 224.6 379.4 224.8 378.5 226C377.921 226.761 377.543 227.655 377.4 228.6C377.4 229.1 376.9 230.4 376.4 231.5C375.8 232.5 375.4 233.5 375.5 233.6C375.6 233.7 377.2 233.1 379 232.3L382.2 230.7V232.1C382.2 232.9 382.6 234.9 383.1 236.6L384 239.6L386.2 238.6C388.4 237.6 390.5 234 390.5 231.1C390.5 229.7 391.3 229.9 391.7 231.4C391.7 231.8 392.3 233.5 392.7 235.1L393.7 237.9L395.2 236.1C396.1 235.1 397.1 233.1 397.5 231.8C398.3 229.4 399.5 228.3 399.5 230.1C399.5 231.3 402.9 235.9 403.5 235.5C403.9 235.3 404.5 233.6 405 231.7C406 227.7 407.5 225.1 408.5 225.7C408.9 225.9 409 226.3 408.8 226.7C408.6 226.9 409.4 229.5 410.6 232.3C411.469 234.399 412.336 236.499 413.2 238.6C413.6 239.6 414 239.6 416.5 237.3C418 235.9 419.5 234.4 419.6 233.9C419.9 233.1 420.2 233.2 421.6 234.1C424.548 235.658 427.778 236.61 431.1 236.9C431.3 236.7 431.5 234.9 431.5 232.9L431.6 229.2L433.6 229.6C434.6 229.9 436.9 229.9 438.6 229.6L441.6 229.2L438.9 227.2C437.4 226.2 435.9 224.9 435.5 224.3C435.2 223.7 433.8 223.1 432.3 223C428.2 222.6 420.9 218.6 420.9 216.6C420.9 216.2 421.9 216.9 423.1 218C425.9 220.5 429.7 222 433.1 222H435.5L434 220C432.931 218.449 432.246 216.667 432 214.8C431.8 211.8 431.5 211.4 428.4 209.3C426.602 208.026 424.928 206.587 423.4 205L421.7 203.1L420.8 205.4C420.3 206.7 419.8 207.7 419.5 207.7C419.3 207.7 418.3 206.9 417.5 206C416.937 205.348 416.259 204.806 415.5 204.4C415.2 204.4 414.5 205.6 413.7 207.1L412.3 209.8L411.3 208.3C410.41 207.074 409.406 205.935 408.3 204.9C407.1 203.9 406.6 203.1 407 203.1C407.4 203.1 408.7 204.1 410 205.4L412.2 207.7L413.2 206C413.778 204.822 413.953 203.487 413.7 202.2C413.3 200.4 413.4 200.3 414 201.5C414.862 202.629 415.871 203.638 417 204.5L419.2 206.3L420.7 203.6C422.2 200.8 422.2 200.8 422.8 202.5C423.8 204.6 430.3 210 435.8 213.1C436.8 213.6 436.4 212 434.8 208.1C434.32 206.819 434.049 205.468 434 204.1C434 202.3 433.5 201.5 431.2 199.7C429.77 198.786 428.574 197.55 427.706 196.092C426.837 194.634 426.322 192.993 426.2 191.3C425.9 189.6 425.3 187.8 424.8 187.2C424.2 186.2 424 186.8 424.2 189.8C424.4 191.9 424.1 194.5 423.6 195.6L422.8 197.6L422.2 195.9C421.8 195 420.2 193.4 418.7 192.4C417.2 191.4 416.1 190.4 416.3 190.2C416.5 190 418.1 190.9 419.8 192.2C422.5 194.3 423 194.5 423.4 193.6C423.8 192.6 423.4 188 422.6 184.8C422.2 183.2 422.2 183.2 424.2 185.2C425.6 186.6 426.4 188.4 427.1 191.4C427.9 195.2 428.3 195.9 431.8 199C433.9 200.9 435.8 202.3 435.9 202.2C436.1 202 436.3 197.2 436.5 191.4C436.9 180.3 436.5 177.6 433.8 174.2L432.4 172.4L434.6 170.1C437.065 167.743 438.711 164.659 439.3 161.3L439.7 158.6L437.3 160.9C435.3 162.8 434.3 163.2 432 163.2C429.7 163.2 428.8 162.8 427.3 161.2C424.963 158.951 422.115 157.303 419 156.4C417.8 156 417.4 156.2 417.4 157C417.4 157.6 416.8 159.2 416 160.7L414.6 163.3L411.6 160.3C409.7 158.6 407.6 157.1 405.9 156.7C401.8 155.7 401.6 155.7 401.6 158.8C401.6 163.5 399.6 164.4 396 161.3C393.2 158.9 391 158.3 385.7 159L381.7 159.4L382.4 161.2C383 162.7 382.9 163.4 381.6 165.1C379.5 167.9 376.8 169.1 372.6 169.1C370.6 169.1 368.2 169.5 367.2 170C366.2 170.5 363.6 171 361.5 171.2C359.5 171.4 357.2 171.8 356.5 172C355.5 172.4 355.5 172 355.8 169.8C356.3 166.4 353.8 163.8 350.1 163.8C345.2 163.8 343 168.2 344.9 174C345.289 175.251 345.623 176.519 345.9 177.8C347.213 180.301 348.976 182.538 351.1 184.4C353.7 187 356.1 189.7 356.5 190.4C357.305 191.443 358.329 192.296 359.5 192.9L361.7 194.1L361.4 191.7C361.1 189.1 361.6 188.7 363 190.6C363.5 191.2 364.8 192.3 365.8 192.9C367.5 193.9 367.8 193.9 367.8 193.1C367.8 192.5 368.1 191.2 368.5 190.2L369.2 188.4L370.5 190.9C371.2 192.3 373.5 195.4 375.6 197.9C379.7 202.6 382.3 207.9 381 209.1C380.4 209.6 379 209.6 376 209C373.8 208.6 371 208.3 369.8 208.5C367.5 208.8 367.3 208.5 368.8 206.7C370.3 204.7 370 204.4 367 204.4C363.5 204.4 354.8 202.7 351.4 201.4C348.2 200.1 347.4 200.4 346.4 203.5L344.7 209.1L343.7 212.1L347.3 211.8C349.156 211.606 350.994 211.272 352.8 210.8C353.508 210.564 354.254 210.462 355 210.5C355.2 210.6 354.7 211.8 354 213.2L352.6 215.6L354.8 215.2C356 214.9 357.8 214.3 358.8 213.8C360.6 213 360.8 213 362.2 215.3C363.9 218 365.2 217.9 365.5 215C365.8 212 366.8 212.4 368.7 216.4C370.5 220.2 372.3 221.6 372.7 219.4C372.8 218.6 373.7 217.4 374.8 216.6C377 215.1 378.6 215.6 379.5 217.9C380.5 220.4 378.3 222.9 372.1 226.7C366.358 229.87 361.418 234.312 357.657 239.685C353.896 245.058 351.413 251.22 350.4 257.7C348.5 269.5 354.4 281.7 366 290.6C371.6 294.8 380.5 299.2 379.9 297.6C377.5 290.3 377.6 276.6 380 274.3C380.4 273.9 380.3 275.3 379.7 277.4C377.7 285.3 378.7 291.5 383.7 306.1C388.1 319.3 387.5 325 381.1 328.7C379.1 329.9 377.8 330.1 372.3 330C366.3 330 365.6 330 363.7 331.6C361.403 333.946 359.899 336.954 359.4 340.2C359.4 341.5 360.8 341.3 363.4 339.8H363.5Z" fill="#FFB700"/>
    <path d="M460.5 339.5L463 337.9L464.7 339.5C466.9 341.6 469.6 341.5 471.7 339.4C472.7 338.4 473.5 337.8 473.6 337.9L474.5 339.5C475 340.4 476.1 340.8 478.1 341C480.4 341.1 481.1 341 482.1 339.6L483.1 337.9L485.6 339.5C492.4 343.9 496 339.3 492.9 330.2C491.4 325.6 492.3 323 497.2 317.2C499.3 314.7 501 312 501 311.2C501 310.1 500.6 309.9 497.8 310C495.2 310 494.4 309.7 493 308.2C490.7 305.7 490.9 302.8 493.4 299.6L495.4 297.1L491.8 294.7C488.926 292.577 486.249 290.201 483.8 287.6C481.617 285.024 478.948 282.903 475.946 281.359C472.943 279.814 469.665 278.877 466.3 278.6L461.6 278.1V281.7C461.6 286.2 463.8 290.6 469.6 298C476.2 306.4 476.6 307.7 476.9 318.7L477.2 328L475.2 329.8C473.5 331.4 472.8 331.7 467.2 332C461.9 332.3 460.7 332.6 459.2 334C457.445 335.28 456.232 337.171 455.8 339.3C455.5 340.8 455.6 341.1 456.7 341.1C457.4 341.1 459.1 340.4 460.5 339.5V339.5ZM318.3 315.5C318.905 314.612 319.251 313.573 319.3 312.5C319.3 311.5 319.9 311.1 322.5 310.7L325.6 310.3L323.6 308.6C321.1 306.6 320.8 305.1 323 305.1C325.2 305.1 328.8 302.9 329.4 301.2C329.7 300.4 329.4 299.4 329 298.9C327.8 297.5 325.5 297.7 325.1 299.3C324.6 300.9 323.9 300.9 322.1 299.3C319.6 296.8 319.5 291.7 322.1 288.7C323.2 287.3 323.2 287.3 321.7 285.8C320.1 284.2 318.9 281.2 319.7 280.4C319.9 280.2 321.2 280.4 322.5 280.9C324.5 281.5 325.2 281.5 326 280.9C328.3 279 325.8 276.6 322 277.2C320.4 277.4 319.8 277.2 319.6 276.4C319.4 275.8 318.1 275 316.6 274.6C313.9 273.9 313.9 273.9 313.9 275.8C313.9 277.8 312.7 278.2 310.5 276.9C308.7 275.9 307 276.7 307 278.6C307 280.4 308.7 281.2 312 281C314.4 280.9 314.5 282.7 312.2 285.3L310.5 287.3L311.8 289.2C313.8 292 313.6 296.7 311.5 299.1L309.8 300.9L308.7 299.4C307.1 297.4 305 297.5 304.4 299.7C304.1 301.1 304.4 301.7 306.2 303.3C307.4 304.3 309.2 305.1 310.1 305.1C312.4 305.1 312.3 307 309.9 308.8L307.9 310.3L310.9 310.7C312.5 311 313.9 311.4 313.9 311.7C313.9 313 315.9 316.9 316.5 316.9C316.9 316.9 317.7 316.2 318.3 315.4V315.5Z" fill="#FFB700"/>
    <path d="M356.5 298.9C359.2 297.9 365 292.9 365 291.8C365 291.4 363.4 289.6 361.4 287.8C357.4 284.2 352.9 277.9 351.7 274.3C351.1 272.3 348.2 269.1 340 261.1L329.1 250.6L326 251.4C324.2 251.8 322.1 252.2 321.3 252.2C319.8 252.2 319.8 252.2 321.8 253.8L323.8 255.4L326.8 253.8C329.5 252.2 329.6 252.2 329.9 253.5C330.1 254.2 329.7 255.5 328.9 256.4C328.2 257.3 327.8 258.4 327.9 258.7C328.2 259 327.5 259.7 326.4 260.3C324.4 261.3 322.9 264.6 324.5 264.6C326 264.6 329.2 260.6 328.8 259.3C328.6 258.6 328.8 257.9 329 257.7C330.3 257 330.2 260.1 329 261.7C328.2 262.5 327.8 263.5 328 263.9C328.2 264.2 327.5 264.9 326.4 265.5C324.4 266.5 322.9 269.8 324.5 269.8C326.1 269.8 329.2 266 328.9 264.6C328.7 263.9 328.7 263.1 329 262.9C329.9 262.5 330.3 264.9 329.6 266.1C329.416 266.437 329.32 266.816 329.32 267.2C329.32 267.584 329.416 267.962 329.6 268.3C330.3 269.6 329.6 272 328.3 272.8C327.8 273.1 328.1 273.8 329.5 274.8C331.5 276.2 331.5 276.4 331.5 282.8C331.5 288.2 331.7 289.6 332.7 290.5C333.7 291.5 333.9 291.5 333.9 290.5C333.9 289.5 335.9 288.1 337.4 288.1C337.9 288.1 340.8 290.6 343.9 293.6C347 296.6 350.3 299.3 351.2 299.4L353.4 299.8C353.7 299.8 355.1 299.5 356.5 298.8V298.9ZM323.2 272.8C323.2 271.1 319.6 269.2 315.3 268.8C311.8 268.3 311.8 268.4 311.8 270.1C311.8 271.5 312.3 272.1 314.8 273.1C318.6 274.8 323.2 274.6 323.2 272.8Z" fill="#FFB700"/>
    <path d="M327.1 272.6C328.9 271 329.7 269.2 328.6 269.2C327.4 269.2 324.2 272 324.2 273.2C324.2 274.8 324.8 274.7 327.2 272.6H327.1ZM323.4 267.5C323.5 266.5 322.9 265.9 321.1 265C317.1 263.3 312.5 262.4 311.4 263.3C309.3 265 310.7 267.2 314 267.6C315.4 267.7 317.2 268.1 318.1 268.5C320.7 269.5 323.1 269 323.4 267.5V267.5ZM323.4 262.2C323.6 260.9 322.7 260.4 315.4 257.8C309.9 255.8 307.5 256.8 309.3 260.1C309.9 261.2 310.9 261.7 313.2 262.1C314.9 262.3 317.2 262.8 318.3 263.2C321.3 264.2 323.1 263.8 323.3 262.2H323.4ZM327 257.3C328.1 256.2 329 254.9 329 254.3C329 252.8 324.7 255.6 324.1 257.6C323.5 259.9 324.6 259.8 327.1 257.3H327ZM323.4 257C323.6 255.4 321 254 315.8 252.9C311.9 252 310.2 252.5 310.5 254.3C310.7 255.3 312 256 315.5 257.1C321.4 258.9 323.1 258.9 323.4 257V257ZM328.4 249.6C335.2 246.6 335.7 239.1 329.4 237.1C326.8 236.3 325.2 236.8 324.2 238.5C323.4 239.9 323.9 242.3 324.9 242.3C325.3 242.3 325.6 242.8 325.6 243.3C325.6 246 315.4 247.1 311.2 245C309.7 244.3 309.2 242.3 310.3 242.3C311.3 242.3 311.9 240.3 311.4 239C310.8 237 308.8 236.4 306.1 237.2C299.8 238.8 300 246.2 306.4 249.2C313.481 251.799 321.23 251.94 328.4 249.6V249.6Z" fill="#FFB700"/>
    <path d="M324.3 243.8C324.7 243.4 324.5 242.8 323.9 242.4C322.5 241.3 322.6 239.6 324.1 237.7C325.3 236.3 325.4 234.1 325.8 212.6C326.5 175.5 329.3 147.6 332.9 140.8C334.4 138.2 334.2 138.2 330.4 140.8C325.415 144.273 321.39 148.952 318.7 154.4C312.5 165.9 310.4 181.4 310.4 214.6C310.4 233.4 310.5 235.9 311.6 237.6C312.6 239.4 312.6 240 312 241.8C311.5 242.9 311.3 244.1 311.5 244.3C312.9 245.6 322.9 245.3 324.3 243.8ZM380.4 208.4C380.7 208.1 380.2 206.4 379.4 204.8C378.2 202.2 377.7 201.8 376 201.8C368.004 201.105 360.206 198.935 353 195.4C347.9 193.1 346 192.6 345.5 193.2C343.9 194.7 346.5 198.2 350.5 200.1C356.386 202.221 362.552 203.468 368.8 203.8C371.5 203.8 371.6 203.8 370 206.1L369 207.7H372L377 208.3C380 209 380 209 380.4 208.4V208.4Z" fill="#FFB700"/>
    <path d="M412 225.1C412 224.1 409.1 221.6 406.3 219.9C404 218.6 403.6 218.5 403.6 219.6C403.6 221.2 402.2 225.3 401.6 225.3C401.3 225.3 400.8 224.5 400.6 223.6C400.3 222.6 399.2 220.6 398.1 219.3L396.1 216.8L394.7 219.1C393.3 221.3 390.8 223.4 389.7 223.4C389.5 223.4 389.4 222.2 389.7 220.9C389.8 219.3 389.7 218.1 389.2 217.9C388.8 217.6 388.4 217.7 388.4 218.1C388.4 218.9 385 222.7 384.4 222.7C384 222.7 383.6 221.7 383.4 220.3L382.6 215.5C382.4 214.3 382.9 215.1 383.6 217.5L385.2 221.6L386.8 219.1C387.524 218.067 388.066 216.917 388.4 215.7C388.4 215.2 388.7 215 389.1 215.2C389.5 215.4 390 217.1 390.2 218.9L390.7 222.3L392.5 220.3C393.442 219.297 394.311 218.227 395.1 217.1C395.8 215.9 395.9 215.9 397.4 217.1C398.2 217.9 399.5 219.6 400.3 221C401.1 222.4 401.8 223.4 401.9 223.3L402.5 220.1L402.9 217.1C403 216.6 408.3 220.1 410.3 221.8C411.5 222.9 412.7 223.7 412.9 223.5C413.1 223.3 413.3 221.7 413.3 219.8C413.3 217 413 216.2 411.3 214.7C409.3 212.9 409.3 212.9 408.5 214.2C407.5 215.9 406.4 215.9 406.4 214.2C406.4 213 402.6 208.3 401.7 208.3C401.4 208.3 400.6 209.3 399.9 210.6C399.2 211.9 398.4 212.9 398.2 212.9C397.2 212.9 391.9 206.9 391.9 205.9C391.9 205.1 392.3 205.3 393.2 206.7C394.094 208.013 395.134 209.221 396.3 210.3C398.3 212.1 399.1 211.7 399.9 208.2C400.2 207.2 400.6 206.4 400.9 206.4C401.7 206.4 406.3 211.3 406.9 212.9L407.6 214.5L408.1 212.7C408.7 210.5 409.4 210.5 410.4 212.5C410.8 213.3 412.8 215.1 414.8 216.3L418.5 218.7L419.2 216.3C419.6 215 420.2 214.3 420.4 214.7C420.8 215.2 419.8 219.2 419.1 220C419.1 220.1 417.8 219.4 416.5 218.5L414 216.7V219.9C414 221.6 413.8 223.7 413.6 224.5C413.1 226.1 411.9 226.5 411.9 225.1H412ZM393.5 199.7C389.1 196.1 388.5 195.3 388.5 193.5L388.6 191.7L388.9 193.4C389.1 194.4 390.3 196 391.7 197.2L394.3 199.2L395.8 197.4C396.7 196.4 397.4 195.2 397.4 194.8C397.4 193.6 397.6 193.7 400.6 196.3C403.2 198.6 403.3 198.6 403.6 197.1C403.9 196.3 403.8 194.7 403.6 193.6C402.6 190.6 402.8 190.2 404.1 192L406.5 194.8C407.5 195.9 407.6 195.9 408 194.5C408.3 193.6 408.5 192.1 408.5 191.1V189.2L410.8 191.9C413.1 194.5 413.3 194.6 413.9 193.3C414.4 192.6 414.7 190.9 414.7 189.6C414.7 187.8 414.9 187.4 415.3 188C416.1 189.2 415.6 192.2 414.2 194.8L413.2 196.8L411.9 194.7C410.2 192.1 409.6 192.1 408.6 194.9C407.6 197.6 406.9 197.8 405.9 195.7C405.3 194.4 405.1 194.6 404.7 197.4L404.2 200.4L401.2 198.1L398.2 195.8L396.7 197.3C396 198.2 395.4 199.3 395.4 199.7C395.4 200.7 394.6 200.7 393.5 199.7V199.7ZM432.5 186.1C431 184.7 429.9 183.3 430.1 183.1C430.4 182.8 430.6 182.7 430.7 182.9C431.668 183.931 432.669 184.932 433.7 185.9C437.1 189.5 436.4 189.6 432.6 186.1H432.5ZM380.5 180.7C379.1 178.7 379.2 177.5 381 175.3C382.2 173.8 382.8 173.6 385 173.9C386.5 174 389.6 175.3 391.9 176.7C395.224 178.686 399.028 179.723 402.9 179.7L401.2 176.9C399 173.6 399 173.2 401.6 175.2C404.2 177.3 407.3 177.9 414.3 177.7L417.7 177.6L415.7 175.6C413 172.9 413.8 172.6 416.9 175.3C419.7 177.8 419.6 178 413.5 178.6C410.956 178.857 408.388 178.688 405.9 178.1C402.5 177.1 402.3 177.2 403 178.3C403.4 179 404 179.5 404.3 179.5C404.7 179.5 405 179.9 405 180.3C405 181.6 397.6 180.4 394 178.7C386 174.6 385 174.2 383 174.8C382.467 175.005 381.981 175.314 381.569 175.709C381.157 176.104 380.827 176.576 380.6 177.1C379.3 180.4 384 183 385.9 180.1C386.5 179.2 386.4 178.7 385.4 177.6C384 176.2 384.2 176 386 176.6C387.3 177.1 387.4 180.2 386.2 181.4C384.9 182.7 381.7 182.4 380.5 180.7Z" fill="black"/>
    <path d="M412.4 172.6C411.4 171.6 412.2 171.4 416.7 171.3C422.3 171.2 425.7 170.3 429.7 167.7C432.9 165.7 433.8 166.1 430.7 168.2C428 170.2 423.7 171.6 419.4 172L414.3 172.7C413.5 172.9 412.6 172.8 412.3 172.6H412.4Z" fill="black"/>
  </g>
  <defs>
    <clipPath id="clip0_6_2734">
      <rect width="640" height="480" fill="white"/>
    </clipPath>
  </defs>
</svg>
