<svg width="640" height="480" viewBox="0 0 640 480" fill="none" xmlns="http://www.w3.org/2000/svg">
  <g clip-path="url(#clip0_6_2760)">
    <path d="M640 480V0H0V480H640Z" fill="#002868"/>
    <path d="M590 174.6V264.6C590 324.6 560 389.2 485 424.2C410 389.2 380 324.6 380 264.6V174.6H590Z" fill="#FCD116" stroke="black" stroke-width="8"/>
    <path d="M590 174.6V264.6C590 324.6 560 389.2 485 424.2C410 389.2 380 324.6 380 264.6V174.6H590Z" stroke="white" stroke-width="7"/>
    <path d="M447.1 273.7C444.4 278.4 439.7 279.4 436.1 277.9C432.4 276.4 429 267.6 425.2 262.9C421.6 258.2 420.6 260.2 418.2 257.5C414.702 254.299 410.631 251.788 406.2 250.1C402.9 248.6 399.5 247.2 397.2 241.5C398.214 239.195 400.076 237.369 402.4 236.4C404.3 235.7 405.8 233 406 230.6C406.3 228.4 408.3 225.9 411 224C409.7 224.2 407.1 223.7 405.9 222.9C404.8 221.9 402.9 222.1 401.8 222.9C400.6 223.7 399.2 223.9 397.2 223.7C398 223.1 399.4 221.7 399.5 220.5C399.6 219.3 401.1 218.6 404 218.6C406.8 218.6 408.6 215.4 410.9 215.4C409.3 215.4 409.6 212.6 410.5 212.4C406.5 211.7 407 208.4 408.6 208.4C408.5 208 408 207.4 406.1 206.9C404.4 206.2 405.2 204.6 406.6 203.6C405.4 201.1 406.5 199.2 408.5 197.6C405.7 197.5 408.8 193.6 409.5 191.5C410.3 189.5 410.6 189.2 411.5 190.5C412.5 191.6 414.8 194.2 417.4 195C419.9 195.7 421.4 197.1 421.9 199.2C422.4 201.5 423.4 202.6 426.1 203.6C429 204.5 432.9 206.9 432.4 212.2C434.6 212.4 436.3 213 437.6 214.1" fill="#FCAD56"/>
    <path d="M447.1 273.7C444.4 278.4 439.7 279.4 436.1 277.9C432.4 276.4 429 267.6 425.2 262.9C421.6 258.2 420.6 260.2 418.2 257.5C414.702 254.299 410.631 251.788 406.2 250.1C402.9 248.6 399.5 247.2 397.2 241.5C398.214 239.195 400.076 237.369 402.4 236.4C404.3 235.7 405.8 233 406 230.6C406.3 228.4 408.3 225.9 411 224C409.7 224.2 407.1 223.7 405.9 222.9C404.8 221.9 402.9 222.1 401.8 222.9C400.6 223.7 399.2 223.9 397.2 223.7C398 223.1 399.4 221.7 399.5 220.5C399.6 219.3 401.1 218.6 404 218.6C406.8 218.6 408.6 215.4 410.9 215.4C409.3 215.4 409.6 212.6 410.5 212.4C406.5 211.7 407 208.4 408.6 208.4C408.5 208 408 207.4 406.1 206.9C404.4 206.2 405.2 204.6 406.6 203.6C405.4 201.1 406.5 199.2 408.5 197.6C405.7 197.5 408.8 193.6 409.5 191.5C410.3 189.5 410.6 189.2 411.5 190.5C412.5 191.6 414.8 194.2 417.4 195C419.9 195.7 421.4 197.1 421.9 199.2C422.4 201.5 423.4 202.6 426.1 203.6C429 204.5 432.9 206.9 432.4 212.2C434.6 212.4 436.3 213 437.6 214.1" stroke="black" stroke-width="0.275" stroke-linecap="round" stroke-linejoin="round"/>
    <path d="M454 206C453.988 207.234 454.262 208.453 454.8 209.563C455.338 210.674 456.125 211.644 457.1 212.4C459 213.9 460.6 215.1 460.2 217C459.9 219 460.6 220.2 462.2 221.5C464 222.7 465.2 224.2 464.8 226.7C464.4 229.2 464.6 230.7 465.6 232.6C466.6 234.5 468.4 236 467.6 239C466.8 242 467.2 246 468.2 248C469.2 249.9 468.2 251.4 466.5 254.7C464.7 258 463.7 259.2 460.1 260.5C456.4 261.6 456.1 263.9 456.1 267.7C456.1 271.7 453.5 273.7 448.6 273C443.6 277.1 440.5 272.2 439.2 266.1C437.9 260 437.8 253.3 430.4 248C423.1 242.5 426 233.2 432.1 229.5C438.2 225.9 437.5 215.1 436.7 208.5C436.1 201.9 440.5 198.1 443.9 194.5C448.4 196.2 454 203.1 454 206V206Z" fill="#FFA1A1" stroke="black" stroke-width="0.275" stroke-linecap="round" stroke-linejoin="round"/>
    <path d="M443.4 248.6C442 245.4 440.5 242.1 444.1 235.1C447.9 228 445.5 222.6 444.4 219C443.3 215.5 443 212.2 444.4 210.7C445.9 209.4 446.5 208.5 446.6 206.1C446.7 203.9 448.6 204.6 448.9 205.7C449.2 206.8 449.4 208.7 447.4 212.1C445.4 215.6 453 224.1 449.5 233.2C447.1 239.6 450.3 247.7 451.5 253.4C452.7 259.1 453.5 272.4 445.2 274.4C450.9 271.7 445.6 253.9 443.4 248.6V248.6Z" fill="#F1B2DC" stroke="black" stroke-width="0.275" stroke-linecap="round" stroke-linejoin="round"/>
    <path d="M406.3 247.6C407.6 247.9 408.3 247.1 408.7 246.2C409.1 245.3 409.4 244.9 410.7 244.7C411.9 244.7 413.9 244.4 414.4 243.4C414.8 242.4 416.3 243.2 417.6 240.7C418.9 238.1 419.7 235.1 423.1 234M432.4 212.2C431.1 212.2 427.5 212.4 426 215.6M415.6 196.7C418.6 197.6 417.4 199.6 418.9 200.7C421.6 202.9 419.1 205.1 421.4 205.7C423.7 206.3 423.5 206.7 423 209.2C422.2 212.1 425 212.2 424 214.1M411 224C412.8 222.4 417.1 221.1 418.1 219.4M410.9 215.4C413.5 215.2 417 216.2 417.5 215.2M410.5 212.5C411.8 212.5 414.4 211.6 414.9 209.9M408.6 208.5C410.1 208.5 412 208.4 413.9 207M406.6 203.6C407.7 202.7 409.7 203.7 411.6 202.5M408.5 197.6C409.4 197.6 411.3 197.4 411.3 198.5" stroke="black" stroke-width="0.275" stroke-linecap="round" stroke-linejoin="round"/>
    <path d="M528.125 220.475C528.125 220.475 519.375 213.1 512.125 208.1C504.875 203.1 496.125 196.975 496.125 195.725C497.5 194.725 504.875 199.475 515 205.6C525.25 211.85 531 217.975 531 217.975L528.125 220.475ZM527.5 225.475C527.5 225.475 519 220.35 510.625 216.725C501.875 213.1 488.75 213.1 487.375 211.85C487.375 210.6 502.625 209.85 513.5 214.225C524.625 219.35 530.375 222.975 530.375 222.975L527.5 225.475ZM527.375 233.975C527.375 233.975 518.125 229.725 509.125 227.725C500.375 225.725 487.875 226.475 486.375 225.35C486.375 224.1 501.875 221.6 513.5 225.35C525.25 228.975 530.25 231.475 530.25 231.475L527.375 233.975ZM526.875 242.6C526.875 242.6 519.875 237.85 510.625 236.85C501.875 235.975 490.25 242.6 488.75 241.35C488.75 240.1 498.875 232.725 511.5 233.975C523.875 235.225 529.75 240.1 529.75 240.1L526.875 242.6ZM529.75 215.35C529.75 215.35 520.875 207.225 520.875 201.725C520.875 196.85 526.25 189.35 528.625 189.35C527.375 191.85 523.25 196.85 523.25 201.725C523.25 206.725 532.625 212.85 532.625 212.85L529.75 215.35Z" fill="#9E540A" stroke="black" stroke-width="0.275" stroke-linecap="round" stroke-linejoin="round"/>
    <path d="M529.75 215.35C529.75 215.35 531.5 207.225 531.5 201.725C531.5 194.35 526.25 187.6 526.75 185.725C528.625 187.6 533.875 193.1 533.875 201.725C533.875 209.225 532.625 212.85 532.625 212.85L529.75 215.35Z" fill="#9E540A" stroke="black" stroke-width="0.275" stroke-linecap="round" stroke-linejoin="round"/>
    <path d="M531.875 212.725C531.875 210.35 531 208.225 529.5 206.6C527.5 204.225 524.5 203.475 521.375 203.975C517.625 204.6 514.625 206.85 512.75 210.35C510.25 214.975 510 219.975 509.875 224.85C509.875 241.725 510.5 248.6 511 265.225C511.125 270.1 512 280.1 509.75 287.975C508.875 291.35 507.875 294.475 506.375 297.725C507.375 293.6 507.875 291.475 508.375 288.35C509.75 280.225 509.375 272.6 509.125 265.1C508.625 249.725 507.75 241.85 507.25 223.225C507.125 217.6 507.625 213.35 510.25 208.85C513 204.225 517.75 200.85 523.125 200.85C525.375 200.85 527.25 201.225 529.125 202.35C532.875 204.35 534.625 208.475 534.625 212.6L531.875 212.725Z" fill="#9E540A" stroke="#FCD116" stroke-width="1.5" stroke-linecap="round" stroke-linejoin="round"/>
    <path d="M531.875 212.725C531.875 210.35 531 208.225 529.5 206.6C527.5 204.225 524.5 203.475 521.375 203.975C517.625 204.6 514.625 206.85 512.75 210.35C510.25 214.975 510 219.975 509.875 224.85C509.875 241.725 510.5 248.6 511 265.225C511.125 270.1 512 280.1 509.75 287.975C508.875 291.35 507.875 294.475 506.375 297.725C507.375 293.6 507.875 291.475 508.375 288.35C509.75 280.225 509.375 272.6 509.125 265.1C508.625 249.725 507.75 241.85 507.25 223.225C507.125 217.6 507.625 213.35 510.25 208.85C513 204.225 517.75 200.85 523.125 200.85C525.375 200.85 527.25 201.225 529.125 202.35C532.875 204.35 534.625 208.475 534.625 212.6L531.875 212.725Z" fill="#9E540A"/>
    <path d="M532.625 272.975C532.625 272.975 529.125 279.225 526.5 283.725C523.875 288.225 521.75 289.225 519.75 287.85C517.875 286.475 519.5 282.85 521 281.1C522.5 279.35 530.875 271.225 530.875 271.225L532.625 272.975Z" fill="#9E540A" stroke="black" stroke-width="0.275" stroke-linecap="round" stroke-linejoin="round"/>
    <path d="M533.5 273.475C533.5 273.475 532.125 280.6 531 285.725C530 290.85 528.25 292.6 526.125 291.975C523.875 291.475 524.25 287.35 525.125 285.225C526 283.1 531.25 272.35 531.25 272.35L533.5 273.475Z" fill="#9E540A" stroke="black" stroke-width="0.275" stroke-linecap="round" stroke-linejoin="round"/>
    <path d="M535 273.725V286.225C535 291.475 533.75 293.6 531.375 293.475C529.125 293.35 528.625 289.35 529.125 286.975C529.5 284.725 532.625 273.1 532.625 273.1L535 273.725Z" fill="#9E540A" stroke="black" stroke-width="0.275" stroke-linecap="round" stroke-linejoin="round"/>
    <path d="M541.875 220.475C541.875 220.475 550.625 213.1 557.875 208.1C565.125 203.1 573.875 196.975 573.875 195.725C572.5 194.725 565.125 199.475 555 205.6C544.75 211.85 539 217.975 539 217.975L541.875 220.475ZM542.5 225.475C542.5 225.475 551 220.35 559.375 216.725C568.125 213.1 581.25 213.1 582.625 211.85C582.625 210.6 567.375 209.85 556.5 214.225C545.375 219.35 539.625 222.975 539.625 222.975L542.5 225.475ZM542.625 233.975C542.625 233.975 551.875 229.725 560.875 227.725C569.625 225.725 582.125 226.475 583.625 225.35C583.625 224.1 568.125 221.6 556.5 225.35C544.75 228.975 539.75 231.475 539.75 231.475L542.625 233.975ZM543.125 242.6C543.125 242.6 550.125 237.85 559.375 236.85C568.125 235.975 579.75 242.6 581.25 241.35C581.25 240.1 571.125 232.725 558.5 233.975C546.125 235.225 540.25 240.1 540.25 240.1L543.125 242.6ZM540.25 215.35C540.25 215.35 549.125 207.225 549.125 201.725C549.125 196.85 543.75 189.35 541.375 189.35C542.625 191.85 546.75 196.85 546.75 201.725C546.75 206.725 537.375 212.85 537.375 212.85L540.25 215.35Z" fill="#9E540A" stroke="black" stroke-width="0.275" stroke-linecap="round" stroke-linejoin="round"/>
    <path d="M540.25 215.35C540.25 215.35 538.5 207.225 538.5 201.725C538.5 194.35 543.75 187.6 543.25 185.725C541.375 187.6 536.125 193.1 536.125 201.725C536.125 209.225 537.375 212.85 537.375 212.85L540.25 215.35Z" fill="#9E540A" stroke="black" stroke-width="0.275" stroke-linecap="round" stroke-linejoin="round"/>
    <path d="M538.125 212.725C538.125 210.35 539 208.225 540.5 206.6C542.5 204.225 545.5 203.475 548.625 203.975C552.375 204.6 555.375 206.85 557.25 210.35C559.75 214.975 560 219.975 560.125 224.85C560.125 241.725 559.5 248.6 559 265.225C558.875 270.1 558 280.1 560.25 287.975C561.125 291.35 562.125 294.475 563.625 297.725C562.625 293.6 562.125 291.475 561.625 288.35C560.25 280.225 560.625 272.6 560.875 265.1C561.375 249.725 562.25 241.85 562.75 223.225C562.875 217.6 562.375 213.35 559.75 208.85C557 204.225 552.25 200.85 546.875 200.85C544.625 200.85 542.75 201.225 540.875 202.35C537.125 204.35 535.375 208.475 535.375 212.6L538.125 212.725Z" fill="#9E540A" stroke="#FCD116" stroke-width="1.5" stroke-linecap="round" stroke-linejoin="round"/>
    <path d="M538.125 212.725C538.125 210.35 539 208.225 540.5 206.6C542.5 204.225 545.5 203.475 548.625 203.975C552.375 204.6 555.375 206.85 557.25 210.35C559.75 214.975 560 219.975 560.125 224.85C560.125 241.725 559.5 248.6 559 265.225C558.875 270.1 558 280.1 560.25 287.975C561.125 291.35 562.125 294.475 563.625 297.725C562.625 293.6 562.125 291.475 561.625 288.35C560.25 280.225 560.625 272.6 560.875 265.1C561.375 249.725 562.25 241.85 562.75 223.225C562.875 217.6 562.375 213.35 559.75 208.85C557 204.225 552.25 200.85 546.875 200.85C544.625 200.85 542.75 201.225 540.875 202.35C537.125 204.35 535.375 208.475 535.375 212.6L538.125 212.725Z" fill="#9E540A"/>
    <path d="M537.375 272.975C537.375 272.975 540.875 279.225 543.5 283.725C546.125 288.225 548.25 289.225 550.25 287.85C552.125 286.475 550.5 282.85 549 281.1C547.5 279.35 539.125 271.225 539.125 271.225L537.375 272.975Z" fill="#9E540A" stroke="black" stroke-width="0.275" stroke-linecap="round" stroke-linejoin="round"/>
    <path d="M536.5 273.475C536.5 273.475 537.875 280.6 539 285.725C540 290.85 541.75 292.6 543.875 291.975C546.125 291.475 545.75 287.35 544.875 285.225C544 283.1 538.75 272.35 538.75 272.35L536.5 273.475Z" fill="#9E540A" stroke="black" stroke-width="0.275" stroke-linecap="round" stroke-linejoin="round"/>
    <path d="M535 273.725V286.225C535 291.475 536.25 293.6 538.625 293.475C540.875 293.35 541.375 289.35 540.875 286.975C540.5 284.725 537.375 273.1 537.375 273.1L535 273.725Z" fill="#9E540A" stroke="black" stroke-width="0.275" stroke-linecap="round" stroke-linejoin="round"/>
    <path d="M535 273.6C528.375 273.475 527.75 271.1 527.75 271.1C527.75 271.1 526.875 268.1 526.75 266.225C526.625 265.975 524.875 262.225 525.375 260.6C524.75 259.1 523.25 255.475 524.625 254.85C524 253.1 523 251.1 522.875 249.225C522.375 247.85 521.125 244.85 522.125 243.85C522.125 243.85 519.75 238.85 520.875 237.6C520.875 237.6 519.75 232.725 520.875 231.475C520.875 231.475 520.875 226.475 522.125 225.225C522.125 225.225 522.125 220.35 523.25 219.1C523.25 219.35 526.75 212.225 535 212.225L534.875 222.85H535V273.6Z" fill="#9E540A" stroke="black" stroke-width="0.275" stroke-linecap="round" stroke-linejoin="round"/>
    <path d="M535 246.35C524.375 246.225 522.125 243.85 522.125 243.85M535 240.1C524.375 240.1 520.875 237.6 520.875 237.6M535 233.975C524.375 233.85 520.875 231.475 520.875 231.475M535 227.725C524.375 227.6 522.125 225.225 522.125 225.225M534.875 222.85C535 222.85 526.875 222.85 525.625 221.6L523.25 219.225M535 268.6C531.875 268.6 528.375 268.1 526.75 266.225M535 263.6C529.125 263.6 525.625 261.225 525.625 261.225C525.625 261.225 525.5 260.975 525.375 260.6M535 257.475C527.25 257.35 525.125 255.725 524.625 254.85M535 252.475C524.375 252.475 523.25 249.975 523.25 249.975L522.875 249.225" stroke="black" stroke-width="0.275" stroke-linecap="round" stroke-linejoin="round"/>
    <path d="M535 273.6C541.625 273.475 542.25 271.1 542.25 271.1C542.25 271.1 543.125 268.1 543.25 266.225C543.375 265.975 545.125 262.225 544.625 260.6C545.25 259.1 546.75 255.475 545.375 254.85C546 253.1 547 251.1 547.125 249.225C547.625 247.85 548.875 244.85 547.875 243.85C547.875 243.85 550.25 238.85 549.125 237.6C549.125 237.6 550.25 232.725 549.125 231.475C549.125 231.475 549.125 226.475 547.875 225.225C547.875 225.225 547.875 220.35 546.75 219.1C546.75 219.35 543.25 212.225 535 212.225L535.125 222.85H535V273.6Z" fill="#9E540A" stroke="black" stroke-width="0.275" stroke-linecap="round" stroke-linejoin="round"/>
    <path d="M535 246.35C545.625 246.225 547.875 243.85 547.875 243.85M535 240.1C545.625 240.1 549.125 237.6 549.125 237.6M535 233.975C545.625 233.85 549.125 231.475 549.125 231.475M535 227.725C545.625 227.6 547.875 225.225 547.875 225.225M535.125 222.85C535 222.85 543.125 222.85 544.375 221.6L546.75 219.225M535 268.6C538.125 268.6 541.625 268.1 543.25 266.225M535 263.6C540.875 263.6 544.375 261.225 544.375 261.225C544.375 261.225 544.5 260.975 544.625 260.6M535 257.475C542.75 257.35 544.875 255.725 545.375 254.85M535 252.475C545.625 252.475 546.75 249.975 546.75 249.975L547.125 249.225" stroke="black" stroke-width="0.275" stroke-linecap="round" stroke-linejoin="round"/>
    <path d="M485 388.6C479.625 393.6 469.25 390.35 466 388.1C462.625 389.225 453.625 385.725 451.25 381.85C444.75 382.725 442.5 373.475 443.625 371.1C445.375 367.6 442.25 365.35 444.5 362.975C447.625 359.975 442.75 357.1 445.75 355.1C448.75 352.975 445 349.475 448 347.225C451.125 344.85 446.375 341.6 449.625 339.975C452.875 338.35 449.25 334.1 452 332.475C454.75 330.85 450.375 326.725 454.125 324.85C457.75 322.975 454.5 319.725 457.375 318.35C460.5 316.725 457.625 313.35 460.5 312.225C463.75 310.85 461.375 307.225 464.125 306.225C466.5 305.35 465 303.1 466.5 301.1H485" fill="#009E49"/>
    <path d="M485 388.6C479.625 393.6 469.25 390.35 466 388.1C462.625 389.225 453.625 385.725 451.25 381.85C444.75 382.725 442.5 373.475 443.625 371.1C445.375 367.6 442.25 365.35 444.5 362.975C447.625 359.975 442.75 357.1 445.75 355.1C448.75 352.975 445 349.475 448 347.225C451.125 344.85 446.375 341.6 449.625 339.975C452.875 338.35 449.25 334.1 452 332.475C454.75 330.85 450.375 326.725 454.125 324.85C457.75 322.975 454.5 319.725 457.375 318.35C460.5 316.725 457.625 313.35 460.5 312.225C463.75 310.85 461.375 307.225 464.125 306.225C466.5 305.35 465 303.1 466.5 301.1H485" stroke="black" stroke-width="0.275" stroke-linecap="round" stroke-linejoin="round"/>
    <path d="M472.625 301.85C470.125 304.35 473.125 306.225 470.625 309.225C468 312.35 470.375 313.975 468.25 316.725C466.125 319.475 469.25 320.85 466.875 323.975C464.5 326.975 467.375 328.85 464.75 331.35C462.25 333.975 465.25 336.225 462.625 338.975C460.125 341.85 463.125 343.725 460.625 346.225C458 348.85 461 351.6 458.5 354.1C456 356.725 459 359.975 456.125 362.975C453.375 365.975 456.625 368.35 454.375 370.6C452 372.975 454.125 375.35 452.5 376.975C450.875 378.6 450.625 380.85 451.25 381.85M477.5 302.725C475.25 305.85 478.75 307.225 476.625 309.725C474.5 312.35 477.5 313.225 475.875 316.225C474.25 319.225 477.125 319.975 475 322.975C472.875 325.975 476.125 328.35 473.875 331.35C471.5 334.35 475 335.975 472.875 338.975C470.875 342.1 473.875 343.725 472 345.975C470.125 348.35 473.375 350.6 471 353.475C468.75 356.225 472 358.35 470.125 360.85C468.25 363.475 470.875 366.225 469.25 368.35C467.625 370.35 470.375 373.475 468 376.225C465.75 378.975 468.5 380.85 467.125 382.725C465.75 384.6 464.625 387.35 466 388.1" stroke="black" stroke-width="0.275" stroke-linecap="round" stroke-linejoin="round"/>
    <path d="M485 388.6C490.375 393.6 500.75 390.35 504 388.1C507.375 389.225 516.375 385.725 518.75 381.85C525.25 382.725 527.5 373.475 526.375 371.1C524.625 367.6 527.75 365.35 525.5 362.975C522.375 359.975 527.25 357.1 524.25 355.1C521.25 352.975 525 349.475 522 347.225C518.875 344.85 523.625 341.6 520.375 339.975C517.125 338.35 520.75 334.1 518 332.475C515.25 330.85 519.625 326.725 515.875 324.85C512.25 322.975 515.5 319.725 512.625 318.35C509.5 316.725 512.375 313.35 509.5 312.225C506.25 310.85 508.625 307.225 505.875 306.225C503.5 305.35 505 303.1 503.5 301.1H485" fill="#009E49"/>
    <path d="M485 388.6C490.375 393.6 500.75 390.35 504 388.1C507.375 389.225 516.375 385.725 518.75 381.85C525.25 382.725 527.5 373.475 526.375 371.1C524.625 367.6 527.75 365.35 525.5 362.975C522.375 359.975 527.25 357.1 524.25 355.1C521.25 352.975 525 349.475 522 347.225C518.875 344.85 523.625 341.6 520.375 339.975C517.125 338.35 520.75 334.1 518 332.475C515.25 330.85 519.625 326.725 515.875 324.85C512.25 322.975 515.5 319.725 512.625 318.35C509.5 316.725 512.375 313.35 509.5 312.225C506.25 310.85 508.625 307.225 505.875 306.225C503.5 305.35 505 303.1 503.5 301.1H485" stroke="black" stroke-width="0.275" stroke-linecap="round" stroke-linejoin="round"/>
    <path d="M497.375 301.85C499.875 304.35 496.875 306.225 499.375 309.225C502 312.35 499.625 313.975 501.75 316.725C503.875 319.475 500.75 320.85 503.125 323.975C505.5 326.975 502.625 328.85 505.25 331.35C507.75 333.975 504.75 336.225 507.375 338.975C509.875 341.85 506.875 343.725 509.375 346.225C512 348.85 509 351.6 511.5 354.1C514 356.725 511 359.975 513.875 362.975C516.625 365.975 513.375 368.35 515.625 370.6C518 372.975 515.875 375.35 517.5 376.975C519.125 378.6 519.375 380.85 518.75 381.85M492.5 302.725C494.75 305.85 491.25 307.225 493.375 309.725C495.5 312.35 492.5 313.225 494.125 316.225C495.75 319.225 492.875 319.975 495 322.975C497.125 325.975 493.875 328.35 496.125 331.35C498.5 334.35 495 335.975 497.125 338.975C499.125 342.1 496.125 343.725 498 345.975C499.875 348.35 496.625 350.6 499 353.475C501.25 356.225 498 358.35 499.875 360.85C501.75 363.475 499.125 366.225 500.75 368.35C502.375 370.35 499.625 373.475 502 376.225C504.25 378.975 501.5 380.85 502.875 382.725C504.25 384.6 505.375 387.35 504 388.1" stroke="black" stroke-width="0.275" stroke-linecap="round" stroke-linejoin="round"/>
    <path d="M485 388.6V301.1" stroke="#009E49" stroke-width="0.275" stroke-linecap="round" stroke-linejoin="round"/>
    <path d="M485 305.6C483.875 310.475 486.625 314.725 485 318.85C483.375 322.85 486.125 324.475 485.25 327.725C484.25 330.975 486.375 333.35 485 336.85C483.625 340.35 486.875 343.1 485 347.725C483.125 352.225 486.25 353.35 485 357.975C483.625 363.225 487.375 365.975 485 369.725C482.625 373.475 487.125 374.35 485.25 378.6C483.375 382.725 486.375 384.35 485 388.6" stroke="black" stroke-width="0.275" stroke-linecap="round" stroke-linejoin="round"/>
    <path d="M486.875 321.35C486.25 322.725 488.75 325.975 487.375 328.475C485.875 330.85 488.125 334.6 486.625 337.6C485.125 340.6 489 344.35 487.5 347.85C485.875 351.35 488.25 355.725 487.5 358.975C486.875 362.225 489.125 368.475 487.5 370.725C485.875 373.1 489.125 373.725 487.25 379.475C485.375 385.225 484.125 380.35 485.25 378.6C487.625 374.725 482.625 373.475 485 369.725C487.375 365.975 483.625 363.225 485 357.975C486.25 353.35 483.125 352.225 485 347.725C486.875 343.1 483.625 340.35 485 336.85C486.375 333.35 484.25 330.975 485.25 327.725C486.125 324.475 483.375 322.85 485 318.85C486.25 314.85 487.5 319.975 486.875 321.35ZM476.375 325.35C475.5 326.85 477.875 329.725 475.75 332.6C474.25 334.6 476.75 336.975 474.625 339.85C473.25 341.85 476 344.35 474.125 347.225C472.875 348.85 475 351.975 473.5 354.35C472 356.85 474.25 358.85 471.625 362.1C470.125 363.85 472.75 368.225 471.125 369.6C469.5 370.975 471 376.35 469.875 377.1C468.875 377.975 469.875 381.85 467.125 382.725C468.5 380.85 465.75 378.975 468 376.225C470.375 373.475 467.625 370.35 469.25 368.35C470.875 366.225 468.25 363.475 470.125 360.85C472 358.35 468.75 356.225 471 353.475C473.375 350.6 470.125 348.35 472 345.975C473.875 343.725 470.875 342.1 472.875 338.975C475 335.975 471.5 334.35 473.875 331.35C476.125 328.35 472.875 325.975 475 322.975C477.125 319.975 474.25 319.225 475.875 316.225C478.875 317.35 477.375 323.85 476.375 325.35ZM470.125 317.225C468.875 319.225 470.625 321.6 468.75 324.1C466.875 326.725 468.75 329.975 466.875 332.1C465 334.1 467.375 338.1 465 339.725C462.625 341.35 464.125 346.225 462.25 347.85C460.375 349.475 462.25 354.1 460.125 356.475C458 358.85 459 363.725 457.75 364.85C456.625 365.975 459.375 368.35 457.375 369.975C455.25 371.6 455.25 374.85 452.5 376.975C454.125 375.35 452 372.975 454.375 370.6C456.625 368.35 453.375 365.975 456.125 362.975C459 359.975 456 356.725 458.5 354.1C461 351.6 458 348.85 460.625 346.225C463.125 343.725 460.125 341.85 462.625 338.975C465.25 336.225 462.25 333.975 464.75 331.35C467.375 328.85 464.5 326.975 466.875 323.975C469.25 320.85 466.125 319.475 468.25 316.725C469.25 315.475 469.25 314.35 469.25 313.35C470.75 309.475 470.75 316.225 470.125 317.225Z" fill="#FCD116" stroke="black" stroke-width="0.275" stroke-linecap="round" stroke-linejoin="round"/>
    <path d="M467.625 303.975C467.625 277.725 471.25 268.6 485 268.6C498.75 268.6 502.375 277.725 502.375 303.975H467.625Z" fill="#CE1126" stroke="black" stroke-width="0.275" stroke-linecap="round" stroke-linejoin="round"/>
    <path d="M467.625 303.975C467.625 277.725 471.25 268.6 485 268.6C478.75 268.6 474.875 273.475 473.875 276.725C472.75 279.975 473.375 279.725 474.75 278.475C476.125 277.225 475.5 279.975 474.25 281.475C473.125 282.975 472 287.35 473.625 285.975C475.25 284.475 476.5 286.1 474.75 288.6C473 290.975 471.5 296.725 473.25 294.725C475 292.725 475.375 295.975 474.25 297.6C473.25 299.225 473.375 300.725 474.25 299.975C475.25 299.225 475.125 302.6 474.25 303.975H467.625ZM491.5 303.475C491.5 299.6 491.625 290.475 489.5 287.475C488 285.1 488 282.6 489.75 285.35C491.5 288.1 492.375 286.725 491.125 283.975C489.625 280.475 487.625 276.6 488.125 275.85C488.75 274.975 489.125 275.35 490.375 277.225C491.625 279.1 491.875 276.35 490.5 274.475C489.125 272.725 489.25 272.35 492.125 273.6C497.25 275.725 499.75 281.85 499.75 302.475L491.5 303.475Z" fill="black" stroke="black" stroke-width="0.275" stroke-linecap="round" stroke-linejoin="round"/>
    <path d="M485 307.725C479.5 307.725 473.5 306.85 469.5 305.225C464.75 303.35 464.5 301.725 466.125 299.725C467.375 298.225 469.875 299.1 472.375 300.225C474.75 301.225 481.5 301.975 485 301.975C488.5 301.975 495.25 301.225 497.625 300.1C500.125 299.1 502.625 298.225 503.875 299.725C505.5 301.725 505.25 303.35 500.5 305.225C496.5 306.85 490.5 307.725 485 307.725Z" fill="#CE1126" stroke="black" stroke-width="0.275" stroke-linecap="round" stroke-linejoin="round"/>
    <path d="M0 0H320V240H0V0Z" fill="#012169"/>
    <path d="M37.5 0L159.5 90.5L281 0H320V31L200 120.5L320 209.5V240H280L160 150.5L40.5 240H0V210L119.5 121L0 32V0H37.5Z" fill="white"/>
    <path d="M212 140.5L320 220V240L184.5 140.5H212ZM120 150.5L123 168L27 240H0L120 150.5ZM320 0V1.5L195.5 95.5L196.5 73.5L295 0H320ZM0 0L119.5 88H89.5L0 21V0Z" fill="#C8102E"/>
    <path d="M120.5 0V240H200.5V0H120.5ZM0 80V160H320V80H0Z" fill="white"/>
    <path d="M0 96.5V144.5H320V96.5H0ZM136.5 0V240H184.5V0H136.5Z" fill="#C8102E"/>
  </g>
  <defs>
    <clipPath id="clip0_6_2760">
      <rect width="640" height="480" fill="white"/>
    </clipPath>
  </defs>
</svg>
