<svg xmlns="http://www.w3.org/2000/svg" width="640" height="480" fill="none"><g clip-path="url(#a)"><path fill="#002868" d="M640 480V0H0v480z"/><path fill="#FCD116" stroke="#000" stroke-width="8" d="M590 174.6v90c0 60-30 124.6-105 159.6-75-35-105-99.6-105-159.6v-90z"/><path stroke="#fff" stroke-width="7" d="M590 174.6v90c0 60-30 124.6-105 159.6-75-35-105-99.6-105-159.6v-90z"/><path fill="#FCAD56" d="M447.1 273.7c-2.7 4.7-7.4 5.7-11 4.2-3.7-1.5-7.1-10.3-10.9-15-3.6-4.7-4.6-2.7-7-5.4a37.6 37.6 0 0 0-12-7.4c-3.3-1.5-6.7-2.9-9-8.6a9.8 9.8 0 0 1 5.2-5.1c1.9-.7 3.4-3.4 3.6-5.8.3-2.2 2.3-4.7 5-6.6-1.3.2-3.9-.3-5.1-1.1-1.1-1-3-.8-4.1 0-1.2.8-2.6 1-4.6.8.8-.6 2.2-2 2.3-3.2s1.6-1.9 4.5-1.9c2.8 0 4.6-3.2 6.9-3.2-1.6 0-1.3-2.8-.4-3-4-.7-3.5-4-1.9-4-.1-.4-.6-1-2.5-1.5-1.7-.7-.9-2.3.5-3.3-1.2-2.5-.1-4.4 1.9-6-2.8-.1.3-4 1-6.1.8-2 1.1-2.3 2-1 1 1.1 3.3 3.7 5.9 4.5q3.75 1.05 4.5 4.2c.5 2.3 1.5 3.4 4.2 4.4 2.9.9 6.8 3.3 6.3 8.6 2.2.2 3.9.8 5.2 1.9"/><path stroke="#000" stroke-linecap="round" stroke-linejoin="round" stroke-width=".275" d="M447.1 273.7c-2.7 4.7-7.4 5.7-11 4.2-3.7-1.5-7.1-10.3-10.9-15-3.6-4.7-4.6-2.7-7-5.4a37.6 37.6 0 0 0-12-7.4c-3.3-1.5-6.7-2.9-9-8.6a9.8 9.8 0 0 1 5.2-5.1c1.9-.7 3.4-3.4 3.6-5.8.3-2.2 2.3-4.7 5-6.6-1.3.2-3.9-.3-5.1-1.1-1.1-1-3-.8-4.1 0-1.2.8-2.6 1-4.6.8.8-.6 2.2-2 2.3-3.2s1.6-1.9 4.5-1.9c2.8 0 4.6-3.2 6.9-3.2-1.6 0-1.3-2.8-.4-3-4-.7-3.5-4-1.9-4-.1-.4-.6-1-2.5-1.5-1.7-.7-.9-2.3.5-3.3-1.2-2.5-.1-4.4 1.9-6-2.8-.1.3-4 1-6.1.8-2 1.1-2.3 2-1 1 1.1 3.3 3.7 5.9 4.5q3.75 1.05 4.5 4.2c.5 2.3 1.5 3.4 4.2 4.4 2.9.9 6.8 3.3 6.3 8.6 2.2.2 3.9.8 5.2 1.9"/><path fill="#FFA1A1" stroke="#000" stroke-linecap="round" stroke-linejoin="round" stroke-width=".275" d="M454 206a8.003 8.003 0 0 0 3.1 6.4c1.9 1.5 3.5 2.7 3.1 4.6-.3 2 .4 3.2 2 4.5 1.8 1.2 3 2.7 2.6 5.2s-.2 4 .8 5.9 2.8 3.4 2 6.4-.4 7 .6 9c1 1.9 0 3.4-1.7 6.7-1.8 3.3-2.8 4.5-6.4 5.8-3.7 1.1-4 3.4-4 7.2 0 4-2.6 6-7.5 5.3-5 4.1-8.1-.8-9.4-6.9s-1.4-12.8-8.8-18.1c-7.3-5.5-4.4-14.8 1.7-18.5 6.1-3.6 5.4-14.4 4.6-21-.6-6.6 3.8-10.4 7.2-14 4.5 1.7 10.1 8.6 10.1 11.5"/><path fill="#F1B2DC" stroke="#000" stroke-linecap="round" stroke-linejoin="round" stroke-width=".275" d="M443.4 248.6c-1.4-3.2-2.9-6.5.7-13.5 3.8-7.1 1.4-12.5.3-16.1-1.1-3.5-1.4-6.8 0-8.3 1.5-1.3 2.1-2.2 2.2-4.6.1-2.2 2-1.5 2.3-.4s.5 3-1.5 6.4c-2 3.5 5.6 12 2.1 21.1-2.4 6.4.8 14.5 2 20.2s2 19-6.3 21c5.7-2.7.4-20.5-1.8-25.8"/><path stroke="#000" stroke-linecap="round" stroke-linejoin="round" stroke-width=".275" d="M406.3 247.6c1.3.3 2-.5 2.4-1.4s.7-1.3 2-1.5c1.2 0 3.2-.3 3.7-1.3.4-1 1.9-.2 3.2-2.7 1.3-2.6 2.1-5.6 5.5-6.7m9.3-21.8c-1.3 0-4.9.2-6.4 3.4m-10.4-18.9c3 .9 1.8 2.9 3.3 4 2.7 2.2.2 4.4 2.5 5s2.1 1 1.6 3.5c-.8 2.9 2 3 1 4.9m-13 9.9c1.8-1.6 6.1-2.9 7.1-4.6m-7.2-4c2.6-.2 6.1.8 6.6-.2m-7-2.7c1.3 0 3.9-.9 4.4-2.6m-6.3-1.4c1.5 0 3.4-.1 5.3-1.5m-7.3-3.4c1.1-.9 3.1.1 5-1.1m-3.1-4.9c.9 0 2.8-.2 2.8.9"/><path fill="#9E540A" stroke="#000" stroke-linecap="round" stroke-linejoin="round" stroke-width=".275" d="M528.125 220.475s-8.75-7.375-16-12.375-16-11.125-16-12.375c1.375-1 8.75 3.75 18.875 9.875 10.25 6.25 16 12.375 16 12.375zm-.625 5s-8.5-5.125-16.875-8.75c-8.75-3.625-21.875-3.625-23.25-4.875 0-1.25 15.25-2 26.125 2.375 11.125 5.125 16.875 8.75 16.875 8.75zm-.125 8.5s-9.25-4.25-18.25-6.25c-8.75-2-21.25-1.25-22.75-2.375 0-1.25 15.5-3.75 27.125 0 11.75 3.625 16.75 6.125 16.75 6.125zm-.5 8.625s-7-4.75-16.25-5.75c-8.75-.875-20.375 5.75-21.875 4.5 0-1.25 10.125-8.625 22.75-7.375 12.375 1.25 18.25 6.125 18.25 6.125zm2.875-27.25s-8.875-8.125-8.875-13.625c0-4.875 5.375-12.375 7.75-12.375-1.25 2.5-5.375 7.5-5.375 12.375 0 5 9.375 11.125 9.375 11.125z"/><path fill="#9E540A" stroke="#000" stroke-linecap="round" stroke-linejoin="round" stroke-width=".275" d="M529.75 215.35s1.75-8.125 1.75-13.625c0-7.375-5.25-14.125-4.75-16 1.875 1.875 7.125 7.375 7.125 16 0 7.5-1.25 11.125-1.25 11.125z"/><path fill="#9E540A" stroke="#FCD116" stroke-linecap="round" stroke-linejoin="round" stroke-width="1.5" d="M531.875 212.725c0-2.375-.875-4.5-2.375-6.125-2-2.375-5-3.125-8.125-2.625-3.75.625-6.75 2.875-8.625 6.375-2.5 4.625-2.75 9.625-2.875 14.5 0 16.875.625 23.75 1.125 40.375.125 4.875 1 14.875-1.25 22.75-.875 3.375-1.875 6.5-3.375 9.75 1-4.125 1.5-6.25 2-9.375 1.375-8.125 1-15.75.75-23.25-.5-15.375-1.375-23.25-1.875-41.875-.125-5.625.375-9.875 3-14.375 2.75-4.625 7.5-8 12.875-8 2.25 0 4.125.375 6 1.5 3.75 2 5.5 6.125 5.5 10.25z"/><path fill="#9E540A" d="M531.875 212.725c0-2.375-.875-4.5-2.375-6.125-2-2.375-5-3.125-8.125-2.625-3.75.625-6.75 2.875-8.625 6.375-2.5 4.625-2.75 9.625-2.875 14.5 0 16.875.625 23.75 1.125 40.375.125 4.875 1 14.875-1.25 22.75-.875 3.375-1.875 6.5-3.375 9.75 1-4.125 1.5-6.25 2-9.375 1.375-8.125 1-15.75.75-23.25-.5-15.375-1.375-23.25-1.875-41.875-.125-5.625.375-9.875 3-14.375 2.75-4.625 7.5-8 12.875-8 2.25 0 4.125.375 6 1.5 3.75 2 5.5 6.125 5.5 10.25z"/><path fill="#9E540A" stroke="#000" stroke-linecap="round" stroke-linejoin="round" stroke-width=".275" d="M532.625 272.975s-3.5 6.25-6.125 10.75-4.75 5.5-6.75 4.125c-1.875-1.375-.25-5 1.25-6.75s9.875-9.875 9.875-9.875z"/><path fill="#9E540A" stroke="#000" stroke-linecap="round" stroke-linejoin="round" stroke-width=".275" d="M533.5 273.475s-1.375 7.125-2.5 12.25c-1 5.125-2.75 6.875-4.875 6.25-2.25-.5-1.875-4.625-1-6.75s6.125-12.875 6.125-12.875z"/><path fill="#9E540A" stroke="#000" stroke-linecap="round" stroke-linejoin="round" stroke-width=".275" d="M535 273.725v12.5c0 5.25-1.25 7.375-3.625 7.25-2.25-.125-2.75-4.125-2.25-6.5.375-2.25 3.5-13.875 3.5-13.875zM541.875 220.475s8.75-7.375 16-12.375 16-11.125 16-12.375c-1.375-1-8.75 3.75-18.875 9.875-10.25 6.25-16 12.375-16 12.375zm.625 5s8.5-5.125 16.875-8.75c8.75-3.625 21.875-3.625 23.25-4.875 0-1.25-15.25-2-26.125 2.375-11.125 5.125-16.875 8.75-16.875 8.75zm.125 8.5s9.25-4.25 18.25-6.25c8.75-2 21.25-1.25 22.75-2.375 0-1.25-15.5-3.75-27.125 0-11.75 3.625-16.75 6.125-16.75 6.125zm.5 8.625s7-4.75 16.25-5.75c8.75-.875 20.375 5.75 21.875 4.5 0-1.25-10.125-8.625-22.75-7.375-12.375 1.25-18.25 6.125-18.25 6.125zm-2.875-27.25s8.875-8.125 8.875-13.625c0-4.875-5.375-12.375-7.75-12.375 1.25 2.5 5.375 7.5 5.375 12.375 0 5-9.375 11.125-9.375 11.125z"/><path fill="#9E540A" stroke="#000" stroke-linecap="round" stroke-linejoin="round" stroke-width=".275" d="M540.25 215.35s-1.75-8.125-1.75-13.625c0-7.375 5.25-14.125 4.75-16-1.875 1.875-7.125 7.375-7.125 16 0 7.5 1.25 11.125 1.25 11.125z"/><path fill="#9E540A" stroke="#FCD116" stroke-linecap="round" stroke-linejoin="round" stroke-width="1.5" d="M538.125 212.725c0-2.375.875-4.5 2.375-6.125 2-2.375 5-3.125 8.125-2.625 3.75.625 6.75 2.875 8.625 6.375 2.5 4.625 2.75 9.625 2.875 14.5 0 16.875-.625 23.75-1.125 40.375-.125 4.875-1 14.875 1.25 22.75.875 3.375 1.875 6.5 3.375 9.75-1-4.125-1.5-6.25-2-9.375-1.375-8.125-1-15.75-.75-23.25.5-15.375 1.375-23.25 1.875-41.875.125-5.625-.375-9.875-3-14.375-2.75-4.625-7.5-8-12.875-8-2.25 0-4.125.375-6 1.5-3.75 2-5.5 6.125-5.5 10.25z"/><path fill="#9E540A" d="M538.125 212.725c0-2.375.875-4.5 2.375-6.125 2-2.375 5-3.125 8.125-2.625 3.75.625 6.75 2.875 8.625 6.375 2.5 4.625 2.75 9.625 2.875 14.5 0 16.875-.625 23.75-1.125 40.375-.125 4.875-1 14.875 1.25 22.75.875 3.375 1.875 6.5 3.375 9.75-1-4.125-1.5-6.25-2-9.375-1.375-8.125-1-15.75-.75-23.25.5-15.375 1.375-23.25 1.875-41.875.125-5.625-.375-9.875-3-14.375-2.75-4.625-7.5-8-12.875-8-2.25 0-4.125.375-6 1.5-3.75 2-5.5 6.125-5.5 10.25z"/><path fill="#9E540A" stroke="#000" stroke-linecap="round" stroke-linejoin="round" stroke-width=".275" d="M537.375 272.975s3.5 6.25 6.125 10.75 4.75 5.5 6.75 4.125c1.875-1.375.25-5-1.25-6.75s-9.875-9.875-9.875-9.875z"/><path fill="#9E540A" stroke="#000" stroke-linecap="round" stroke-linejoin="round" stroke-width=".275" d="M536.5 273.475s1.375 7.125 2.5 12.25c1 5.125 2.75 6.875 4.875 6.25 2.25-.5 1.875-4.625 1-6.75s-6.125-12.875-6.125-12.875z"/><path fill="#9E540A" stroke="#000" stroke-linecap="round" stroke-linejoin="round" stroke-width=".275" d="M535 273.725v12.5c0 5.25 1.25 7.375 3.625 7.25 2.25-.125 2.75-4.125 2.25-6.5-.375-2.25-3.5-13.875-3.5-13.875zM535 273.6c-6.625-.125-7.25-2.5-7.25-2.5s-.875-3-1-4.875c-.125-.25-1.875-4-1.375-5.625-.625-1.5-2.125-5.125-.75-5.75-.625-1.75-1.625-3.75-1.75-5.625-.5-1.375-1.75-4.375-.75-5.375 0 0-2.375-5-1.25-6.25 0 0-1.125-4.875 0-6.125 0 0 0-5 1.25-6.25 0 0 0-4.875 1.125-6.125 0 .25 3.5-6.875 11.75-6.875l-.125 10.625H535z"/><path stroke="#000" stroke-linecap="round" stroke-linejoin="round" stroke-width=".275" d="M535 246.35c-10.625-.125-12.875-2.5-12.875-2.5M535 240.1c-10.625 0-14.125-2.5-14.125-2.5M535 233.975c-10.625-.125-14.125-2.5-14.125-2.5m14.125-3.75c-10.625-.125-12.875-2.5-12.875-2.5m12.75-2.375c.125 0-8 0-9.25-1.25l-2.375-2.375M535 268.6c-3.125 0-6.625-.5-8.25-2.375M535 263.6c-5.875 0-9.375-2.375-9.375-2.375s-.125-.25-.25-.625m9.625-3.125c-7.75-.125-9.875-1.75-10.375-2.625M535 252.475c-10.625 0-11.75-2.5-11.75-2.5l-.375-.75"/><path fill="#9E540A" stroke="#000" stroke-linecap="round" stroke-linejoin="round" stroke-width=".275" d="M535 273.6c6.625-.125 7.25-2.5 7.25-2.5s.875-3 1-4.875c.125-.25 1.875-4 1.375-5.625.625-1.5 2.125-5.125.75-5.75.625-1.75 1.625-3.75 1.75-5.625.5-1.375 1.75-4.375.75-5.375 0 0 2.375-5 1.25-6.25 0 0 1.125-4.875 0-6.125 0 0 0-5-1.25-6.25 0 0 0-4.875-1.125-6.125 0 .25-3.5-6.875-11.75-6.875l.125 10.625H535z"/><path stroke="#000" stroke-linecap="round" stroke-linejoin="round" stroke-width=".275" d="M535 246.35c10.625-.125 12.875-2.5 12.875-2.5M535 240.1c10.625 0 14.125-2.5 14.125-2.5M535 233.975c10.625-.125 14.125-2.5 14.125-2.5M535 227.725c10.625-.125 12.875-2.5 12.875-2.5m-12.75-2.375c-.125 0 8 0 9.25-1.25l2.375-2.375M535 268.6c3.125 0 6.625-.5 8.25-2.375M535 263.6c5.875 0 9.375-2.375 9.375-2.375s.125-.25.25-.625M535 257.475c7.75-.125 9.875-1.75 10.375-2.625M535 252.475c10.625 0 11.75-2.5 11.75-2.5l.375-.75"/><path fill="#009E49" d="M485 388.6c-5.375 5-15.75 1.75-19-.5-3.375 1.125-12.375-2.375-14.75-6.25-6.5.875-8.75-8.375-7.625-10.75 1.75-3.5-1.375-5.75.875-8.125 3.125-3-1.75-5.875 1.25-7.875 3-2.125-.75-5.625 2.25-7.875 3.125-2.375-1.625-5.625 1.625-7.25s-.375-5.875 2.375-7.5-1.625-5.75 2.125-7.625c3.625-1.875.375-5.125 3.25-6.5 3.125-1.625.25-5 3.125-6.125 3.25-1.375.875-5 3.625-6 2.375-.875.875-3.125 2.375-5.125H485"/><path stroke="#000" stroke-linecap="round" stroke-linejoin="round" stroke-width=".275" d="M485 388.6c-5.375 5-15.75 1.75-19-.5-3.375 1.125-12.375-2.375-14.75-6.25-6.5.875-8.75-8.375-7.625-10.75 1.75-3.5-1.375-5.75.875-8.125 3.125-3-1.75-5.875 1.25-7.875 3-2.125-.75-5.625 2.25-7.875 3.125-2.375-1.625-5.625 1.625-7.25s-.375-5.875 2.375-7.5-1.625-5.75 2.125-7.625c3.625-1.875.375-5.125 3.25-6.5 3.125-1.625.25-5 3.125-6.125 3.25-1.375.875-5 3.625-6 2.375-.875.875-3.125 2.375-5.125H485"/><path stroke="#000" stroke-linecap="round" stroke-linejoin="round" stroke-width=".275" d="M472.625 301.85c-2.5 2.5.5 4.375-2 7.375-2.625 3.125-.25 4.75-2.375 7.5s1 4.125-1.375 7.25c-2.375 3 .5 4.875-2.125 7.375-2.5 2.625.5 4.875-2.125 7.625-2.5 2.875.5 4.75-2 7.25C458 348.85 461 351.6 458.5 354.1c-2.5 2.625.5 5.875-2.375 8.875-2.75 3 .5 5.375-1.75 7.625-2.375 2.375-.25 4.75-1.875 6.375s-1.875 3.875-1.25 4.875m26.25-79.125c-2.25 3.125 1.25 4.5-.875 7-2.125 2.625.875 3.5-.75 6.5s1.25 3.75-.875 6.75 1.125 5.375-1.125 8.375c-2.375 3 1.125 4.625-1 7.625-2 3.125 1 4.75-.875 7-1.875 2.375 1.375 4.625-1 7.5-2.25 2.75 1 4.875-.875 7.375-1.875 2.625.75 5.375-.875 7.5-1.625 2 1.125 5.125-1.25 7.875-2.25 2.75.5 4.625-.875 6.5s-2.5 4.625-1.125 5.375"/><path fill="#009E49" d="M485 388.6c5.375 5 15.75 1.75 19-.5 3.375 1.125 12.375-2.375 14.75-6.25 6.5.875 8.75-8.375 7.625-10.75-1.75-3.5 1.375-5.75-.875-8.125-3.125-3 1.75-5.875-1.25-7.875-3-2.125.75-5.625-2.25-7.875-3.125-2.375 1.625-5.625-1.625-7.25s.375-5.875-2.375-7.5 1.625-5.75-2.125-7.625c-3.625-1.875-.375-5.125-3.25-6.5-3.125-1.625-.25-5-3.125-6.125-3.25-1.375-.875-5-3.625-6-2.375-.875-.875-3.125-2.375-5.125H485"/><path stroke="#000" stroke-linecap="round" stroke-linejoin="round" stroke-width=".275" d="M485 388.6c5.375 5 15.75 1.75 19-.5 3.375 1.125 12.375-2.375 14.75-6.25 6.5.875 8.75-8.375 7.625-10.75-1.75-3.5 1.375-5.75-.875-8.125-3.125-3 1.75-5.875-1.25-7.875-3-2.125.75-5.625-2.25-7.875-3.125-2.375 1.625-5.625-1.625-7.25s.375-5.875-2.375-7.5 1.625-5.75-2.125-7.625c-3.625-1.875-.375-5.125-3.25-6.5-3.125-1.625-.25-5-3.125-6.125-3.25-1.375-.875-5-3.625-6-2.375-.875-.875-3.125-2.375-5.125H485"/><path stroke="#000" stroke-linecap="round" stroke-linejoin="round" stroke-width=".275" d="M497.375 301.85c2.5 2.5-.5 4.375 2 7.375 2.625 3.125.25 4.75 2.375 7.5s-1 4.125 1.375 7.25c2.375 3-.5 4.875 2.125 7.375 2.5 2.625-.5 4.875 2.125 7.625 2.5 2.875-.5 4.75 2 7.25C512 348.85 509 351.6 511.5 354.1c2.5 2.625-.5 5.875 2.375 8.875 2.75 3-.5 5.375 1.75 7.625 2.375 2.375.25 4.75 1.875 6.375s1.875 3.875 1.25 4.875m-26.25-79.125c2.25 3.125-1.25 4.5.875 7 2.125 2.625-.875 3.5.75 6.5s-1.25 3.75.875 6.75-1.125 5.375 1.125 8.375c2.375 3-1.125 4.625 1 7.625 2 3.125-1 4.75.875 7 1.875 2.375-1.375 4.625 1 7.5 2.25 2.75-1 4.875.875 7.375 1.875 2.625-.75 5.375.875 7.5 1.625 2-1.125 5.125 1.25 7.875 2.25 2.75-.5 4.625.875 6.5s2.5 4.625 1.125 5.375"/><path stroke="#009E49" stroke-linecap="round" stroke-linejoin="round" stroke-width=".275" d="M485 388.6v-87.5"/><path stroke="#000" stroke-linecap="round" stroke-linejoin="round" stroke-width=".275" d="M485 305.6c-1.125 4.875 1.625 9.125 0 13.25-1.625 4 1.125 5.625.25 8.875-1 3.25 1.125 5.625-.25 9.125s1.875 6.25 0 10.875c-1.875 4.5 1.25 5.625 0 10.25-1.375 5.25 2.375 8 0 11.75s2.125 4.625.25 8.875c-1.875 4.125 1.125 5.75-.25 10"/><path fill="#FCD116" stroke="#000" stroke-linecap="round" stroke-linejoin="round" stroke-width=".275" d="M486.875 321.35c-.625 1.375 1.875 4.625.5 7.125-1.5 2.375.75 6.125-.75 9.125s2.375 6.75.875 10.25c-1.625 3.5.75 7.875 0 11.125-.625 3.25 1.625 9.5 0 11.75-1.625 2.375 1.625 3-.25 8.75s-3.125.875-2-.875c2.375-3.875-2.625-5.125-.25-8.875s-1.375-6.5 0-11.75c1.25-4.625-1.875-5.75 0-10.25 1.875-4.625-1.375-7.375 0-10.875s-.75-5.875.25-9.125c.875-3.25-1.875-4.875-.25-8.875 1.25-4 2.5 1.125 1.875 2.5m-10.5 4c-.875 1.5 1.5 4.375-.625 7.25-1.5 2 1 4.375-1.125 7.25-1.375 2 1.375 4.5-.5 7.375-1.25 1.625.875 4.75-.625 7.125-1.5 2.5.75 4.5-1.875 7.75-1.5 1.75 1.125 6.125-.5 7.5s-.125 6.75-1.25 7.5c-1 .875 0 4.75-2.75 5.625 1.375-1.875-1.375-3.75.875-6.5 2.375-2.75-.375-5.875 1.25-7.875 1.625-2.125-1-4.875.875-7.5 1.875-2.5-1.375-4.625.875-7.375 2.375-2.875-.875-5.125 1-7.5 1.875-2.25-1.125-3.875.875-7 2.125-3-1.375-4.625 1-7.625 2.25-3-1-5.375 1.125-8.375s-.75-3.75.875-6.75c3 1.125 1.5 7.625.5 9.125m-6.25-8.125c-1.25 2 .5 4.375-1.375 6.875-1.875 2.625 0 5.875-1.875 8-1.875 2 .5 6-1.875 7.625s-.875 6.5-2.75 8.125 0 6.25-2.125 8.625-1.125 7.25-2.375 8.375c-1.125 1.125 1.625 3.5-.375 5.125-2.125 1.625-2.125 4.875-4.875 7 1.625-1.625-.5-4 1.875-6.375 2.25-2.25-1-4.625 1.75-7.625 2.875-3-.125-6.25 2.375-8.875 2.5-2.5-.5-5.25 2.125-7.875 2.5-2.5-.5-4.375 2-7.25 2.625-2.75-.375-5 2.125-7.625 2.625-2.5-.25-4.375 2.125-7.375 2.375-3.125-.75-4.5 1.375-7.25 1-1.25 1-2.375 1-3.375 1.5-3.875 1.5 2.875.875 3.875"/><path fill="#CE1126" stroke="#000" stroke-linecap="round" stroke-linejoin="round" stroke-width=".275" d="M467.625 303.975c0-26.25 3.625-35.375 17.375-35.375s17.375 9.125 17.375 35.375z"/><path fill="#000" stroke="#000" stroke-linecap="round" stroke-linejoin="round" stroke-width=".275" d="M467.625 303.975c0-26.25 3.625-35.375 17.375-35.375-6.25 0-10.125 4.875-11.125 8.125-1.125 3.25-.5 3 .875 1.75s.75 1.5-.5 3c-1.125 1.5-2.25 5.875-.625 4.5 1.625-1.5 2.875.125 1.125 2.625-1.75 2.375-3.25 8.125-1.5 6.125s2.125 1.25 1 2.875c-1 1.625-.875 3.125 0 2.375 1-.75.875 2.625 0 4zm23.875-.5c0-3.875.125-13-2-16-1.5-2.375-1.5-4.875.25-2.125s2.625 1.375 1.375-1.375c-1.5-3.5-3.5-7.375-3-8.125.625-.875 1-.5 2.25 1.375s1.5-.875.125-2.75c-1.375-1.75-1.25-2.125 1.625-.875 5.125 2.125 7.625 8.25 7.625 28.875z"/><path fill="#CE1126" stroke="#000" stroke-linecap="round" stroke-linejoin="round" stroke-width=".275" d="M485 307.725c-5.5 0-11.5-.875-15.5-2.5-4.75-1.875-5-3.5-3.375-5.5 1.25-1.5 3.75-.625 6.25.5 2.375 1 9.125 1.75 12.625 1.75s10.25-.75 12.625-1.875c2.5-1 5-1.875 6.25-.375 1.625 2 1.375 3.625-3.375 5.5-4 1.625-10 2.5-15.5 2.5"/><path fill="#012169" d="M0 0h320v240H0z"/><path fill="#fff" d="m37.5 0 122 90.5L281 0h39v31l-120 89.5 120 89V240h-40l-120-89.5L40.5 240H0v-30l119.5-89L0 32V0z"/><path fill="#C8102E" d="M212 140.5 320 220v20l-135.5-99.5zm-92 10 3 17.5-96 72H0zM320 0v1.5l-124.5 94 1-22L295 0zM0 0l119.5 88h-30L0 21z"/><path fill="#fff" d="M120.5 0v240h80V0zM0 80v80h320V80z"/><path fill="#C8102E" d="M0 96.5v48h320v-48zM136.5 0v240h48V0z"/></g><defs><clipPath id="a"><path fill="#fff" d="M0 0h640v480H0z"/></clipPath></defs></svg>