<svg width="640" height="480" viewBox="0 0 640 480" fill="none" xmlns="http://www.w3.org/2000/svg">
  <g clip-path="url(#clip0_6_1865)">
    <path fill-rule="evenodd" clip-rule="evenodd" d="M-0.0124512 0.0250244H640.113V480.025H-0.0124512V0.0250244Z" fill="white"/>
    <path fill-rule="evenodd" clip-rule="evenodd" d="M70.1185 145.814L136.7 45.9798L153.339 57.0767L86.7576 156.911L70.1185 145.814ZM95.0772 162.46L161.659 62.6251L178.298 73.722L111.716 173.557L95.0772 162.46ZM120.036 179.105L186.617 79.2705L203.256 90.3674L136.675 190.202L120.036 179.105Z" fill="black"/>
    <path fill-rule="evenodd" clip-rule="evenodd" d="M436.178 389.946L502.76 290.111L519.399 301.208L452.818 401.043L436.178 389.946ZM461.137 406.591L527.718 306.757L544.358 317.854L477.776 417.688L461.137 406.591ZM486.096 423.237L552.677 323.402L569.316 334.499L502.735 434.333L486.096 423.237Z" fill="black"/>
    <path fill-rule="evenodd" clip-rule="evenodd" d="M461.15 334.48L544.345 389.965Z" fill="black"/>
    <path d="M461.15 334.48L544.345 389.965" stroke="white" stroke-width="10"/>
    <path fill-rule="evenodd" clip-rule="evenodd" d="M219.883 173.575C237.541 147.098 264.995 128.719 296.204 122.483C327.413 116.247 359.821 122.664 386.299 140.322C412.777 157.981 431.155 185.434 437.391 216.643C443.627 247.852 437.21 280.26 419.552 306.738L219.883 173.575Z" fill="#CD2E3A"/>
    <path fill-rule="evenodd" clip-rule="evenodd" d="M219.883 173.575C202.224 200.053 195.807 232.461 202.044 263.67C208.28 294.879 226.658 322.333 253.136 339.991C279.614 357.65 312.022 364.067 343.231 357.83C374.44 351.594 401.893 333.216 419.552 306.738C428.381 293.499 431.59 277.295 428.472 261.691C425.353 246.086 416.164 232.359 402.925 223.53C389.686 214.701 373.482 211.492 357.878 214.61C342.273 217.728 328.547 226.918 319.717 240.157L219.883 173.575Z" fill="#0047A0"/>
    <path d="M319.717 240.157C338.103 212.588 330.659 175.335 303.091 156.949C275.522 138.563 238.269 146.007 219.883 173.575C201.497 201.144 208.941 238.397 236.509 256.783C264.078 275.169 301.331 267.725 319.717 240.157Z" fill="#CD2E3A"/>
    <path fill-rule="evenodd" clip-rule="evenodd" d="M136.975 434.372L70.3937 334.537L87.0328 323.44L153.614 423.275L136.975 434.372ZM161.934 417.726L95.3524 317.892L111.991 306.795L178.573 406.629L161.934 417.726ZM186.892 401.081L120.311 301.246L136.95 290.149L203.531 389.984L186.892 401.081Z" fill="black"/>
    <path fill-rule="evenodd" clip-rule="evenodd" d="M503.035 190.24L436.454 90.4055L453.093 79.3086L519.674 179.143L503.035 190.24ZM527.994 173.595L461.412 73.7601L478.051 62.6632L544.633 162.498L527.994 173.595ZM552.952 156.949L486.371 57.1148L503.01 46.0179L569.591 145.852L552.952 156.949Z" fill="black"/>
    <path fill-rule="evenodd" clip-rule="evenodd" d="M124.483 370.583L149.442 353.938ZM461.425 145.871L490.543 126.452ZM515.502 109.806L540.46 93.1608Z" fill="black"/>
    <path d="M124.483 370.583L149.442 353.938M461.425 145.871L490.543 126.452M515.502 109.806L540.46 93.1608" stroke="white" stroke-width="10"/>
  </g>
  <defs>
    <clipPath id="clip0_6_1865">
      <rect width="640" height="480" fill="white"/>
    </clipPath>
  </defs>
</svg>
